<svg width="37" height="38" viewBox="0 0 37 38" fill="none" xmlns="http://www.w3.org/2000/svg">
<circle cx="18.5" cy="18.7012" r="18.5" fill="#DFE3FF"/>
<path d="M27.5705 13.715C27.5705 13.2601 27.3923 12.8236 27.0706 12.5024C26.7489 12.1807 26.3133 12 25.858 12C25.4026 12 24.9671 12.1807 24.6454 12.5024C24.3237 12.8236 24.1455 13.2601 24.1455 13.715C24.1455 14.1693 24.3237 14.6059 24.6454 14.9271C24.9671 15.2488 25.4026 15.4294 25.858 15.4294C26.3133 15.4294 26.7489 15.2488 27.0706 14.9271C27.3923 14.6059 27.5705 14.1693 27.5705 13.715Z" fill="#40196D"/>
<path d="M28.5505 12.9744C28.3773 12.9734 28.2041 13.0268 28.0556 13.1283C27.9121 13.2298 27.7982 13.3738 27.7388 13.5401L26.6004 16.7379L24.1851 15.31C23.8783 15.1284 23.5219 15.0472 23.1656 15.0774C22.8142 15.1081 22.4776 15.2481 22.2054 15.4793L18.7507 18.4108L16.959 15.995C16.7165 15.6708 16.3354 15.4783 15.9345 15.4758C15.5286 15.4733 15.1475 15.6609 14.9 15.9817L12.7074 18.8582H10.4258C10.1239 18.8597 9.84175 19.0236 9.68832 19.2884C9.53488 19.5527 9.53488 19.8778 9.68832 20.1426C9.84175 20.4069 10.1239 20.5708 10.4258 20.5722H18.6022C19.2109 20.5722 19.8 20.355 20.2652 19.9595L23.7199 17.025L26.1798 18.4796C26.5114 18.6746 26.9073 18.7122 27.2686 18.5811C27.6299 18.4504 27.917 18.1648 28.0457 17.8035L29.3573 14.1152C29.4464 13.8539 29.4067 13.5644 29.2484 13.3377C29.09 13.1115 28.8277 12.9764 28.5505 12.9744ZM15.9196 17.4729L16.9491 18.8577H14.8654L15.9196 17.4729Z" fill="#40196D"/>
<path d="M8.17871 25.7156C9.67838 23.8764 11.9254 22.8093 14.2962 22.8093C16.667 22.8093 18.914 23.8764 20.4137 25.7156H19.2605C17.939 24.403 16.1572 23.6666 14.2962 23.6666C12.4352 23.6666 10.6534 24.403 9.33686 25.7156H8.17871Z" fill="#40196D"/>
<path d="M20.9038 21.0523C20.5969 21.2963 20.2208 21.4294 19.8298 21.4294H10.0003C9.05493 21.4294 8.12442 21.6229 7.25827 21.9986C7.0405 22.0936 6.94147 22.345 7.03551 22.5613C7.12955 22.7776 7.38198 22.8776 7.59975 22.785C8.35701 22.4559 9.17372 22.2866 10.0003 22.2866H19.8298C20.4138 22.2866 20.983 22.0867 21.4384 21.7209L25.0613 18.8151L24.2744 18.3489L20.9038 21.0523Z" fill="#40196D"/>
<path d="M30.1691 14.3784L29.793 15.446V15.4465C30.0899 15.3173 30.3918 15.2035 30.7036 15.1055C30.9264 15.0337 31.0501 14.7927 30.9808 14.567C30.9065 14.3413 30.669 14.2166 30.4413 14.2883C30.3522 14.3171 30.2632 14.3473 30.1691 14.3784Z" fill="#40196D"/>
</svg>
