<svg width="37" height="38" viewBox="0 0 37 38" fill="none" xmlns="http://www.w3.org/2000/svg">
<circle cx="18.5" cy="18.7012" r="18.5" fill="#DFE3FF"/>
<path fill-rule="evenodd" clip-rule="evenodd" d="M15.6607 14.0445L15.723 13L19.4413 13.2926L19.2952 16.9898L18.2507 16.9477L18.334 14.9635L12.7365 19.9557L12.0469 19.1622L17.6243 14.1906L15.6607 14.0445ZM26.8562 15.4022C26.8562 16.6247 25.8652 17.6162 24.6422 17.6162C23.4198 17.6162 22.4282 16.6247 22.4282 15.4022C22.4282 14.1793 23.4198 13.1877 24.6422 13.1877C25.8652 13.1877 26.8562 14.1793 26.8562 15.4022ZM27.9846 21.3134C27.9635 19.4754 26.4803 17.9922 24.6422 17.9922C22.8042 17.9922 21.321 19.4754 21.2999 21.3134C21.2793 21.3762 21.2793 21.4178 21.2793 21.4806V24.8646C21.2793 25.3033 21.6553 25.6792 22.0939 25.6792H27.1694C27.6292 25.6792 27.9841 25.3238 27.9841 24.8646L27.9846 21.4806C28.0051 21.4178 28.0051 21.3551 27.9846 21.3134ZM20.277 19.2455H15.6397V25.6998H20.277V19.2455ZM10 22.4623H14.6373V25.6787H10V22.4623Z" fill="#40196D"/>
</svg>
