<svg width="37" height="38" viewBox="0 0 37 38" fill="none" xmlns="http://www.w3.org/2000/svg">
<circle cx="18.5" cy="18.7012" r="18.5" fill="#DFE3FF"/>
<path fill-rule="evenodd" clip-rule="evenodd" d="M19.4346 9.39644V9.72799C21.3861 9.82399 23.2368 10.6253 24.6421 11.9831C26.0474 13.3408 26.9123 15.1626 27.0758 17.1097C26.4376 16.275 25.4478 15.7844 24.3972 15.7821C23.347 15.7804 22.355 16.2675 21.7141 17.0995C21.7572 17.0439 21.1812 16.5479 21.1199 16.4999C20.8857 16.3164 20.6283 16.1644 20.3541 16.0484C19.6697 15.735 18.8946 15.6804 18.1728 15.8937C17.4528 16.0861 16.8164 16.5097 16.3608 17.0995C15.72 16.2675 14.7284 15.7804 13.6782 15.7821C12.6275 15.7844 11.6378 16.275 11 17.1097C11.1636 15.1626 12.0284 13.3408 13.4338 11.9831C14.8391 10.6253 16.6897 9.82399 18.6412 9.72799V9.39644C18.6412 9.17733 18.819 9 19.0381 9C19.2568 9 19.4346 9.17733 19.4346 9.39644ZM15.5488 27.6705C14.6946 26.9056 14.1191 25.8785 13.9129 24.7509H13.9124C13.8906 24.6123 13.9431 24.4723 14.0506 24.3816C14.1582 24.2914 14.3057 24.2643 14.4386 24.3105C14.5711 24.3563 14.6702 24.4687 14.6991 24.6065C14.8524 25.4403 15.2444 26.2118 15.8279 26.8274L17.0955 24.9905C16.8044 24.9323 16.5359 24.7932 16.3199 24.5905C16.1035 24.3874 15.9484 24.1278 15.8719 23.8416L15.0199 20.6563C14.9022 20.2439 14.9546 19.8012 15.1662 19.4279C15.3777 19.055 15.7302 18.7821 16.1444 18.6714C16.5591 18.5608 17.0004 18.6208 17.3702 18.8386C17.7395 19.0568 18.0061 19.4137 18.1097 19.8297L18.639 21.8087L20.9888 21.7705C21.5599 21.7612 22.0928 22.0572 22.3865 22.5474C22.6803 23.0376 22.6901 23.6469 22.4128 24.1465C22.135 24.646 21.6123 24.9594 21.0408 24.9687L21.0181 24.9692L22.3136 26.7216C22.8768 26.0874 23.2434 25.3034 23.3696 24.4647C23.383 24.358 23.439 24.2612 23.5248 24.1958C23.611 24.1309 23.7194 24.1034 23.8261 24.1194C23.9323 24.1354 24.0279 24.1936 24.091 24.2812C24.1536 24.3687 24.1785 24.4776 24.1603 24.5838C23.9905 25.7176 23.4487 26.7629 22.6203 27.5549C22.5936 27.5993 22.5585 27.6385 22.5168 27.6691C22.5105 27.674 22.5034 27.6771 22.4963 27.6802C22.491 27.6829 22.4856 27.6851 22.4803 27.6882C21.5483 28.514 20.3519 28.9789 19.107 28.9993C17.8622 29.0193 16.6511 28.594 15.6928 27.7993C15.6875 27.7962 15.6822 27.794 15.6764 27.7913C15.6693 27.7887 15.6622 27.7856 15.6555 27.7811C15.6133 27.7518 15.5768 27.714 15.5488 27.6705ZM21.7257 27.2727L20.035 24.9852L18.0479 25.0176L16.4315 27.3589C17.2044 27.9202 18.1382 28.2153 19.0933 28.1998C20.0479 28.1842 20.9719 27.8589 21.7257 27.2727Z" fill="#40196D"/>
</svg>
