<svg width="168" height="191" viewBox="0 0 168 191" fill="none" xmlns="http://www.w3.org/2000/svg">
<path d="M84.1946 172.601C130.405 172.601 167.866 135.14 167.866 88.9292C167.866 42.7186 130.405 5.25757 84.1946 5.25757C37.984 5.25757 0.522949 42.7186 0.522949 88.9292C0.522949 135.14 37.984 172.601 84.1946 172.601Z" fill="#7B42A9"/>
<path d="M81.0505 0.938222C82.9429 0.290342 84.9517 -0.0465229 86.9605 0.00518341C91.8726 0.134708 96.6141 2.54551 99.8173 6.23915C101.242 7.87204 101.684 10.6456 103.16 12.0453C105.091 13.8596 107.553 13.6264 109.044 16.4C110.314 18.7456 110.743 21.4804 112.025 23.8131C114.267 27.8697 118.7 30.0988 122.379 32.9113C129.691 38.5101 134.706 47.2583 135.549 56.4341C135.859 59.7909 135.549 63.4845 133.279 65.9599C131.348 68.0724 128.147 69.174 127.24 71.8826C126.878 72.9325 126.942 74.0729 126.826 75.1745C126.306 80.4235 121.836 84.5967 116.873 86.3852C111.247 88.4069 105.792 87.6812 100.063 87.4478C94.3338 87.2146 88.7366 89.0548 83.0851 88.9511C77.6404 88.8607 71.9269 87.6942 66.4822 87.1238C64.6415 86.9424 62.4905 86.7092 60.9238 85.6463C59.2382 84.4801 59.3416 83.0155 58.3049 81.5768C56.3478 78.8811 51.371 78.0776 51.8778 73.7229C52.1363 71.5587 54.0029 69.9904 54.9491 68.0204C57.5267 62.6939 51.8493 58.7022 50.8773 53.803C49.5949 47.3878 54.1322 41.6725 54.3907 35.2699C54.5329 31.7965 54.2744 28.3102 54.6234 24.863C54.9879 21.2989 56.0892 17.4757 58.7443 14.9354C61.2599 12.5119 64.0986 12.5895 67.1699 11.6047C70.0344 10.6973 70.9936 8.85705 72.8731 6.62799C75.037 4.03595 77.8628 2.03982 81.0505 0.938222Z" fill="black"/>
<g opacity="0.2">
<path d="M75.7226 13.5876C76.2681 13.0173 76.8782 12.5119 77.5504 12.0972C80.3245 10.3862 83.9026 10.153 86.8059 11.6434C88.2433 12.3691 89.461 13.4708 90.3813 14.7929C91.3663 16.2184 91.8084 17.7867 92.0411 19.4845C92.1704 20.3916 92.2867 21.3247 92.7159 22.1411C93.1425 22.9578 93.8431 23.554 94.6316 23.9945C96.1363 24.8239 97.8607 25.1481 99.4015 25.8738C102.305 27.2347 104.572 29.7877 105.728 32.7557C106.297 34.2202 106.609 35.7885 106.581 37.3565C106.555 39.1711 106.271 40.9335 105.896 42.6833C105.505 44.5364 105.182 46.4676 105.663 48.3469C106.103 50.0705 107.165 51.5222 108.228 52.9348C109.226 54.2696 110.275 55.6176 110.885 57.1988C111.48 58.7151 111.69 60.3479 111.599 61.9679C111.364 65.5449 109.758 68.85 107.698 71.7011C105.299 75.0059 102.318 77.8443 99.8824 81.1104C97.4056 84.4281 95.3969 88.3681 95.6295 92.606C95.6295 92.7875 95.3581 92.7745 95.3452 92.593C95.2935 91.6512 95.3452 90.7138 95.5003 89.7807C96.8498 81.6675 104.21 76.7169 108.409 70.1719C110.275 67.2427 111.586 63.7435 111.299 60.2184C111.157 58.4687 110.56 56.8358 109.616 55.3583C108.735 53.9715 107.646 52.7145 106.752 51.3407C105.857 49.9539 105.247 48.4764 105.156 46.8174C105.066 45.068 105.467 43.3311 105.844 41.6204C106.232 39.871 106.413 38.0954 106.271 36.2939C106.141 34.6349 105.65 33.015 104.872 31.5504C104.094 30.0858 103.044 28.7639 101.762 27.7011C100.464 26.6256 99.0008 25.9387 97.4057 25.3942C95.9424 24.9017 94.3472 24.4221 93.22 23.2947C92.0024 22.0636 91.9119 20.3787 91.6507 18.7585C91.1207 15.3629 88.657 12.3953 85.3659 11.3324C82.0618 10.2825 78.2898 11.3066 75.9062 13.795C75.7898 13.9245 75.5933 13.7171 75.7226 13.5876Z" fill="black"/>
</g>
<path d="M95.5648 77.9742C94.7117 79.2961 93.2458 80.294 91.7437 80.1515C90.5364 80.0349 89.4609 79.2443 88.2691 79.1016C86.2732 78.8555 84.5229 80.3977 82.827 81.5254C79.8202 83.5212 76.0483 84.4284 72.677 83.2619C69.3213 82.1084 66.6119 78.5833 66.86 74.8509C66.9764 73.0104 67.739 71.1702 67.3383 69.3684C66.7023 66.5432 63.3208 64.7159 63.5534 61.8258C63.8275 58.5339 68.2329 57.3545 67.9097 53.8682C67.7908 52.4814 67.1186 51.2242 66.6507 49.9152C65.6656 47.2195 65.5622 44.2387 65.7044 41.3485C66.0819 33.6373 68.0648 26.3147 71.6662 19.666C71.1879 20.5603 72.8218 24.6818 73.1062 25.6926C73.7525 27.8959 74.5177 30.0603 75.451 32.1337C76.6041 34.687 76.8394 35.0499 79.4816 35.3351C82.0359 35.3351 84.5746 36.2032 87.1289 36.2162C89.3575 36.2294 91.4438 35.7239 93.6465 36.6311C95.4485 37.3568 97.1987 39.0804 97.1987 41.1153C97.1987 42.5667 96.4335 44.0572 96.9531 45.4052C97.5995 47.0771 99.934 47.5564 100.412 49.2932C100.699 50.3948 100.115 51.5481 99.4014 52.4036C98.7034 53.272 97.8347 54.0497 97.4314 55.1122C96.8109 56.7712 97.4702 58.6505 98.3001 60.2056C99.13 61.7609 100.154 63.2901 100.309 65.0657C100.464 66.8671 99.5178 67.4763 98.5457 68.591C97.3151 70.0037 97.1858 71.2868 96.9273 73.4251C96.7334 75.0062 96.4723 76.5874 95.5648 77.9742Z" fill="#0D0E0E"/>
<path d="M103.161 69.7447C102.215 70.3667 101.087 70.4704 99.986 70.5612C98.2745 70.6995 96.5553 70.8205 94.8283 70.9241C94.3603 71.6369 93.7657 72.2202 93.1297 72.5829C91.3407 73.6198 89.319 73.3605 87.3877 73.0883C86.1442 72.9068 84.9007 72.7256 83.6546 72.5441C82.4033 72.7256 81.1545 72.9068 79.911 73.0883C77.9798 73.3605 75.958 73.6198 74.169 72.5829C73.5718 72.246 73.0289 71.7277 72.5739 71.0795C70.6168 70.7814 68.7114 70.2501 66.9379 69.3039C66.4182 69.0188 65.9141 68.6948 65.5496 68.1894C65.1876 67.6969 65.0066 66.9841 65.2393 66.3879C65.4979 65.7269 66.1726 65.4159 66.7802 65.1568C69.412 64.0552 71.9663 62.7331 74.6214 61.6834C74.9601 61.2946 75.2833 60.8928 75.5677 60.4391C77.0465 58.0805 77.2274 54.7238 77.6799 51.678C78.1349 48.6196 79.2492 45.2499 81.426 44.4981C82.0103 44.3037 82.8272 44.3556 83.6546 44.5888C84.4715 44.3556 85.2885 44.3037 85.8727 44.4981C88.0496 45.2499 89.1638 48.6196 89.6163 51.678C90.0713 54.7238 90.2523 58.0805 91.7285 60.4391C92.1189 61.0612 92.5842 61.5927 93.0651 62.0981C96.0072 62.6684 98.9105 63.4329 101.749 64.4179C102.876 64.8068 104.159 65.39 104.495 66.6602C104.808 67.8396 104.107 69.1224 103.161 69.7447Z" fill="#9C7ACD"/>
<path d="M77.4858 52.2221C74.5696 50.3819 72.6642 47.1417 71.4595 43.7849C70.0091 39.7544 69.2826 35.3738 69.6187 31.084C69.9186 27.2738 70.5908 23.2172 71.7438 19.6272C73.4553 23.4374 75.7485 25.9258 79.5205 27.6106C82.1265 28.7771 84.9005 29.425 87.491 30.5786C89.7454 31.6024 92.4936 32.1207 94.399 33.8576C97.3152 36.5142 96.6921 40.5838 95.5262 43.9018C94.6446 46.4418 93.2071 48.7877 91.2501 50.5633C87.491 53.946 81.7231 54.879 77.4858 52.2221Z" fill="#9C7ACD"/>
<path d="M90.6448 57.7032L80.1484 53.3615C83.8765 53.4703 85.9706 53.4075 89.7374 51.8064C89.8925 54.1203 90.1045 55.4108 90.6448 57.7032Z" fill="#40196D"/>
<g opacity="0.2">
<path d="M84.0574 34.9585C84.2254 34.9843 84.3806 35.036 84.5227 35.1009C84.9648 35.3212 85.2492 35.7878 85.3656 36.2545C85.4819 36.7341 85.469 37.2395 85.4431 37.732C83.941 36.8246 82.2554 36.2155 80.5181 35.9564C80.4922 35.9564 80.5569 35.2695 80.6086 35.2046C80.7766 34.9324 81.2445 34.9456 81.5289 34.8807C82.3459 34.6862 83.2404 34.7641 84.0574 34.9585Z" fill="#36353D"/>
</g>
<path fill-rule="evenodd" clip-rule="evenodd" d="M97.3152 34.6625C97.3152 38.2137 94.6187 41.0909 91.069 41.0909C87.7366 41.0909 84.8204 38.5506 84.4972 35.3107C83.2149 35.0772 82.3204 35.0513 81.1027 35.2587C81.1027 38.8616 78.3545 41.7908 74.7505 41.7908C71.1492 41.7908 68.0391 38.8616 68.0391 35.2587C68.0391 31.6558 70.9656 28.7266 74.5696 28.7266C77.8219 28.7266 80.5054 31.1113 81.0122 34.2091C82.1523 33.9885 83.3441 34.0015 84.4842 34.2608C84.6911 30.904 87.4781 28.2473 90.8881 28.2473C94.4377 28.2473 97.3152 31.1113 97.3152 34.6625ZM79.9754 35.2587C79.9754 32.2778 77.5504 29.8543 74.5696 29.8543C71.5887 29.8543 69.1663 32.2778 69.1663 35.2587C69.1663 38.2525 71.7697 40.663 74.7505 40.663C77.7314 40.663 79.9754 38.2525 79.9754 35.2587ZM96.2138 34.6625C96.2138 31.7336 93.8276 29.3489 90.8881 29.3489C87.9589 29.3489 85.5727 31.7336 85.5727 34.6625C85.5727 37.6046 87.9589 39.9761 90.8881 39.9761C93.8276 39.9761 96.2138 37.6046 96.2138 34.6625Z" fill="white"/>
<path d="M105.74 147.182C102.408 150.59 97.6638 148.867 93.8427 147.519C90.4456 146.326 87.2709 144.551 84.5098 142.244C77.4725 136.373 108.15 124.216 108.589 103.221C104.43 107.42 104.132 116.012 103.809 121.495C103.799 121.745 103.786 121.996 103.77 122.246C103.613 125.551 103.626 128.895 103.99 132.187C104.559 137.215 104.962 142.166 105.74 147.182C107.061 155.865 58.5118 155.865 59.8329 147.182C60.6111 142.166 61.0144 137.215 61.5832 132.187C61.9607 128.791 61.9607 125.357 61.7771 121.948C61.7771 121.801 61.7745 121.65 61.7642 121.495C61.441 116.012 61.1437 107.42 56.9839 103.221C100.373 124.216 93.2714 135.297 86.2342 141.168C83.4731 143.475 80.2983 145.251 76.9038 146.443C73.0801 147.791 68.336 149.515 65.0062 146.106C63.4627 144.538 62.775 142.166 63.243 140.002C63.9436 136.632 66.9632 135.453 69.3728 133.496C71.485 131.772 73.4291 129.841 75.1664 127.729C78.6127 123.503 81.2057 118.566 82.6302 113.304C84.4839 106.461 41.4953 99.2679 41.9891 92.2046C42.4932 85.1283 43.6463 77.8447 47.5346 71.9088C50.063 68.0595 53.9384 64.9362 58.3696 63.6273C63.7083 62.059 68.698 64.1715 73.804 65.7397C74.2538 65.8781 74.7088 66.012 75.1664 66.1415C80.1432 67.5932 85.4301 67.5932 90.4069 66.1415C90.8645 66.012 91.3195 65.8781 91.7693 65.7397C96.8753 64.1715 101.865 62.059 107.204 63.6273C111.635 64.9362 115.51 68.0595 118.039 71.9088C121.927 77.8447 123.08 85.1283 123.587 92.2046C124.078 99.2679 86.26 107.537 88.1137 114.38C89.5382 119.641 92.1313 124.579 95.5775 128.804C97.3148 130.917 99.259 132.848 101.371 134.571C103.783 136.529 106.803 137.708 107.501 141.078C107.969 143.242 107.281 145.614 105.74 147.182Z" fill="white"/>
<path d="M129.724 88.0328C129.724 88.0328 129.406 103.658 128.664 114.88C128.261 120.893 128.124 126.281 126.097 138.853C123.938 152.269 122.235 159.606 115.229 168.27C104.768 181.209 83.8712 191 83.8712 191C83.8712 191 62.9741 181.209 52.5139 168.27C45.5077 159.606 43.8092 152.269 41.6453 138.853C39.6184 126.281 39.4814 120.893 39.0832 114.88C38.3361 103.658 38.0181 88.0328 38.0181 88.0328L83.8712 77.3386L129.724 88.0328Z" fill="#1DC8EF"/>
<path d="M100.017 153.299H67.7363C65.4302 153.299 63.561 151.43 63.561 149.123V124.118C63.561 121.811 65.4302 119.942 67.7363 119.942H100.017C102.318 119.942 104.187 121.811 104.187 124.118V149.123C104.187 151.43 102.318 153.299 100.017 153.299Z" fill="#FFD229"/>
<path d="M100.043 119.943H95.0894V115.865C95.0894 109.682 90.0584 104.648 83.8769 104.648C77.6928 104.648 72.6592 109.682 72.6592 115.865V119.943H67.7109V115.865C67.7109 106.951 74.9602 99.699 83.8769 99.699C92.7911 99.699 100.043 106.951 100.043 115.865V119.943Z" fill="#EEEEEE"/>
<path d="M86.4646 137.27V142.086C86.4646 143.516 85.3064 144.674 83.8767 144.674C82.4444 144.674 81.2862 143.516 81.2862 142.086V137.27C80.1021 136.448 79.3291 135.084 79.3291 133.537C79.3291 131.025 81.3638 128.99 83.8767 128.99C86.3844 128.99 88.4191 131.025 88.4191 133.537C88.4191 135.084 87.6461 136.448 86.4646 137.27Z" fill="#E6A709"/>
<path d="M75.2883 34.5697C75.2883 34.2834 75.0562 34.0513 74.7699 34.0513C74.4835 34.0513 74.2515 34.2834 74.2515 34.5697V35.7361C74.2515 36.0224 74.4835 36.2545 74.7699 36.2545C75.0562 36.2545 75.2883 36.0224 75.2883 35.7361V34.5697Z" fill="#40196D"/>
<path d="M90.8391 34.5697C90.8391 34.2834 90.607 34.0513 90.3207 34.0513C90.0344 34.0513 89.8022 34.2834 89.8022 34.5697V35.7361C89.8022 36.0224 90.0344 36.2545 90.3207 36.2545C90.607 36.2545 90.8391 36.0224 90.8391 35.7361V34.5697Z" fill="#40196D"/>
<path d="M83.1929 35.5415C83.1929 35.3626 83.0479 35.2175 82.8689 35.2175C82.69 35.2175 82.5449 35.3626 82.5449 35.5415V41.244C82.5449 41.423 82.69 41.5681 82.8689 41.5681C83.0479 41.5681 83.1929 41.423 83.1929 41.244V35.5415Z" fill="#40196D"/>
<path d="M79.4351 45.5859C80.601 48.6963 85.72 48.6963 86.8213 45.5859H79.4351Z" fill="white"/>
<path d="M133.579 126.845C133.902 127.052 134.228 127.312 134.332 127.687C134.409 128.037 134.267 128.4 134.034 128.659C133.799 128.932 133.489 129.113 133.179 129.282C133.553 129.748 133.657 130.422 133.45 130.992C133.23 131.562 132.711 132.003 132.116 132.107C132.504 132.522 132.607 133.196 132.374 133.714C132.129 134.232 131.545 134.569 130.976 134.53C131.351 134.79 131.428 135.347 131.234 135.762C131.028 136.176 130.598 136.435 130.146 136.526C129.704 136.63 129.238 136.565 128.783 136.474C128.021 136.332 127.268 136.073 126.555 135.736C126.232 135.58 125.906 135.399 125.66 135.139C125.415 134.867 125.247 134.504 125.286 134.141C125.324 133.792 125.609 133.442 125.971 133.416C125.492 133.156 125.156 132.664 125.079 132.146C124.988 131.614 125.169 131.044 125.531 130.655C125.66 130.526 125.764 130.422 125.854 130.266C125.88 130.215 126.128 129.826 126.154 129.839C125.764 129.515 125.57 128.97 125.66 128.478C125.764 127.985 126.154 127.558 126.633 127.415C126.309 127.234 126.193 126.793 126.258 126.43C126.335 126.054 126.555 125.73 126.775 125.432C126.904 125.238 127.036 125.044 127.217 124.888C127.643 124.538 128.228 124.629 128.706 124.758C129.213 124.901 129.691 124.966 130.185 125.134C131.389 125.549 132.53 126.119 133.579 126.845Z" fill="#9C7ACD"/>
<path d="M36.8161 123.579C37.3099 123.411 37.7882 123.346 38.2949 123.203C38.7732 123.074 39.3575 122.983 39.784 123.333C39.965 123.488 40.0969 123.683 40.2261 123.877C40.4459 124.175 40.6656 124.499 40.7432 124.875C40.8078 125.238 40.6915 125.679 40.3683 125.86C40.8466 126.003 41.237 126.43 41.3404 126.923C41.4309 127.415 41.237 127.96 40.8466 128.284C40.8725 128.271 41.1207 128.659 41.1465 128.711C41.237 128.867 41.3404 128.97 41.4697 129.1C41.8316 129.489 42.0152 130.059 41.9221 130.591C41.8445 131.109 41.5085 131.602 41.0302 131.861C41.3921 131.887 41.6765 132.236 41.7153 132.587C41.754 132.949 41.586 133.312 41.3404 133.584C41.0948 133.844 40.7691 134.025 40.4459 134.181C39.7324 134.518 38.98 134.777 38.2174 134.919C37.7623 135.01 37.297 135.075 36.8549 134.971C36.4025 134.88 35.9733 134.621 35.7665 134.207C35.5726 133.792 35.6501 133.234 36.0276 132.975C35.4562 133.014 34.872 132.677 34.6264 132.159C34.3937 131.64 34.4971 130.966 34.8849 130.552C34.2903 130.448 33.7706 130.007 33.5509 129.437C33.344 128.867 33.4475 128.193 33.8223 127.726C33.5121 127.558 33.2018 127.376 32.9666 127.104C32.7339 126.845 32.5917 126.482 32.6693 126.132C32.7727 125.756 33.0984 125.497 33.4216 125.29C34.4712 124.564 35.6114 123.994 36.8161 123.579Z" fill="#9C7ACD"/>
</svg>
