<svg width="37" height="38" viewBox="0 0 37 38" fill="none" xmlns="http://www.w3.org/2000/svg">
<circle cx="18.5" cy="18.7012" r="18.5" fill="#DFE3FF"/>
<path d="M11.8423 26.546C11.8423 26.7817 12.0282 26.9835 12.2798 26.9835H14.1939C14.4291 26.9835 14.6315 26.7981 14.6315 26.546V23.8389C13.7236 24.0073 12.7993 24.091 11.8586 24.091V26.546H11.8423Z" fill="#40196D"/>
<path d="M15.8945 23.57V26.5462C15.8945 26.7819 16.075 26.9837 16.3321 26.9837H18.2298C18.465 26.9837 18.6673 26.7983 18.6673 26.5462V22.5615C17.9618 22.8973 17.24 23.1664 16.4962 23.3851C16.2938 23.4524 16.0969 23.5197 15.8945 23.57Z" fill="#40196D"/>
<path d="M19.9478 21.8886V26.5629C19.9478 26.7981 20.1501 26.9999 20.3853 26.9999H22.283C22.5182 26.9999 22.7206 26.815 22.7206 26.5629V19.8372C22.2174 20.2911 21.676 20.728 21.1236 21.1152C20.7025 21.4177 20.3142 21.6698 19.9478 21.8886Z" fill="#40196D"/>
<path d="M25.6616 16.4072C25.2405 17.046 24.7701 17.6514 24.267 18.2568C24.1795 18.3574 24.0811 18.4586 23.999 18.5593V26.5462C23.999 26.7819 24.1795 26.9837 24.4365 26.9837H26.3179C26.553 26.9837 26.7554 26.7983 26.7554 26.5462V16.5078C26.6187 16.5417 26.4874 16.5587 26.3506 16.5587C26.1155 16.5587 25.8804 16.5079 25.6616 16.4072Z" fill="#40196D"/>
<path d="M25.2248 14.8436L26.1327 15.3144C26.4882 15.4993 26.9038 15.2133 26.8546 14.8097L26.4718 11.4468C26.4335 11.0935 26.0506 10.8922 25.7443 11.0601L22.7528 12.6237C22.3973 12.8086 22.3973 13.3133 22.7528 13.5152L23.7099 14.0194C23.5786 14.2551 23.4255 14.5072 23.2724 14.7424C22.9059 15.2975 22.5013 15.8351 22.0637 16.3568C21.2926 17.2477 20.4176 18.055 19.455 18.7446C19.0558 19.0301 18.6511 19.2827 18.2464 19.501C17.4206 19.9718 16.551 20.3415 15.6432 20.6276C15.2549 20.7451 14.8502 20.8463 14.4455 20.93C13.6087 21.0984 12.7336 21.1991 11.8586 21.1991C11.3883 21.1991 11 21.5857 11 22.0566C11 22.5444 11.3883 22.9141 11.8586 22.9141C12.8485 22.9141 13.8438 22.8135 14.8009 22.6117C15.2548 22.5275 15.7088 22.4099 16.1627 22.2584C17.1854 21.939 18.1807 21.5185 19.105 20.9973C19.5589 20.7452 19.9965 20.4591 20.4668 20.1397C21.5442 19.3834 22.5341 18.475 23.3927 17.4834C23.8795 16.9114 24.3334 16.3229 24.7381 15.7011C24.8912 15.4151 25.0553 15.1296 25.2248 14.8436Z" fill="#40196D"/>
</svg>
