<svg width="37" height="38" viewBox="0 0 37 38" fill="none" xmlns="http://www.w3.org/2000/svg">
<circle cx="18.5" cy="18.7012" r="18.5" fill="#DFE3FF"/>
<path d="M27.9082 26.4194C27.9077 26.2927 27.8954 26.1665 27.8713 26.0424L28.3543 25.7727C28.2323 25.3173 27.9866 24.9045 27.6446 24.5799L27.3646 24.7363C27.2492 24.803 27.1067 24.7994 26.9949 24.7276C26.8944 24.6599 26.7882 24.6009 26.6779 24.5507C26.5595 24.4958 26.4841 24.3763 26.4851 24.2456V23.9332C26.0195 23.8066 25.5282 23.8071 25.062 23.9348V24.2456C25.0636 24.3763 24.9882 24.4958 24.8697 24.5507C24.7595 24.6009 24.6534 24.6599 24.5523 24.7276C24.4405 24.7994 24.2985 24.803 24.1831 24.7363L23.9046 24.5804C23.5621 24.905 23.3159 25.3173 23.1934 25.7727L23.6764 26.0424C23.6267 26.2912 23.6267 26.5471 23.6764 26.7958L23.1934 27.0655C23.3154 27.5209 23.561 27.9337 23.9031 28.2583L24.1831 28.1019C24.2985 28.0358 24.4405 28.0393 24.5523 28.1106C24.6534 28.1783 24.7595 28.2378 24.8697 28.2876C24.9882 28.343 25.0636 28.4619 25.062 28.5927V28.905C25.5282 29.0322 26.0195 29.0316 26.4851 28.904V28.5927C26.4841 28.4619 26.559 28.343 26.6779 28.2876C26.7882 28.2378 26.8944 28.1783 26.9949 28.1106C27.1067 28.0393 27.2492 28.0358 27.3646 28.1019L27.6431 28.2578C27.9856 27.9337 28.2318 27.5209 28.3543 27.0655L27.8713 26.7958C27.8954 26.6717 27.9077 26.5455 27.9082 26.4194ZM25.7738 27.387C25.5174 27.387 25.2708 27.285 25.0897 27.1035C24.9082 26.9219 24.8062 26.6758 24.8062 26.4194C24.8062 26.1625 24.9082 25.9163 25.0897 25.7348C25.2708 25.5537 25.5174 25.4517 25.7738 25.4517C26.0302 25.4517 26.2769 25.5532 26.458 25.7348C26.6395 25.9163 26.7415 26.1625 26.7415 26.4194C26.7415 26.6758 26.6395 26.9219 26.458 27.1035C26.2769 27.285 26.0302 27.387 25.7738 27.387Z" fill="#40196D"/>
<path d="M22.5483 14.8066H23.1935V15.4518H22.5483V14.8066Z" fill="#40196D"/>
<path d="M21.5806 12.2256H22.2257V12.8707H21.5806V12.2256Z" fill="#40196D"/>
<path d="M21.5806 14.8066H22.2257V15.4518H21.5806V14.8066Z" fill="#40196D"/>
<path d="M21.5806 13.5159H22.2257V14.161H21.5806V13.5159Z" fill="#40196D"/>
<path d="M22.5483 13.5159H23.1935V14.161H22.5483V13.5159Z" fill="#40196D"/>
<path d="M23.5156 13.5159H24.1607V14.161H23.5156V13.5159Z" fill="#40196D"/>
<path d="M22.5483 12.2256H23.1935V12.8707H22.5483V12.2256Z" fill="#40196D"/>
<path d="M23.5156 12.2256H24.1607V12.8707H23.5156V12.2256Z" fill="#40196D"/>
<path d="M19.3218 9V18.6773H28.9991C28.9991 16.9784 28.5519 15.3097 27.7027 13.8384C26.8535 12.3677 25.632 11.1456 24.1607 10.2964C22.6895 9.44718 21.0207 9 19.3218 9ZM24.8058 17.7097H23.5156V16.0968H22.2253V17.7097H20.9346V11.9031C20.9346 11.7251 21.0792 11.5805 21.2571 11.5805H24.4833C24.5689 11.5805 24.651 11.6148 24.7115 11.6748C24.772 11.7354 24.8058 11.8174 24.8058 11.9031V17.7097Z" fill="#40196D"/>
<path d="M23.5156 14.8066H24.1607V15.4518H23.5156V14.8066Z" fill="#40196D"/>
<path d="M18.6767 9.64526C16.7265 9.64526 14.8219 10.2345 13.2122 11.336C11.6025 12.4375 10.3635 13.9996 9.65734 15.817C8.95068 17.6349 8.81019 19.6241 9.25326 21.5231C9.69685 23.422 10.704 25.143 12.1424 26.46C13.5809 27.7769 15.3839 28.6286 17.3147 28.903C19.2454 29.1779 21.2142 28.8625 22.9629 27.9989C22.4993 27.1758 22.4198 26.1902 22.7459 25.3036C23.0726 24.4169 23.7716 23.7179 24.6582 23.3918C25.5449 23.0651 26.5305 23.1446 27.3536 23.6082C28.0135 22.2759 28.3556 20.8092 28.3541 19.3221H18.6767V9.64526ZM19.3219 22.2256H18.0316V25.7743H16.7414V23.5159H14.806V25.7743H13.5158V22.2256H12.2255L15.7737 18.6775L19.3219 22.2256Z" fill="#40196D"/>
</svg>
