<svg width="37" height="38" viewBox="0 0 37 38" fill="none" xmlns="http://www.w3.org/2000/svg">
<circle cx="18.5" cy="18.7012" r="18.5" fill="#DFE3FF"/>
<path fill-rule="evenodd" clip-rule="evenodd" d="M18.4922 9.52856C23.7346 9.52856 27.9851 13.8903 27.9851 19.2677C27.9851 24.6451 23.7353 28.9999 18.4922 28.9999C13.2498 28.9999 9 24.6451 9 19.2677C9 13.8903 13.2498 9.52856 18.4922 9.52856ZM23.2442 21.8485C22.9931 22.9407 18.2097 28.5129 13.7395 21.8485C16.9075 23.5598 20.0762 23.5181 23.2442 21.8485ZM25.2059 19.7546C25.2386 19.8451 25.3416 19.9007 25.4362 19.8659C25.5301 19.8312 25.5795 19.7268 25.5468 19.6364C25.5176 19.5529 25.5204 19.4694 25.5482 19.3998C25.5711 19.3442 25.6115 19.2955 25.665 19.2747C25.672 19.2677 25.6789 19.2677 25.6852 19.2677C25.7409 19.2468 25.8014 19.2608 25.855 19.2886C25.9169 19.3234 25.9697 19.386 25.9997 19.4625C26.0017 19.4695 26.0045 19.4764 26.008 19.4903C26.0762 19.692 26.0678 19.9008 25.9983 20.0747C25.9322 20.2416 25.8105 20.3738 25.6477 20.4295C25.64 20.4364 25.6316 20.4363 25.624 20.4363C25.4591 20.492 25.2817 20.4642 25.1273 20.3807C24.9645 20.2903 24.8282 20.1303 24.7537 19.9285C24.7516 19.9146 24.7482 19.9077 24.7447 19.9008C24.632 19.5738 24.6452 19.2329 24.7586 18.9547C24.8692 18.6764 25.0772 18.4537 25.3562 18.3563C25.6351 18.259 25.9343 18.3007 26.1937 18.4468C26.4602 18.5998 26.6842 18.8573 26.801 19.1981C26.9624 19.6573 26.9457 20.1303 26.7885 20.5199C26.6341 20.9025 26.344 21.2086 25.9558 21.3477L23.4974 22.2103C23.4251 22.3633 23.3249 22.5303 23.2129 22.6903L26.0741 21.6886C26.5666 21.5146 26.9311 21.132 27.1231 20.659C27.3123 20.186 27.3332 19.6225 27.1419 19.0799C26.9951 18.6555 26.7113 18.3286 26.3718 18.1338C26.0247 17.939 25.6191 17.8833 25.2372 18.0155C24.8553 18.1477 24.5722 18.4468 24.4233 18.8155C24.2793 19.1772 24.2619 19.6016 24.4038 20.019C24.4052 20.0259 24.4066 20.0259 24.408 20.0329H24.4087C24.5117 20.3251 24.7106 20.5616 24.9492 20.6938C25.1913 20.8329 25.4731 20.8676 25.7402 20.7842C25.7458 20.7772 25.7506 20.7773 25.7555 20.7773C26.0268 20.6799 26.2285 20.4712 26.3336 20.2068C26.4344 19.9564 26.447 19.6573 26.3496 19.3721C26.3482 19.3651 26.3468 19.3581 26.3447 19.3581C26.2856 19.1842 26.1708 19.052 26.0338 18.9755C25.8932 18.899 25.729 18.8712 25.5725 18.9268C25.567 18.9268 25.5614 18.9268 25.5558 18.9268C25.3944 18.9825 25.2748 19.1077 25.2129 19.2677C25.1538 19.4138 25.1475 19.5877 25.2059 19.7546ZM23.5217 14.572C23.6303 14.6764 23.8014 14.6764 23.9043 14.5651C24.008 14.4538 24.0031 14.2868 23.8953 14.1824C23.8904 14.1755 22.3739 12.7007 20.9249 13.779C20.8045 13.8694 20.7795 14.0364 20.8685 14.1547C20.9575 14.2729 21.1273 14.3007 21.2469 14.2103C22.3252 13.4103 23.5183 14.572 23.5217 14.572ZM22.2807 15.1912C22.9054 15.1912 23.4118 15.699 23.4118 16.3251C23.4118 16.9442 22.9054 17.4521 22.2807 17.4521C21.656 17.4521 21.1496 16.9442 21.1496 16.3251C21.1496 15.699 21.656 15.1912 22.2807 15.1912ZM14.0358 17.0416C13.88 17.1669 13.8556 17.3895 13.9802 17.5495C14.1054 17.7025 14.3329 17.7233 14.488 17.5981L15.7318 16.5964C15.7583 16.5825 15.7819 16.5546 15.8021 16.5268L15.8063 16.5199L15.8111 16.5129H15.8146H15.8153C15.825 16.4921 15.8341 16.4781 15.8418 16.4642L15.8445 16.4572L15.8452 16.4503H15.8459C15.8724 16.3877 15.8793 16.3182 15.8696 16.2556H15.8689L15.8682 16.2486H15.8675L15.8668 16.2416C15.8612 16.2138 15.8529 16.186 15.841 16.1651L15.8383 16.1582H15.8376L15.8348 16.1512L15.8341 16.1442C15.8097 16.1025 15.7742 16.0538 15.729 16.0259L15.7228 16.019L15.7165 16.012H15.7109H15.7103C15.6984 16.005 15.6866 15.9982 15.6748 15.9912L14.2501 15.2607C14.0727 15.1633 13.855 15.2329 13.7638 15.4138C13.672 15.5877 13.7416 15.8103 13.9189 15.9008L14.8539 16.3807L14.0365 17.0416H14.0358ZM13.0035 14.3355C12.895 14.4399 12.8908 14.6068 12.9938 14.7181C13.0967 14.8225 13.2678 14.8294 13.3764 14.7251C13.3798 14.7251 14.5729 13.5633 15.6511 14.3633C15.7715 14.4537 15.9405 14.426 16.0296 14.3077C16.1186 14.1894 16.0936 14.0155 15.9739 13.932C14.5249 12.8538 13.0077 14.3286 13.0035 14.3355Z" fill="#40196D"/>
<path fill-rule="evenodd" clip-rule="evenodd" d="M10.6118 9.61914L9.36035 9L9.82227 10.266L10.6118 9.61914Z" fill="#40196D"/>
<path fill-rule="evenodd" clip-rule="evenodd" d="M10.1183 11.0662L11.4108 10.0088L11.2452 9.93231L10.967 9.79321L9.9541 10.621L10.0814 10.9688H10.0821L10.1183 11.0662Z" fill="#40196D"/>
<path fill-rule="evenodd" clip-rule="evenodd" d="M10.4312 11.8869L12.226 10.4121L11.7655 10.1895L10.2524 11.4208L10.4312 11.8869Z" fill="#40196D"/>
<path fill-rule="evenodd" clip-rule="evenodd" d="M11.9886 11.9217C12.3831 11.553 12.8067 11.2191 13.2568 10.9269L12.5813 10.593L10.5674 12.2417L10.9006 13.1182C11.231 12.6869 11.5956 12.2903 11.9886 11.9217Z" fill="#40196D"/>
</svg>
