<svg width="37" height="38" viewBox="0 0 37 38" fill="none" xmlns="http://www.w3.org/2000/svg">
<circle cx="18.5" cy="18.7012" r="18.5" fill="#DFE3FF"/>
<path d="M12.9047 11H16.7142C17.7661 11 18.6189 12.0519 18.6189 12.9047V16.7142C18.6189 17.7661 17.7661 18.6189 16.7142 18.6189H12.9047C11.8528 18.6189 11 17.567 11 16.7142V12.9047C11 11.8528 11.8528 11 12.9047 11Z" fill="#40196D"/>
<path d="M21.2855 11H25.095C26.147 11 26.9997 12.0519 26.9997 12.9047V16.7142C26.9997 17.7661 26.147 18.6189 25.095 18.6189H21.2855C20.2336 18.6189 19.3809 17.567 19.3809 16.7142V12.9047C19.3809 11.8528 20.2336 11 21.2855 11Z" fill="#40196D"/>
<path d="M12.9047 19.3811H16.7142C17.7661 19.3811 18.6189 20.433 18.6189 21.2858V25.0953C18.6189 26.1472 17.7661 27 16.7142 27H12.9047C11.8528 27 11 25.9481 11 25.0953V21.2858C11 20.2339 11.8528 19.3811 12.9047 19.3811Z" fill="#40196D"/>
<path d="M21.2855 19.3811H25.095C26.147 19.3811 26.9997 20.433 26.9997 21.2858V25.0953C26.9997 26.1472 26.147 27 25.095 27H21.2855C20.2336 27 19.3809 25.9481 19.3809 25.0953V21.2858C19.3809 20.2339 20.2336 19.3811 21.2855 19.3811Z" fill="#40196D"/>
</svg>
