<svg width="37" height="38" viewBox="0 0 37 38" fill="none" xmlns="http://www.w3.org/2000/svg">
<circle cx="18.5" cy="18.7012" r="18.5" fill="#DFE3FF"/>
<path d="M15.9048 16.1447C17.3477 16.1447 18.4771 15.013 18.4771 13.5694C18.4771 12.1317 17.3477 11 15.9048 11C14.4618 11 13.333 12.1317 13.333 13.5694C13.333 15.013 14.4618 16.1447 15.9048 16.1447Z" fill="#40196D"/>
<path d="M16.7195 16.647H15.0884C13.1431 16.647 11.5748 18.0905 11.3242 19.9729H20.4837C20.2325 18.0905 18.6642 16.647 16.7195 16.647Z" fill="#40196D"/>
<path d="M20.8604 20.7871H10.8851C10.3204 20.7871 9.94392 21.2895 10.0069 21.7918L10.6969 26.2437C10.7598 26.6825 11.1363 27 11.5751 27H20.1704C20.6093 27 20.9857 26.6825 21.0487 26.2437L21.7387 21.7918C21.864 21.2895 21.4251 20.7871 20.8604 20.7871Z" fill="#40196D"/>
<path d="M24.3731 11.0635L21.4248 14.8282H23.1813V27H25.5025V14.8282H27.3219L24.3731 11.0635Z" fill="#40196D"/>
</svg>
