<svg width="224" height="205" viewBox="0 0 224 205" fill="none" xmlns="http://www.w3.org/2000/svg">
<g clip-path="url(#clip0_45765_22174)">
<path d="M177.522 162.241L179.808 159.361L144.137 131.054L141.851 133.934L177.522 162.241Z" fill="#E2951A"/>
<path d="M169.4 184.904L171.686 182.023L136.015 153.716L133.729 156.597L169.4 184.904Z" fill="#E2951A"/>
<path d="M200.03 146.306L202.316 143.426L166.645 115.119L164.359 117.999L200.03 146.306Z" fill="#E2951A"/>
<path d="M34.2207 43.7408C15.3349 67.5394 19.3885 102.198 43.2731 121.152C67.1586 140.107 101.832 136.18 120.718 112.382C139.604 88.5832 135.55 53.9243 111.665 34.9697C87.7799 16.0157 53.1064 19.9421 34.2207 43.7408Z" fill="#FFC83E"/>
<path d="M37.4583 46.3105C54.8762 24.3615 86.9724 20.7269 109.002 38.2084C131.03 55.6893 134.782 87.772 117.364 109.721C99.9463 131.67 67.8501 135.305 45.8218 117.824C23.7927 100.342 20.0404 68.2594 37.4583 46.3105ZM115.398 108.161C131.948 87.3066 128.39 56.8801 107.459 40.2706C86.5289 23.661 56.0897 27.1085 39.5404 47.9628C22.9912 68.8171 26.5493 99.2436 47.4796 115.853C68.3522 132.417 98.8491 129.015 115.398 108.161Z" fill="#E2951A"/>
<path d="M70.4424 86.531C70.6208 86.6726 70.7867 86.7097 70.9651 86.8512C78.8307 90.1609 86.6367 93.4235 94.5014 96.7325C99.0862 98.6684 103.67 100.604 108.314 102.587L77.318 77.989L70.5019 86.5782L70.4424 86.531Z" fill="#E2951A"/>
<path d="M108.315 102.586C108.241 102.433 108.122 102.339 108.109 102.234C100.232 91.3483 92.3091 80.5212 84.492 69.6831C84.3596 69.4836 84.2398 69.3885 84.1208 69.2941L77.2587 77.9414L108.315 102.586Z" fill="#F4AB0B"/>
<path d="M77.2584 77.9418L46.262 53.3442C46.3952 53.5444 46.4547 53.5916 46.5275 53.7441C54.3447 64.582 62.2675 75.4092 70.0847 86.2472C70.217 86.4469 70.3367 86.5419 70.4557 86.6363L77.3179 77.989L77.2584 77.9418Z" fill="#F4AB0B"/>
<path d="M84.1206 69.2942C83.9413 69.1519 83.7764 69.1156 83.598 68.974C71.3269 63.8707 59.1018 58.7093 46.8776 53.5485C46.6523 53.4644 46.4873 53.428 46.262 53.3438L77.2584 77.9415L84.1206 69.2942Z" fill="#E2951A"/>
</g>
<defs>
<clipPath id="clip0_45765_22174">
<rect width="110.022" height="291.558" fill="white" transform="translate(296.8 181.887) rotate(128.434)"/>
</clipPath>
</defs>
</svg>
