<svg width="217" height="181" viewBox="0 0 217 181" fill="none" xmlns="http://www.w3.org/2000/svg">
<path d="M147.358 14.7539H74.822C71.012 14.7539 67.9258 17.8474 67.9258 21.6697V173.981C67.9258 177.803 71.012 180.896 74.822 180.896H147.358C151.168 180.896 154.254 177.803 154.254 173.981V21.6697C154.254 17.8474 151.168 14.7539 147.358 14.7539Z" fill="#48D38A"/>
<path d="M147.358 18.5608H131.706V21.0593C131.706 23.0374 130.111 24.6288 128.146 24.6288H94.0347C92.0703 24.6288 90.4753 23.0374 90.4753 21.0593V18.5608H74.8227C73.1096 18.5608 71.7217 19.9588 71.7217 21.6691V173.98C71.7217 175.69 73.1096 177.088 74.8227 177.088H147.358C149.071 177.088 150.459 175.69 150.459 173.98V21.6691C150.459 19.9588 149.071 18.5608 147.358 18.5608Z" fill="#441F70"/>
<path d="M109.496 66.5398H76.6836V105.446H109.496V66.5398Z" fill="#48D38A"/>
<path d="M47.002 80.1196L38.4814 85.9342L44.5064 92.1066L49.793 82.112L47.002 80.1196Z" fill="#9C7ACD"/>
<path d="M56.8066 176.419V179.781H67.9262C67.9262 179.186 67.557 178.651 67.0106 178.442L62.5067 176.642L62.6396 175.393C62.6839 174.977 62.3443 174.605 61.9308 174.605C61.5468 174.605 61.222 174.932 61.2367 175.319V175.973C61.2367 177.178 60.2769 178.189 59.0512 178.219C57.988 178.249 57.0577 177.52 56.8214 176.479L56.8066 176.419Z" fill="#40196D"/>
<path d="M67.9262 179.78H56.8066V180.911H67.9262V179.78Z" fill="#9C7ACD"/>
<path d="M59.834 178.055L61.5469 179.78H63.4814L60.8972 177.178C60.6313 177.579 60.2622 177.876 59.834 178.055Z" fill="white"/>
<path d="M5.84533 176.851V179.781H16.9649C16.9649 179.186 16.5957 178.651 16.0494 178.442L11.8408 176.642L11.9736 175.393C12.018 174.977 11.6783 174.605 11.2648 174.605C10.8809 174.605 10.556 174.932 10.5708 175.319V175.973L9.65523 177.713C9.30085 178.383 8.60676 178.799 7.8684 178.799H7.75026C6.68706 178.799 5.83057 177.937 5.83057 176.866" fill="#40196D"/>
<path d="M16.9658 179.78H5.84619V180.911H16.9658V179.78Z" fill="#9C7ACD"/>
<path d="M9.67012 177.713C9.53723 177.966 9.36001 178.174 9.15332 178.353L10.5709 179.781H12.5054L9.93595 177.193L9.67012 177.713Z" fill="white"/>
<path d="M6.99803 173.445L6.05293 175.795C5.92003 176.137 5.84619 176.508 5.84619 176.881C5.84619 177.952 6.70268 178.814 7.7659 178.814H7.88405C8.63714 178.814 9.33123 178.398 9.67087 177.728L11.9007 173.46H6.99803V173.445Z" fill="#9C7ACD"/>
<path d="M61.0002 173.445H56.1123L56.8063 176.479C57.0426 177.52 57.9729 178.249 59.0361 178.219C60.3356 178.189 61.3398 177.044 61.2069 175.75L61.0002 173.445Z" fill="#9C7ACD"/>
<path d="M44.979 118.268H26.21C25.0434 119.324 24.1869 120.722 23.8325 122.328L23.8178 122.388L19.0922 143.834L5.84619 173.46H11.9007L27.731 149.143C28.6614 147.73 29.5031 146.258 30.271 144.741L36.5469 132.442L48.9365 145.871L56.1133 173.46H62.0349L57.5605 142.436C57.3242 140.755 56.7631 139.134 55.9361 137.662L44.979 118.268Z" fill="#FFC83E"/>
<path d="M77.2737 86.8712C77.0075 86.7674 76.7122 86.8712 76.5797 87.1239L75.4132 89.2508C75.1321 89.7563 74.9406 90.3218 74.8367 90.9017L74.2609 94.1884L55.3001 96.4342L49.792 90.7528L44.5054 100.747L52.3024 104.927C53.4542 105.551 54.8276 105.626 56.0533 105.135L75.2801 97.4607C76.6531 96.7914 77.5983 95.3782 77.5983 93.7574C77.5983 92.8647 77.3178 92.0471 76.8452 91.3627L77.7164 87.7639C77.8196 87.3917 77.6281 87.0051 77.2737 86.8712Z" fill="#9C7ACD"/>
<path d="M13.0523 171.779H6.64341C6.58434 171.779 6.54004 171.734 6.54004 171.675C6.54004 171.615 6.58434 171.571 6.64341 171.571H13.0523C13.1114 171.571 13.1557 171.615 13.1557 171.675C13.1557 171.734 13.1114 171.779 13.0523 171.779Z" fill="#9C7ACD"/>
<path d="M39.6157 85.4402L29.9663 88.0753L30.4532 89.8839L40.1026 87.2488L39.6157 85.4402Z" fill="#40196D"/>
<path d="M61.7838 171.779H55.6702C55.6112 171.779 55.5669 171.734 55.5669 171.675C55.5669 171.615 55.6112 171.571 55.6702 171.571H61.7838C61.8429 171.571 61.8872 171.615 61.8872 171.675C61.8872 171.734 61.8429 171.779 61.7838 171.779Z" fill="#9C7ACD"/>
<path d="M10.6752 169.429C10.6604 169.429 10.6457 169.429 10.6309 169.414C10.5866 169.384 10.5718 169.325 10.5866 169.28L22.3412 148.354C23.2272 146.852 23.9951 145.261 24.6153 143.625L33.4165 120.959C33.4313 120.914 33.4903 120.885 33.5494 120.899C33.5937 120.914 33.6233 120.974 33.6085 121.033L24.8073 143.699C24.1871 145.335 23.4192 146.941 22.5332 148.458L10.7786 169.384C10.7342 169.414 10.7048 169.429 10.6752 169.429Z" fill="#9C7ACD"/>
<path d="M24.2303 125.555C24.1712 125.555 24.1417 125.51 24.127 125.466C24.127 125.406 24.1712 125.361 24.2156 125.361C26.977 125.183 29.4283 123.488 30.595 120.959C30.6245 120.914 30.6836 120.885 30.7278 120.914C30.7721 120.944 30.8016 121.004 30.7721 121.048C29.576 123.636 27.0656 125.376 24.2303 125.555Z" fill="#9C7ACD"/>
<path d="M44.5057 100.747L49.7924 90.7527L46.6765 87.5254C45.4804 86.0528 43.6493 85.1157 41.6262 85.1157C38.5694 85.1157 35.9999 87.2276 35.2763 90.0833L28.7345 116.095L26.2241 118.252H44.993L49.5561 103.439L44.5057 100.747Z" fill="#1DC8EF"/>
<path d="M22.4434 89.0424L16.9058 111.024L29.2215 114.163L35.1874 90.485C35.7338 88.2986 34.4343 86.0979 32.2635 85.5324L29.4725 84.8187C26.3715 84.0455 23.2261 85.934 22.4434 89.0424Z" fill="#FFC83E"/>
<path d="M23.8764 92.8495C25.294 93.2067 26.7707 92.6562 27.6272 91.4664L30.935 86.8116C31.4076 86.1573 32.1607 85.785 32.9433 85.8001C32.7366 85.6962 32.5004 85.6218 32.2641 85.5624L29.4731 84.8479C26.3867 84.0597 23.2413 85.949 22.4587 89.0574L21.6465 92.2846L23.8764 92.8495Z" fill="#9C7ACD"/>
<path d="M24.7469 93.058C24.4516 93.058 24.1415 93.0136 23.8461 92.9392L21.6015 92.3593C21.5424 92.3443 21.5129 92.2849 21.5277 92.2405C21.5424 92.1804 21.6015 92.151 21.6459 92.166L23.8904 92.7459C25.2786 93.1031 26.6961 92.5676 27.5231 91.4072L30.831 86.7524C31.3182 86.068 32.1009 85.6814 32.9279 85.6965C32.9869 85.6965 33.0313 85.7409 33.0313 85.8003C33.0313 85.8597 32.9869 85.8898 32.9279 85.9048C32.16 85.8898 31.4364 86.2463 30.9934 86.8863L27.6856 91.5411C26.9915 92.5082 25.8988 93.058 24.7469 93.058Z" fill="#40196D"/>
<path d="M23.8759 92.8497L23.049 92.6414L21.8233 97.5051C21.7052 97.9805 21.9857 98.4716 22.4731 98.5905C22.5469 98.6055 22.6207 98.6205 22.6945 98.6205C23.0933 98.6205 23.4624 98.3528 23.5511 97.9361L24.8063 92.9542C24.4962 92.9542 24.1713 92.9241 23.8759 92.8497Z" fill="#40196D"/>
<path d="M15.8428 103.514L14.7796 107.753C14.4252 109.165 15.267 110.608 16.6846 110.965L18.8258 111.515C20.2287 111.872 21.6611 111.024 22.0155 109.597L23.0787 105.358C23.4332 103.945 22.5914 102.502 21.1738 102.145L19.0326 101.595C17.6297 101.238 16.1973 102.101 15.8428 103.514Z" fill="#9C7ACD"/>
<path d="M22.9026 106.205C22.8878 106.205 22.8878 106.205 22.8731 106.205L15.6372 104.361C15.5781 104.346 15.5485 104.287 15.5633 104.242C15.5781 104.183 15.6372 104.153 15.6815 104.168L22.9173 106.012C22.9764 106.027 23.0059 106.086 22.9912 106.131C22.9764 106.175 22.9469 106.205 22.9026 106.205Z" fill="#40196D"/>
<path d="M30.7578 108.139C30.743 108.139 30.743 108.139 30.7282 108.139L28.7052 107.619C27.6715 107.351 26.815 106.712 26.2686 105.789C25.7222 104.867 25.5745 103.796 25.8256 102.755L28.0554 93.9206C28.0554 93.8913 28.085 93.8762 28.0997 93.8612C28.1145 93.8462 28.1441 93.8462 28.1735 93.8462L33.9475 95.3188C34.0066 95.3338 34.0361 95.3932 34.0213 95.4376C34.0066 95.497 33.9475 95.5271 33.9032 95.5121L28.2326 94.0545L26.0323 102.8C25.7813 103.781 25.929 104.807 26.4458 105.685C26.9626 106.563 27.7896 107.173 28.7643 107.425L30.7873 107.946C30.8464 107.961 30.8759 108.02 30.8612 108.065C30.8464 108.109 30.8021 108.139 30.7578 108.139Z" fill="#40196D"/>
<path d="M24.2901 86.0535C23.4336 86.7966 22.7839 87.7931 22.459 88.9679L25.0728 87.3765L24.2901 86.0535Z" fill="#40196D"/>
<path d="M58.0613 169.429C58.0169 169.429 57.9727 169.4 57.9579 169.355L53.321 146.957C52.9223 145.023 52.1397 143.224 51.0026 141.603L43.3533 130.835C43.3237 130.79 43.3385 130.731 43.3828 130.701C43.4271 130.671 43.4861 130.686 43.5157 130.731L51.165 141.498C52.3169 143.134 53.1143 144.964 53.513 146.927L58.1499 169.325C58.1646 169.385 58.1204 169.429 58.076 169.444C58.076 169.429 58.0613 169.429 58.0613 169.429Z" fill="#9C7ACD"/>
<path d="M36.5614 132.53C36.5467 132.53 36.5319 132.53 36.5172 132.515C36.4728 132.485 36.4433 132.426 36.4728 132.381L39.8988 125.659C39.9283 125.614 39.9874 125.585 40.0317 125.614C40.076 125.644 40.1055 125.704 40.076 125.748L36.65 132.471C36.6353 132.5 36.591 132.53 36.5614 132.53Z" fill="#9C7ACD"/>
<path d="M42.4388 99.6321C39.5149 104.659 35.1587 108.719 29.9459 111.248L29.2075 114.177C35.6164 111.53 41.0359 106.756 44.5062 100.747L42.4388 99.6321Z" fill="#40196D"/>
<path d="M55.0053 80.907L54.6509 80.6994L55.8174 78.6913C56.9103 76.8028 56.2752 74.3637 54.3851 73.2627C52.5096 72.1624 50.0879 72.8017 48.9951 74.7052L45.1113 81.4425L49.7187 84.135C50.9443 84.8487 52.5096 84.4321 53.2185 83.1979L53.9125 81.978L54.2669 82.1863C54.6214 82.3947 55.0644 82.2758 55.2711 81.9186C55.4778 81.5621 55.3597 81.1154 55.0053 80.907Z" fill="#9C7ACD"/>
<path d="M53.6767 75.5084L54.799 73.5597C54.666 73.4559 54.5332 73.3664 54.3855 73.2776C52.51 72.1766 50.0883 72.8166 48.9955 74.7202L47.0906 78.0219C47.0758 78.0362 47.0758 78.0663 47.061 78.0813C49.5419 78.8695 52.3181 77.858 53.6767 75.5084Z" fill="#6F4A9D"/>
<path d="M55.3299 75.434C55.3151 75.434 55.3004 75.434 55.2856 75.419L49.2163 71.8646C49.172 71.8345 49.1572 71.7751 49.1867 71.7307C49.2163 71.6856 49.2754 71.6713 49.3197 71.7006L55.389 75.2551C55.4333 75.2851 55.4481 75.3445 55.4185 75.3889C55.4037 75.419 55.3742 75.434 55.3299 75.434Z" fill="#40196D"/>
<path d="M54.6799 76.5643C54.6652 76.5643 54.6504 76.5643 54.6357 76.5493L48.5664 72.9948C48.5221 72.9655 48.5073 72.9053 48.5368 72.861C48.5664 72.8166 48.6255 72.8015 48.6698 72.8316L54.739 76.386C54.7833 76.4154 54.7981 76.4748 54.7685 76.5199C54.7538 76.5493 54.7095 76.5643 54.6799 76.5643Z" fill="#40196D"/>
<path d="M54.0305 77.6948C54.0158 77.6948 54.001 77.6948 53.9863 77.6797L47.917 74.1253C47.8727 74.0952 47.8579 74.0358 47.8874 73.9914C47.917 73.9464 47.976 73.932 48.0203 73.9614L54.0896 77.5158C54.1339 77.5459 54.1487 77.6053 54.1191 77.6497C54.0896 77.6797 54.0601 77.6948 54.0305 77.6948Z" fill="#40196D"/>
<path d="M53.3813 78.8245C53.3665 78.8245 53.3517 78.8245 53.3369 78.8095L47.2529 75.2551C47.2086 75.225 47.1938 75.1656 47.2234 75.1212C47.2529 75.0768 47.312 75.0618 47.3563 75.0918L53.4256 78.6463C53.4698 78.6756 53.4846 78.7351 53.4551 78.7801C53.4403 78.8095 53.4107 78.8245 53.3813 78.8245Z" fill="#40196D"/>
<path d="M52.7161 79.9549C52.7013 79.9549 52.6866 79.9549 52.6718 79.9399L46.6025 76.3854C46.5582 76.3561 46.5434 76.2967 46.573 76.2516C46.6025 76.2072 46.6616 76.1922 46.7059 76.2222L52.7751 79.7766C52.8195 79.806 52.8342 79.8661 52.8047 79.9105C52.7899 79.9399 52.7604 79.9549 52.7161 79.9549Z" fill="#40196D"/>
<path d="M49.4534 79.4644L48.9366 79.1666C48.5231 78.9289 48.3754 78.3934 48.6265 77.9768L49.483 76.4898C49.7192 76.0732 50.2509 75.9243 50.6643 76.177L51.1812 76.4748C51.5946 76.7125 51.7423 77.248 51.4913 77.6646L50.6348 79.1516C50.3985 79.5682 49.8669 79.7021 49.4534 79.4644Z" fill="#9C7ACD"/>
<path d="M49.0103 74.7051C49.9406 73.0986 51.816 72.3849 53.5143 72.891C53.7653 73.307 54.0459 73.7236 54.356 74.1102C55.4931 75.5678 57.0731 76.9509 58.8895 77.4119C59.5392 77.5758 60.2776 77.6353 60.7944 77.1148C61.2965 76.5936 61.2226 75.8355 60.7354 75.3444C59.997 74.6156 58.7418 74.2441 57.7524 74.1102C58.1068 74.0658 58.476 73.9613 58.8304 73.8725C59.1405 73.783 59.4801 73.6492 59.7016 73.3814C60.0561 72.9204 59.8345 72.4744 59.3768 72.2066C58.6236 71.775 57.6786 71.7606 56.8368 71.805C55.936 71.8494 55.0353 72.0133 54.1345 72.1472C54.356 72.0427 54.5775 71.9238 54.7252 71.7306C54.7694 71.6711 54.799 71.6117 54.8138 71.5523C54.9909 71.0168 54.2969 70.8679 53.9129 70.898C53.3371 70.9273 52.7907 71.1356 52.3033 71.4184C50.93 72.1472 49.7781 73.352 49.0103 74.7051Z" fill="#40196D"/>
<path d="M51.3285 79.8362C50.8116 79.9701 50.5015 80.5055 50.6491 81.026C50.7821 81.5465 51.3137 81.8586 51.8306 81.7097L51.3285 79.8362Z" fill="#40196D"/>
<path d="M53.8983 79.1823C53.8835 79.1823 53.8687 79.1823 53.854 79.1673C53.8097 79.1373 53.7949 79.0778 53.8245 79.0334L54.0903 78.5874C54.1198 78.5424 54.1789 78.5273 54.2232 78.5574C54.2675 78.5874 54.2822 78.6469 54.2527 78.6913L53.9869 79.1373C53.9721 79.1523 53.9426 79.1823 53.8983 79.1823Z" fill="#40196D"/>
<path d="M139.768 62.8964V29.3289H131.706H90.4761H82.4277V62.8964H139.768Z" fill="#1DC8EF"/>
<path d="M82.4281 133.645C82.369 133.645 82.3242 133.601 82.3242 133.541V132.738C82.3242 132.678 82.369 132.634 82.4281 132.634H83.2253C83.2843 132.634 83.3285 132.678 83.3285 132.738C83.3285 132.797 83.2843 132.842 83.2253 132.842H82.5313V133.541C82.5164 133.601 82.4722 133.645 82.4281 133.645Z" fill="#40196D"/>
<path d="M82.4269 164.104C82.3679 164.104 82.3237 164.06 82.3237 164V162.483C82.3237 162.424 82.3679 162.379 82.4269 162.379C82.486 162.379 82.5302 162.424 82.5302 162.483V164C82.5152 164.06 82.4711 164.104 82.4269 164.104ZM82.4269 161.055C82.3679 161.055 82.3237 161.011 82.3237 160.951V159.434C82.3237 159.375 82.3679 159.331 82.4269 159.331C82.486 159.331 82.5302 159.375 82.5302 159.434V160.951C82.5152 161.011 82.4711 161.055 82.4269 161.055ZM82.4269 158.007C82.3679 158.007 82.3237 157.962 82.3237 157.902V156.385C82.3237 156.326 82.3679 156.282 82.4269 156.282C82.486 156.282 82.5302 156.326 82.5302 156.385V157.902C82.5152 157.962 82.4711 158.007 82.4269 158.007ZM82.4269 154.973C82.3679 154.973 82.3237 154.928 82.3237 154.869V153.336C82.3237 153.277 82.3679 153.233 82.4269 153.233C82.486 153.233 82.5302 153.277 82.5302 153.336V154.853C82.5152 154.928 82.4711 154.973 82.4269 154.973ZM82.4269 151.924C82.3679 151.924 82.3237 151.879 82.3237 151.82V150.303C82.3237 150.243 82.3679 150.199 82.4269 150.199C82.486 150.199 82.5302 150.243 82.5302 150.303V151.82C82.5152 151.879 82.4711 151.924 82.4269 151.924ZM82.4269 148.875C82.3679 148.875 82.3237 148.831 82.3237 148.771V147.254C82.3237 147.194 82.3679 147.15 82.4269 147.15C82.486 147.15 82.5302 147.194 82.5302 147.254V148.771C82.5152 148.831 82.4711 148.875 82.4269 148.875ZM82.4269 145.826C82.3679 145.826 82.3237 145.782 82.3237 145.722V144.205C82.3237 144.145 82.3679 144.101 82.4269 144.101C82.486 144.101 82.5302 144.145 82.5302 144.205V145.722C82.5152 145.782 82.4711 145.826 82.4269 145.826ZM82.4269 142.777C82.3679 142.777 82.3237 142.733 82.3237 142.673V141.156C82.3237 141.097 82.3679 141.052 82.4269 141.052C82.486 141.052 82.5302 141.097 82.5302 141.156V142.673C82.5152 142.733 82.4711 142.777 82.4269 142.777ZM82.4269 139.743C82.3679 139.743 82.3237 139.699 82.3237 139.639V138.122C82.3237 138.063 82.3679 138.018 82.4269 138.018C82.486 138.018 82.5302 138.063 82.5302 138.122V139.639C82.5152 139.699 82.4711 139.743 82.4269 139.743ZM82.4269 136.694C82.3679 136.694 82.3237 136.65 82.3237 136.59V135.073C82.3237 135.014 82.3679 134.969 82.4269 134.969C82.486 134.969 82.5302 135.014 82.5302 135.073V136.59C82.5152 136.65 82.4711 136.694 82.4269 136.694Z" fill="#40196D"/>
<path d="M83.2106 166.424H82.4128C82.3537 166.424 82.3096 166.38 82.3096 166.32V165.517C82.3096 165.458 82.3537 165.413 82.4128 165.413C82.4719 165.413 82.516 165.458 82.516 165.517V166.216H83.2106C83.2697 166.216 83.3138 166.26 83.3138 166.32C83.3138 166.38 83.2697 166.424 83.2106 166.424Z" fill="#40196D"/>
<path d="M137.376 166.424H135.781C135.722 166.424 135.678 166.38 135.678 166.32C135.678 166.26 135.722 166.216 135.781 166.216H137.376C137.435 166.216 137.479 166.26 137.479 166.32C137.479 166.38 137.435 166.424 137.376 166.424ZM134.201 166.424H132.606C132.547 166.424 132.503 166.38 132.503 166.32C132.503 166.26 132.547 166.216 132.606 166.216H134.201C134.26 166.216 134.305 166.26 134.305 166.32C134.305 166.38 134.246 166.424 134.201 166.424ZM131.011 166.424H129.416C129.357 166.424 129.313 166.38 129.313 166.32C129.313 166.26 129.357 166.216 129.416 166.216H131.011C131.071 166.216 131.115 166.26 131.115 166.32C131.115 166.38 131.071 166.424 131.011 166.424ZM127.821 166.424H126.227C126.168 166.424 126.123 166.38 126.123 166.32C126.123 166.26 126.168 166.216 126.227 166.216H127.821C127.881 166.216 127.925 166.26 127.925 166.32C127.925 166.38 127.881 166.424 127.821 166.424ZM124.632 166.424H123.037C122.978 166.424 122.934 166.38 122.934 166.32C122.934 166.26 122.978 166.216 123.037 166.216H124.632C124.691 166.216 124.735 166.26 124.735 166.32C124.735 166.38 124.691 166.424 124.632 166.424ZM121.442 166.424H119.848C119.789 166.424 119.744 166.38 119.744 166.32C119.744 166.26 119.789 166.216 119.848 166.216H121.442C121.501 166.216 121.546 166.26 121.546 166.32C121.546 166.38 121.501 166.424 121.442 166.424ZM118.268 166.424H116.673C116.614 166.424 116.57 166.38 116.57 166.32C116.57 166.26 116.614 166.216 116.673 166.216H118.268C118.327 166.216 118.371 166.26 118.371 166.32C118.371 166.38 118.312 166.424 118.268 166.424ZM115.078 166.424H113.483C113.424 166.424 113.38 166.38 113.38 166.32C113.38 166.26 113.424 166.216 113.483 166.216H115.078C115.137 166.216 115.181 166.26 115.181 166.32C115.181 166.38 115.137 166.424 115.078 166.424ZM111.888 166.424H110.293C110.234 166.424 110.19 166.38 110.19 166.32C110.19 166.26 110.234 166.216 110.293 166.216H111.888C111.947 166.216 111.992 166.26 111.992 166.32C111.992 166.38 111.947 166.424 111.888 166.424ZM108.698 166.424H107.118C107.059 166.424 107.015 166.38 107.015 166.32C107.015 166.26 107.059 166.216 107.118 166.216H108.713C108.772 166.216 108.817 166.26 108.817 166.32C108.817 166.38 108.758 166.424 108.698 166.424ZM105.523 166.424H103.928C103.869 166.424 103.825 166.38 103.825 166.32C103.825 166.26 103.869 166.216 103.928 166.216H105.523C105.582 166.216 105.627 166.26 105.627 166.32C105.627 166.38 105.568 166.424 105.523 166.424ZM102.334 166.424H100.739C100.68 166.424 100.636 166.38 100.636 166.32C100.636 166.26 100.68 166.216 100.739 166.216H102.334C102.393 166.216 102.437 166.26 102.437 166.32C102.437 166.38 102.393 166.424 102.334 166.424ZM99.1441 166.424H97.5491C97.49 166.424 97.4458 166.38 97.4458 166.32C97.4458 166.26 97.49 166.216 97.5491 166.216H99.1441C99.2031 166.216 99.2473 166.26 99.2473 166.32C99.2473 166.38 99.2031 166.424 99.1441 166.424ZM95.9541 166.424H94.3597C94.3007 166.424 94.2558 166.38 94.2558 166.32C94.2558 166.26 94.3007 166.216 94.3597 166.216H95.9541C96.0131 166.216 96.058 166.26 96.058 166.32C96.058 166.38 96.0131 166.424 95.9541 166.424ZM92.7797 166.424H91.1847C91.1256 166.424 91.0815 166.38 91.0815 166.32C91.0815 166.26 91.1256 166.216 91.1847 166.216H92.7797C92.8388 166.216 92.8829 166.26 92.8829 166.32C92.8829 166.38 92.8238 166.424 92.7797 166.424ZM89.5897 166.424H87.9947C87.9356 166.424 87.8915 166.38 87.8915 166.32C87.8915 166.26 87.9356 166.216 87.9947 166.216H89.5897C89.6488 166.216 89.6929 166.26 89.6929 166.32C89.6929 166.38 89.6338 166.424 89.5897 166.424ZM86.4004 166.424H84.8054C84.7463 166.424 84.7021 166.38 84.7021 166.32C84.7021 166.26 84.7463 166.216 84.8054 166.216H86.4004C86.4594 166.216 86.5036 166.26 86.5036 166.32C86.5036 166.38 86.4594 166.424 86.4004 166.424Z" fill="#40196D"/>
<path d="M139.768 166.424H138.971C138.912 166.424 138.868 166.38 138.868 166.32C138.868 166.26 138.912 166.216 138.971 166.216H139.665V165.517C139.665 165.458 139.709 165.413 139.768 165.413C139.827 165.413 139.871 165.458 139.871 165.517V166.32C139.871 166.38 139.827 166.424 139.768 166.424Z" fill="#40196D"/>
<path d="M139.768 164.104C139.709 164.104 139.665 164.06 139.665 164V162.483C139.665 162.424 139.709 162.379 139.768 162.379C139.827 162.379 139.872 162.424 139.872 162.483V164C139.872 164.06 139.827 164.104 139.768 164.104ZM139.768 161.055C139.709 161.055 139.665 161.011 139.665 160.951V159.434C139.665 159.375 139.709 159.331 139.768 159.331C139.827 159.331 139.872 159.375 139.872 159.434V160.951C139.872 161.011 139.827 161.055 139.768 161.055ZM139.768 158.007C139.709 158.007 139.665 157.962 139.665 157.902V156.385C139.665 156.326 139.709 156.282 139.768 156.282C139.827 156.282 139.872 156.326 139.872 156.385V157.902C139.872 157.962 139.827 158.007 139.768 158.007ZM139.768 154.973C139.709 154.973 139.665 154.928 139.665 154.869V153.336C139.665 153.277 139.709 153.233 139.768 153.233C139.827 153.233 139.872 153.277 139.872 153.336V154.853C139.872 154.928 139.827 154.973 139.768 154.973ZM139.768 151.924C139.709 151.924 139.665 151.879 139.665 151.82V150.303C139.665 150.243 139.709 150.199 139.768 150.199C139.827 150.199 139.872 150.243 139.872 150.303V151.82C139.872 151.879 139.827 151.924 139.768 151.924ZM139.768 148.875C139.709 148.875 139.665 148.831 139.665 148.771V147.254C139.665 147.194 139.709 147.15 139.768 147.15C139.827 147.15 139.872 147.194 139.872 147.254V148.771C139.872 148.831 139.827 148.875 139.768 148.875ZM139.768 145.826C139.709 145.826 139.665 145.782 139.665 145.722V144.205C139.665 144.145 139.709 144.101 139.768 144.101C139.827 144.101 139.872 144.145 139.872 144.205V145.722C139.872 145.782 139.827 145.826 139.768 145.826ZM139.768 142.777C139.709 142.777 139.665 142.733 139.665 142.673V141.156C139.665 141.097 139.709 141.052 139.768 141.052C139.827 141.052 139.872 141.097 139.872 141.156V142.673C139.872 142.733 139.827 142.777 139.768 142.777ZM139.768 139.743C139.709 139.743 139.665 139.699 139.665 139.639V138.122C139.665 138.063 139.709 138.018 139.768 138.018C139.827 138.018 139.872 138.063 139.872 138.122V139.639C139.872 139.699 139.827 139.743 139.768 139.743ZM139.768 136.694C139.709 136.694 139.665 136.65 139.665 136.59V135.073C139.665 135.014 139.709 134.969 139.768 134.969C139.827 134.969 139.872 135.014 139.872 135.073V136.59C139.872 136.65 139.827 136.694 139.768 136.694Z" fill="#40196D"/>
<path d="M139.768 133.645C139.709 133.645 139.665 133.601 139.665 133.541V132.842H138.971C138.912 132.842 138.868 132.797 138.868 132.738C138.868 132.678 138.912 132.634 138.971 132.634H139.768C139.827 132.634 139.871 132.678 139.871 132.738V133.541C139.871 133.601 139.827 133.645 139.768 133.645Z" fill="#40196D"/>
<path d="M137.376 132.842H135.781C135.722 132.842 135.678 132.797 135.678 132.738C135.678 132.678 135.722 132.634 135.781 132.634H137.376C137.435 132.634 137.479 132.678 137.479 132.738C137.479 132.797 137.435 132.842 137.376 132.842ZM134.201 132.842H132.606C132.547 132.842 132.503 132.797 132.503 132.738C132.503 132.678 132.547 132.634 132.606 132.634H134.201C134.26 132.634 134.305 132.678 134.305 132.738C134.29 132.797 134.246 132.842 134.201 132.842ZM131.011 132.842H129.416C129.357 132.842 129.313 132.797 129.313 132.738C129.313 132.678 129.357 132.634 129.416 132.634H131.011C131.071 132.634 131.115 132.678 131.115 132.738C131.115 132.797 131.071 132.842 131.011 132.842ZM127.821 132.842H126.227C126.168 132.842 126.123 132.797 126.123 132.738C126.123 132.678 126.168 132.634 126.227 132.634H127.821C127.881 132.634 127.925 132.678 127.925 132.738C127.925 132.797 127.881 132.842 127.821 132.842ZM124.632 132.842H123.037C122.978 132.842 122.934 132.797 122.934 132.738C122.934 132.678 122.978 132.634 123.037 132.634H124.632C124.691 132.634 124.735 132.678 124.735 132.738C124.735 132.797 124.691 132.842 124.632 132.842ZM121.457 132.842H119.862C119.803 132.842 119.759 132.797 119.759 132.738C119.759 132.678 119.803 132.634 119.862 132.634H121.457C121.516 132.634 121.56 132.678 121.56 132.738C121.546 132.797 121.501 132.842 121.457 132.842ZM118.268 132.842H116.673C116.614 132.842 116.57 132.797 116.57 132.738C116.57 132.678 116.614 132.634 116.673 132.634H118.268C118.327 132.634 118.371 132.678 118.371 132.738C118.356 132.797 118.312 132.842 118.268 132.842ZM115.078 132.842H113.483C113.424 132.842 113.38 132.797 113.38 132.738C113.38 132.678 113.424 132.634 113.483 132.634H115.078C115.137 132.634 115.181 132.678 115.181 132.738C115.181 132.797 115.137 132.842 115.078 132.842ZM111.888 132.842H110.293C110.234 132.842 110.19 132.797 110.19 132.738C110.19 132.678 110.234 132.634 110.293 132.634H111.888C111.947 132.634 111.992 132.678 111.992 132.738C111.992 132.797 111.947 132.842 111.888 132.842ZM108.698 132.842H107.118C107.059 132.842 107.015 132.797 107.015 132.738C107.015 132.678 107.059 132.634 107.118 132.634H108.713C108.772 132.634 108.817 132.678 108.817 132.738C108.802 132.797 108.758 132.842 108.698 132.842ZM105.523 132.842H103.928C103.869 132.842 103.825 132.797 103.825 132.738C103.825 132.678 103.869 132.634 103.928 132.634H105.523C105.582 132.634 105.627 132.678 105.627 132.738C105.612 132.797 105.568 132.842 105.523 132.842ZM102.334 132.842H100.739C100.68 132.842 100.636 132.797 100.636 132.738C100.636 132.678 100.68 132.634 100.739 132.634H102.334C102.393 132.634 102.437 132.678 102.437 132.738C102.437 132.797 102.393 132.842 102.334 132.842ZM99.1441 132.842H97.5491C97.49 132.842 97.4458 132.797 97.4458 132.738C97.4458 132.678 97.49 132.634 97.5491 132.634H99.1441C99.2031 132.634 99.2473 132.678 99.2473 132.738C99.2473 132.797 99.2031 132.842 99.1441 132.842ZM95.9541 132.842H94.3597C94.3007 132.842 94.2558 132.797 94.2558 132.738C94.2558 132.678 94.3007 132.634 94.3597 132.634H95.9541C96.0131 132.634 96.058 132.678 96.058 132.738C96.058 132.797 96.0131 132.842 95.9541 132.842ZM92.7797 132.842H91.1847C91.1256 132.842 91.0815 132.797 91.0815 132.738C91.0815 132.678 91.1256 132.634 91.1847 132.634H92.7797C92.8388 132.634 92.8829 132.678 92.8829 132.738C92.8679 132.797 92.8238 132.842 92.7797 132.842ZM89.5897 132.842H87.9947C87.9356 132.842 87.8915 132.797 87.8915 132.738C87.8915 132.678 87.9356 132.634 87.9947 132.634H89.5897C89.6488 132.634 89.6929 132.678 89.6929 132.738C89.6786 132.797 89.6338 132.842 89.5897 132.842ZM86.4004 132.842H84.8054C84.7463 132.842 84.7021 132.797 84.7021 132.738C84.7021 132.678 84.7463 132.634 84.8054 132.634H86.4004C86.4594 132.634 86.5036 132.678 86.5036 132.738C86.5036 132.797 86.4594 132.842 86.4004 132.842Z" fill="#40196D"/>
<path d="M116.805 66.5398V108.614H82.4277V129.109H139.768V66.5398H116.805Z" fill="#FFC83E"/>
<path d="M86.7102 89.5778C86.6953 89.5778 86.6803 89.5779 86.6654 89.5628C86.6212 89.5478 86.6063 89.5184 86.6063 89.4733V80.2376L77.3772 89.5335C77.333 89.5779 77.274 89.5779 77.2441 89.5335C77.2149 89.4884 77.2 89.429 77.2441 89.3996L86.6511 79.9254C86.6803 79.8954 86.7245 79.881 86.7543 79.9104C86.7985 79.9254 86.8134 79.9555 86.8134 79.9999V89.2357L104.991 70.9273C105.036 70.8829 105.095 70.8829 105.124 70.9273C105.154 70.9717 105.168 71.0318 105.124 71.0612L86.7835 89.5478C86.7686 89.5628 86.7394 89.5778 86.7102 89.5778Z" fill="#40196D"/>
<path d="M105.065 75.4491C105.006 75.4491 104.962 75.4047 104.962 75.3453V71.0914H100.738C100.679 71.0914 100.635 71.047 100.635 70.9876C100.635 70.9282 100.679 70.8838 100.738 70.8838H105.05C105.109 70.8838 105.154 70.9282 105.154 70.9876V75.3302C105.168 75.4047 105.124 75.4491 105.065 75.4491Z" fill="#40196D"/>
<path d="M86.5626 41.1523H84.9974C84.9384 41.1523 84.8936 41.1077 84.8936 41.0482C84.8936 40.9887 84.9384 40.9441 84.9974 40.9441H86.5626C87.2565 40.9441 87.8174 40.3789 87.8174 39.6799C87.8174 38.9809 87.2565 38.4158 86.5626 38.4158H84.9974C84.9384 38.4158 84.8936 38.3712 84.8936 38.3117C84.8936 38.2522 84.9384 38.2075 84.9974 38.2075H86.5626C87.3597 38.2075 88.0095 38.8619 88.0095 39.6651C88.0095 40.498 87.3597 41.1523 86.5626 41.1523Z" fill="#40196D"/>
<path d="M86.5626 54.0173H84.9974C84.9384 54.0173 84.8936 53.9727 84.8936 53.9132C84.8936 53.8537 84.9384 53.809 84.9974 53.809H86.5626C87.2565 53.809 87.8174 53.2439 87.8174 52.5449C87.8174 51.8459 87.2565 51.2807 86.5626 51.2807H84.9974C84.9384 51.2807 84.8936 51.2361 84.8936 51.1766C84.8936 51.1171 84.9384 51.0725 84.9974 51.0725H86.5626C87.3597 51.0725 88.0095 51.7269 88.0095 52.53C88.0095 53.348 87.3597 54.0173 86.5626 54.0173Z" fill="#40196D"/>
<path d="M111.091 54.4488C106.529 54.4488 102.822 50.7158 102.822 46.1202C102.822 41.5245 106.529 37.7915 111.091 37.7915C115.654 37.7915 119.361 41.5245 119.361 46.1202C119.361 50.7158 115.654 54.4488 111.091 54.4488ZM111.091 37.9848C106.647 37.9848 103.014 41.6286 103.014 46.1202C103.014 50.5968 106.632 54.2555 111.091 54.2555C115.536 54.2555 119.169 50.6117 119.169 46.1202C119.169 41.6286 115.551 37.9848 111.091 37.9848Z" fill="#40196D"/>
<path d="M111.091 50.6265C108.625 50.6265 106.602 48.6038 106.602 46.1052C106.602 43.6215 108.61 41.584 111.091 41.584C113.557 41.584 115.58 43.6067 115.58 46.1052C115.58 48.6038 113.572 50.6265 111.091 50.6265ZM111.091 41.7922C108.728 41.7922 106.809 43.7256 106.809 46.1052C106.809 48.4849 108.728 50.4183 111.091 50.4183C113.453 50.4183 115.373 48.4849 115.373 46.1052C115.388 43.7405 113.453 41.7922 111.091 41.7922Z" fill="#40196D"/>
<path d="M111.091 39.7249C111.032 39.7249 110.987 39.6803 110.987 39.6208V37.8956C110.987 37.8361 111.032 37.7915 111.091 37.7915C111.15 37.7915 111.194 37.8361 111.194 37.8956V39.6208C111.194 39.6803 111.15 39.7249 111.091 39.7249Z" fill="#40196D"/>
<path d="M106.528 41.6286C106.498 41.6286 106.483 41.6137 106.454 41.5988L105.243 40.3793C105.198 40.3347 105.198 40.2752 105.243 40.2454C105.287 40.2157 105.346 40.2008 105.376 40.2454L106.587 41.465C106.631 41.5096 106.631 41.5691 106.587 41.5988C106.587 41.6137 106.557 41.6286 106.528 41.6286Z" fill="#40196D"/>
<path d="M104.638 46.2097H102.925C102.866 46.2097 102.822 46.1651 102.822 46.1056C102.822 46.0461 102.866 46.0015 102.925 46.0015H104.638C104.697 46.0015 104.741 46.0461 104.741 46.1056C104.741 46.1651 104.697 46.2097 104.638 46.2097Z" fill="#40196D"/>
<path d="M105.317 52.0394C105.287 52.0394 105.272 52.0245 105.243 52.0097C105.198 51.9651 105.198 51.9056 105.243 51.8758L106.454 50.6563C106.498 50.6117 106.557 50.6117 106.587 50.6563C106.631 50.7009 106.631 50.7603 106.587 50.7901L105.376 52.0097C105.361 52.0245 105.346 52.0394 105.317 52.0394Z" fill="#40196D"/>
<path d="M111.091 54.4488C111.032 54.4488 110.987 54.4041 110.987 54.3446V52.6195C110.987 52.56 111.032 52.5154 111.091 52.5154C111.15 52.5154 111.194 52.56 111.194 52.6195V54.3446C111.194 54.4041 111.15 54.4488 111.091 54.4488Z" fill="#40196D"/>
<path d="M116.88 52.0393C116.851 52.0393 116.836 52.0244 116.806 52.0095L115.595 50.7899C115.551 50.7453 115.551 50.6859 115.595 50.6561C115.64 50.6264 115.698 50.6115 115.728 50.6561L116.939 51.8756C116.984 51.9203 116.984 51.9798 116.939 52.0095C116.925 52.0244 116.895 52.0393 116.88 52.0393Z" fill="#40196D"/>
<path d="M119.271 46.2097H117.558C117.499 46.2097 117.455 46.1651 117.455 46.1056C117.455 46.0461 117.499 46.0015 117.558 46.0015H119.271C119.331 46.0015 119.375 46.0461 119.375 46.1056C119.36 46.1651 119.316 46.2097 119.271 46.2097Z" fill="#40196D"/>
<path d="M115.653 41.6283C115.624 41.6283 115.609 41.6134 115.579 41.5985C115.535 41.5539 115.535 41.4944 115.579 41.4647L116.791 40.2451C116.835 40.2005 116.894 40.2005 116.923 40.2451C116.953 40.2897 116.968 40.3492 116.923 40.379L115.713 41.5985C115.713 41.6134 115.683 41.6283 115.653 41.6283Z" fill="#40196D"/>
<path d="M134.01 71.3291V124.32H121.561V108.615V71.3291H134.01Z" fill="#40196D"/>
<path d="M116.821 113.389H104.372V124.32H116.821V113.389Z" fill="#9C7ACD"/>
<path d="M99.6175 118.862H87.1685V124.32H99.6175V118.862Z" fill="#9C7ACD"/>
<path d="M116.821 118.862H104.372V124.32H116.821V118.862Z" fill="#40196D"/>
<path d="M134.01 103.067H121.561V124.335H134.01V103.067Z" fill="#9C7ACD"/>
<path d="M134.01 89.4734H121.561V103.052H134.01V89.4734Z" fill="#40196D"/>
<path d="M134.01 84.0005H121.561V89.4735H134.01V84.0005Z" fill="#9C7ACD"/>
<path d="M111.091 154.437C113.782 154.437 115.964 152.24 115.964 149.529C115.964 146.819 113.782 144.621 111.091 144.621C108.4 144.621 106.218 146.819 106.218 149.529C106.218 152.24 108.4 154.437 111.091 154.437Z" fill="#9C7ACD"/>
<path d="M111.091 152.058C111.031 152.058 110.987 152.013 110.987 151.954V147.105C110.987 147.046 111.031 147.001 111.091 147.001C111.15 147.001 111.194 147.046 111.194 147.105V151.954C111.194 152.013 111.15 152.058 111.091 152.058Z" fill="#40196D"/>
<path d="M113.498 149.634H108.684C108.625 149.634 108.581 149.589 108.581 149.529C108.581 149.47 108.625 149.425 108.684 149.425H113.498C113.557 149.425 113.602 149.47 113.602 149.529C113.602 149.589 113.557 149.634 113.498 149.634Z" fill="#40196D"/>
<path d="M177.277 60.5762C182.015 60.5762 185.856 56.7075 185.856 51.9352C185.856 47.1629 182.015 43.2942 177.277 43.2942C172.538 43.2942 168.697 47.1629 168.697 51.9352C168.697 56.7075 172.538 60.5762 177.277 60.5762Z" fill="#48D38A"/>
<path d="M177.276 63.6548C172.152 63.6548 167.559 60.2043 166.112 55.2518L159.423 52.0244C159.393 52.0095 159.364 51.9798 159.364 51.9352C159.364 51.8906 159.379 51.8608 159.423 51.846L166.112 48.6186C167.559 43.666 172.137 40.2156 177.276 40.2156C183.685 40.2156 188.912 45.4656 188.912 51.9352C188.912 58.4048 183.7 63.6548 177.276 63.6548ZM159.703 51.9352L166.245 55.0882C166.275 55.1031 166.29 55.1179 166.304 55.1477C167.707 60.0407 172.226 63.4466 177.291 63.4466C183.596 63.4466 188.721 58.2858 188.721 51.9352C188.721 45.5846 183.596 40.4238 177.291 40.4238C172.241 40.4238 167.722 43.8296 166.304 48.7227C166.29 48.7524 166.275 48.7673 166.245 48.7822L159.703 51.9352Z" fill="#F0F0F0"/>
<path d="M159.157 37.7466C159.128 37.7466 159.113 37.7317 159.084 37.7168C159.054 37.6871 159.054 37.6424 159.054 37.6127L160.206 34.311C159.054 32.1544 159.439 29.4625 161.166 27.7224C162.214 26.6664 163.602 26.0864 165.079 26.0864C166.556 26.0864 167.944 26.6664 168.992 27.7224C171.149 29.8938 171.149 33.4335 168.992 35.6049C167.28 37.3301 164.592 37.7317 162.451 36.5717L159.172 37.7317C159.187 37.7466 159.172 37.7466 159.157 37.7466ZM161.255 27.7968L161.328 27.8712C159.66 29.5517 159.29 32.1693 160.428 34.2515C160.442 34.2812 160.442 34.311 160.428 34.3259L159.335 37.4639L162.451 36.3634C162.48 36.3485 162.51 36.3634 162.525 36.3634C164.592 37.5086 167.191 37.1368 168.86 35.4561C170.942 33.3591 170.942 29.9533 168.86 27.8563C167.856 26.8449 166.512 26.2797 165.094 26.2797C163.676 26.2797 162.332 26.8449 161.328 27.8563L161.255 27.7968Z" fill="#40196D"/>
<path d="M175.534 55.0736C175.504 55.0736 175.49 55.0588 175.46 55.0439L172.934 52.5007C172.89 52.4561 172.89 52.3966 172.934 52.3668C172.979 52.3371 173.038 52.3222 173.068 52.3668L175.519 54.8357L181.485 48.8272C181.529 48.7826 181.588 48.7826 181.618 48.8272C181.662 48.8718 181.662 48.9312 181.618 48.961L175.593 55.029C175.578 55.0588 175.549 55.0736 175.534 55.0736Z" fill="#40196D"/>
<path d="M59.9513 67.4918C58.7699 67.4918 57.8101 66.5251 57.8101 65.3353C57.8101 64.1455 58.7699 63.1787 59.9513 63.1787C61.1327 63.1787 62.0925 64.1455 62.0925 65.3353C62.0925 66.5251 61.1327 67.4918 59.9513 67.4918ZM59.9513 63.3721C58.8733 63.3721 58.002 64.2495 58.002 65.3353C58.002 66.421 58.8733 67.2985 59.9513 67.2985C61.0293 67.2985 61.9005 66.421 61.9005 65.3353C61.9005 64.2495 61.0293 63.3721 59.9513 63.3721Z" fill="#48D38A"/>
<path d="M76.684 60.933C76.6541 60.933 76.6391 60.9181 76.6099 60.9033L74.3061 58.5832C74.2619 58.5386 74.2619 58.4791 74.3061 58.4493L76.6099 56.1292C76.6541 56.0846 76.7132 56.0846 76.743 56.1292L79.0462 58.4493C79.0904 58.4939 79.0904 58.5534 79.0462 58.5832L76.743 60.9033C76.7281 60.9181 76.7131 60.933 76.684 60.933ZM74.5274 58.5237L76.684 60.6951L78.8398 58.5237L76.684 56.3522L74.5274 58.5237Z" fill="#FFC83E"/>
<path d="M52.6868 56.0251C52.6573 56.0251 52.6426 56.0102 52.613 55.9953L51.033 54.4039C51.0182 54.3891 51.0034 54.3593 51.0034 54.3296C51.0034 54.2999 51.0182 54.285 51.033 54.2552L52.613 52.6638C52.6573 52.6192 52.7164 52.6192 52.7459 52.6638L54.326 54.2552C54.3703 54.2999 54.3703 54.3593 54.326 54.3891L52.7459 55.9804C52.7459 56.0251 52.7164 56.0251 52.6868 56.0251ZM51.2544 54.3445L52.6868 55.7871L54.1193 54.3445L52.6868 52.9018L51.2544 54.3445Z" fill="#1DC8EF"/>
<path d="M64.8395 56.8283C64.81 56.8283 64.7952 56.8134 64.7657 56.7985L61.96 53.9727C61.9157 53.9281 61.9157 53.8686 61.96 53.8389C62.0043 53.7943 62.0634 53.7943 62.0928 53.8389L64.8986 56.6647C64.9429 56.7093 64.9429 56.7688 64.8986 56.7985C64.8986 56.8283 64.8691 56.8283 64.8395 56.8283Z" fill="#9C7ACD"/>
<path d="M62.0338 56.8283C62.0043 56.8283 61.9895 56.8134 61.96 56.7985C61.9157 56.7539 61.9157 56.6944 61.96 56.6647L64.7657 53.8389C64.81 53.7943 64.8691 53.7943 64.8986 53.8389C64.9429 53.8835 64.9429 53.943 64.8986 53.9727L62.0928 56.7985C62.0928 56.8283 62.0634 56.8283 62.0338 56.8283Z" fill="#9C7ACD"/>
<path d="M47.1644 45.2722C46.4703 45.2722 45.9092 44.7071 45.9092 44.0081C45.9092 43.309 46.4703 42.7439 47.1644 42.7439C47.8584 42.7439 48.4196 43.309 48.4196 44.0081C48.4196 44.7071 47.8584 45.2722 47.1644 45.2722ZM47.1644 42.9521C46.5885 42.9521 46.1159 43.428 46.1159 44.0081C46.1159 44.5881 46.5885 45.064 47.1644 45.064C47.7403 45.064 48.2129 44.5881 48.2129 44.0081C48.2129 43.428 47.7551 42.9521 47.1644 42.9521Z" fill="#48D38A"/>
<path d="M158.05 137.244C157.607 137.244 157.238 136.872 157.238 136.426C157.238 135.98 157.607 135.609 158.05 135.609C158.493 135.609 158.862 135.98 158.862 136.426C158.862 136.887 158.493 137.244 158.05 137.244ZM158.05 135.816C157.71 135.816 157.43 136.099 157.43 136.441C157.43 136.783 157.71 137.066 158.05 137.066C158.389 137.066 158.671 136.783 158.671 136.441C158.671 136.084 158.389 135.816 158.05 135.816Z" fill="#48D38A"/>
<path d="M61.1331 47.3695C60.4391 47.3695 59.8779 46.8043 59.8779 46.1053C59.8779 45.4063 60.4391 44.8411 61.1331 44.8411C61.8272 44.8411 62.3883 45.4063 62.3883 46.1053C62.3735 46.8043 61.8272 47.3695 61.1331 47.3695ZM61.1331 45.0642C60.5572 45.0642 60.0846 45.5401 60.0846 46.1202C60.0846 46.7002 60.5572 47.1761 61.1331 47.1761C61.709 47.1761 62.1815 46.7002 62.1815 46.1202C62.1815 45.5252 61.709 45.0642 61.1331 45.0642Z" fill="#FFC83E"/>
<path d="M38.0668 34.0731C37.6386 34.0731 37.2842 33.7161 37.2842 33.2849C37.2842 32.8535 37.6386 32.4966 38.0668 32.4966C38.4951 32.4966 38.8494 32.8535 38.8494 33.2849C38.8494 33.731 38.4951 34.0731 38.0668 34.0731ZM38.0668 32.7048C37.7419 32.7048 37.4909 32.9725 37.4909 33.2849C37.4909 33.5971 37.7567 33.8649 38.0668 33.8649C38.3769 33.8649 38.6427 33.5971 38.6427 33.2849C38.6427 32.9725 38.3916 32.7048 38.0668 32.7048Z" fill="#9C7ACD"/>
<path d="M48.9657 83.6733L46.603 82.3052L48.1831 85.1602L48.9657 83.6733Z" fill="#40196D"/>
<path d="M41.6259 98.3226C45.2471 98.3226 48.1825 95.3665 48.1825 91.7192C48.1825 88.0725 45.2471 85.1157 41.6259 85.1157C38.0048 85.1157 35.0693 88.0725 35.0693 91.7192C35.0693 95.3665 38.0048 98.3226 41.6259 98.3226Z" fill="#1DC8EF"/>
<path d="M46.6912 87.5405L38.2739 97.4013L44.5056 100.747L49.7923 90.7528L46.6912 87.5405Z" fill="#1DC8EF"/>
<path d="M54.4144 105.552C53.676 105.552 52.9377 105.373 52.2584 105.016L38.2149 97.4908C38.1706 97.4607 38.141 97.4013 38.1706 97.3569C38.2001 97.3118 38.2592 97.2825 38.3035 97.3118L52.347 104.837C53.484 105.447 54.8131 105.522 56.0092 105.046L75.236 97.3713C75.2802 97.3569 75.3392 97.3713 75.3691 97.4314C75.3834 97.4758 75.3691 97.5352 75.31 97.5652L56.0831 105.239C55.5515 105.447 54.9903 105.552 54.4144 105.552Z" fill="#40196D"/>
<path d="M19.4756 111.708C19.2541 111.708 19.0178 111.678 18.7963 111.619C18.7373 111.604 18.7077 111.545 18.7225 111.5C18.7373 111.441 18.7963 111.411 18.8407 111.426C19.4904 111.59 20.1697 111.5 20.7604 111.143C21.3363 110.801 21.7498 110.236 21.9122 109.582L22.9755 105.343C23.3151 103.99 22.5029 102.592 21.1443 102.249L19.0031 101.699C18.944 101.684 18.9145 101.624 18.9293 101.58C18.944 101.521 19.0031 101.491 19.0474 101.506L21.1886 102.056C22.6505 102.428 23.5366 103.93 23.1674 105.387L22.1042 109.626C21.927 110.34 21.4839 110.935 20.849 111.307C20.4355 111.575 19.9629 111.708 19.4756 111.708Z" fill="#40196D"/>
<path d="M178.798 87.2426C178.961 89.6523 177.012 91.1987 174.944 91.1987C173.025 91.1843 171.327 89.8306 170.633 88.0609C170.056 86.5733 170.027 84.6403 169.761 83.0632C169.643 82.3795 169.48 81.6801 169.038 81.1597C168.594 80.6392 167.664 80.3715 166.911 81.1747L166.173 80.8475C166.527 79.5539 167.694 78.334 169.008 78.1407C170.322 77.9474 171.74 78.6168 172.434 79.7615C173.084 80.8175 173.128 82.1268 173.172 83.361C173.231 84.5952 173.349 85.9189 174.102 86.9004C174.649 87.5998 175.476 88.0459 176.362 88.1053C177.248 88.1647 178.164 87.8526 178.798 87.2426Z" fill="#40196D"/>
<path d="M166.512 81.9328C167.026 81.9328 167.442 81.5135 167.442 80.9957C167.442 80.4787 167.026 80.0593 166.512 80.0593C165.998 80.0593 165.582 80.4787 165.582 80.9957C165.582 81.5135 165.998 81.9328 166.512 81.9328Z" fill="#48D38A"/>
<path d="M179.329 180.107H170.1V180.896H179.329V180.107Z" fill="#40196D"/>
<path d="M179.124 177.907C179.242 178.383 179.315 178.873 179.315 179.379V180.108H170.086C170.086 179.513 170.455 178.978 171.001 178.769L174.634 177.312L174.102 176.568C173.866 176.241 173.984 175.78 174.354 175.617C174.605 175.512 174.9 175.617 175.003 175.869C175.727 177.461 177.455 178.308 179.124 177.907Z" fill="#48D38A"/>
<path d="M179.092 101.342C178.531 100.004 177.453 98.9484 176.109 98.4272L165.152 94.2485C162.76 97.357 162.716 101.387 163.602 105.224C164.502 109.151 167.264 112.437 169.804 115.546C170.867 116.854 171.62 118.431 171.916 120.171L180.097 115.412C181.116 110.638 180.584 105.552 179.092 101.342Z" fill="#FFC83E"/>
<path d="M164.488 107.827C164.754 108.407 165.034 108.972 165.359 109.522L174.19 108.793L164.488 107.827Z" fill="#40196D"/>
<path d="M176.331 177.416L173.658 180.107H175.622L177.764 177.951C177.247 177.877 176.759 177.698 176.331 177.416Z" fill="white"/>
<path d="M174.19 108.793C177.126 108.793 179.506 106.396 179.506 103.439C179.506 100.482 177.126 98.085 174.19 98.085C171.254 98.085 168.874 100.482 168.874 103.439C168.874 106.396 171.254 108.793 174.19 108.793Z" fill="#9C7ACD"/>
<path d="M175.017 175.884C175.726 177.461 177.454 178.308 179.122 177.907L177.336 169.801H172.271L175.017 175.884Z" fill="#9C7ACD"/>
<path d="M215.036 180.107H205.806V180.896H215.036V180.107Z" fill="#40196D"/>
<path d="M214.83 177.907C214.948 178.383 215.022 178.873 215.022 179.379V180.108H205.792C205.792 179.513 206.161 178.978 206.708 178.769L210.341 177.312L209.809 176.568C209.573 176.241 209.691 175.78 210.06 175.617C210.311 175.512 210.606 175.617 210.709 175.869C211.433 177.461 213.161 178.308 214.83 177.907Z" fill="#48D38A"/>
<path d="M212.039 177.416L209.366 180.107H211.33L213.472 177.951C212.955 177.877 212.467 177.698 212.039 177.416Z" fill="white"/>
<path d="M210.724 175.884C211.433 177.461 213.161 178.308 214.83 177.907L211.536 169.801H206.354L210.724 175.884Z" fill="#9C7ACD"/>
<path d="M185.149 120.498L180.098 115.427L171.917 120.186C172.006 120.736 172.065 121.301 172.065 121.881C172.065 124.097 171.341 126.149 170.115 127.8L161.477 138.658C160.192 140.264 159.926 142.45 160.768 144.324L172.271 169.816H177.337L171.474 143.224L183.598 135.727C186.256 133.958 187.998 130.939 187.998 127.488C188.013 124.751 186.92 122.283 185.149 120.498Z" fill="#1DC8EF"/>
<path d="M206.353 169.8L190.479 151.136L180.112 137.869L186.063 121.569C190.154 127.429 193.801 134.344 195.47 143.208C195.47 143.208 202.159 149.886 211.536 169.8H206.353Z" fill="#1DC8EF"/>
<path d="M154.21 106.741L173.747 108.793L173.57 98.115L155.908 100.063L141.821 95.5864L141.171 91.407C141.068 90.8271 140.876 90.2773 140.595 89.7562L139.443 87.6443C139.31 87.3916 138.97 87.2727 138.72 87.3916C138.38 87.5405 138.188 87.912 138.276 88.2843L139.147 91.8831C138.675 92.5524 138.394 93.3857 138.394 94.2778C138.394 95.7654 139.192 97.074 140.373 97.8028L151.242 105.715C152.142 106.28 153.162 106.622 154.21 106.741Z" fill="#9C7ACD"/>
<path d="M165.168 94.2627C164.016 95.7654 163.411 97.4757 163.189 99.2747L159.32 99.7064L148.082 93.1624C147.241 92.6713 146.473 92.0621 145.808 91.3333L139.798 82.6623C139.385 82.2607 139.133 81.6952 139.133 81.0709V77.0404C139.133 76.7727 139.34 76.5644 139.606 76.5644C139.812 76.5644 139.99 76.6982 140.064 76.8915L140.536 78.2897V76.2816L139.517 74.0215C139.37 73.6943 139.488 73.2927 139.798 73.0994C139.99 72.9799 140.226 73.0249 140.359 73.2032L141.88 75.2557C142.249 75.7611 142.456 76.3711 142.456 76.996V82.0968L150.947 88.6265L165.168 94.2627Z" fill="#9C7ACD"/>
<path d="M143.624 83.0046L141.364 84.9232L141.821 85.5776L144.258 83.495L143.624 83.0046Z" fill="#40196D"/>
<path d="M168.269 99.9147C169.908 99.9147 171.237 98.576 171.237 96.9251C171.237 95.2743 169.908 93.9355 168.269 93.9355C166.629 93.9355 165.3 95.2743 165.3 96.9251C165.3 98.576 166.629 99.9147 168.269 99.9147Z" fill="#9C7ACD"/>
<path d="M170.897 95.5121L168.475 91.0649H165.3V96.9246L170.897 95.5121Z" fill="#9C7ACD"/>
<path d="M167.914 91.9125L166.186 92.3292C164.784 92.6713 163.366 91.7937 163.041 90.3805L161.564 84.1643C161.224 82.7512 162.096 81.3237 163.499 80.9965L165.226 80.5799C166.629 80.2377 168.047 81.1154 168.371 82.5278L169.848 88.7447C170.188 90.1578 169.317 91.5703 167.914 91.9125Z" fill="#9C7ACD"/>
<path d="M162.82 88.3288L162.406 88.4326C162.067 88.5221 161.727 88.2988 161.638 87.9566L161.24 86.3057C161.151 85.9635 161.373 85.6213 161.712 85.5325L162.126 85.428C162.466 85.3392 162.805 85.5619 162.894 85.9041L163.293 87.555C163.367 87.8971 163.159 88.2393 162.82 88.3288Z" fill="#9C7ACD"/>
<path d="M169.878 86.6177L169.465 86.7222C169.125 86.811 168.786 86.5883 168.698 86.2461L168.298 84.5953C168.21 84.2531 168.431 83.9109 168.771 83.8221L169.184 83.7176C169.525 83.6288 169.864 83.8515 169.952 84.1936L170.351 85.8445C170.425 86.1867 170.219 86.5439 169.878 86.6177Z" fill="#9C7ACD"/>
<path d="M168.579 83.4054C168.283 82.1562 167.353 81.1747 166.187 80.8625C166.644 82.0667 167.501 83.1377 168.683 83.8514L168.579 83.4054Z" fill="#40196D"/>
<path d="M166.039 87.9714C165.995 87.9714 165.95 87.942 165.936 87.8969L165.537 86.1866C165.523 86.1272 165.552 86.0828 165.611 86.0678C165.67 86.0528 165.714 86.0828 165.729 86.1422L166.128 87.8525C166.142 87.9119 166.113 87.9563 166.054 87.9714C166.054 87.9714 166.054 87.9714 166.039 87.9714Z" fill="#40196D"/>
<path d="M164.253 87.1533C164.209 87.1533 164.164 87.1239 164.15 87.0788L164.017 86.544C164.002 86.4839 164.031 86.4395 164.091 86.4245C164.15 86.4101 164.194 86.4395 164.209 86.4989L164.341 87.0344C164.356 87.0939 164.327 87.1389 164.268 87.1533H164.253Z" fill="#40196D"/>
<path d="M167.266 86.4245C167.221 86.4245 167.177 86.3951 167.162 86.3507L167.029 85.8153C167.014 85.7558 167.044 85.7108 167.103 85.6957C167.162 85.6814 167.206 85.7108 167.221 85.7702L167.354 86.3057C167.369 86.3651 167.34 86.4102 167.28 86.4245H167.266Z" fill="#40196D"/>
<path d="M167.634 87.5698C167.383 87.5254 167.161 87.7036 167.117 87.9564C167.072 88.2091 167.25 88.4324 167.501 88.4768L167.929 88.5362C168.033 88.2542 168.062 87.9413 168.033 87.6292L167.634 87.5698Z" fill="#6F4A9D"/>
<path d="M166.512 89.9344C166.468 89.9344 166.423 89.905 166.409 89.8599C166.394 89.8005 166.423 89.7561 166.482 89.7411C167.502 89.4884 168.137 88.4618 167.885 87.4359C167.871 87.3765 167.9 87.3321 167.959 87.3171C168.018 87.302 168.063 87.3321 168.077 87.3915C168.343 88.5219 167.649 89.6667 166.527 89.9344H166.512Z" fill="#40196D"/>
<path d="M167.309 81.4275C166.497 80.8032 165.419 80.5204 164.356 80.7882C162.48 81.2492 161.314 83.1528 161.771 85.0413L162.082 86.3206C164.548 85.5918 166.437 83.7327 167.309 81.4275Z" fill="#40196D"/>
<path d="M174.146 169.905C174.102 169.905 174.072 169.875 174.057 169.846L173.408 168.076C173.393 168.031 173.422 167.971 173.467 167.942C173.526 167.927 173.57 167.956 173.599 168.001L174.249 169.771C174.264 169.815 174.234 169.875 174.19 169.905C174.175 169.905 174.161 169.905 174.146 169.905Z" fill="#9C7ACD"/>
<path d="M208.539 169.905C208.509 169.905 208.48 169.89 208.45 169.861L207.313 168.091C207.284 168.046 207.298 167.986 207.343 167.957C207.387 167.927 207.446 167.942 207.476 167.986L208.612 169.756C208.642 169.801 208.627 169.861 208.583 169.89C208.583 169.905 208.568 169.905 208.539 169.905Z" fill="#9C7ACD"/>
<path d="M158.67 115.858C157.488 115.858 156.528 114.891 156.528 113.701C156.528 112.512 157.488 111.545 158.67 111.545C159.851 111.545 160.811 112.512 160.811 113.701C160.811 114.891 159.851 115.858 158.67 115.858ZM158.67 111.723C157.592 111.723 156.72 112.601 156.72 113.686C156.72 114.772 157.592 115.649 158.67 115.649C159.748 115.649 160.619 114.772 160.619 113.686C160.619 112.615 159.748 111.723 158.67 111.723Z" fill="#FFC83E"/>
<path d="M142.463 108.726L142.327 108.862L145.836 112.395L145.971 112.259L142.463 108.726Z" fill="#48D38A"/>
<path d="M145.836 108.715L142.327 112.248L142.463 112.385L145.971 108.851L145.836 108.715Z" fill="#48D38A"/>
<path d="M164.063 119.948L163.927 120.085L166.256 122.43L166.392 122.293L164.063 119.948Z" fill="#48D38A"/>
<path d="M166.256 119.948L163.927 122.294L164.063 122.431L166.392 120.085L166.256 119.948Z" fill="#48D38A"/>
<path d="M159.291 129.213C158.449 129.213 157.77 128.53 157.77 127.682C157.77 126.834 158.449 126.15 159.291 126.15C160.132 126.15 160.812 126.834 160.812 127.682C160.812 128.515 160.132 129.213 159.291 129.213ZM159.291 126.328C158.552 126.328 157.961 126.923 157.961 127.667C157.961 128.411 158.552 129.006 159.291 129.006C160.029 129.006 160.619 128.411 160.619 127.667C160.619 126.923 160.014 126.328 159.291 126.328Z" fill="#9C7ACD"/>
<path d="M171.488 143.313C171.459 143.313 171.429 143.298 171.4 143.268C171.37 143.223 171.385 143.164 171.429 143.134L183.553 135.639C186.284 133.824 187.909 130.775 187.909 127.488C187.909 127.429 187.953 127.384 188.013 127.384C188.072 127.384 188.116 127.429 188.116 127.488C188.116 130.849 186.447 133.958 183.671 135.802L171.547 143.298C171.518 143.298 171.503 143.313 171.488 143.313Z" fill="#9C7ACD"/>
<path d="M179.522 103.529C179.463 103.529 179.418 103.484 179.418 103.425C179.418 100.525 177.07 98.1595 174.191 98.1595C174.043 98.1595 173.895 98.1594 173.762 98.1745L173.585 98.1895L155.924 100.138C155.909 100.138 155.894 100.138 155.88 100.138L141.792 95.661C141.762 95.6466 141.733 95.6166 141.718 95.5865L141.068 91.4078C140.965 90.8423 140.772 90.2924 140.507 89.8014L139.355 87.6894C139.325 87.6451 139.34 87.5856 139.399 87.5556C139.444 87.5255 139.503 87.5406 139.533 87.6L140.684 89.7119C140.965 90.2323 141.172 90.7979 141.275 91.3928L141.91 95.5128L155.924 99.9742L173.747 97.9962C173.895 97.9812 174.043 97.9812 174.206 97.9812C177.189 97.9812 179.625 100.435 179.625 103.44C179.61 103.484 179.566 103.529 179.522 103.529Z" fill="#40196D"/>
<path d="M165.153 94.3523C165.138 94.3523 165.123 94.3523 165.123 94.3523L150.903 88.7304C150.888 88.7304 150.888 88.7154 150.873 88.7154L142.382 82.1864C142.352 82.1714 142.337 82.142 142.337 82.112V77.0112C142.337 76.4163 142.146 75.8214 141.777 75.3303L140.256 73.2778C140.152 73.1439 139.975 73.1146 139.827 73.1883C139.783 73.2184 139.724 73.2034 139.695 73.159C139.665 73.1146 139.68 73.0545 139.724 73.0251C139.96 72.8762 140.256 72.9356 140.418 73.159L141.939 75.2114C142.323 75.7319 142.53 76.3562 142.53 77.0112V82.0676L150.977 88.5672L165.182 94.1884C165.227 94.2034 165.256 94.2629 165.241 94.3223C165.241 94.3373 165.197 94.3523 165.153 94.3523Z" fill="#40196D"/>
<path d="M145.896 123.622C145.867 123.622 145.852 123.607 145.823 123.592L143.504 121.256C143.46 121.212 143.46 121.153 143.504 121.123L145.823 118.788C145.867 118.743 145.926 118.743 145.956 118.788L148.274 121.123C148.318 121.168 148.318 121.227 148.274 121.256L145.97 123.592C145.941 123.607 145.926 123.622 145.896 123.622ZM143.726 121.183L145.896 123.369L148.067 121.183L145.896 118.996L143.726 121.183Z" fill="#1DC8EF"/>
<path d="M123.687 20.0483H104.637C104.578 20.0483 104.534 20.0037 104.534 19.9442C104.534 19.8847 104.578 19.8401 104.637 19.8401H123.687C123.746 19.8401 123.79 19.8847 123.79 19.9442C123.79 20.0037 123.746 20.0483 123.687 20.0483Z" fill="#9C7ACD"/>
<path d="M101.965 20.0483H98.4943C98.4352 20.0483 98.3911 20.0037 98.3911 19.9442C98.3911 19.8847 98.4352 19.8401 98.4943 19.8401H101.965C102.024 19.8401 102.068 19.8847 102.068 19.9442C102.068 20.0037 102.024 20.0483 101.965 20.0483Z" fill="#9C7ACD"/>
<path d="M71.0568 99.6019C71.0126 99.6019 70.9685 99.5725 70.9536 99.5275L69.8461 94.4267C69.8312 94.3673 69.861 94.3222 69.9201 94.3078C69.9792 94.2928 70.0233 94.3222 70.0383 94.3816L71.1457 99.4831C71.1607 99.5425 71.1308 99.5876 71.0717 99.6019C71.0717 99.6019 71.0717 99.6019 71.0568 99.6019Z" fill="#48D38A"/>
<path d="M69.6539 100.182C69.6097 100.182 69.5656 100.153 69.5507 100.093L68.7236 94.6345C68.7087 94.575 68.7528 94.5306 68.8119 94.5156C68.871 94.5006 68.9158 94.5457 68.9301 94.6051L69.7571 100.063C69.772 100.123 69.7279 100.168 69.6688 100.182C69.6539 100.182 69.6539 100.182 69.6539 100.182Z" fill="#FFC83E"/>
<path d="M74.4832 97.7879L73.1245 94.3223L71.4854 94.5156L73.0063 98.3828L74.4832 97.7879Z" fill="#40196D"/>
<path d="M137.199 60.4125H84.9974C84.9384 60.4125 84.8936 60.3679 84.8936 60.3085V31.9166C84.8936 31.8571 84.9384 31.8125 84.9974 31.8125H137.199C137.258 31.8125 137.302 31.8571 137.302 31.9166V60.3085C137.288 60.3679 137.243 60.4125 137.199 60.4125ZM85.1007 60.2044H137.095V32.0207H85.1007V60.2044Z" fill="#40196D"/>
<path d="M105.849 101.788C105.79 101.788 105.746 101.744 105.746 101.685V99.6321C105.746 99.5727 105.79 99.5276 105.849 99.5276C105.908 99.5276 105.952 99.5727 105.952 99.6321V101.685C105.952 101.744 105.908 101.788 105.849 101.788Z" fill="white"/>
<path d="M102.201 101.788C102.142 101.788 102.098 101.744 102.098 101.685V99.6321C102.098 99.5727 102.142 99.5276 102.201 99.5276C102.26 99.5276 102.304 99.5727 102.304 99.6321V101.685C102.304 101.744 102.26 101.788 102.201 101.788Z" fill="white"/>
<path d="M98.5551 101.788C98.496 101.788 98.4512 101.744 98.4512 101.685V99.6321C98.4512 99.5727 98.496 99.5276 98.5551 99.5276C98.6141 99.5276 98.6583 99.5727 98.6583 99.6321V101.685C98.6583 101.744 98.6141 101.788 98.5551 101.788Z" fill="white"/>
<path d="M94.9069 101.788C94.8478 101.788 94.8037 101.744 94.8037 101.685V99.6321C94.8037 99.5727 94.8478 99.5276 94.9069 99.5276C94.966 99.5276 95.0101 99.5727 95.0101 99.6321V101.685C95.0101 101.744 94.966 101.788 94.9069 101.788Z" fill="white"/>
<path d="M91.259 101.788C91.1999 101.788 91.1558 101.744 91.1558 101.685V99.6321C91.1558 99.5727 91.1999 99.5276 91.259 99.5276C91.318 99.5276 91.3622 99.5727 91.3622 99.6321V101.685C91.3622 101.744 91.318 101.788 91.259 101.788Z" fill="white"/>
<path d="M87.6273 101.788C87.5683 101.788 87.5234 101.744 87.5234 101.685V99.6321C87.5234 99.5727 87.5683 99.5276 87.6273 99.5276C87.6864 99.5276 87.7305 99.5727 87.7305 99.6321V101.685C87.7156 101.744 87.6715 101.788 87.6273 101.788Z" fill="white"/>
<path d="M83.9782 101.788C83.9191 101.788 83.875 101.744 83.875 101.685V99.6321C83.875 99.5727 83.9191 99.5276 83.9782 99.5276C84.0373 99.5276 84.0821 99.5727 84.0821 99.6321V101.685C84.0672 101.744 84.023 101.788 83.9782 101.788Z" fill="white"/>
<path d="M80.3317 101.788C80.2727 101.788 80.2285 101.744 80.2285 101.685V99.6321C80.2285 99.5727 80.2727 99.5276 80.3317 99.5276C80.3908 99.5276 80.4349 99.5727 80.4349 99.6321V101.685C80.4349 101.744 80.3908 101.788 80.3317 101.788Z" fill="white"/>
<path d="M60.8678 32.0208H44.9193C44.8603 32.0208 44.8159 31.9762 44.8159 31.9167V25.224C44.8159 25.1645 44.8603 25.1199 44.9193 25.1199H60.8678C60.9268 25.1199 60.9711 25.1645 60.9711 25.224V27.4698L63.0532 28.4811C63.0828 28.496 63.1123 28.5257 63.1123 28.5703C63.1123 28.6149 63.0976 28.6447 63.0532 28.6595L60.9711 29.6709V31.9167C60.9711 31.9762 60.9268 32.0208 60.8678 32.0208ZM45.0227 31.8275H60.7644V29.6114C60.7644 29.5668 60.7792 29.5371 60.8234 29.5222L62.7727 28.5852L60.8234 27.6483C60.7939 27.6334 60.7644 27.6036 60.7644 27.559V25.343H45.0227V31.8275Z" fill="#40196D"/>
<path d="M162.126 70.4815C160.442 70.4815 159.054 69.0977 159.054 67.3877V64.3983C159.054 64.3388 159.098 64.2942 159.157 64.2942H162.126C163.809 64.2942 165.197 65.6774 165.197 67.3877C165.197 69.0977 163.824 70.4815 162.126 70.4815ZM159.261 64.5024V67.3877C159.261 68.9789 160.546 70.2732 162.126 70.2732C163.706 70.2732 164.991 68.9789 164.991 67.3877C164.991 65.7964 163.706 64.5024 162.126 64.5024H159.261Z" fill="#40196D"/>
<path d="M38.2739 97.4011L48.8472 105.729L49.5412 103.439L38.2739 97.4011Z" fill="#40196D"/>
<path d="M83.5209 9.90503C83.5059 9.90503 83.491 9.90503 83.476 9.89021C83.4319 9.87532 83.417 9.84554 83.417 9.80093V7.16851H74.6306C74.5715 7.16851 74.5273 7.12384 74.5273 7.06435V0.371687C74.5273 0.312196 74.5715 0.267578 74.6306 0.267578H90.2098C90.2689 0.267578 90.3137 0.312196 90.3137 0.371687V7.06435C90.3137 7.12384 90.2689 7.16851 90.2098 7.16851H86.2824L83.5942 9.87532C83.5799 9.89021 83.5501 9.90503 83.5209 9.90503ZM74.7344 6.97515H83.5351C83.5942 6.97515 83.639 7.01975 83.639 7.07924V9.56297L86.1785 7.00486C86.1935 6.99004 86.2233 6.97515 86.2525 6.97515H90.1215V0.490667H74.7344V6.97515Z" fill="#40196D"/>
<path d="M111.091 156.564C107.252 156.564 104.121 153.411 104.121 149.544C104.121 145.678 107.252 142.524 111.091 142.524C114.93 142.524 118.061 145.678 118.061 149.544C118.061 153.411 114.945 156.564 111.091 156.564ZM111.091 142.717C107.355 142.717 104.313 145.781 104.313 149.544C104.313 153.307 107.355 156.371 111.091 156.371C114.827 156.371 117.869 153.307 117.869 149.544C117.869 145.781 114.827 142.717 111.091 142.717Z" fill="#9C7ACD"/>
<path d="M21.6317 181H0.603369C0.544301 181 0.5 180.956 0.5 180.896C0.5 180.836 0.544301 180.792 0.603369 180.792H21.6317C21.6908 180.792 21.7351 180.836 21.7351 180.896C21.7203 180.956 21.676 181 21.6317 181Z" fill="#FFC83E"/>
<path d="M154.256 181H53.2782C53.2191 181 53.1748 180.956 53.1748 180.896C53.1748 180.836 53.2191 180.792 53.2782 180.792H154.256C154.315 180.792 154.359 180.836 154.359 180.896C154.359 180.956 154.315 181 154.256 181Z" fill="#FFC83E"/>
<path d="M184.645 181H161.668C161.609 181 161.564 180.956 161.564 180.896C161.564 180.836 161.609 180.792 161.668 180.792H184.645C184.705 180.792 184.749 180.836 184.749 180.896C184.734 180.956 184.69 181 184.645 181Z" fill="#FFC83E"/>
<path d="M220.397 181H203.976C203.917 181 203.873 180.956 203.873 180.896C203.873 180.836 203.917 180.792 203.976 180.792H220.397C220.457 180.792 220.501 180.836 220.501 180.896C220.501 180.956 220.457 181 220.397 181Z" fill="#FFC83E"/>
<path d="M51.6674 181H50.7518C50.6928 181 50.6484 180.956 50.6484 180.896C50.6484 180.836 50.6928 180.792 50.7518 180.792H51.6674C51.7264 180.792 51.7708 180.836 51.7708 180.896C51.7708 180.956 51.7264 181 51.6674 181Z" fill="#40196D"/>
</svg>
