<svg width="155" height="223" viewBox="0 0 155 223" fill="none" xmlns="http://www.w3.org/2000/svg">
<path d="M71.7484 169.37H71.243V169.877H71.7484V169.37ZM71.7484 43.4504L71.7961 42.9455L71.243 42.8931V43.4504H71.7484ZM89.7013 45.1553L89.9591 45.5917L91.2968 44.7967L89.7493 44.6504L89.7013 45.1553ZM36.8129 76.5743H36.3074V77.4639L37.0702 77.0107L36.8129 76.5743ZM36.8129 43.2068L36.558 42.7688L36.3074 42.9151V43.2068H36.8129ZM87.5178 13.4928V12.9854H87.3814L87.2634 13.0545L87.5178 13.4928ZM109.595 13.4928H110.101V12.9854H109.595V13.4928ZM109.595 169.37V169.877H110.101V169.37H109.595ZM34.3868 186.906H33.8813V187.413H34.3868V186.906ZM34.3868 156.461V155.954H33.8813V156.461H34.3868ZM147.2 156.461H147.705V155.954H147.2V156.461ZM147.2 186.906V187.413H147.705V186.906H147.2ZM72.2539 169.37V43.4504H71.243V169.37H72.2539ZM71.7008 43.9553L89.6541 45.6602L89.7493 44.6504L71.7961 42.9455L71.7008 43.9553ZM89.4444 44.7189L36.5554 76.1379L37.0702 77.0107L89.9591 45.5917L89.4444 44.7189ZM37.3183 76.5743V43.2068H36.3074V76.5743H37.3183ZM37.0676 43.6449L87.7731 13.931L87.2634 13.0545L36.558 42.7688L37.0676 43.6449ZM87.5178 14.0002H109.595V12.9854H87.5178V14.0002ZM109.09 13.4928V169.37H110.101V13.4928H109.09ZM109.595 168.862H71.7484V169.877H109.595V168.862ZM34.8922 186.906V156.461H33.8813V186.906H34.8922ZM34.3868 156.969H147.2V155.954H34.3868V156.969ZM146.694 156.461V186.906H147.705V156.461H146.694ZM147.2 186.399H34.3868V187.413H147.2V186.399Z" fill="#F4F4F4"/>
<path d="M62.4818 174.444V48.5245L80.4349 50.2294L27.5462 81.6484V48.281L78.2514 18.5669H100.329V174.444H62.4818ZM25.1201 191.98V161.535H137.933V191.98H25.1201Z" fill="#FFC83E"/>
<path d="M38.3927 96.1103L24.7488 85.4859C24.2772 85.0724 23.9646 84.4365 23.9798 83.8166C23.9952 83.1958 24.2408 82.9472 24.7662 82.1032L26.1412 79.9306C26.3234 79.6921 26.3173 79.3378 26.0847 79.1111C25.8352 78.86 25.5899 78.7137 25.2788 78.723C25.1984 78.7086 25.1117 78.7357 25.008 78.7382C24.7307 78.794 24.481 78.9378 24.2818 79.1526L22.1897 81.1594L18.3281 78.4151C17.645 77.9027 16.9259 77.4874 16.0795 77.4866C15.4807 77.4874 15.0528 77.9745 15.0672 78.5378C15.065 78.6824 15.1199 78.8583 15.1811 78.9936L15.4938 79.6287C16.3093 81.266 17.3682 82.7984 18.6198 84.1574L42.3918 109.764C45.1595 112.507 49.7752 111.517 51.1323 107.887L55.95 94.8849L56.0856 94.6794C52.4923 92.4595 48.4967 90.5643 45.8014 87.2323C44.8692 86.0737 44.1169 84.8221 43.4873 83.4461C44.7883 81.2203 44.5814 75.2015 44.5814 75.2015L44.5428 70.6044L42.2792 69.9016C40.2286 72.9537 38.3122 77.38 38.3226 83.074L38.3927 96.1103Z" fill="#9C7ACD"/>
<path d="M55.5475 70.4691L48.5138 68.0699L46.7536 64.962L44.3658 60.7268C44.2264 60.4325 43.9239 60.2557 43.6129 60.2642C43.0776 60.2549 42.673 60.7251 42.7573 61.2384L43.6638 68.1883L41.3955 68.1697C40.9638 68.1579 40.5743 68.4023 40.3899 68.7854C40.2416 69.072 40.3979 69.3892 40.6898 69.5025L42.2658 69.982L44.5294 70.6848C45.2466 70.8505 45.9893 70.8539 46.694 70.7059L62.6744 83.6652L62.6384 72.8988L55.5475 70.4691Z" fill="#9C7ACD"/>
<path d="M43.4639 83.464C44.0998 84.7993 44.8457 86.0915 45.7779 87.2493C48.5134 90.5889 52.4921 92.4595 56.0621 94.6972C58.7312 96.3624 61.2244 98.2271 62.7648 101.027L62.6811 83.6255L46.7008 70.6653C45.9792 70.7905 45.23 70.8268 44.5361 70.645L44.5749 75.2422C44.5516 75.2591 44.7585 81.2779 43.4639 83.464Z" fill="#48D38A"/>
<path d="M46.7764 64.9459L48.5365 68.0538L55.5703 70.453C56.4767 69.5506 57.0087 68.2711 57.0246 66.8613C57.0275 65.9269 56.7531 65.049 56.3326 64.3116L55.1704 62.3868L51.0876 55.678L46.8384 56.045L46.8864 64.9027L46.7764 64.9459Z" fill="#9C7ACD"/>
<path d="M55.147 62.4028L56.3092 64.3276C56.7467 65.0887 57.0041 65.9437 57.0012 66.8774C57.0087 68.2711 56.4596 69.526 55.5469 70.4698L62.661 72.8826L62.6341 66.7708C59.6753 64.8469 58.4064 61.2417 58.4064 61.2417C56.5864 61.6544 55.147 62.4028 55.147 62.4028Z" fill="#48D38A"/>
<path d="M58.4072 61.241C58.4072 61.241 59.6761 64.8462 62.6349 66.7701L62.6095 61.3019C61.3043 60.8063 59.7363 60.9306 58.4072 61.241Z" fill="#9C7ACD"/>
<path d="M46.8181 61.1495L46.7988 56.0365L51.048 55.6694L52.2103 57.5942C51.229 59.6264 49.2092 61.0438 46.8181 61.1495Z" fill="#40196D"/>
<path d="M62.6984 83.7921C62.7386 83.7989 62.7852 83.7659 62.8318 83.7321C62.8847 83.6585 62.8806 83.5536 62.8066 83.4995L46.8262 70.5393C46.7924 70.492 46.7289 70.5013 46.7057 70.5182C45.9608 70.6594 45.2582 70.6628 44.5813 70.5047L42.3346 69.8256C42.2541 69.812 42.1674 69.8383 42.1313 69.9364C42.1186 70.0167 42.1461 70.1047 42.2434 70.1427L44.5069 70.8446C45.1839 71.0036 45.9033 71.0239 46.6884 70.8894L62.6116 83.8183C62.6582 83.7853 62.6751 83.809 62.6984 83.7921Z" fill="#40196D"/>
<path d="M62.663 73.0256C62.7264 73.0155 62.773 72.9825 62.8027 72.925C62.8155 72.8438 62.788 72.7558 62.6907 72.7186L48.6063 67.8965L44.4922 60.6008C44.4415 60.5297 44.3442 60.4925 44.2743 60.5424C44.2044 60.5932 44.1684 60.6904 44.2191 60.7615L48.367 68.1046C48.3839 68.1282 48.4177 68.1756 48.4579 68.1832L62.5825 73.0112C62.6397 73.0425 62.6397 73.0425 62.663 73.0256Z" fill="#40196D"/>
<path d="M62.7821 101.195C62.8222 101.201 62.8456 101.184 62.8688 101.168C62.9388 101.118 62.9748 101.02 62.924 100.949C61.2822 98.0064 58.7085 96.1281 56.1706 94.5475C55.4177 94.0849 54.6245 93.6155 53.8885 93.1766C51.0185 91.476 48.0511 89.7381 45.9033 87.1232C45.0556 86.0839 44.3202 84.8559 43.6231 83.3853C43.0041 82.0736 42.5122 80.7425 42.1089 79.6338C42.0815 79.5459 41.9842 79.5086 41.8974 79.5349C41.8106 79.5619 41.7746 79.6592 41.802 79.7471C42.1989 80.8956 42.6909 82.2275 43.3099 83.5392C44.0239 85.0335 44.7762 86.2851 45.6407 87.3482C47.8224 90.0104 50.8066 91.772 53.7 93.4557C54.436 93.8946 55.2291 94.364 55.982 94.8266C58.5031 96.3835 61.0429 98.2144 62.6341 101.086C62.6848 101.157 62.7419 101.187 62.7821 101.195Z" fill="#40196D"/>
<path d="M41.6886 98.6523C41.7288 98.6591 41.7754 98.6261 41.8219 98.5923C41.8748 98.5187 41.8475 98.4307 41.7967 98.3597L24.8325 85.3547C24.3948 84.9877 24.1223 84.3594 24.1248 83.8198C24.1316 83.3843 24.2735 83.139 24.5977 82.6544C24.6803 82.5234 24.7862 82.3762 24.8751 82.2045L26.2502 80.032C26.5022 79.7436 26.4687 79.3013 26.2022 79.0265C25.9189 78.7288 25.6101 78.5918 25.2822 78.5765C25.2017 78.563 25.1255 78.6535 25.1128 78.7347C25.1 78.8159 25.1909 78.8937 25.2713 78.9072C25.5189 78.9089 25.7304 79.0078 25.963 79.2345C26.1215 79.407 26.1235 79.6573 25.9943 79.8214L24.5961 82.0109C24.507 82.1826 24.4011 82.3297 24.3185 82.4616C23.9879 82.986 23.7994 83.265 23.7969 83.8046C23.7985 84.449 24.1217 85.1484 24.6101 85.5864L41.551 98.6083C41.6081 98.6388 41.6483 98.6456 41.6886 98.6523Z" fill="#40196D"/>
<path d="M36.3495 53.6922C37.2159 52.3882 37.414 50.7399 37.375 49.1543C37.3361 47.5686 37.1532 45.9787 37.3555 44.4353C37.5577 42.8911 38.3249 41.2995 39.7009 40.5613C41.0938 39.8458 43.1184 40.3617 43.6483 41.845L43.3427 42.9977C42.2877 44.5808 42.1528 46.6138 42.2211 48.5369C42.2895 50.46 42.4953 52.4271 41.9775 54.2698C41.5637 55.7151 40.6909 57.0598 39.4461 57.8835C38.2013 58.7072 36.5844 59.0091 35.1523 58.5338C33.7202 58.0577 32.3118 56.7756 32.2856 55.1096C33.7092 55.7709 35.4661 54.9735 36.3495 53.6922Z" fill="#40196D"/>
<path d="M54.6783 43.3767C54.581 43.3395 54.5006 43.3251 54.4435 43.2946C53.2228 42.9175 51.7563 43.1839 50.7612 43.8638C49.6265 44.6435 48.9843 45.9662 47.8559 46.7062C47.2102 47.1349 46.351 47.2153 45.6297 46.9446C44.9084 46.6749 44.2065 45.8892 44.1098 45.0621C43.369 45.3082 42.6451 45.578 41.9614 45.8545L42.1042 52.6716C42.1755 56.2776 45.1081 59.1521 48.6841 59.1259C52.2601 59.0997 55.0745 56.1795 55.0033 52.5735L54.8618 46.7949L54.8044 44.5412C54.8047 44.1463 54.7415 43.7615 54.6783 43.3767Z" fill="#9C7ACD"/>
<path d="M54.6787 43.3767C54.7652 43.7454 54.8051 44.1471 54.8047 44.5412L54.8623 46.795C55.833 47.3159 56.8744 46.9971 56.9324 45.8436C56.9905 44.6901 55.8126 43.7809 54.6787 43.3767Z" fill="#48D38A"/>
<path d="M44.0711 45.0544C44.1678 45.8815 44.8697 46.6671 45.591 46.9369C46.3124 47.2075 47.1715 47.1272 47.8172 46.6984C48.9456 45.9585 49.5878 44.6367 50.7225 43.8561C51.7176 43.1762 53.1609 42.9267 54.4048 43.2869C54.4852 43.3013 54.5825 43.3385 54.6397 43.369C54.0241 40.3338 51.3704 38.0471 48.1858 38.0792C44.6098 38.1054 41.7954 41.0256 41.8666 44.6324L41.8995 45.8637C42.6466 45.5771 43.3705 45.3073 44.0711 45.0544C44.0944 45.0375 44.0944 45.0375 44.0711 45.0544Z" fill="#48D38A"/>
<path d="M44.0854 45.2236C44.0854 45.2236 44.1087 45.2075 44.0854 45.2236C44.1891 45.221 44.2421 45.1475 44.2379 45.0426C44.1396 43.5711 44.3227 42.1487 44.821 40.8226C45.2535 39.6505 46.3335 38.6949 47.6182 38.2729C47.705 38.2458 47.741 38.1486 47.7305 38.0843C47.703 37.9963 47.6057 37.9591 47.5422 37.9684C46.1538 38.3938 45.0146 39.4636 44.5523 40.6932C44.0477 42.0599 43.835 43.5398 43.967 45.0578C43.931 45.1559 44.005 45.2101 44.0854 45.2236Z" fill="#40196D"/>
<path d="M44.0854 45.2226C44.0854 45.2226 44.1256 45.2294 44.1489 45.2133C46.9216 44.2585 49.9141 43.6124 52.7921 43.2995C52.8789 43.2725 52.9487 43.2226 52.9213 43.1346C52.8939 43.0467 52.8432 42.9756 52.7563 43.0019C49.8615 43.2911 46.8457 43.955 44.0497 44.9258C43.9629 44.952 43.9269 45.0501 43.9544 45.1381C43.9712 45.1617 44.0051 45.2091 44.0854 45.2226Z" fill="#40196D"/>
<path d="M42.5192 52.2657C41.5861 52.2919 40.8207 51.5156 40.7833 50.5743L40.7635 48.8677C40.7262 47.9265 41.4864 47.1645 42.4196 47.1383C43.3528 47.1129 44.1181 47.8893 44.1555 48.8305L44.174 49.4978L42.5192 52.2657Z" fill="#9C7ACD"/>
<path d="M42.4948 52.4273C42.5181 52.4104 42.5181 52.4104 42.4948 52.4273C42.5985 52.4247 42.6917 52.3571 42.6642 52.27C42.6368 52.182 42.586 52.111 42.5057 52.0966C42.5057 52.0966 42.5057 52.0966 42.4824 52.1135C41.6592 52.0958 40.9616 51.415 40.9284 50.5778L40.9085 48.8712C40.8919 48.4525 41.053 48.0864 41.3283 47.7802C41.6036 47.4749 41.9974 47.3354 42.4121 47.3235C42.8268 47.3117 43.1927 47.4791 43.4993 47.7608C43.806 48.0424 43.9495 48.4407 43.9661 48.8593L43.9846 49.5274C43.9718 49.6077 44.0628 49.6864 44.1432 49.6999C44.2235 49.7135 44.2999 49.623 44.3126 49.5426L44.2941 48.8745C44.2903 48.3747 44.0727 47.9223 43.7153 47.5696C43.358 47.217 42.9117 47.036 42.4165 47.0335C41.9214 47.0309 41.4747 47.2449 41.1295 47.6009C40.7844 47.9561 40.6105 48.4043 40.6143 48.9033L40.6342 50.6099C40.6651 51.5917 41.4876 52.3985 42.4948 52.4273Z" fill="#40196D"/>
<path d="M50.7491 52.1912C50.8528 52.1886 50.9058 52.1151 50.9185 52.0339L50.8428 48.7179C50.8556 48.6367 50.7647 48.5589 50.7011 48.5682C50.6208 48.5547 50.5445 48.6452 50.5317 48.7264L50.6075 52.0423C50.5947 52.1235 50.6687 52.1776 50.7491 52.1912Z" fill="#40196D"/>
<path d="M48.242 49.6194C48.3457 49.6168 48.3986 49.5424 48.4114 49.4621L48.3993 48.7534C48.412 48.6722 48.3211 48.5944 48.2407 48.5809C48.1603 48.5665 48.0841 48.657 48.0713 48.7382L48.0834 49.4468C48.0876 49.5509 48.1383 49.6219 48.242 49.6194Z" fill="#40196D"/>
<path d="M53.1428 49.5729C53.2465 49.5704 53.2995 49.496 53.3122 49.4148L53.3001 48.7069C53.3128 48.6258 53.2219 48.548 53.1416 48.5336C53.0611 48.52 52.9849 48.6105 52.9722 48.6917L52.9843 49.4004C52.9884 49.5044 53.0561 49.5991 53.1428 49.5729Z" fill="#40196D"/>
<path d="M44.0715 45.0544C44.1136 45.3115 44.2023 45.5348 44.291 45.7572L44.3116 49.2922L44.1274 49.2812L44.1128 49.1129C44.1006 48.4042 43.7711 47.7454 43.1493 47.3674C42.6586 47.0748 42.284 47.0934 41.9136 47.216L41.8999 45.8638C42.6471 45.5771 43.371 45.3081 44.0715 45.0544Z" fill="#40196D"/>
<path d="M55.7493 47.1958C55.9969 47.1975 56.2339 47.1341 56.4372 47.0241C56.8436 46.8034 57.0513 46.4034 57.0771 45.8469C57.1374 44.5488 55.8558 43.6414 54.7452 43.2211C54.6648 43.2076 54.578 43.2338 54.542 43.3319C54.5293 43.4122 54.5567 43.5002 54.654 43.5382C55.6672 43.9205 56.8579 44.7492 56.7893 45.8385C56.7657 46.2503 56.611 46.5768 56.3146 46.7535C55.9547 46.9413 55.4427 46.9151 54.969 46.6461C54.8949 46.592 54.7848 46.6351 54.7721 46.7155C54.7191 46.7899 54.7635 46.9015 54.8439 46.915C55.0829 47.1019 55.4214 47.1814 55.7493 47.1958Z" fill="#40196D"/>
<path d="M54.6763 43.5211C54.7397 43.5118 54.7863 43.478 54.816 43.4213C54.8288 43.3401 54.8013 43.2522 54.704 43.215C54.6067 43.1769 54.5263 43.1634 54.429 43.1253C53.8959 42.9714 53.2865 42.9072 52.6983 42.9723C52.6115 42.9985 52.5416 43.0492 52.569 43.1363C52.5965 43.2243 52.6472 43.2953 52.734 43.2691C53.299 43.2209 53.8512 43.2547 54.3611 43.4256C54.4414 43.4391 54.5387 43.4771 54.5958 43.5076C54.653 43.538 54.653 43.538 54.6763 43.5211Z" fill="#40196D"/>
<path d="M45.3774 54.8366L45.593 55.0396C46.2675 55.7381 47.3615 55.7398 48.0455 55.0683L48.6363 54.4645L45.949 51.7363L45.3582 52.3402C44.6911 53.0353 44.6796 54.155 45.3774 54.8366Z" fill="white"/>
<path d="M50.763 43.8629C51.758 43.183 53.2013 42.9335 54.4452 43.2937C54.5256 43.3081 54.6229 43.3453 54.68 43.3758C54.7665 43.7445 54.8064 44.1454 54.806 44.5403L54.8466 46.7704C53.008 46.515 51.3158 45.7243 49.9224 44.6105C50.1743 44.3221 50.4433 44.0566 50.763 43.8629Z" fill="#40196D"/>
<path d="M13.2949 62.8165L11.1903 64.5095L8.71307 66.4707C7.97832 67.0711 7.85264 68.1291 8.45724 68.8775L8.47417 68.9012L11.2412 72.4328L18.8935 82.1683L18.9167 82.1514L18.9103 82.192C19.498 82.9168 20.5728 83.0394 21.2842 82.4567L25.8661 78.8025C26.6008 78.2021 26.7265 77.1433 26.1219 76.3948L25.8619 76.0802L20.9767 69.8771L18.4464 66.677L17.4465 65.4237L15.6391 63.1387C15.0981 62.3801 14.0063 62.233 13.2949 62.8165ZM10.0581 67.368C10.3905 67.0931 10.8729 67.176 11.1329 67.4914C11.4098 67.8297 11.3333 68.3151 11.0242 68.5731C10.6918 68.8479 10.2093 68.765 9.94936 68.4496C9.67239 68.1113 9.70878 67.6191 10.0581 67.368Z" fill="#5F36A8"/>
<path d="M72.968 184.779L74.2632 196.008L95.3705 195.113L94.1802 181.162L72.688 182.403L72.968 184.779Z" fill="#9C7ACD"/>
<path d="M60.1206 199.075C44.2642 196.147 31.068 189.602 33.0281 185.193C40.2738 168.728 58.0904 178.751 63.1309 179.854C78.9174 183.229 91.4137 191.048 90.5031 195.802C89.5933 200.521 76.0121 202.002 60.1206 199.075Z" fill="#48D38A"/>
<path d="M106.501 199.97C122.952 196.939 136.464 190.291 134.608 185.779C130.443 175.617 119.732 174.102 103.98 179.647C99.675 181.163 85.4285 183.367 75.1029 196.767C72.0577 200.659 90.049 203.001 106.501 199.97Z" fill="#48D38A"/>
<path d="M62.8159 193.012L63.5509 190.084C61.6957 188.982 59.8405 187.88 57.9504 186.743L56.7603 191.531L62.8159 193.012Z" fill="#48D38A"/>
<path d="M102.02 219.673L105.801 224.116L106.501 221.292C106.571 220.224 106.431 218.364 105.276 216.194L103.596 213.163L108.286 214.3L108.637 212.922L100.305 210.442C100.13 210.407 99.9203 210.338 99.7451 210.269L101.811 213.921C102.86 215.747 102.335 218.433 102.02 219.673Z" fill="#1DC8EF"/>
<path d="M87.2489 209.752C87.2489 209.752 95.72 212.06 101.356 218.914L101.986 219.673C102.301 218.432 102.826 215.746 101.741 213.954L99.6751 210.304C95.02 208.926 88.264 204.827 88.264 204.827C88.264 204.827 84.4842 202.588 78.8134 199.178L76.9932 206.411C80.4235 207.617 83.8539 208.719 87.2489 209.752Z" fill="#9C7ACD"/>
<path d="M67.7878 198.007C65.1625 197.352 62.4673 198.592 61.2422 200.866C64.7425 202.174 68.3828 203.483 72.0582 204.758C72.7232 201.761 70.8331 198.73 67.7878 198.007Z" fill="#48D38A"/>
<path d="M48.1499 195.802C49.69 196.422 51.2652 197.008 52.8753 197.662L49.1999 191.669L48.1499 195.802Z" fill="#48D38A"/>
<path d="M53.1891 197.8C55.7093 198.764 58.3345 199.763 61.0297 200.763C62.2898 198.386 65.0901 197.111 67.8204 197.766C71.0056 198.558 72.9658 201.692 72.2658 204.827C73.8409 205.379 75.4161 205.929 77.0262 206.446L78.8464 199.213C74.611 196.698 69.3255 193.529 63.725 190.222L62.99 193.185C62.99 193.253 62.92 193.288 62.85 193.253L56.5843 191.703C56.5143 191.703 56.4794 191.634 56.5143 191.565L57.7745 186.64C55.6393 185.365 53.5391 184.091 51.4388 182.851L49.3037 191.359L53.1891 197.8Z" fill="#48D38A"/>
<path d="M67.8218 197.8C65.0566 197.111 62.2914 198.42 61.0312 200.797C61.1013 200.831 61.1713 200.831 61.2413 200.866C62.4663 198.593 65.1266 197.352 67.7869 198.007C70.8321 198.764 72.7223 201.762 72.0572 204.758C72.1272 204.792 72.1972 204.792 72.2672 204.827C72.9673 201.692 71.0072 198.558 67.8218 197.8Z" fill="white"/>
<path d="M49.1997 191.669L52.875 197.662C52.98 197.697 53.0851 197.766 53.2251 197.8L49.3047 191.359L49.1997 191.669Z" fill="white"/>
<path d="M56.5858 191.738L62.8514 193.288C62.9214 193.288 62.9564 193.253 62.9914 193.218L63.7265 190.257C63.6565 190.222 63.5865 190.187 63.5165 190.153L62.7814 193.081L56.7258 191.6L57.9159 186.812C57.8459 186.778 57.7759 186.743 57.7059 186.708L56.4458 191.634C56.4808 191.669 56.5158 191.703 56.5858 191.738Z" fill="white"/>
<path d="M78.8468 199.213L51.5093 182.713" stroke="black" stroke-width="0.5" stroke-miterlimit="10"/>
<path d="M106.326 192.254L105.801 189.292C107.726 188.328 109.651 187.329 111.612 186.364L112.487 191.221L106.326 192.254Z" fill="#48D38A"/>
<path d="M65.3372 216.194L61.2767 220.361L60.7517 217.503C60.7517 216.435 61.0318 214.609 62.3269 212.508L64.217 209.581L59.4916 210.407L59.2466 209.029L67.7173 207.1C67.8924 207.066 68.1024 207.032 68.3124 206.962L66.0022 210.476C64.7771 212.198 65.0921 214.919 65.3372 216.194Z" fill="#1DC8EF"/>
<path d="M80.7743 207.272C80.7743 207.272 72.1636 209.029 66.073 215.47L65.373 216.194C65.1279 214.92 64.8129 212.198 66.0381 210.51L68.3482 206.997C73.1087 205.929 80.1094 202.312 80.1094 202.312C80.1094 202.312 84.0297 200.314 89.9455 197.317L91.2756 204.655C87.7047 205.619 84.2047 206.48 80.7743 207.272Z" fill="#9C7ACD"/>
<path d="M101.005 196.87C103.701 196.388 106.256 197.835 107.341 200.177C103.735 201.245 100.025 202.313 96.2792 203.345C95.8243 200.28 97.9244 197.421 101.005 196.87Z" fill="#48D38A"/>
<path d="M120.748 196.044C119.173 196.56 117.562 197.043 115.918 197.559L119.978 191.807L120.748 196.044Z" fill="#48D38A"/>
<path d="M115.567 197.662C112.976 198.455 110.316 199.281 107.551 200.108C106.466 197.662 103.771 196.181 100.971 196.664C97.7502 197.214 95.5802 200.211 96.0351 203.38C94.4253 203.828 92.8147 204.241 91.1695 204.689L89.8394 197.352C94.2501 195.113 99.7459 192.357 105.556 189.395L106.082 192.392C106.082 192.461 106.151 192.495 106.221 192.495L112.591 191.393C112.661 191.393 112.697 191.324 112.697 191.255L111.787 186.226C113.992 185.124 116.197 183.988 118.367 182.885L119.908 191.496L115.567 197.662Z" fill="#48D38A"/>
<path d="M100.969 196.664C103.769 196.182 106.429 197.662 107.549 200.108C107.479 200.143 107.409 200.143 107.339 200.177C106.289 197.835 103.699 196.423 101.003 196.87C97.8883 197.421 95.8236 200.28 96.2431 203.346C96.1732 203.38 96.1033 203.38 96.0333 203.415C95.5784 200.211 97.7484 197.214 100.969 196.664Z" fill="white"/>
<path d="M120.013 191.807L115.952 197.559C115.847 197.594 115.707 197.628 115.602 197.662L119.977 191.531L120.013 191.807Z" fill="white"/>
<path d="M112.627 191.393L106.256 192.495C106.186 192.495 106.151 192.461 106.116 192.392L105.591 189.396C105.661 189.361 105.731 189.326 105.801 189.292L106.327 192.254L112.452 191.187L111.576 186.329C111.646 186.295 111.717 186.261 111.787 186.226L112.697 191.255C112.732 191.324 112.662 191.359 112.627 191.393Z" fill="white"/>
<path d="M87.1792 198.558L116.266 184.159" stroke="black" stroke-width="0.5" stroke-miterlimit="10"/>
<path d="M75.313 209.236C78.1833 207.652 85.5693 206.411 88.719 205.412" stroke="black" stroke-width="0.5" stroke-miterlimit="10"/>
<path d="M79.0582 138.175C77.483 138.003 75.9079 137.693 74.5078 136.97C73.1076 136.246 71.8825 135.109 71.3224 133.662C70.7624 132.216 70.7974 130.322 71.8125 129.116C70.6574 127.945 69.6423 126.602 69.1173 125.052C68.5922 123.501 68.5922 121.745 69.3973 120.333C70.2024 118.92 72.0575 118.059 73.7027 118.404C74.0877 114.959 76.3279 111.756 79.5132 110.171C82.6985 108.586 86.6543 108.759 89.6641 110.55C90.5739 111.101 91.4845 111.894 91.4845 112.961C91.4845 113.788 90.889 114.546 90.1544 114.959C89.419 115.372 88.5791 115.51 87.7393 115.648C91.4146 115.51 95.1245 116.509 98.345 118.3C99.6751 119.024 100.935 119.954 101.705 121.228C102.475 122.503 102.65 124.225 101.845 125.464C101.075 126.67 99.5353 127.222 98.0999 127.222C96.6644 127.222 95.2644 126.773 93.8997 126.291C95.4396 127.669 97.0502 129.289 97.8901 131.148C98.73 133.043 98.6247 135.488 97.0848 136.866C95.7201 138.107 93.5846 138.14 91.8341 137.487C90.119 136.832 88.6844 135.558 87.3189 134.352C87.5986 135.523 87.3189 136.97 86.7242 138.003C86.1286 139.036 85.1135 139.828 83.9936 140.207C83.0836 140.518 82.0334 140.483 81.1583 140.104C80.2133 139.76 79.4082 139.036 79.0582 138.175Z" fill="#5F36A8"/>
<path d="M81.9636 132.594C79.1282 132.594 76.853 130.321 76.853 127.566V123.088C76.853 120.298 79.1633 118.059 81.9636 118.059C84.7985 118.059 87.0738 120.332 87.0738 123.088V127.531C87.0738 130.321 84.7985 132.594 81.9636 132.594Z" fill="#9C7ACD"/>
<path d="M76.0489 128.014C75.2438 128.014 74.6138 127.394 74.6138 126.602V125.189C74.6138 124.397 75.2438 123.777 76.0489 123.777C76.8539 123.777 77.4841 124.397 77.4841 125.189V126.602C77.4841 127.359 76.8539 128.014 76.0489 128.014Z" fill="#9C7ACD"/>
<path d="M74.8931 133.801C72.9329 133.801 71.3228 132.216 71.3228 130.287C71.3228 128.358 72.9329 126.774 74.8931 126.774C75.2431 126.774 75.5932 126.808 75.9081 126.911C75.9782 126.946 76.0132 127.015 76.0132 127.084C75.9781 127.153 75.9081 127.187 75.8381 127.187C75.5232 127.084 75.2081 127.049 74.8931 127.049C73.0729 127.049 71.6028 128.496 71.6028 130.287C71.6028 132.079 73.0729 133.526 74.8931 133.526C76.4332 133.526 77.7984 132.423 78.1134 130.942C78.1134 130.873 78.2184 130.804 78.2884 130.839C78.3584 130.839 78.4284 130.942 78.3934 131.01C78.0784 132.63 76.6083 133.801 74.8931 133.801Z" fill="#FFC83E"/>
<path d="M87.8428 128.014C88.6481 128.014 89.2782 127.394 89.2782 126.602V125.189C89.2782 124.397 88.6481 123.777 87.8428 123.777C87.0383 123.777 86.4082 124.397 86.4082 125.189V126.602C86.4082 127.359 87.0729 128.014 87.8428 128.014Z" fill="#9C7ACD"/>
<path d="M88.9987 133.801C87.3189 133.801 85.8481 132.63 85.4985 131.01C85.4985 130.942 85.5331 130.873 85.6038 130.839C85.6738 130.839 85.7437 130.873 85.7782 130.942C86.0933 132.423 87.4588 133.526 88.9987 133.526C90.8191 133.526 92.289 132.079 92.289 130.287C92.289 128.496 90.8191 127.049 88.9987 127.049C88.6836 127.049 88.3686 127.084 88.0535 127.187C87.9836 127.222 87.9137 127.153 87.8783 127.084C87.8438 127.015 87.9137 126.946 87.9836 126.911C88.2986 126.808 88.6491 126.774 88.9987 126.774C90.9589 126.774 92.5687 128.358 92.5687 130.287C92.5687 132.216 90.9589 133.801 88.9987 133.801Z" fill="#FFC83E"/>
<path d="M81.9632 126.911C81.8932 126.911 81.8232 126.843 81.8232 126.774V122.778C81.8232 122.709 81.8932 122.641 81.9632 122.641C82.0332 122.641 82.1033 122.709 82.1033 122.778V126.808C82.1033 126.843 82.0332 126.911 81.9632 126.911Z" fill="#40196D"/>
<path d="M95.4732 176.1H73.0712L72.5811 177.167C72.7561 181.128 72.6861 182.369 72.6861 182.369L73.8062 182.472L95.4732 181.99V176.1Z" fill="#9C7ACD"/>
<path d="M79.5824 124.707C79.5124 124.707 79.4424 124.638 79.4424 124.569V123.743C79.4424 123.673 79.5124 123.605 79.5824 123.605C79.6524 123.605 79.7224 123.673 79.7224 123.743V124.569C79.7224 124.673 79.6874 124.707 79.5824 124.707Z" fill="#40196D"/>
<path d="M84.3082 124.707C84.238 124.707 84.168 124.638 84.168 124.569V123.743C84.168 123.673 84.238 123.605 84.3082 123.605C84.3781 123.605 84.4481 123.673 84.4481 123.743V124.569C84.4481 124.673 84.4127 124.707 84.3082 124.707Z" fill="#40196D"/>
<path d="M82.9766 129.322C82.9416 129.322 82.8716 129.288 82.8716 129.254C82.8366 129.185 82.8366 129.116 82.9066 129.047C83.6417 128.599 84.2017 127.875 84.4467 127.049C84.4821 126.98 84.552 126.946 84.6219 126.946C84.6918 126.98 84.7264 127.049 84.7264 127.118C84.4821 127.979 83.8517 128.771 83.0816 129.254C83.0466 129.322 83.0116 129.322 82.9766 129.322Z" fill="#40196D"/>
<path d="M71.9166 163.389L76.082 166.524C75.4869 167.902 75.1369 169.417 74.7868 170.864C74.3668 172.655 73.8068 174.412 73.0717 176.1C72.6166 177.133 72.0916 178.167 71.4965 179.166C70.1314 181.473 68.7663 183.781 66.9811 185.813C65.1959 187.846 62.9558 189.499 60.3305 190.257C57.7403 190.981 54.73 190.67 52.5948 189.017C50.9146 187.708 49.8995 185.676 49.5145 183.609C49.1295 181.542 49.2695 179.407 49.5846 177.305C50.2496 172.518 52.9798 164.113 54.905 159.084L78.4972 150.851V154.089C77.6221 154.503 77.0971 155.743 76.922 156.535C76.257 159.29 74.4368 161.908 71.9166 163.389Z" fill="#1DC8EF"/>
<path d="M90.7143 176.1C90.2939 174.894 89.9443 173.689 89.6992 172.448C89.2443 170.485 89.1036 168.384 88.0885 166.627C88.0186 166.524 87.9487 166.421 87.9141 166.317L91.5895 163.562C90.0488 162.804 88.3337 161.633 87.7389 160.324C87.1787 159.049 87.1787 157.602 87.0035 156.225C86.8291 154.985 86.5141 153.641 85.4283 152.883V150.783C85.4283 150.093 84.8689 149.542 84.1685 149.542H82.1733L97.2596 144.272C108.636 151.781 112.591 168.935 112.031 181.852C111.856 186.124 109.791 190.739 104.82 190.67C100.445 190.602 97.1543 187.398 94.8091 184.091C93.0241 181.646 91.6594 178.924 90.7143 176.1Z" fill="#1DC8EF"/>
<path d="M97.2236 144.272L82.137 149.542H79.7918C79.0917 149.542 78.5316 150.093 78.5316 150.782L54.9395 159.049C56.5146 155.226 58.1597 151.299 60.96 148.199C63.1652 145.788 65.9655 143.997 69.0108 142.757C72.0561 141.516 75.2764 140.793 78.5316 140.345H83.8521C84.8321 140.38 86.9321 140.621 87.9127 140.759C91.4128 141.275 94.528 142.515 97.2236 144.272Z" fill="#9C7ACD"/>
<path d="M97.2245 144.272L103.981 145.099C104.12 146.58 102.685 147.855 101.215 148.164C99.745 148.509 98.2051 148.164 96.6997 147.889C95.1944 147.614 93.5846 147.51 92.2544 148.234C89.734 149.577 89.1738 153.331 86.5135 154.296C83.6435 155.329 80.5982 152.367 77.6229 153.09C75.8377 153.504 74.6827 155.123 73.6325 156.603C72.5825 158.085 71.2873 159.635 69.4672 159.876C67.262 160.152 65.2318 158.361 62.9916 158.567C61.6964 158.67 60.5764 159.463 59.6663 160.358C58.7562 161.254 57.9861 162.322 57.0411 163.183C56.096 164.044 54.8358 164.698 53.5407 164.63C52.2456 164.56 50.9855 163.459 51.0555 162.184L54.9409 158.981L97.2245 144.272Z" fill="#1DC8EF"/>
<path d="M53.7498 164.836C53.6798 164.836 53.5747 164.836 53.5047 164.836C53.2947 164.836 53.1197 164.801 52.9096 164.732C52.8396 164.698 52.8047 164.629 52.8047 164.56C52.8396 164.491 52.9097 164.456 52.9797 164.456C53.1547 164.491 53.3298 164.526 53.5047 164.56C54.5898 164.629 55.7799 164.147 56.9001 163.148C57.4251 162.665 57.9151 162.115 58.4052 161.563C58.7553 161.15 59.1402 160.737 59.5253 160.324C60.6454 159.187 61.8005 158.567 62.9556 158.463C64.0757 158.36 65.1608 158.773 66.1759 159.152C67.261 159.566 68.3111 159.945 69.3962 159.807C71.1114 159.566 72.3715 158.119 73.4566 156.603C74.5066 155.122 75.6968 153.468 77.552 153.021C79.0221 152.677 80.4922 153.194 81.9624 153.676C83.5375 154.226 85.0073 154.743 86.4427 154.226C87.8082 153.744 88.6127 152.504 89.4534 151.195C90.188 150.024 90.9579 148.819 92.1836 148.199C93.5837 147.44 95.2634 147.613 96.7334 147.854C96.9086 147.889 97.1183 147.923 97.2936 147.957C98.5892 148.164 99.9193 148.405 101.18 148.13C101.319 148.095 101.459 148.061 101.599 148.026C101.669 147.992 101.739 148.026 101.774 148.095C101.809 148.164 101.774 148.233 101.704 148.267C101.564 148.302 101.389 148.371 101.249 148.405C99.9193 148.681 98.5538 148.474 97.259 148.233C97.0838 148.199 96.8741 148.164 96.6988 148.13C95.2988 147.889 93.6536 147.751 92.3235 148.474C91.1685 149.094 90.4331 150.265 89.6977 151.402C88.8579 152.677 88.018 154.02 86.548 154.536C85.0073 155.088 83.4325 154.536 81.8573 153.985C80.4572 153.503 79.0221 152.986 77.622 153.331C75.8718 153.744 74.7167 155.364 73.7016 156.776C72.5465 158.36 71.2514 159.875 69.4312 160.116C68.2761 160.254 67.156 159.842 66.0709 159.463C65.0558 159.083 64.0057 158.704 62.9556 158.808C61.8705 158.911 60.7854 159.496 59.7003 160.565C59.3153 160.943 58.9302 161.357 58.5802 161.77C58.0902 162.321 57.6001 162.872 57.0751 163.354C56.34 164.009 55.1499 164.836 53.7498 164.836Z" fill="#40196D"/>
<path d="M91.5889 163.562L87.9135 166.318C86.5488 163.872 86.5488 163.218 85.4285 162.666C84.7284 162.322 83.6085 162.012 81.5083 161.323C82.3134 160.978 83.1184 160.669 83.7485 160.358C85.0789 159.704 85.3585 159.049 85.4285 157.982C85.4638 157.637 85.4638 157.327 85.3939 157.017H85.4285V152.918C86.5135 153.676 86.8285 155.019 87.0037 156.259C87.2135 157.637 87.1789 159.084 87.7391 160.358C88.2985 161.667 90.049 162.804 91.5889 163.562Z" fill="#9C7ACD"/>
<path d="M87.9126 166.352C87.9825 166.455 88.0179 166.558 88.0878 166.661C89.1029 168.418 89.2427 170.519 89.6976 172.483C89.9781 173.723 90.3277 174.929 90.7127 176.134H73.1064C73.8415 174.447 74.4366 172.689 74.8216 170.898C75.1367 169.452 75.5217 167.936 76.1167 166.558C76.6768 165.215 77.4469 163.974 78.532 163.01C78.532 163.7 79.0921 164.216 79.7921 164.216H84.1325C84.8328 164.216 85.393 163.665 85.393 162.976V162.7C86.5479 163.251 86.5125 163.871 87.9126 166.352Z" fill="#1DC8EF"/>
<path d="M78.5332 162.976C77.4481 163.941 76.678 165.18 76.118 166.524L71.9526 163.389C74.4728 161.908 76.2931 159.29 76.958 156.5C77.1681 155.673 77.6931 154.468 78.5332 154.054V157.534L82.5936 155.811L83.8887 155.26C84.4141 155.053 85.0089 155.329 85.1487 155.88C85.254 156.259 85.3239 156.638 85.3585 157.017C85.3938 157.326 85.3938 157.671 85.3938 157.981C85.2885 159.049 85.0089 159.738 83.7137 160.358C83.1186 160.668 82.3135 160.978 81.4735 161.322C80.3884 161.804 79.3033 162.321 78.6032 162.907C78.5682 162.942 78.5332 162.942 78.5332 162.976Z" fill="#9C7ACD"/>
<path d="M85.3932 162.666V162.941C85.3932 163.63 84.833 164.182 84.1332 164.182H79.7928C79.0927 164.182 78.5327 163.63 78.5327 162.976C78.5677 162.941 78.6027 162.907 78.6377 162.907C79.3378 162.321 80.4229 161.804 81.508 161.322C83.5732 162.012 84.6931 162.321 85.3932 162.666Z" fill="#5F36A8"/>
<path d="M78.5327 150.816C78.5327 150.128 79.0927 149.577 79.7928 149.577H82.138H84.1332C84.833 149.577 85.3932 150.128 85.3932 150.816V152.918V156.982H85.3586C85.3232 156.603 85.2179 156.225 85.148 155.846C85.0082 155.294 84.4134 155.019 83.8881 155.226L82.593 155.776L78.5327 154.02V150.816ZM80.7378 151.23C80.7378 150.92 80.4929 150.679 80.1778 150.679C79.8628 150.679 79.6178 150.92 79.6178 151.23C79.6178 151.54 79.8628 151.781 80.1778 151.781C80.4578 151.781 80.7378 151.54 80.7378 151.23Z" fill="#5F36A8"/>
<path d="M82.593 155.811L78.5327 157.534V154.054L82.593 155.811Z" fill="#9C7ACD"/>
<path d="M55.1851 174.688C55.1502 174.688 55.1151 174.688 55.1151 174.653C55.0451 174.618 55.0451 174.515 55.0801 174.447C58.0204 170.485 62.0108 167.42 66.5612 165.491C67.1212 165.25 67.7163 165.042 68.2763 164.836C69.2564 164.457 70.3065 164.078 71.2516 163.596C71.4617 163.492 71.6717 163.389 71.8466 163.251C71.9167 163.217 71.9867 163.217 72.0567 163.286C72.0917 163.354 72.0917 163.424 72.0217 163.492C71.8117 163.596 71.6017 163.733 71.3916 163.837C70.4115 164.319 69.3964 164.698 68.3814 165.077C67.8213 165.283 67.2263 165.525 66.6662 165.732C62.1157 167.626 58.1954 170.657 55.2902 174.584C55.2551 174.653 55.2202 174.688 55.1851 174.688Z" fill="#40196D"/>
<path d="M73.0729 176.168C73.0029 176.134 73.0029 176.1 73.0029 176.065C73.738 174.412 74.2981 172.655 74.7181 170.83C75.0332 169.383 75.4182 167.867 76.0132 166.489C76.0132 166.455 76.0832 166.42 76.1183 166.455C76.1532 166.455 76.1883 166.523 76.1532 166.558C75.5932 167.936 75.2081 169.451 74.8581 170.898C74.4381 172.724 73.843 174.48 73.108 176.134C73.143 176.168 73.108 176.168 73.0729 176.168Z" fill="#40196D"/>
<path d="M90.7146 176.237C90.6438 176.237 90.6093 176.203 90.5739 176.134C90.1544 174.928 89.804 173.688 89.5243 172.483C89.419 171.966 89.3137 171.449 89.2092 170.933C88.9287 169.486 88.6844 168.005 87.949 166.731L87.7738 166.42C87.7392 166.352 87.7738 166.282 87.8437 166.214C87.9136 166.179 87.9835 166.214 88.0543 166.282L88.2287 166.593C88.9986 167.901 89.2791 169.417 89.5243 170.898C89.6287 171.415 89.6995 171.931 89.8393 172.448C90.119 173.653 90.4694 174.859 90.8544 176.065C90.8889 176.134 90.8544 176.203 90.7491 176.237H90.7146Z" fill="#40196D"/>
<path d="M73.0718 176.238C73.0367 176.238 73.0367 176.238 73.0018 176.238C72.9317 176.203 72.8967 176.135 72.9317 176.065C73.6667 174.412 74.2269 172.655 74.6469 170.864C74.9619 169.417 75.3469 167.902 75.942 166.49C75.977 166.421 76.047 166.386 76.117 166.421C76.187 166.455 76.222 166.524 76.187 166.593C75.627 167.971 75.2419 169.487 74.8919 170.899C74.4718 172.724 73.8768 174.481 73.1418 176.169C73.1767 176.203 73.1418 176.238 73.0718 176.238Z" fill="#40196D"/>
<path d="M107.725 174.033C107.69 174.033 107.62 173.998 107.585 173.964C105.415 170.313 101.6 167.143 97.889 165.869C97.189 165.628 96.4536 165.422 95.7535 165.215C94.7039 164.939 93.6535 164.629 92.6384 164.216C92.2534 164.044 91.8684 163.871 91.5188 163.699C91.4481 163.665 91.4135 163.596 91.4481 163.527C91.4835 163.458 91.5534 163.424 91.6233 163.458C91.9737 163.63 92.3587 163.803 92.7437 163.975C93.7588 164.388 94.8084 164.698 95.8243 164.973C96.5243 165.18 97.2589 165.387 97.9943 165.628C101.774 166.937 105.625 170.14 107.865 173.861C107.9 173.929 107.9 173.998 107.83 174.067C107.795 174.033 107.76 174.033 107.725 174.033Z" fill="#40196D"/>
<path d="M84.6233 131.079V140.862H77.4829L80.1431 132.25L84.6233 131.079Z" fill="#9C7ACD"/>
<path d="M78.5326 157.672C78.4976 157.672 78.4626 157.672 78.4626 157.637C78.4276 157.602 78.3926 157.568 78.3926 157.534V154.055C78.3926 153.986 78.4626 153.917 78.5326 153.917C78.6026 153.917 78.6726 153.986 78.6726 154.055V157.327L82.558 155.673C82.628 155.639 82.698 155.673 82.733 155.743C82.768 155.811 82.733 155.88 82.663 155.915L78.6026 157.637C78.5676 157.672 78.5326 157.672 78.5326 157.672Z" fill="#40196D"/>
<path d="M81.4731 161.46C81.4031 161.46 81.368 161.426 81.3331 161.392C81.298 161.322 81.3331 161.254 81.4031 161.219C81.6481 161.116 81.8931 161.013 82.1382 160.909C82.6982 160.668 83.1883 160.461 83.6433 160.254C84.9037 159.634 85.1834 159.015 85.2533 157.981C85.2887 157.672 85.2887 157.361 85.2188 157.017C85.2188 156.948 85.2533 156.879 85.3586 156.844C85.4285 156.844 85.4985 156.879 85.5338 156.982C85.5684 157.327 85.5684 157.672 85.5684 157.981C85.4631 159.084 85.148 159.807 83.7833 160.496C83.3632 160.703 82.8382 160.909 82.2782 161.15C82.0331 161.254 81.7881 161.357 81.5431 161.46C81.5081 161.46 81.5081 161.46 81.4731 161.46Z" fill="#40196D"/>
<path d="M80.5629 158.498C80.4929 158.498 80.4579 158.464 80.4229 158.429C80.3879 158.36 80.4229 158.291 80.4929 158.257L85.2187 156.259C85.2886 156.225 85.3585 156.259 85.393 156.328C85.4284 156.397 85.393 156.466 85.3231 156.5L80.5979 158.498H80.5629Z" fill="#40196D"/>
<path d="M80.5629 160.186C80.4929 160.186 80.4579 160.151 80.4229 160.116C80.3879 160.048 80.4229 159.979 80.4929 159.945L85.3231 157.878C85.393 157.843 85.463 157.878 85.4983 157.946C85.5337 158.016 85.4983 158.084 85.4284 158.119L80.5979 160.186H80.5629Z" fill="#40196D"/>
<path d="M80.5972 156.776C80.5622 156.776 80.5622 156.776 80.5272 156.776L78.427 155.88C78.357 155.846 78.322 155.776 78.357 155.708C78.392 155.638 78.462 155.605 78.532 155.638L80.6322 156.534C80.7022 156.569 80.7372 156.638 80.7022 156.707C80.7022 156.741 80.6672 156.776 80.5972 156.776Z" fill="#40196D"/>
<path d="M80.7378 151.23C80.7378 150.92 80.4928 150.679 80.1777 150.679C79.8627 150.679 79.6177 150.92 79.6177 151.23C79.6177 151.54 79.8627 151.781 80.1777 151.781C80.4577 151.781 80.7378 151.54 80.7378 151.23Z" fill="white"/>
<path d="M81.963 132.595C81.368 132.595 80.7729 132.492 80.2129 132.285C81.088 132.974 82.1731 133.353 83.3632 133.353C83.7832 133.353 84.2032 133.284 84.5879 133.215V131.837C83.8532 132.319 82.9432 132.595 81.963 132.595Z" fill="#40196D"/>
</svg>
