<svg width="120" height="60" viewBox="0 0 120 60" fill="none" xmlns="http://www.w3.org/2000/svg">
<path d="M34.4327 30.9358L35.2909 41.8895L20.097 44.6154L18.7845 33.6616L20.9551 33.3587C21.3084 33.5102 21.5608 33.5607 21.9646 33.6616C22.6209 33.813 23.378 34.015 24.4886 33.4092C24.7409 33.2578 25.2962 32.8035 25.4981 32.5006L34.4327 30.9358ZM10.9604 43.9591C10.708 43.5553 10.2537 43.101 9.54703 42.5458C8.53747 41.7381 8.89082 40.3247 9.49656 39.4666C10.2537 38.0027 14.2415 36.0846 14.0396 33.7121C13.9386 32.854 13.8377 31.7434 13.03 30.9358C13.0007 31.1366 13.0007 31.3407 13.03 31.5415C13.03 31.5415 12.6767 31.1377 12.5252 30.532C12.3738 30.3301 12.2224 30.2291 12.0709 29.9262C11.97 30.2796 11.97 30.6329 11.97 30.6329C11.97 30.6329 11.7176 29.9767 11.6671 29.4719C11.5157 29.7243 11.4652 30.1786 11.4652 30.1786C11.4652 30.1786 11.1119 29.1691 11.2128 28.6138C11.0614 28.1595 10.5566 27.2004 10.708 25.0803C11.5662 25.6861 13.4843 25.5346 14.2415 24.4241C14.4939 24.0708 14.6453 23.0612 14.1405 21.0926C13.7872 19.8306 12.9291 17.9629 12.5757 17.2562L12.5252 17.3067C12.7272 17.862 13.0805 19.0734 13.2319 19.6792C13.6358 21.4459 13.7872 22.0517 13.5853 22.8593C13.4338 23.566 13.03 24.0203 11.97 24.5251C10.9604 25.0299 9.54703 23.7679 9.49656 23.7174C8.48699 22.9098 7.72982 21.5973 7.62887 20.9916C7.52791 20.2849 8.03269 19.8811 8.28508 19.3258C7.93174 19.4268 7.52791 19.6287 7.52791 19.6287C7.52791 19.6287 7.98221 19.1239 8.58795 18.7201C8.84034 18.5687 8.99178 18.4677 9.24417 18.2658H8.58795C8.58795 18.2658 9.19369 17.9124 9.8499 17.7105H8.9413L11.3642 16.6505C12.1214 16.3476 12.8281 16.4486 13.2319 17.0038C13.7872 17.761 14.3425 18.1648 15.5035 18.4677C16.2101 18.1648 16.4625 17.9629 17.3711 17.7105C18.1788 16.8019 18.835 16.701 18.835 16.701C18.835 16.701 18.3807 17.1048 18.3302 17.5591C18.7845 17.2058 19.2893 16.9029 19.2893 16.9029C19.2893 16.9029 19.0874 17.1553 18.936 17.5086L18.9864 17.5591C19.5417 17.2562 20.1474 17.0038 20.1474 17.0038C20.1474 17.0038 19.9455 17.2058 19.7436 17.5086C20.1474 17.5086 20.9551 17.5086 21.258 17.5591C23.1256 17.6096 23.5295 15.5905 24.2362 15.2876C25.1448 14.9847 25.5486 14.7828 27.0629 16.2971C28.3754 17.6096 29.3849 19.8811 28.8801 20.3859C28.4763 20.7897 27.6182 20.2344 26.6591 19.0734C26.1543 18.4677 25.801 17.7105 25.5991 16.8019C25.4981 16.0448 24.9429 15.5905 24.9429 15.5905C24.9429 15.5905 25.2962 16.3476 25.2962 17.0038C25.2962 17.3572 25.3467 18.6696 25.9019 19.4268C25.8515 19.5277 25.801 19.982 25.7505 20.0325C25.0943 19.2249 23.6304 18.6696 23.4285 18.4677C24.2362 19.1239 26.0534 20.5878 26.7601 22.0012C27.4163 23.3641 27.0125 24.5756 27.3658 24.8784C27.4668 24.9794 28.7792 26.5947 29.0316 27.4528C29.4859 28.9167 29.0821 30.431 28.4763 31.3396L26.861 31.592C26.6086 31.5415 26.4572 31.4911 26.2553 31.3901C26.3562 31.1882 26.6086 30.6834 26.6086 30.5825L26.5077 30.431C26.0029 31.1377 25.1448 31.8444 24.4381 32.2482C23.5295 32.753 22.4694 32.7025 21.7627 32.4501C19.7941 31.8444 17.9264 30.532 17.5226 30.1786C17.5226 30.1786 17.5226 30.431 17.5731 30.532C18.0778 31.0872 19.1884 32.0968 20.2989 32.8035L17.9769 33.0559L19.0874 41.6372C18.5826 41.6876 18.5321 41.7381 17.9769 41.8391C17.5226 40.1733 16.614 39.1132 15.6044 38.457C14.7463 37.9018 13.5348 37.7503 12.3738 38.0027L12.3233 38.1037C13.131 38.0027 14.0901 38.1542 15.0491 38.7599C16.0082 39.3656 16.7654 40.9305 17.0683 41.8391C17.4216 43.0505 17.674 44.3125 16.7149 45.6754C16.0082 46.6345 13.9891 47.1897 12.3738 46.0288C12.8281 46.7354 13.3834 47.2907 14.191 47.3917C15.352 47.5431 16.4625 47.3412 17.2702 46.584C17.9264 45.9278 18.2797 44.5144 18.1788 43.0001L19.2388 42.8486L19.5922 45.524L36.8052 43.4544L35.2909 29.7243L34.4327 29.8758L32.7165 12.5618L4.04492 15.8933L7.57839 44.4639L10.9604 43.9591Z" fill="#5C2D90"/>
<path d="M24.5922 28.942C25.3492 29.497 26.0052 29.842 26.6622 29.8C27.0662 29.75 27.4702 29.093 27.7222 28.488C27.9242 28.084 27.9242 27.63 27.6222 27.488C27.4722 27.438 26.8652 27.438 26.4222 27.488C25.5642 27.588 24.7062 27.892 24.5042 28.043C24.2012 28.245 24.3542 28.75 24.6042 28.943M24.8042 23.027V23.077L24.8542 23.177C25.0562 23.581 25.2582 23.985 25.6622 24.177C25.7622 24.177 25.8642 24.127 25.9652 24.127C26.2049 24.1198 26.444 24.154 26.6722 24.228V23.925C26.6222 23.42 26.7722 22.512 25.7722 22.007C25.3682 21.805 24.8722 21.907 24.6722 22.107H24.7722C25.0242 22.207 24.8722 22.309 24.8222 22.41C24.7722 22.612 24.7222 22.662 24.8222 23.016" fill="#5C2D90"/>
<path d="M20.2599 23.1369C20.5119 22.9349 19.0999 22.6319 17.9879 23.3389C17.1799 23.8939 17.1799 25.0549 17.9379 25.7109C18.0379 25.7609 18.0879 25.8109 18.1399 25.8609C18.3419 25.7609 18.6449 25.6589 18.8969 25.5579C19.4019 25.4079 19.7969 25.3059 20.1589 25.2549C20.3089 25.0529 20.5119 24.7499 20.4619 24.1949C20.4119 23.4379 19.8059 23.5889 20.2599 23.1349M31.3659 37.3219L28.4889 35.4039L26.0659 39.4419L23.2389 38.5839L20.7659 42.3699L20.8659 43.5699L34.3939 41.0969L33.5859 32.6669L31.3659 37.3219Z" fill="#5C2D90"/>
<path d="M99.3547 33.864C97.045 33.864 95.8014 32.5315 95.8014 29.9554C95.8014 27.3793 96.9562 26.0468 99.3547 26.0468C101.664 26.0468 102.819 27.3793 102.819 29.9554C102.819 32.5315 101.664 33.864 99.3547 33.864ZM99.3547 24.2701C95.6237 24.2701 93.6694 26.1356 93.6694 29.9554C93.8471 33.7752 95.8014 35.6406 99.3547 35.6406C103.086 35.6406 104.951 33.7752 104.951 29.9554C105.04 26.1356 103.174 24.2701 99.3547 24.2701Z" fill="#5C2D90"/>
<path d="M112.669 26.0468C113.824 26.0468 114.89 26.2244 115.867 26.6686V24.8031C114.89 24.4478 113.824 24.2701 112.58 24.2701C108.494 24.2701 106.451 26.1356 106.451 29.8666C106.451 33.7752 108.494 35.7295 112.491 35.7295C113.913 35.7295 114.979 35.5518 115.956 35.1076V29.1559H112.491L111.781 31.0214H113.824V33.6863C113.38 33.7752 112.935 33.864 112.491 33.864C109.915 33.864 108.583 32.5315 108.583 29.7777C108.583 27.2904 110.004 26.0468 112.669 26.0468Z" fill="#5C2D90"/>
<path d="M86.6676 33.7343H84.1803V26.0948H86.6676C88.9772 26.0948 90.2209 27.2496 90.2209 29.648C90.1321 32.4018 88.9772 33.7343 86.6676 33.7343ZM86.9341 24.3181H82.0483V35.5998H86.9341C90.4874 35.5998 92.264 33.6455 92.264 29.648C92.264 26.0948 90.4874 24.3181 86.9341 24.3181Z" fill="#5C2D90"/>
<path d="M44.65 33.7476H42.1627V26.1081H44.65C47.0485 26.1081 48.2033 27.2629 48.2033 29.6613C48.2033 32.4151 46.9597 33.7476 44.65 33.7476ZM44.9165 24.3314H40.0308V35.6131H44.9165C48.4698 35.6131 50.2464 33.6588 50.2464 29.6613C50.2464 26.1081 48.4698 24.3314 44.9165 24.3314Z" fill="#5C2D90"/>
<path d="M76.985 32.4907L78.4064 35.5998H80.6272L75.7414 24.3181H73.4318L68.6348 35.5998H70.7668L74.5866 26.4501L76.3632 30.714H74.0536L73.3429 32.4907H76.985ZM58.5968 32.4907L60.0181 35.5998H62.3278L57.3532 24.3181H55.1324L50.3354 35.5998H52.4674L56.1984 26.4501L58.0638 30.714H55.6654L54.9547 32.4907H58.5968ZM61.0841 26.0948H64.3709V35.5998H66.5029V26.0948H69.7008V24.3181H61.0841V26.0948Z" fill="#5C2D90"/>
</svg>
