<svg width="309" height="37" viewBox="0 0 309 37" fill="none" xmlns="http://www.w3.org/2000/svg">
<path d="M25.0119 36.4908C21.5289 36.4908 18.7031 33.6628 18.7031 30.1763C18.7031 26.6898 21.5289 23.8618 25.0119 23.8618C28.4949 23.8618 31.3207 26.6898 31.3207 30.1763C31.3207 33.6628 28.4949 36.4908 25.0119 36.4908ZM25.0119 24.2128C21.7261 24.2128 19.0537 26.8876 19.0537 30.1763C19.0537 33.4651 21.7261 36.1398 25.0119 36.1398C28.2978 36.1398 30.9702 33.4651 30.9702 30.1763C30.9702 26.8876 28.2978 24.2128 25.0119 24.2128Z" fill="#FFC83E"/>
<path d="M24.5989 14.4763C24.5551 14.4763 24.5113 14.4546 24.4675 14.4328L19.4511 9.41165C19.3854 9.34545 19.3854 9.23571 19.4511 9.17038L24.4675 4.14925C24.5332 4.08306 24.6428 4.08306 24.7084 4.14925L29.7248 9.17038C29.7905 9.23571 29.7905 9.34545 29.7248 9.41165L24.7084 14.4328C24.6865 14.4546 24.6428 14.4763 24.5989 14.4763ZM19.8454 9.28013L24.5989 14.06L29.3743 9.28013L24.5989 4.52202L19.8454 9.28013Z" fill="#1DC8EF"/>
<path d="M7.36187 9.0613C7.31806 9.0613 7.27425 9.03952 7.23044 9.01775L0.549287 2.33046C0.483571 2.26427 0.483571 2.15452 0.549287 2.0892C0.615003 2.023 0.724532 2.023 0.790249 2.0892L7.47141 8.77649C7.53712 8.84182 7.53712 8.95155 7.47141 9.01775C7.4495 9.03952 7.40568 9.0613 7.36187 9.0613Z" fill="#48D38A"/>
<path d="M0.698296 9.0613C0.654486 9.0613 0.610676 9.03952 0.566865 9.01775C0.501149 8.95155 0.501149 8.84182 0.566865 8.77649L7.24803 2.0892C7.31374 2.023 7.42327 2.023 7.48899 2.0892C7.5547 2.15452 7.5547 2.26427 7.48899 2.33046L0.807823 9.01775C0.785918 9.03952 0.742107 9.0613 0.698296 9.0613Z" fill="#48D38A"/>
<path d="M43.6548 6.9999C41.8367 6.9999 40.3472 5.5088 40.3472 3.68847C40.3472 1.86902 41.8367 0.37793 43.6548 0.37793C45.4731 0.37793 46.9626 1.86902 46.9626 3.68847C46.9626 5.5088 45.4731 6.9999 43.6548 6.9999ZM43.6548 0.707161C42.012 0.707161 40.6976 2.04409 40.6976 3.6667C40.6976 5.28932 42.0338 6.62713 43.6548 6.62713C45.2978 6.62713 46.6122 5.28932 46.6122 3.6667C46.6122 2.04409 45.2758 0.707161 43.6548 0.707161Z" fill="#48D38A"/>
<path d="M257.263 12.1432C256.842 9.30694 258.801 6.66406 261.638 6.24268C264.474 5.82129 267.117 7.78057 267.538 10.6168C267.959 13.4531 266 16.096 263.164 16.5173C260.327 16.9387 257.685 14.9794 257.263 12.1432ZM267.253 10.6592C266.855 7.98358 264.356 6.13064 261.68 6.52813C259.004 6.92561 257.151 9.4251 257.549 12.1008C257.946 14.7765 260.446 16.6295 263.122 16.232C265.797 15.8345 267.65 13.335 267.253 10.6592Z" fill="#FFC83E"/>
<path d="M275.531 9.43787C275.526 9.40413 275.537 9.36791 275.549 9.33168L278.842 4.89227C278.885 4.8341 278.97 4.82154 279.028 4.86467L283.469 8.15517C283.527 8.1982 283.54 8.2826 283.496 8.34078L280.204 12.7801C280.161 12.8383 280.076 12.8508 280.018 12.8077L275.577 9.51729C275.557 9.50291 275.536 9.47167 275.531 9.43787ZM278.988 5.18104L275.851 9.39024L280.079 12.5227L283.197 8.29902L278.988 5.18104Z" fill="#1DC8EF"/>
<path d="M283.612 24.5643C283.379 22.9956 284.473 21.5193 286.042 21.2862C287.611 21.0532 289.087 22.1476 289.32 23.7163C289.553 25.2852 288.459 26.7614 286.89 26.9944C285.321 27.2275 283.845 26.1332 283.612 24.5643ZM289.036 23.7585C288.826 22.3409 287.505 21.3781 286.106 21.5858C284.707 21.7936 283.725 23.1179 283.933 24.5166C284.144 25.9342 285.465 26.897 286.864 26.6892C288.263 26.4814 289.244 25.1572 289.036 23.7585Z" fill="#48D38A"/>
<path d="M293.856 7.12116L293.396 4.02842C293.384 3.94536 293.454 3.84998 293.538 3.83753L296.63 3.37829C296.713 3.36596 296.809 3.43658 296.821 3.51964L297.281 6.61237C297.293 6.69534 297.221 6.79085 297.138 6.80318L294.026 7.2655C293.943 7.27795 293.868 7.20413 293.856 7.12116ZM293.754 4.14491L294.164 6.90557L296.921 6.496L296.511 3.73534L293.754 4.14491Z" fill="#FFC83E"/>
<path d="M304.839 26.078C304.697 25.1189 305.361 24.2501 306.297 24.1111C307.233 23.972 308.125 24.633 308.264 25.5692C308.407 26.5281 307.742 27.3969 306.806 27.536C305.87 27.675 304.978 27.0141 304.839 26.078ZM307.921 25.6201C307.809 24.8666 307.105 24.3645 306.374 24.4731C305.644 24.5816 305.119 25.2896 305.227 26.0203C305.336 26.7509 306.044 27.2757 306.775 27.1672C307.506 27.0586 308.033 26.3736 307.921 25.6201Z" fill="#1DC8EF"/>
</svg>
