<svg width="180" height="173" viewBox="0 0 180 173" fill="none" xmlns="http://www.w3.org/2000/svg">
<g clip-path="url(#clip0_45765_22422)">
<path d="M54.1808 86.2851C53.796 88.6803 53.0159 91.0492 52.6664 93.463C51.7772 99.6349 50.886 105.807 49.9964 111.978C49.5917 114.781 38.6253 181.992 38.2206 184.795L18.5142 184.864C28.7316 135.875 33.4039 109.351 32.5293 105.29C30.9799 98.0802 25.8453 89.4631 26.694 81.495C28.1547 67.7641 39.5037 52.3892 48.1569 55.2417C53.4025 56.9712 50.2257 64.9896 52.8478 69.6925C53.7516 71.3119 56.2388 72.7402 56.0388 74.6352C56.0018 74.9772 54.236 85.9448 54.1808 86.2851Z" fill="#A476D4"/>
<path d="M45.1224 73.3086C52.5275 75.8563 53.2171 85.7919 52.6275 87.7165C49.9631 96.3933 40.3578 91.813 34.8552 89.7974C29.3564 87.7815 32.6216 70.0342 38.1296 67.8436C39.9936 67.1033 39.5829 71.4027 45.1224 73.3086Z" fill="#874DCA"/>
<path d="M22.4087 145.669L48.0112 152.459L50.5389 125.521L27.8946 120.855L22.4087 145.669Z" fill="white"/>
<path d="M2.81239 258.97C7.05392 269.179 60.1175 269.586 56.5342 259.125C48.1361 234.606 46.7401 192.596 52.3481 133.088L25.6785 128.532C3.16184 197.994 -4.45958 241.474 2.81239 258.97Z" fill="#FFC83E"/>
<path d="M94.1956 86.7082C95.0537 88.9751 96.2945 91.1359 97.1207 93.4306C99.2325 99.2935 101.344 105.157 103.455 111.02C104.413 113.683 128.651 177.281 129.611 179.944L148.925 176.009C129.08 130.104 119.179 105.075 119.218 100.923C119.288 93.5459 122.587 84.0641 120.155 76.4324C115.967 63.2815 101.764 50.5289 93.8611 55.081C89.0724 57.8386 93.7926 65.0482 92.1691 70.1842C91.6092 71.9565 89.4604 73.8586 90.0375 75.6738C90.1409 76.001 94.0736 86.3848 94.1956 86.7082Z" fill="#A476D4"/>
<path d="M101.572 75.6903C94.8305 79.6902 96.1489 89.5586 97.1139 91.3253C101.468 99.2822 109.955 92.8446 114.94 89.7523C119.919 86.6618 113.156 69.9444 107.322 68.9159C105.349 68.57 106.614 72.6965 101.572 75.6903Z" fill="#874DCA"/>
<path d="M137.236 138.414L113.523 150.265L105.639 124.395L126.878 115.227L137.236 138.414Z" fill="white"/>
<path d="M179.183 245.398C177.077 256.258 125.192 267.436 126.599 256.463C129.901 230.745 122.829 189.314 105.387 132.174L130.591 122.294C166.594 185.75 182.791 226.784 179.183 245.398Z" fill="#FFC83E"/>
<path d="M76.6977 21.1352L76.9961 21.8567L77.4397 21.215C80.8439 16.29 89.6503 10.0771 99.9107 7.96545C110.135 5.86107 121.752 7.83729 130.871 19.2014C139.067 29.416 139.657 39.7933 137.368 48.339C135.073 56.9068 129.883 63.6271 126.549 66.455C126.548 66.4557 126.547 66.4565 126.546 66.4572L96.6535 90.9504L67.0888 115.175L19.2014 54.9303C19.2007 54.9296 19.2 54.9285 19.1993 54.9278C16.5332 51.4545 12.8707 43.7834 12.4257 34.9211C11.9819 26.0817 14.7368 16.0637 24.8932 7.82017C36.1928 -1.35117 47.963 -0.81587 57.5156 3.41243C67.1014 7.65545 74.4052 15.5985 76.6977 21.1352Z" fill="#40196D" stroke="#40196D" stroke-width="2.43502"/>
<path d="M106.76 70.1755C107.268 70.0229 107.817 70.276 107.993 70.7797C108.411 71.9773 109.531 74.4246 112.364 77.5524C116.123 81.6974 118.016 86.4186 117.578 92.0288C117.347 94.9967 117.511 98.3589 116.877 101.184C116.067 104.774 111.822 104.598 109.618 102.444C107.384 100.265 104.339 98.902 104.145 95.7482C103.892 91.5827 107.409 87.9808 107.183 83.8062C107.022 80.8197 104.986 77.796 104.852 77.5801C103.87 76.0089 103.435 73.8836 104.123 72.4143C104.639 71.243 105.617 70.5196 106.76 70.1755Z" fill="#A476D4"/>
<path d="M38.5548 72.6564C38.026 72.61 37.5381 72.9689 37.4678 73.499C37.2976 74.756 36.693 77.3814 34.5463 81.0189C31.6989 85.8424 30.7929 90.8501 32.3479 96.2578C33.1707 99.116 33.6847 102.443 34.8718 105.079C36.3861 108.432 40.5093 107.397 42.2363 104.84C43.9852 102.251 46.694 100.298 46.2522 97.1707C45.6622 93.039 41.4946 90.2272 40.8774 86.0916C40.4352 83.135 41.8221 79.7598 41.9109 79.5218C42.5561 77.7815 42.5543 75.613 41.5872 74.3134C40.8459 73.2719 39.7439 72.7625 38.5548 72.6564Z" fill="#A476D4"/>
</g>
<defs>
<clipPath id="clip0_45765_22422">
<rect width="180" height="174" fill="white"/>
</clipPath>
</defs>
</svg>
