<svg width="331" height="199" viewBox="0 0 331 199" fill="none" xmlns="http://www.w3.org/2000/svg">
<g clip-path="url(#clip0_45598_10829)">
<path opacity="0.4" d="M182.963 9.61881C169.525 12.4721 158.392 21.284 152.291 33.3841C141.803 24.8066 127.886 21.3138 114.615 24.1318C90.3943 29.2748 74.8628 53.3106 80.0282 77.657C82.7522 90.497 90.8091 101.508 102.2 107.802L174.976 156.654C175.982 157.311 177.25 157.565 178.411 157.319C179.572 157.072 180.627 156.325 181.28 155.315L227.947 81.1013C235.8 70.7204 238.692 57.3848 235.968 44.5446C230.968 20.1631 207.017 4.51107 182.963 9.61881Z" stroke="#F4F4F4" stroke-width="2" stroke-linecap="round" stroke-dasharray="1 20"/>
<path d="M36.482 64.061L9.43457 82.4947L28.5599 102.059L45.3415 70.3784L36.482 64.061Z" fill="#9C7ACD"/>
<path d="M132.574 85.4652C131.73 85.1348 130.792 85.4652 130.371 86.2661L126.668 93.0083C125.777 94.6108 125.168 96.4022 124.839 98.2413L123.011 108.66L62.8228 115.778L45.3381 97.7694L28.5566 129.451L53.3071 142.699C56.9633 144.678 61.3228 144.914 65.2135 143.358L126.246 119.032C130.605 116.91 133.605 112.431 133.605 107.293C133.605 104.464 132.715 101.871 131.214 99.7023L133.98 88.2934C134.308 87.1152 133.699 85.9363 132.574 85.4652Z" fill="#9C7ACD"/>
<path d="M13.0334 80.9194L-17.5972 89.272L-16.0515 95.0059L14.5791 86.6526L13.0334 80.9194Z" fill="#40196D"/>
<path d="M28.562 129.452L45.3435 97.7709L35.4528 87.5403C31.6558 82.873 25.8432 79.9033 19.4213 79.9033C9.71798 79.9033 1.56156 86.5973 -0.735353 95.649L-21.5014 178.105L-29.4702 184.941L-0.735353 221L44.5935 137.985L28.562 129.452Z" fill="#1DC8EF"/>
<path d="M-41.4743 92.3481L-59.0527 162.028L-19.9583 171.975L-1.06737 96.9685C0.667034 90.0379 -3.45804 83.0605 -10.3488 81.269L-19.2083 79.0064C-29.0053 76.5079 -38.9899 82.4948 -41.4743 92.3481Z" fill="#FFC83E"/>
<path d="M61.8912 66.5596L60.7662 65.8995L64.4693 59.535C67.9382 53.5477 65.9225 45.816 59.9224 42.3274C53.9692 38.8386 46.2815 40.8659 42.8127 46.9004L30.4844 68.2568L45.1097 76.7901C49.0003 79.0527 53.9692 77.7331 56.2192 73.8198L58.4224 69.9539L59.5474 70.6139C60.6724 71.2737 62.0787 70.8968 62.7349 69.7654C63.3912 68.6339 63.0162 67.2196 61.8912 66.5596Z" fill="#9C7ACD"/>
<path d="M57.6708 49.4461L61.2334 43.2702C60.8115 42.9402 60.3896 42.6573 59.9208 42.3745C53.9676 38.8858 46.28 40.9129 42.8112 46.9474L36.811 57.3664C36.7642 57.4135 36.7642 57.5078 36.7173 57.555C44.5456 60.1007 53.3582 56.8949 57.6708 49.4461Z" fill="#6F4A9D"/>
<path d="M59.2362 51.1368C59.2083 51.1368 59.1803 51.1367 59.1524 51.1086L47.6747 44.396C47.591 44.3398 47.563 44.2275 47.6189 44.1433C47.6748 44.059 47.7865 44.0309 47.8702 44.0871L59.3479 50.7997C59.4317 50.8558 59.4596 50.9682 59.4037 51.0525C59.3758 51.1086 59.32 51.1368 59.2362 51.1368Z" fill="#40196D"/>
<path d="M57.4603 53.2745C57.4324 53.2745 57.4045 53.2745 57.3766 53.2463L45.8989 46.5618C45.8151 46.5056 45.7872 46.3933 45.843 46.309C45.8989 46.2248 46.0106 46.1967 46.0944 46.2528L57.5721 52.9655C57.6558 53.0216 57.6838 53.134 57.6279 53.2182C57.5721 53.2463 57.5162 53.2745 57.4603 53.2745Z" fill="#40196D"/>
<path d="M56.2328 55.408C56.2049 55.408 56.177 55.408 56.149 55.3799L44.6713 48.6673C44.5876 48.6111 44.5596 48.4988 44.6155 48.4145C44.6713 48.3302 44.783 48.3021 44.8668 48.3584L56.3445 55.0709C56.4283 55.1271 56.4562 55.2395 56.4004 55.3237C56.3445 55.3799 56.2886 55.408 56.2328 55.408Z" fill="#40196D"/>
<path d="M54.9745 57.5708C54.9465 57.5708 54.9186 57.5708 54.8907 57.5427L43.413 50.8301C43.3293 50.774 43.3013 50.6616 43.3572 50.5773C43.413 50.4931 43.5248 50.465 43.6085 50.5212L55.0862 57.2057C55.17 57.2618 55.1979 57.3742 55.1421 57.4585C55.1141 57.5147 55.0583 57.5708 54.9745 57.5708Z" fill="#40196D"/>
<path d="M44.2637 61.9866L42.6231 61.0437C41.3105 60.2894 40.8418 58.5922 41.6387 57.2722L44.3575 52.5578C45.1075 51.2377 46.795 50.7662 48.1075 51.5677L49.7482 52.5106C51.0607 53.2649 51.5295 54.9621 50.7326 56.2821L48.0138 60.9965C47.2638 62.3166 45.5762 62.7881 44.2637 61.9866Z" fill="#9C7ACD"/>
<path d="M42.8594 46.9002C45.8126 41.8086 51.7658 39.5457 57.1565 41.1486C57.9534 42.4686 58.844 43.7886 59.8284 45.0145C63.4379 49.6346 68.4536 54.019 74.2193 55.4805C76.282 55.9991 78.626 56.1877 80.2661 54.5376C81.86 52.8875 81.6256 50.4832 80.0785 48.9274C77.7353 46.6174 73.7505 45.4388 70.6099 45.0145C71.7346 44.873 72.9066 44.543 74.0318 44.2601C75.0162 43.9772 76.0945 43.5529 76.7977 42.7043C77.9228 41.2429 77.2196 39.8286 75.7663 38.9799C73.3754 37.6127 70.3755 37.5656 67.7036 37.707C64.8442 37.8485 61.9847 38.367 59.1253 38.7913C59.8285 38.4613 60.5316 38.0842 61.0004 37.4713C61.1409 37.2827 61.2347 37.0942 61.2816 36.9056C61.8441 35.2084 59.6409 34.737 58.4222 34.8313C56.594 34.9256 54.8596 35.5856 53.3127 36.4813C48.9533 38.7913 45.2969 42.6572 42.8594 46.9002Z" fill="#40196D"/>
<path d="M50.5736 68.2188C48.9329 68.6431 47.9485 70.3403 48.4173 71.99C48.8392 73.64 50.5267 74.6306 52.1673 74.1587L50.5736 68.2188Z" fill="#40196D"/>
<path d="M58.3706 61.0909C58.3237 61.0909 58.2768 61.0909 58.2299 61.0437C58.0893 60.9494 58.0424 60.7609 58.1362 60.6194L58.9799 59.2051C59.0737 59.0637 59.2612 59.0166 59.4019 59.1108C59.5425 59.2051 59.5894 59.3937 59.4956 59.5351L58.6519 60.9494C58.605 61.0437 58.5112 61.0909 58.3706 61.0909Z" fill="#40196D"/>
<path d="M42.7169 75.376L35.2168 70.9917L40.2325 80.0909L42.7169 75.376Z" fill="#40196D"/>
<path d="M19.4193 121.813C30.9139 121.813 40.2321 112.441 40.2321 100.88C40.2321 89.3203 30.9139 79.9487 19.4193 79.9487C7.92469 79.9487 -1.39355 89.3203 -1.39355 100.88C-1.39355 112.441 7.92469 121.813 19.4193 121.813Z" fill="#1DC8EF"/>
<path d="M35.496 87.634L8.77686 118.843L28.5584 129.451L45.3399 97.7695L35.496 87.634Z" fill="#1DC8EF"/>
<path d="M60.0118 144.725C57.6679 144.725 55.3242 144.16 53.1679 143.028L8.6359 119.126C8.49526 119.032 8.4015 118.843 8.49526 118.702C8.58902 118.561 8.77647 118.466 8.91711 118.561L53.4961 142.415C57.1054 144.349 61.3243 144.584 65.1212 143.075L126.154 118.749C126.294 118.702 126.482 118.749 126.576 118.937C126.623 119.079 126.576 119.268 126.388 119.362L65.3556 143.688C63.6212 144.349 61.8399 144.725 60.0118 144.725Z" fill="#40196D"/>
<path d="M8.77686 118.843L42.3399 145.244L44.543 137.984L8.77686 118.843Z" fill="#40196D"/>
<path d="M336.193 72.6401C336.74 80.6842 330.172 85.8483 323.205 85.8483C316.736 85.7985 311.013 81.2797 308.674 75.371C306.733 70.4055 306.634 63.9502 305.738 58.6867C305.34 56.4026 304.792 54.0688 303.3 52.3309C301.807 50.5929 298.672 49.6991 296.134 52.3805L293.646 51.288C294.84 46.968 298.771 42.8963 303.2 42.2508C307.679 41.6053 312.406 43.8398 314.745 47.6632C316.935 51.1888 317.084 55.5585 317.233 59.6799C317.432 63.8013 317.831 68.2206 320.368 71.4982C322.21 73.8318 324.996 75.3213 327.982 75.5202C331.068 75.7682 334.103 74.676 336.193 72.6401Z" fill="#40196D"/>
<path d="M291.053 95.5018C289.6 101.676 290.111 107.719 291.923 113.495L280.656 120.215L237.139 116.048C233.879 115.734 230.681 114.956 227.634 113.671L197.203 95.7335C195.379 95.0918 193.827 93.7253 192.963 91.828L187.364 79.538C186.993 78.725 187.339 77.8034 188.153 77.4317C188.788 77.1425 189.516 77.301 190.01 77.7856L193.394 81.3721L190.615 75.2722L184.382 69.8742C183.477 69.0866 183.283 67.7015 183.966 66.6805C184.39 66.0506 185.177 65.8557 185.831 66.2121L193.336 70.3206C195.168 71.3404 196.646 72.9037 197.51 74.8017L204.571 90.2995L239.645 98.2619L291.053 95.5018Z" fill="#9C7ACD"/>
<path d="M209.405 91.4236L205.198 100.436L207.507 101.784L212.076 92.0063L209.405 91.4236Z" fill="#40196D"/>
<path d="M294.791 54.9123C296.523 54.9123 297.926 53.5117 297.926 51.784C297.926 50.0563 296.523 48.6558 294.791 48.6558C293.059 48.6558 291.656 50.0563 291.656 51.784C291.656 53.5117 293.059 54.9123 294.791 54.9123Z" fill="#48D38A"/>
<path d="M337.238 119.763C335.347 115.294 331.714 111.768 327.185 110.03L290.261 96.0774C282.2 106.455 282.05 119.912 285.036 132.723C288.072 145.832 297.378 156.806 305.937 167.184C309.52 171.554 332.136 202.399 333.131 208.209L340.621 166.737C344.005 150.748 342.264 133.766 337.238 119.763Z" fill="#FFC83E"/>
<path d="M288.024 141.363C288.92 143.3 289.865 145.186 290.96 147.023L320.718 144.59L288.024 141.363Z" fill="#40196D"/>
<path d="M320.719 144.591C330.613 144.591 338.634 136.588 338.634 126.715C338.634 116.842 330.613 108.839 320.719 108.839C310.825 108.839 302.805 116.842 302.805 126.715C302.805 136.588 310.825 144.591 320.719 144.591Z" fill="#9C7ACD"/>
<path d="M291.176 95.7719C291.131 95.7925 291.086 95.8131 291.086 95.8131L239.698 98.6186C239.653 98.6392 239.633 98.5945 239.587 98.6151L204.493 90.6072C204.381 90.6036 204.295 90.5333 204.254 90.443L197.193 74.9453C196.37 73.1382 194.958 71.5991 193.146 70.6243L185.641 66.5158C185.139 66.2538 184.555 66.4112 184.204 66.8436C184.131 67.0411 183.929 67.0785 183.756 66.939C183.604 66.8448 183.567 66.6434 183.661 66.4911C184.18 65.7089 185.168 65.4766 185.975 65.9272L193.48 70.0357C195.378 71.0803 196.876 72.6891 197.782 74.6767L204.781 90.0394L239.678 97.9734L291.019 95.1885C291.176 95.1715 291.349 95.3114 291.386 95.5125C291.382 95.6234 291.312 95.7101 291.176 95.7719Z" fill="#40196D"/>
<path d="M253.389 137.739L319.225 144.591L318.629 108.938L259.112 115.443L211.637 100.497L209.448 86.5433C209.1 84.6068 208.453 82.7699 207.507 81.0318L203.576 74.0301C203.128 73.1859 201.984 72.7887 201.138 73.1859C199.993 73.6826 199.346 74.9241 199.645 76.1655L202.58 88.1819C201.038 90.4168 200.092 93.1477 200.092 96.1265C200.092 101.092 202.78 105.462 206.761 107.895L243.387 134.312C246.422 136.199 249.806 137.341 253.389 137.739Z" fill="#9C7ACD"/>
<path d="M300.763 114.946C306.287 114.946 310.764 110.478 310.764 104.966C310.764 99.4537 306.287 94.9854 300.763 94.9854C295.238 94.9854 290.76 99.4537 290.76 104.966C290.76 110.478 295.238 114.946 300.763 114.946Z" fill="#9C7ACD"/>
<path d="M309.57 100.298L301.458 85.4004H290.709V104.965L309.57 100.298Z" fill="#9C7ACD"/>
<path d="M299.568 88.2317L293.745 89.6223C289.018 90.7643 284.241 87.8344 283.146 83.1174L278.169 62.3612C277.025 57.6439 279.961 52.877 284.688 51.7846L290.511 50.3942C295.239 49.2521 300.015 52.1818 301.111 56.899L306.087 77.6549C307.182 82.3727 304.295 87.1394 299.568 88.2317Z" fill="#9C7ACD"/>
<path d="M282.4 76.2649L281.006 76.6124C279.862 76.9102 278.717 76.1654 278.419 75.0235L277.075 69.5114C276.776 68.3693 277.523 67.2272 278.667 66.9293L280.061 66.5817C281.205 66.2838 282.349 67.0286 282.648 68.1707L283.992 73.6826C284.241 74.8245 283.544 75.9665 282.4 76.2649Z" fill="#9C7ACD"/>
<path d="M306.136 70.5541L304.744 70.9017C303.599 71.1996 302.454 70.4548 302.156 69.3127L300.812 63.8009C300.514 62.6588 301.26 61.5168 302.404 61.2189L303.798 60.8713C304.942 60.5733 306.087 61.3181 306.386 62.4602L307.729 67.972C307.978 69.1638 307.281 70.3058 306.136 70.5541Z" fill="#9C7ACD"/>
<path d="M301.523 57.2041C299.392 51.1639 295.865 50.7854 291.934 49.7427C293.476 53.7647 298.252 59.0842 302.233 61.4678L301.523 57.2041Z" fill="#40196D"/>
<path d="M293.248 75.0726C293.098 75.0726 292.949 74.9738 292.899 74.8246L291.556 69.1142C291.506 68.9156 291.606 68.7666 291.805 68.717C292.004 68.6673 292.153 68.7666 292.203 68.9652L293.546 74.6753C293.596 74.8743 293.497 75.0235 293.298 75.0726H293.248Z" fill="#40196D"/>
<path d="M287.176 72.3417C287.026 72.3417 286.877 72.2422 286.828 72.0937L286.38 70.3059C286.33 70.1073 286.43 69.9583 286.629 69.9087C286.828 69.859 286.977 69.9583 287.026 70.1569L287.475 71.9444C287.524 72.1434 287.425 72.2919 287.226 72.3417C287.226 72.3417 287.226 72.3417 287.176 72.3417Z" fill="#40196D"/>
<path d="M297.328 69.9087C297.179 69.9087 297.03 69.8093 296.98 69.6604L296.532 67.8728C296.482 67.6741 296.582 67.5252 296.782 67.4755C296.98 67.4259 297.13 67.5252 297.179 67.7238L297.627 69.5114C297.677 69.71 297.578 69.859 297.378 69.9087C297.378 69.9087 297.378 69.9087 297.328 69.9087Z" fill="#40196D"/>
<path d="M298.622 73.7324C297.776 73.5832 297.03 74.1794 296.881 75.0236C296.732 75.8678 297.329 76.6125 298.175 76.7617L299.618 76.96C299.966 76.0163 300.066 74.9738 299.966 73.9307L298.622 73.7324Z" fill="#6F4A9D"/>
<path d="M294.79 81.6273C294.641 81.6273 294.492 81.5285 294.442 81.3793C294.393 81.181 294.492 81.0318 294.691 80.982C298.125 80.1378 300.265 76.712 299.419 73.2854C299.369 73.0871 299.468 72.9379 299.667 72.8882C299.866 72.8384 300.015 72.9379 300.065 73.1362C300.961 76.9102 298.622 80.734 294.84 81.6273C294.84 81.6273 294.84 81.6273 294.79 81.6273Z" fill="#40196D"/>
<path d="M296.013 52.2148C293.277 50.1292 289.644 49.1858 286.061 50.0796C279.741 51.6189 275.81 57.9748 277.352 64.281L278.397 68.5515C286.708 66.0687 293.078 59.8617 296.013 52.2148Z" fill="#40196D"/>
<path d="M338.632 127.062C338.432 127.062 338.283 126.914 338.283 126.715C338.283 117.032 330.371 109.137 320.667 109.137C320.17 109.137 319.672 109.137 319.224 109.186L318.627 109.236L259.11 115.741C259.061 115.741 259.011 115.741 258.961 115.741L211.487 100.795C211.387 100.745 211.288 100.646 211.238 100.547L209.048 86.593C208.7 84.7063 208.053 82.8687 207.158 81.2307L203.276 74.1793C203.176 74.0301 203.226 73.8318 203.426 73.7324C203.575 73.6329 203.774 73.6826 203.873 73.8816L207.755 80.9323C208.7 82.6704 209.397 84.5571 209.745 86.5433L211.885 100.298L259.11 115.195L319.174 108.591C319.672 108.541 320.17 108.541 320.717 108.541C330.769 108.541 338.98 116.734 338.98 126.765C338.98 126.914 338.831 127.062 338.632 127.062Z" fill="#40196D"/>
<g opacity="0.5">
<path opacity="0.5" d="M167.892 44.5894C166.106 43.3954 163.818 43.2368 161.449 44.1414C159.234 44.9884 157.188 46.6952 155.689 48.9384C155.256 49.5925 154.925 50.3091 154.708 51.0632C154.223 50.4259 153.641 49.8682 152.984 49.41C150.763 47.8756 148.232 47.0493 145.852 47.0889C143.317 47.1113 141.252 48.1152 140.029 49.8852C138.808 51.6552 138.619 53.9395 139.489 56.3201C140.304 58.5467 141.976 60.6183 144.199 62.1476C148.87 65.3671 156.285 62.2593 156.597 62.1237L156.689 62.0835L156.998 62.0918C157.341 62.1011 165.378 62.2516 168.531 57.5348C170.025 55.2926 170.82 52.7508 170.758 50.3783C170.699 47.8376 169.679 45.7858 167.892 44.5894ZM154.837 60.0769C153.019 60.7033 148.434 61.9766 145.648 60.0552C143.856 58.8186 142.518 57.1827 141.88 55.4427C141.301 53.8587 141.385 52.3848 142.128 51.3178C142.418 50.9013 142.795 50.5524 143.233 50.2951C144.045 49.84 144.964 49.6074 145.895 49.6207C147.746 49.5972 149.754 50.2634 151.546 51.5C154.33 53.4051 154.775 58.1536 154.836 60.0746L154.837 60.0769ZM168.236 50.444C168.286 52.2944 167.648 54.3117 166.436 56.1209C164.553 58.9271 159.816 59.4461 157.902 59.5308C157.25 57.7185 155.915 53.1556 157.796 50.3401C159.008 48.5309 160.627 47.1694 162.356 46.5122C163.217 46.1559 164.156 46.033 165.08 46.1559C165.582 46.2336 166.062 46.4192 166.486 46.6999C167.568 47.423 168.189 48.751 168.235 50.4417L168.236 50.444Z" fill="url(#paint0_linear_45598_10829)"/>
</g>
<path d="M157.249 61.4635L156.545 61.765C156.245 61.893 149.151 64.8662 144.68 61.7862C142.556 60.3224 140.954 58.3408 140.164 56.2114C139.329 53.9331 139.513 51.7468 140.68 50.0534C141.847 48.36 143.825 47.4099 146.25 47.3782C148.52 47.3485 150.941 48.1384 153.066 49.6047C157.534 52.6851 157.281 60.3739 157.269 60.6994L157.249 61.4635ZM143.744 50.4498C143.325 50.6962 142.965 51.0302 142.687 51.4291C141.979 52.4573 141.896 53.8584 142.45 55.377C143.06 57.0399 144.34 58.6072 146.056 59.7911C148.724 61.6293 153.111 60.4104 154.849 59.812C154.79 57.9756 154.368 53.4408 151.701 51.6025C149.984 50.4211 148.064 49.781 146.292 49.8058C145.401 49.7928 144.522 50.015 143.744 50.4498Z" fill="#FFC83F"/>
<path d="M156.165 61.7157L155.855 61.0152C155.722 60.7163 152.649 53.6647 155.666 49.1526C157.101 47.0071 159.058 45.3788 161.179 44.5678C163.434 43.703 165.633 43.8527 167.337 44.9977C169.04 46.1428 170.022 48.1026 170.086 50.5185C170.147 52.7869 169.39 55.219 167.954 57.3645C164.937 61.8766 157.246 61.7321 156.927 61.7234L156.165 61.7157ZM164.651 46.4805C163.768 46.363 162.87 46.4801 162.047 46.82C160.392 47.4529 158.843 48.7565 157.682 50.4877C155.88 53.1826 157.153 57.5517 157.783 59.2809C159.619 59.1949 164.148 58.7076 165.947 56.0155C167.107 54.2824 167.716 52.3534 167.668 50.5707C167.624 48.9548 167.029 47.6823 165.992 46.9891C165.586 46.7253 165.129 46.5519 164.651 46.4805Z" fill="#FFC83F"/>
<g opacity="0.5">
<path opacity="0.5" d="M191.826 52.5273L120.14 66.8899L123.011 81.2335L126.735 80.4873L135.046 122.002L199.283 109.131L190.973 67.6174L194.697 66.8712L191.826 52.5273Z" fill="url(#paint1_linear_45598_10829)"/>
</g>
<path d="M188.156 57.7722L125.544 70.3168L135.717 121.134L198.329 108.589L188.156 57.7722Z" fill="#F7685A"/>
<path d="M164.568 71.9365L152.772 74.3L161.127 116.041L172.924 113.677L164.568 71.9365Z" fill="#FFC83F"/>
<path opacity="0.1" d="M187.612 55.0496L125 67.5941L127.543 80.2989L190.155 67.7543L187.612 55.0496Z" fill="black"/>
<path d="M191.058 53.4158L121.187 67.4148L123.729 80.1193L193.602 66.1205L191.058 53.4158Z" fill="#F7685A"/>
<path d="M162.025 59.2327L150.229 61.5961L152.772 74.3008L164.568 71.9373L162.025 59.2327Z" fill="#FFC83F"/>
</g>
<defs>
<linearGradient id="paint0_linear_45598_10829" x1="22192.6" y1="6101.03" x2="21940" y2="4840.51" gradientUnits="userSpaceOnUse">
<stop stop-color="#808080" stop-opacity="0.25"/>
<stop offset="0.54" stop-color="#808080" stop-opacity="0.12"/>
<stop offset="1" stop-color="#808080" stop-opacity="0.1"/>
</linearGradient>
<linearGradient id="paint1_linear_45598_10829" x1="40861.5" y1="34146.3" x2="38184.4" y2="20784.4" gradientUnits="userSpaceOnUse">
<stop stop-color="#808080" stop-opacity="0.25"/>
<stop offset="0.54" stop-color="#808080" stop-opacity="0.12"/>
<stop offset="1" stop-color="#808080" stop-opacity="0.1"/>
</linearGradient>
<clipPath id="clip0_45598_10829">
<rect width="331" height="199" rx="4" fill="white"/>
</clipPath>
</defs>
</svg>
