<svg width="120" height="60" viewBox="0 0 120 60" fill="none" xmlns="http://www.w3.org/2000/svg">
<path d="M47.1998 23.4V25.9H40.4998V28.6H46.6998V31.1H40.4998V36.3H37.2998V23.4H47.1998Z" fill="#0073FF"/>
<path d="M49.7998 23.4H52.5998V25.6H49.7998V23.4ZM49.7998 26.7H52.5998V36.3H49.7998V26.7Z" fill="#0073FF"/>
<path d="M54.5996 26.7001H57.5996C58.7996 30.9001 58.9996 31.8001 59.2996 33.6001C59.6996 31.5001 59.6996 31.2001 60.2996 29.0001L60.8996 26.7001H63.7996L60.6996 36.2001H57.7996L54.5996 26.7001Z" fill="#0073FF"/>
<path d="M74.3998 33.9C74.0998 34.4 73.6998 34.9 73.1998 35.3C72.1998 36.2 70.8998 36.7 69.5998 36.7C66.7998 36.7 64.7998 34.9 64.7998 31.8C64.7998 29.5 65.8998 26.5 69.6998 26.5C70.9998 26.5 72.1998 27 73.0998 27.9C74.2998 29.2 74.3998 31.1 74.4998 32.2H67.6998C67.6998 33.4 68.3998 34.6 69.8998 34.6C71.3998 34.6 71.9998 33.6 72.2998 32.9L74.3998 33.9ZM71.5998 30.3C71.5998 29.8 71.3998 29.3 71.0998 28.9C70.6998 28.6 70.1998 28.4 69.6998 28.4C69.1998 28.4 68.5998 28.6 68.2998 29C67.9998 29.4 67.7998 29.8 67.6998 30.3H71.5998Z" fill="#0073FF"/>
<path d="M77.2997 24H80.0997V27H81.8997V28.7H79.9997V33C79.9997 33.6 79.9997 34.1 80.6997 34.1H81.6997V36.3C81.1997 36.4 80.6997 36.4 80.1997 36.4C79.1997 36.4 78.1997 36.3 77.4997 35.5C77.0997 34.9 77.0997 34.3 77.0997 33.3V28.7H75.6997V27H77.0997L77.2997 24Z" fill="#0073FF"/>
<path d="M86.9998 27.7C87.7998 27 88.6998 26.6 89.7998 26.6V29.1L88.8998 29.2C87.4998 29.4 87.0998 29.6 87.0998 30.8V36.2H84.2998V26.6H86.9998V27.7Z" fill="#0073FF"/>
<path d="M91.8 29.5C91.8 28.7 92.2 27.9 92.8 27.4C93.7 26.7 94.8 26.6 95.9 26.6C97 26.6 99.9 26.9 99.9 29.3V34.8C99.9 35.8 100 36 100.2 36.3H97.5V35.4C96.8 35.9 96 36.5 94.6 36.5C92.4 36.5 91.5 34.9 91.5 33.6C91.5 32.1 92.7 31.2 93.5 30.9C94.7 30.5 96 30.2 97.3 30V29.5C97.3 29.1 97.2 28.3 96.2 28.3C95 28.3 94.8 29.1 94.7 29.4L91.8 29.5ZM95.3 32.3C94.8 32.5 94.1 32.7 94.1 33.5C94.1 34.1 94.6 34.5 95.2 34.5C95.5 34.5 95.9 34.4 96.2 34.2C97.1 33.6 97.2 32.7 97.2 31.7L95.3 32.3Z" fill="#0073FF"/>
<path d="M105.9 27.6C106.2 27.3 106.5 27 106.9 26.9C107.4 26.7 108 26.5 108.6 26.5C109.2 26.5 109.8 26.6 110.3 26.9C111.3 27.4 111.6 28.3 111.6 29.8V36.3H108.8V30.9C108.8 30.4 108.8 29.9 108.7 29.5C108.5 29 108 28.7 107.4 28.8C105.9 28.8 105.9 30 105.9 31.2V36.4H103.1V26.9H105.9V27.6Z" fill="#0073FF"/>
<path d="M24.7997 30H28.0997C28.3997 30 28.5997 29.8 28.5997 29.5C28.5997 29.4 28.5997 29.4 28.5997 29.3L22.8997 13.8C22.7997 13.6 22.6997 13.5 22.4997 13.5H19.1997C18.8997 13.5 18.6997 13.7 18.6997 14C18.6997 14.1 18.6997 14.1 18.6997 14.2L24.3997 29.8C24.3997 29.9 24.5997 30 24.7997 30Z" fill="#0073FF"/>
<path d="M24.1999 46.5H27.4999C27.7999 46.5 27.9999 46.3 27.9999 46C27.9999 45.9 27.9999 45.9 27.9999 45.8L16.1999 13.8C16.0999 13.6 15.8999 13.5 15.6999 13.5H12.3999C12.0999 13.5 11.8999 13.7 11.8999 14C11.8999 14.1 11.8999 14.1 11.8999 14.2L23.6999 46.2C23.7999 46.4 23.9999 46.5 24.1999 46.5Z" fill="#0073FF"/>
<path d="M17.7001 46.5H21.0001C21.3001 46.5 21.5001 46.3 21.5001 46C21.5001 45.9 21.5001 45.9 21.5001 45.8L15.8001 30.3C15.7001 30.1 15.6001 30 15.4001 30H12.1001C11.8001 30 11.6001 30.2 11.6001 30.5C11.6001 30.6 11.6001 30.6 11.6001 30.7L17.3001 46.2C17.3001 46.4 17.5001 46.5 17.7001 46.5Z" fill="#0073FF"/>
<path d="M25.1997 14.2L27.8997 21.5C27.9997 21.7 28.0997 21.8 28.2997 21.8H31.5997C31.8997 21.8 32.0997 21.6 32.0997 21.3C32.0997 21.2 32.0997 21.2 32.0997 21.1L29.3997 13.8C29.2997 13.6 29.1997 13.5 28.9997 13.5H25.6997C25.3997 13.5 25.1997 13.7 25.1997 14C25.1997 14.1 25.1997 14.1 25.1997 14.2Z" fill="#0073FF"/>
<path d="M11.5999 46.5H14.8999C15.1999 46.5 15.3999 46.3 15.3999 46C15.3999 45.9 15.3999 45.8999 15.3999 45.7999L12.6999 38.5C12.5999 38.3 12.3999 38.2 12.1999 38.2H8.8999C8.5999 38.2 8.3999 38.4 8.3999 38.7C8.3999 38.8 8.3999 38.8 8.3999 38.9L11.0999 46.2C11.1999 46.4 11.3999 46.5 11.5999 46.5Z" fill="#0073FF"/>
</svg>
