<svg width="120" height="60" viewBox="0 0 120 60" fill="none" xmlns="http://www.w3.org/2000/svg">
<path d="M14.612 47.39L5.37196 31.39C4.87796 30.535 4.87796 29.48 5.37196 28.625L14.612 12.618C15.105 11.764 16.016 11.238 17.012 11.236H35.505C36.488 11.241 37.395 11.766 37.885 12.618L47.135 28.626C47.629 29.481 47.629 30.536 47.135 31.391L37.875 47.39C37.382 48.244 36.471 48.77 35.475 48.772H16.985C16.001 48.769 15.093 48.242 14.6 47.39H14.612Z" fill="#4386FA"/>
<path opacity="0.1" d="M32.0171 24.834C32.0171 24.834 34.5871 30.996 31.0841 34.49C27.5811 37.984 21.2041 35.747 21.2041 35.747L34.1771 48.77H35.4941C36.4801 48.768 37.3911 48.242 37.8941 47.388L44.0121 36.794L32.0171 24.834Z" fill="black"/>
<path d="M35.052 37.455L32.2121 34.6279C32.1816 34.5962 32.1465 34.5693 32.1081 34.548C33.3081 32.9932 33.8704 31.0395 33.6806 29.0847C33.4907 27.1299 32.5629 25.3209 31.0861 24.0261C29.6094 22.7314 27.6946 22.0481 25.7318 22.1155C23.7689 22.1829 21.9055 22.9959 20.5211 24.389C17.6481 27.284 17.5211 31.922 20.2331 34.959C21.5406 36.4246 23.3571 37.3376 25.3135 37.5124C27.2698 37.6872 29.2194 37.1107 30.7661 35.9C30.7867 35.9364 30.8119 35.97 30.8411 36L33.6811 38.84C33.7222 38.8812 33.7712 38.9138 33.8251 38.936C33.879 38.9581 33.9368 38.9693 33.995 38.969C34.1125 38.9686 34.2252 38.9223 34.309 38.84L35.0621 38.087C35.1033 38.0458 35.1359 37.9968 35.1581 37.9429C35.1802 37.889 35.1914 37.8312 35.1911 37.773C35.1907 37.6555 35.1444 37.5428 35.0621 37.459L35.052 37.455ZM26.005 35.619C24.8563 35.6187 23.7334 35.2778 22.7783 34.6396C21.8232 34.0013 21.0788 33.0942 20.6391 32.033C19.7391 29.863 20.2371 27.363 21.8991 25.703C22.7116 24.8913 23.7466 24.3386 24.8731 24.1149C25.9996 23.8911 27.1672 24.0062 28.2283 24.4457C29.2894 24.8852 30.1965 25.6293 30.8348 26.5841C31.4732 27.5389 31.8143 28.6614 31.8151 29.81C31.8131 33.017 29.2151 35.616 26.0071 35.618L26.005 35.619ZM22.293 29.5V31.9C22.663 32.553 23.1981 33.096 23.845 33.477V29.495L22.293 29.5ZM25.1931 27.51V33.997C25.7061 34.091 26.2331 34.091 26.7451 33.997V27.5L25.1931 27.51ZM29.6851 31.897V30.477H28.133V33.471C28.779 33.091 29.3131 32.551 29.6851 31.899V31.897Z" fill="white"/>
<path d="M69.5899 19.556H62.5799V21.638H67.5619C67.3139 24.562 64.8819 25.808 62.5899 25.808C61.1349 25.818 59.7349 25.248 58.6999 24.225C57.6649 23.202 57.0799 21.808 57.0759 20.353V20.259C57.0509 18.785 57.6199 17.363 58.6539 16.314C59.6879 15.265 61.1019 14.674 62.5759 14.679C63.9789 14.681 65.3259 15.227 66.3339 16.204L67.7939 14.701C66.3787 13.334 64.4783 12.5851 62.5109 12.619C61.1425 12.5902 59.7913 12.9287 58.598 13.5991C57.4047 14.2695 56.4128 15.2475 55.7255 16.4312C55.0383 17.6149 54.6807 18.9612 54.6901 20.3299C54.6995 21.6986 55.0755 23.0398 55.7789 24.214C56.4833 25.3879 57.4894 26.3516 58.6925 27.0047C59.8956 27.6579 61.2518 27.9767 62.6199 27.928C66.7039 27.92 69.7199 25.113 69.7199 20.96C69.7289 20.4957 69.6859 20.0318 69.5919 19.577L69.5899 19.556ZM75.3569 18.053C74.717 18.0397 74.0808 18.153 73.4848 18.3863C72.8888 18.6196 72.3447 18.9684 71.8838 19.4125C71.423 19.8567 71.0544 20.3875 70.7992 20.9744C70.544 21.5614 70.4073 22.193 70.3969 22.833V22.938C70.3809 25.668 72.5819 27.894 75.3119 27.91C78.0419 27.926 80.2679 25.725 80.2839 22.995C80.2839 19.735 77.7239 18.053 75.3669 18.053H75.3569ZM75.3839 19.993C76.8009 19.993 78.1339 21.121 78.1339 22.999C78.1339 24.877 76.7959 25.983 75.3689 25.983C73.7989 25.983 72.5689 24.733 72.5689 22.977C72.5689 21.221 73.7779 20 75.3719 20L75.3839 19.993ZM86.0959 18.053C85.4573 18.0417 84.8227 18.1565 84.2284 18.3907C83.6341 18.6249 83.0918 18.974 82.6325 19.4179C82.1733 19.8619 81.806 20.392 81.5518 20.978C81.2976 21.564 81.1614 22.1943 81.1509 22.833V22.938C81.1349 25.668 83.3359 27.894 86.0659 27.91C88.7959 27.926 91.0219 25.725 91.0379 22.995C91.0379 19.745 88.4749 18.058 86.1009 18.058L86.0959 18.053ZM86.1259 19.993C87.5429 19.993 88.8759 21.121 88.8759 22.999C88.8759 24.877 87.5379 25.983 86.1109 25.983C84.5409 25.983 83.3109 24.733 83.3109 22.977C83.3109 21.221 84.5199 20 86.1129 20L86.1259 19.993ZM96.6459 18.053C94.0159 18.053 91.9229 20.367 91.9229 22.973C91.8829 25.613 93.9609 27.803 96.6009 27.9C97.1137 27.9269 97.6256 27.8319 98.0945 27.6228C98.5635 27.4136 98.9762 27.0964 99.2989 26.697V27.67C99.2989 29.37 98.2689 30.39 96.7139 30.39C95.5959 30.376 94.5989 29.682 94.1959 28.64L92.3159 29.422C92.9829 30.839 94.3229 32.334 96.7259 32.334C99.3559 32.334 101.366 30.677 101.366 27.204V18.354H99.2999V19.181C98.964 18.8143 98.5534 18.5239 98.0957 18.3294C97.6381 18.1348 97.1441 18.0405 96.6469 18.053H96.6459ZM96.8379 19.973C98.1339 19.973 99.4679 21.081 99.4679 22.979C99.4679 24.877 98.1379 25.944 96.8079 25.944C95.3909 25.944 94.0879 24.816 94.0879 22.984C94.0879 21.104 95.4519 19.978 96.8429 19.978L96.8379 19.973ZM110.538 18.053C108.043 18.053 105.954 20.037 105.954 22.968C105.931 23.613 106.039 24.256 106.272 24.8579C106.505 25.4597 106.858 26.0079 107.31 26.469C107.762 26.9301 108.302 27.2946 108.899 27.5403C109.496 27.7859 110.137 27.9076 110.782 27.898C111.595 27.9018 112.396 27.707 113.116 27.3305C113.837 26.9541 114.454 26.4074 114.915 25.738L113.213 24.61C112.713 25.46 111.797 25.975 110.813 25.963C110.307 25.9828 109.806 25.8502 109.376 25.5822C108.946 25.3142 108.606 24.9233 108.401 24.46L114.999 21.725L114.666 20.925C114.016 19.217 112.39 18.079 110.563 18.055L110.538 18.053ZM110.625 19.933C111.385 19.901 112.095 20.311 112.448 20.985L108.031 22.835C107.839 21.407 109.191 19.941 110.616 19.941L110.625 19.933ZM102.801 27.607H104.968V13.104H102.8L102.801 27.607ZM55.1029 44.307V34.8H58.5449C59.2652 34.785 59.9621 35.0553 60.4839 35.552C61.0159 36.017 61.3139 36.694 61.2959 37.402C61.3176 37.8259 61.2046 38.2457 60.9731 38.6014C60.7415 38.9571 60.4033 39.2303 60.0069 39.382V39.435C60.4739 39.581 60.8839 39.872 61.1749 40.265C61.4664 40.6541 61.6208 41.1289 61.6139 41.615C61.6319 42.352 61.3279 43.06 60.7809 43.555C60.2257 44.0593 59.4967 44.3288 58.7469 44.307H55.1129H55.1029ZM56.3229 35.972V38.889H58.5399C58.7419 38.8946 58.9428 38.8585 59.1302 38.7829C59.3175 38.7074 59.4873 38.5941 59.6289 38.45C60.1909 37.91 60.2129 37.02 59.6789 36.455L59.6409 36.417C59.3689 36.129 58.9879 35.969 58.5929 35.977H56.3399L56.3229 35.972ZM56.3229 40.027V43.147H58.7829C59.6469 43.155 60.3549 42.463 60.3649 41.597C60.3657 41.3932 60.3247 41.1914 60.2443 41.0041C60.164 40.8168 60.0461 40.6479 59.8979 40.508C59.7453 40.3548 59.5629 40.2344 59.3621 40.1541C59.1613 40.0738 58.9462 40.0353 58.7299 40.041H56.3199L56.3229 40.027ZM64.3659 35.56C64.3653 35.7591 64.2957 35.9518 64.1689 36.1053C64.0421 36.2587 63.866 36.3634 63.6706 36.4016C63.4752 36.4397 63.2726 36.4088 63.0974 36.3142C62.9223 36.2197 62.7853 36.0673 62.7099 35.883C62.6336 35.6989 62.6236 35.494 62.6816 35.3034C62.7396 35.1127 62.862 34.9481 63.0279 34.8377C63.1938 34.7273 63.3929 34.6779 63.5912 34.698C63.7895 34.7182 63.9746 34.8065 64.1149 34.948C64.2799 35.108 64.3709 35.33 64.3669 35.561L64.3659 35.56ZM64.1139 37.814V44.314H62.8889V37.814H64.1139ZM68.5139 47.396C68.1679 47.399 67.8139 47.352 67.4919 47.256C67.1847 47.1732 66.891 47.0466 66.6199 46.88C66.364 46.7118 66.1357 46.505 65.9429 46.267C65.7589 46.043 65.6159 45.787 65.5189 45.515L66.6859 45.035C66.8116 45.4074 67.0543 45.7291 67.3779 45.952C67.7079 46.182 68.1029 46.302 68.5059 46.298C69.0859 46.331 69.6529 46.115 70.0619 45.7C70.4549 45.245 70.6559 44.655 70.6219 44.054V43.412H70.5689C70.3338 43.761 70.011 44.0421 69.6329 44.227C69.2349 44.427 68.7959 44.53 68.3529 44.527C67.5109 44.531 66.7099 44.167 66.1589 43.531C65.5582 42.8522 65.2348 41.9723 65.2529 41.066C65.2302 40.1615 65.5527 39.2823 66.1549 38.607C66.7019 37.963 67.5049 37.593 68.3489 37.597C68.7938 37.5942 69.2329 37.6973 69.6299 37.898C70.008 38.0829 70.3308 38.364 70.5659 38.713H70.6189V37.8H71.7869V44.03C71.8369 44.937 71.5169 45.825 70.8969 46.488C70.5814 46.7877 70.2091 47.0213 69.8019 47.1748C69.3946 47.3283 68.9608 47.3988 68.5259 47.382L68.5139 47.396ZM68.5559 43.409C68.8343 43.4165 69.1108 43.3621 69.3655 43.2497C69.6203 43.1373 69.8469 42.9697 70.0289 42.759C70.4141 42.2796 70.6241 41.683 70.6241 41.068C70.6241 40.453 70.4141 39.8564 70.0289 39.377C69.6639 38.944 69.1219 38.7 68.5559 38.712C67.9909 38.704 67.4509 38.948 67.0829 39.377C66.6659 39.844 66.4599 40.46 66.4849 41.071C66.4593 41.6894 66.6735 42.2938 67.0829 42.758C67.4529 43.184 67.9909 43.426 68.5559 43.418V43.409ZM84.4689 44.312L83.5069 44.935L82.8539 43.965C82.1447 44.3201 81.3631 44.5066 80.5699 44.51C79.2699 44.538 77.9979 44.016 77.0899 43.07C75.2099 41.088 75.2099 37.983 77.0899 36.002C77.5462 35.5432 78.0887 35.1791 78.6862 34.9306C79.2837 34.6822 79.9244 34.5543 80.5714 34.5543C81.2185 34.5543 81.8592 34.6822 82.4567 34.9306C83.0542 35.1791 83.5967 35.5432 84.0529 36.002C84.5145 36.4623 84.8775 37.0118 85.1197 37.617C85.362 38.2222 85.4784 38.8703 85.4619 39.522C85.4661 40.2387 85.3189 40.9482 85.0299 41.604C84.749 42.25 84.3342 42.8291 83.8129 43.303L84.4689 44.312ZM80.5769 43.342C81.1325 43.3419 81.6804 43.2132 82.1779 42.966L81.0699 41.3L82.0319 40.65L83.1319 42.31C83.4963 41.9512 83.7815 41.5201 83.9691 41.0444C84.1566 40.5687 84.2424 40.0589 84.2209 39.548C84.2579 38.536 83.8879 37.553 83.1729 36.828C82.8406 36.4778 82.4384 36.2012 81.9924 36.0162C81.5465 35.8312 81.0666 35.7419 80.5839 35.754C80.0991 35.7423 79.6171 35.8317 79.1688 36.0166C78.7204 36.2015 78.3155 36.4779 77.9799 36.828C76.5999 38.378 76.5999 40.728 77.9799 42.268C78.3161 42.621 78.7225 42.8996 79.1728 43.086C79.6232 43.2723 80.1077 43.3623 80.5949 43.35L80.5769 43.342ZM92.4119 44.305H91.2419V43.395H91.1889C90.9819 43.735 90.6859 44.012 90.3319 44.195C89.9649 44.4027 89.5507 44.5125 89.1289 44.514C88.7912 44.5356 88.4528 44.4859 88.1356 44.368C87.8184 44.2502 87.5296 44.0669 87.2879 43.83C86.8299 43.29 86.5999 42.59 86.6499 41.884V37.796H87.8699V41.796C87.8979 42.8627 88.4313 43.396 89.4699 43.396C89.7046 43.3964 89.9362 43.3432 90.1471 43.2404C90.358 43.1376 90.5427 42.988 90.6869 42.803C91.0169 42.4056 91.192 41.9024 91.1799 41.386V37.8H92.3999V44.3L92.4119 44.305ZM96.7559 44.519C95.8639 44.545 95.0029 44.186 94.3919 43.535C93.7669 42.862 93.4339 41.969 93.4639 41.051C93.4359 40.141 93.7619 39.253 94.3719 38.576C94.6706 38.2674 95.0275 38.0211 95.4219 37.8513C95.8163 37.6815 96.2405 37.5915 96.6699 37.5866C97.0993 37.5816 97.5254 37.6618 97.9236 37.8226C98.3219 37.9833 98.6843 38.2214 98.9899 38.523C99.6059 39.255 99.9139 40.199 99.8469 41.153V41.285H94.7299C94.7267 41.5715 94.7816 41.8557 94.8912 42.1203C95.0009 42.385 95.163 42.6247 95.3679 42.825C95.602 43.0533 95.8871 43.2225 96.1996 43.3188C96.5121 43.415 96.843 43.4355 97.165 43.3786C97.4869 43.3216 97.7907 43.1888 98.0512 42.9912C98.3117 42.7935 98.5214 42.5367 98.6629 42.242L99.7529 42.772C99.4749 43.305 99.0549 43.752 98.5389 44.062C98.0029 44.374 97.3919 44.532 96.7729 44.52L96.7559 44.519ZM94.8019 40.269H98.5319C98.5059 39.834 98.3069 39.429 97.9789 39.141C97.6059 38.841 97.1289 38.673 96.6449 38.698C96.2109 38.688 95.7879 38.84 95.4569 39.122C95.1169 39.419 94.8869 39.822 94.7989 40.265L94.8019 40.269ZM102.178 44.305H100.958V37.805H102.126V38.868H102.179C102.322 38.498 102.596 38.186 102.931 37.985C103.264 37.755 103.654 37.625 104.059 37.61C104.367 37.6027 104.674 37.6578 104.961 37.772L104.586 38.956C104.356 38.8776 104.112 38.8456 103.869 38.862C103.405 38.864 102.966 39.068 102.666 39.422C102.335 39.7736 102.152 40.2391 102.155 40.722V44.312L102.178 44.305ZM111.731 37.805L107.661 47.2H106.398L107.901 43.92L105.234 37.807H106.564L108.504 42.485H108.531L110.411 37.807H111.731V37.805Z" fill="#767677"/>
</svg>
