<svg width="120" height="60" viewBox="0 0 120 60" fill="none" xmlns="http://www.w3.org/2000/svg">
<path d="M14.9 8.627C14.335 8.049 13.55 7.694 12.676 7.694C12.264 7.69233 11.856 7.77414 11.4765 7.9345C11.097 8.09485 10.7539 8.33042 10.468 8.627H10.453C10.1581 8.9241 9.92477 9.2765 9.76638 9.66398C9.60799 10.0515 9.52766 10.4664 9.53 10.885C9.52421 11.7269 9.85254 12.5368 10.443 13.137L10.458 13.153C10.7451 13.4473 11.0887 13.6807 11.468 13.8393C11.8474 13.9979 12.2548 14.0784 12.666 14.076C13.54 14.076 14.324 13.726 14.89 13.153L14.896 13.137C15.462 12.569 15.796 11.774 15.796 10.885C15.8015 10.042 15.4741 9.23097 14.885 8.628H14.89L14.9 8.627ZM12.676 52.307C13.55 52.307 14.334 51.945 14.9 51.377L14.906 51.361C15.472 50.795 15.806 49.995 15.806 49.116C15.806 48.216 15.461 47.43 14.906 46.854H14.9C14.335 46.271 13.55 45.918 12.676 45.918C12.2636 45.9156 11.8551 45.9973 11.4755 46.1583C11.0958 46.3192 10.753 46.5559 10.468 46.854H10.453C9.8638 47.4591 9.53591 48.2714 9.54 49.116C9.53606 49.9555 9.86426 50.7625 10.453 51.361L10.468 51.377C10.7557 51.671 11.0992 51.9046 11.4783 52.0642C11.8575 52.2237 12.2647 52.3059 12.676 52.306V52.307ZM29.76 42.64C30.1614 42.5335 30.5373 42.3474 30.8654 42.0929C31.1935 41.8383 31.4671 41.5204 31.67 41.158L31.728 41.046C32.0983 40.3343 32.1869 39.5091 31.976 38.735C31.77 37.939 31.276 37.233 30.514 36.795L30.47 36.765C29.7604 36.3647 28.9212 36.2619 28.136 36.479C27.356 36.677 26.656 37.206 26.228 37.966C25.812 38.7027 25.6987 39.5723 25.912 40.391C26.1276 41.2038 26.6518 41.9005 27.373 42.333H27.378C28.128 42.773 28.975 42.85 29.761 42.633L29.76 42.64ZM15.883 26.74C15.06 25.905 13.923 25.38 12.667 25.38C12.0684 25.3811 11.476 25.5019 10.9247 25.7353C10.3735 25.9687 9.87444 26.3099 9.457 26.739C8.637 27.573 8.133 28.724 8.133 30.004C8.12959 31.2279 8.60473 32.4046 9.457 33.283C10.277 34.113 11.411 34.633 12.657 34.633C13.903 34.633 15.05 34.113 15.873 33.283C16.7262 32.4047 17.2021 31.2275 17.199 30.003C17.2046 28.7824 16.7281 27.609 15.873 26.738L15.883 26.74ZM14.083 21.302C15.8785 21.6063 17.5303 22.4746 18.799 23.781H18.809C19.0107 23.9869 19.2019 24.2029 19.382 24.428L22.512 22.585C22.1002 21.3166 22.0648 19.9561 22.41 18.668C22.856 16.968 23.94 15.448 25.562 14.495L25.615 14.461C26.3751 14.0195 27.2153 13.7335 28.0869 13.6196C28.9585 13.5058 29.844 13.5664 30.692 13.798C31.5531 14.0338 32.3588 14.438 33.0626 14.9873C33.7663 15.5365 34.3542 16.22 34.792 16.998V17.003C35.724 18.643 35.912 20.525 35.469 22.219C35.025 23.919 33.939 25.449 32.317 26.397L31.889 26.654H31.846C30.3948 27.3561 28.739 27.5106 27.183 27.089C25.9151 26.7408 24.7763 26.0305 23.906 25.045L20.78 26.882C21.1515 27.8774 21.3405 28.9316 21.338 29.994C21.338 31.09 21.14 32.148 20.78 33.12L23.906 34.953C24.799 33.935 25.94 33.253 27.183 32.908C28.853 32.444 30.701 32.641 32.317 33.6L32.421 33.65V33.655C33.933 34.5851 35.0255 36.0651 35.469 37.784C35.9318 39.5428 35.6889 41.4128 34.792 42.995L34.736 43.11H34.729C33.8349 44.6311 32.3862 45.7466 30.687 46.222C29.017 46.67 27.167 46.479 25.552 45.534V45.521C23.9896 44.602 22.856 43.1003 22.4 41.346C22.0542 40.06 22.0897 38.7012 22.502 37.435L19.372 35.597C19.1915 35.8186 19.0003 36.0312 18.799 36.234L18.789 36.244C17.537 37.524 15.889 38.414 14.073 38.709V42.389C15.3576 42.6661 16.5321 43.3155 17.45 44.256L17.455 44.266C18.678 45.504 19.435 47.23 19.435 49.126C19.4382 50.9401 18.7269 52.6825 17.455 53.976L17.45 53.996C16.22 55.23 14.53 56 12.667 56C10.813 56 9.119 55.23 7.891 53.985H7.886V53.965C6.61276 52.6717 5.90031 50.9289 5.903 49.114C5.903 47.217 6.663 45.492 7.886 44.254V44.244H7.891C8.80398 43.2987 9.97912 42.6484 11.265 42.377V38.697C9.44 38.401 7.805 37.512 6.565 36.232L6.552 36.222C4.9173 34.5615 4.00074 32.3251 4 29.995C4 27.565 4.978 25.367 6.54 23.772H6.553C7.81952 22.4654 9.46988 21.597 11.264 21.293V17.628C9.98238 17.3423 8.81067 16.6922 7.89 15.756H7.885V15.746C6.61116 14.449 5.89884 12.7029 5.902 10.885C5.90018 9.06765 6.61232 7.32232 7.885 6.025L7.9 6.02C8.51915 5.38167 9.26005 4.874 10.0788 4.52704C10.8976 4.18007 11.7777 4.00086 12.667 4C14.531 4 16.22 4.77 17.451 6.02V6.025H17.456C18.679 7.27 19.436 8.998 19.436 10.885C19.4376 12.7017 18.7267 14.4466 17.456 15.745L17.451 15.755C16.539 16.679 15.375 17.34 14.074 17.627V21.292L14.083 21.302ZM31.668 18.857L31.642 18.817C31.2271 18.1075 30.5514 17.5882 29.759 17.37C29.36 17.2602 28.943 17.2318 28.5328 17.2862C28.1226 17.3407 27.7275 17.477 27.371 17.687H27.376C26.624 18.121 26.121 18.832 25.91 19.627C25.6945 20.4456 25.8079 21.316 26.226 22.052L26.24 22.072C26.673 22.822 27.363 23.327 28.133 23.53C28.906 23.752 29.769 23.658 30.511 23.218L30.551 23.198C31.281 22.754 31.771 22.052 31.973 21.282C32.18 20.487 32.098 19.618 31.668 18.857ZM45.56 19.934H49.053V30.786L54.091 25.116H58.291L52.209 31.686L58.296 40H54.296L49.044 32.562V40H45.55V19.924M62.328 32.617C62.328 34.465 63.634 37.151 66.781 37.151C68.728 37.151 70.009 36.119 70.674 34.766C71.022 34.109 71.182 33.406 71.236 32.666C71.2626 31.9462 71.1251 31.2298 70.834 30.571C70.222 29.164 68.862 27.944 66.756 27.944C63.931 27.944 62.329 30.274 62.329 32.582V32.607L62.328 32.617ZM74.7 40H71.205V37.857C70.275 39.59 68.327 40.46 66.273 40.46C61.58 40.46 58.833 36.74 58.833 32.538C58.833 27.845 62.166 24.644 66.273 24.644C68.939 24.644 70.565 26.082 71.205 27.277V25.104H74.7V40ZM78.657 27.846H76.857V25.106H78.657V24.266C78.657 19.84 81.964 19.573 84.472 19.544V22.28C83.59 22.28 82.152 22.28 82.152 24.374V25.104H84.472V27.844H82.152V40H78.657V27.846ZM86.857 19.924H90.349V30.776L95.389 25.106H99.589L93.507 31.676L99.6 40H95.6L90.348 32.562V40H86.856V19.924M103.636 32.617C103.636 34.465 104.941 37.151 108.089 37.151C110.033 37.151 111.315 36.119 111.989 34.766C112.339 34.109 112.489 33.406 112.551 32.666C112.575 31.959 112.444 31.224 112.148 30.571C111.548 29.164 110.178 27.944 108.071 27.944C105.245 27.944 103.644 30.274 103.644 32.582V32.607L103.636 32.617ZM115.996 40H112.502V37.857C111.569 39.59 109.622 40.46 107.57 40.46C102.877 40.46 100.133 36.74 100.133 32.538C100.133 27.845 103.463 24.644 107.57 24.644C110.235 24.644 111.862 26.082 112.502 27.277V25.104H115.996V40Z" fill="#231F20"/>
</svg>
