<svg width="120" height="60" viewBox="0 0 120 60" fill="none" xmlns="http://www.w3.org/2000/svg">
<path d="M49.5 21.8463H53.1815V29.1648L59.9741 21.8463H64.4185L57.6037 28.913L64.7296 38.55H60.3037L55.1185 31.4241L53.1815 33.4315V38.55H49.5V21.8463ZM62.7741 32.2463V32.1982C62.7741 28.5167 65.737 25.5315 69.737 25.5315C73.7074 25.5315 76.6481 28.4722 76.6481 32.1982V32.2463C76.6481 35.9278 73.6852 38.913 69.6852 38.913C65.7148 38.913 62.7741 35.9722 62.7741 32.2463ZM73.0556 32.2463V32.1982C73.0556 30.3463 71.6926 28.6574 69.7222 28.6574C67.6407 28.6574 66.3963 30.2611 66.3963 32.15V32.1982C66.3963 34.05 67.7593 35.7389 69.7296 35.7389C71.8111 35.7389 73.0518 34.1352 73.0518 32.2463H73.0556Z" fill="#000400"/>
<path d="M77.6483 34.95V28.913H76.1187V25.8019H77.6483V22.5241H81.2779V25.8019H84.2927V28.913H81.2779V34.3945C81.2779 35.2315 81.6372 35.6389 82.4483 35.6389C83.0748 35.6414 83.6916 35.4847 84.2409 35.1834V38.1019C83.4742 38.5574 82.5927 38.8426 81.3705 38.8426C79.1483 38.8426 77.6409 37.9537 77.6409 34.9908L77.6483 34.95ZM85.3409 21.1278H88.9705V38.5834H85.3409V21.1278ZM90.289 21.1278H94.1149V24.3574H90.2927L90.289 21.1278ZM90.3853 25.7685H94.0149V38.5834H90.3853V25.7685ZM95.4038 25.7685H99.0335V27.5834C99.8705 26.5093 100.948 25.5278 102.789 25.5278C105.541 25.5278 107.141 27.3426 107.141 30.2871V38.5834H103.511V31.4315C103.511 29.7093 102.696 28.8241 101.311 28.8241C99.9261 28.8241 99.0409 29.713 99.0409 31.4315V38.5797H95.4112L95.4038 25.7685Z" fill="#000400"/>
<path d="M28.663 14.2574L12.8481 30.8759V45.7389L28.6333 29.9241L44.337 14.25L28.663 14.2574Z" fill="url(#paint0_linear_49004_9963)"/>
<path d="M12.8481 45.7425L28.6333 29.9277L44.337 45.7425H12.8481Z" fill="url(#paint1_linear_49004_9963)"/>
<path d="M12.8481 14.2574H28.663L12.8481 30.876V14.2574Z" fill="url(#paint2_linear_49004_9963)"/>
<defs>
<linearGradient id="paint0_linear_49004_9963" x1="7.55185" y1="43.2056" x2="36.8519" y2="13.9056" gradientUnits="userSpaceOnUse">
<stop offset="0.108" stop-color="#C757BC"/>
<stop offset="0.173" stop-color="#CD5CA9"/>
<stop offset="0.492" stop-color="#E8744F"/>
<stop offset="0.716" stop-color="#F88316"/>
<stop offset="0.823" stop-color="#FF8900"/>
</linearGradient>
<linearGradient id="paint1_linear_49004_9963" x1="22.9" y1="51.424" x2="37.1815" y2="37.1425" gradientUnits="userSpaceOnUse">
<stop offset="0.296" stop-color="#00AFFF"/>
<stop offset="0.694" stop-color="#5282FF"/>
<stop offset="1" stop-color="#945DFF"/>
</linearGradient>
<linearGradient id="paint2_linear_49004_9963" x1="12.4741" y1="22.9463" x2="22.4926" y2="12.9278" gradientUnits="userSpaceOnUse">
<stop offset="0.296" stop-color="#00AFFF"/>
<stop offset="0.694" stop-color="#5282FF"/>
<stop offset="1" stop-color="#945DFF"/>
</linearGradient>
</defs>
</svg>
