<svg width="120" height="60" viewBox="0 0 120 60" fill="none" xmlns="http://www.w3.org/2000/svg">
<path d="M20.2137 14.648C19.9306 14.6648 19.6537 14.7382 19.3995 14.8639L8.38619 20.1201C8.10211 20.2554 7.85223 20.453 7.65518 20.6983C7.45813 20.9436 7.31899 21.2302 7.24814 21.5367L4.55095 33.3361C4.48732 33.6098 4.47996 33.8935 4.52934 34.17C4.57871 34.4466 4.68378 34.7102 4.83816 34.9449C4.87559 35.0025 4.91518 35.058 4.95693 35.1112L12.5756 44.5784C12.774 44.822 13.0243 45.0182 13.3083 45.1527C13.5922 45.2872 13.9026 45.3566 14.2168 45.3558H26.4308C26.7462 45.3565 27.0578 45.2864 27.3426 45.1507C27.6274 45.0151 27.8781 44.8173 28.0763 44.5719L35.6885 35.1004C35.8855 34.856 36.0244 34.5699 36.0948 34.2639C36.1651 33.9579 36.165 33.6399 36.0945 33.334L33.3778 21.5216C33.307 21.2151 33.1679 20.9285 32.9708 20.6832C32.7738 20.4379 32.5239 20.2403 32.2398 20.105L21.2351 14.8639C20.918 14.7079 20.5668 14.6336 20.2137 14.648Z" fill="#326CE5"/>
<path d="M20.3238 18.6647C20.1414 18.6774 19.9713 18.7613 19.8502 18.8982C19.729 19.0351 19.6664 19.2142 19.6759 19.3967V19.5825C19.6941 19.7928 19.7244 20.0019 19.7666 20.2087C19.8271 20.6044 19.8488 21.0051 19.8314 21.4051C19.7935 21.5371 19.7186 21.6555 19.6155 21.7463L19.6003 22.027C19.1999 22.0602 18.8023 22.1215 18.4105 22.2105C16.7622 22.582 15.2626 23.4378 14.1045 24.668L13.8669 24.4996C13.7366 24.5382 13.5963 24.5242 13.4761 24.4607C13.1549 24.2231 12.8576 23.9548 12.5885 23.6595C12.4535 23.4981 12.3093 23.3445 12.1566 23.1996L12.0098 23.083C11.8795 22.978 11.7191 22.9175 11.552 22.9102C11.4523 22.9051 11.3529 22.9236 11.2617 22.9641C11.1705 23.0046 11.0902 23.0661 11.0272 23.1434C10.9201 23.2939 10.8769 23.4806 10.9073 23.6628C10.9377 23.845 11.039 24.0077 11.1892 24.1152L11.3252 24.2232C11.501 24.3401 11.6835 24.4468 11.8716 24.5428C12.222 24.7375 12.5525 24.9661 12.8584 25.2252C12.937 25.3371 12.9826 25.4687 12.9902 25.6052L13.2061 25.7931C12.0413 27.5408 11.563 29.6572 11.8629 31.736L11.5865 31.8159C11.5145 31.9307 11.4179 32.0281 11.3036 32.101C10.9171 32.204 10.5215 32.2691 10.1224 32.2953C9.9107 32.2997 9.69944 32.3163 9.48966 32.345L9.3169 32.3882H9.29531C9.17346 32.4044 9.05855 32.4543 8.9635 32.5322C8.86845 32.6101 8.79702 32.713 8.75724 32.8294C8.71746 32.9457 8.71091 33.0708 8.73833 33.1906C8.76574 33.3104 8.82604 33.4202 8.91243 33.5076C8.99885 33.5951 9.10796 33.6567 9.22748 33.6856C9.347 33.7144 9.4722 33.7093 9.589 33.6709H9.60195L9.78119 33.6493C9.98238 33.5887 10.1799 33.5166 10.3729 33.4334C10.744 33.284 11.1287 33.1712 11.5217 33.0965C11.6578 33.1048 11.7887 33.1512 11.8996 33.2304L12.1869 33.1807C12.8296 35.1755 14.1809 36.8656 15.9854 37.9316L15.8644 38.1842C15.9202 38.2995 15.9405 38.4288 15.9228 38.5556C15.7591 38.9338 15.5595 39.2954 15.3267 39.6354C15.1987 39.8041 15.0804 39.98 14.9726 40.1623L14.8862 40.3394C14.8244 40.4451 14.7932 40.5659 14.796 40.6884C14.7989 40.8108 14.8357 40.9301 14.9024 41.0328C14.9691 41.1355 15.0631 41.2177 15.1738 41.2701C15.2845 41.3225 15.4076 41.3432 15.5293 41.3297C15.651 41.3162 15.7666 41.2692 15.8632 41.1939C15.9597 41.1185 16.0334 41.0178 16.0761 40.903L16.1581 40.7346C16.2331 40.5368 16.2965 40.3349 16.3482 40.1299C16.5209 39.698 16.6181 39.2337 16.8578 38.9465C16.9361 38.873 17.0346 38.8249 17.1407 38.8083L17.2919 38.5384C19.2474 39.2904 21.4115 39.2958 23.3708 38.5535L23.5004 38.8061C23.6349 38.8271 23.7558 38.9 23.8372 39.0091C24.0234 39.3629 24.1745 39.7339 24.2886 40.1169C24.341 40.322 24.4051 40.5239 24.4808 40.7216L24.5628 40.89C24.6055 41.0049 24.6792 41.1056 24.7758 41.1809C24.8723 41.2563 24.9879 41.3033 25.1097 41.3168C25.2314 41.3302 25.3545 41.3096 25.4652 41.2572C25.5759 41.2047 25.6698 41.1226 25.7365 41.0198C25.8032 40.9171 25.84 40.7979 25.8429 40.6754C25.8458 40.553 25.8145 40.4321 25.7527 40.3264L25.6663 40.1493C25.5585 39.9678 25.4402 39.7925 25.3122 39.6246C25.0843 39.296 24.889 38.9459 24.7291 38.5794C24.7134 38.5124 24.7112 38.4429 24.7227 38.375C24.7342 38.3072 24.7591 38.2423 24.7961 38.1842C24.7538 38.0981 24.717 38.0094 24.6859 37.9186C26.488 36.8456 27.834 35.1492 28.4693 33.1505L28.7501 33.2001C28.8506 33.1082 28.9832 33.0594 29.1193 33.0641C29.5123 33.1388 29.8971 33.2516 30.2682 33.401C30.4608 33.4886 30.6584 33.565 30.8599 33.6299C30.9074 33.6428 30.9765 33.6515 31.0326 33.6666H31.0456C31.1624 33.705 31.2876 33.7101 31.4071 33.6813C31.5266 33.6525 31.6357 33.5909 31.7222 33.5034C31.8086 33.416 31.8689 33.3062 31.8963 33.1863C31.9238 33.0665 31.9172 32.9414 31.8774 32.825C31.8375 32.7084 31.7657 32.6053 31.6702 32.5273C31.5747 32.4494 31.4594 32.3997 31.3371 32.3838L31.1428 32.3407C30.933 32.312 30.7217 32.2954 30.51 32.291C30.1109 32.2648 29.7153 32.1997 29.3288 32.0966C29.2092 32.0299 29.1105 31.9312 29.0438 31.8116L28.7781 31.7338C29.0628 29.6566 28.5748 27.5472 27.4069 25.8061L27.6401 25.5901C27.6307 25.4543 27.6749 25.3202 27.7632 25.2165C28.0668 24.9555 28.3951 24.7248 28.7436 24.5277C28.9317 24.4317 29.1141 24.325 29.2899 24.2081L29.4346 24.0914C29.5408 24.0254 29.6262 23.9306 29.6808 23.8181C29.7354 23.7055 29.7571 23.5799 29.7433 23.4555C29.7295 23.3312 29.6809 23.2133 29.6029 23.1155C29.525 23.0177 29.421 22.9439 29.3029 22.9027C29.1848 22.8614 29.0574 22.8544 28.9355 22.8825C28.8136 22.9106 28.7022 22.9726 28.614 23.0614L28.4672 23.178C28.3145 23.3229 28.1703 23.4765 28.0353 23.638C27.7742 23.9365 27.4849 24.2091 27.1715 24.4521C27.0449 24.5033 26.9066 24.5183 26.772 24.4953L26.5215 24.6745C25.0769 23.16 23.1317 22.2215 21.0472 22.0335C21.0472 21.9471 21.0342 21.7873 21.0321 21.7398C20.92 21.6628 20.8425 21.545 20.8161 21.4115C20.8025 21.012 20.8278 20.612 20.8917 20.2173C20.934 20.0105 20.9642 19.8014 20.9824 19.5911V19.4032C20.9919 19.2206 20.9294 19.0416 20.8082 18.9047C20.687 18.7678 20.517 18.6839 20.3346 18.6712L20.3238 18.6647ZM19.4989 23.774L19.3045 27.2292H19.2894C19.2849 27.3341 19.252 27.4359 19.1943 27.5236C19.1365 27.6114 19.056 27.6818 18.9614 27.7275C18.8668 27.7731 18.7616 27.7922 18.657 27.7828C18.5523 27.7734 18.4522 27.7358 18.3673 27.674L15.534 25.6657C16.4361 24.7797 17.5677 24.1634 18.8013 23.8863C19.0325 23.837 19.266 23.7995 19.501 23.774H19.4989ZM21.1487 23.774C22.6368 23.9586 24.023 24.6271 25.0941 25.6765L22.2867 27.6719C22.2019 27.7397 22.0997 27.7825 21.9917 27.7952C21.8838 27.8079 21.7745 27.79 21.6762 27.7437C21.5779 27.6973 21.4946 27.6244 21.4357 27.533C21.3768 27.4417 21.3447 27.3357 21.343 27.227L21.1487 23.774ZM14.5018 26.9679L17.0932 29.2785V29.2936C17.1723 29.3627 17.2311 29.452 17.2635 29.5519C17.2959 29.6518 17.3006 29.7586 17.2771 29.8609C17.2536 29.9633 17.2028 30.0574 17.1301 30.1331C17.0574 30.2089 16.9656 30.2636 16.8643 30.2913V30.3021L13.5387 31.2588C13.3738 29.7605 13.7127 28.25 14.5018 26.9657V26.9679ZM26.1263 26.9679C26.9135 28.2488 27.2615 29.7514 27.1175 31.248L23.7876 30.2892V30.2762C23.6863 30.2485 23.5944 30.1938 23.5217 30.118C23.449 30.0422 23.3982 29.9482 23.3748 29.8458C23.3513 29.7435 23.356 29.6367 23.3884 29.5368C23.4207 29.4369 23.4796 29.3476 23.5587 29.2785L26.1285 26.9765L26.1263 26.9679ZM19.7925 29.4621H20.8507L21.4985 30.2827L21.261 31.3106L20.3108 31.7684L19.3563 31.3106L19.1317 30.2805L19.7925 29.4621ZM23.1894 32.2694C23.2339 32.2642 23.2788 32.2642 23.3233 32.2694L26.7525 32.8481C26.2477 34.2733 25.2818 35.4892 24.0078 36.3033L22.6819 33.09C22.6454 33.004 22.6301 32.9104 22.6374 32.8172C22.6446 32.724 22.6741 32.634 22.7234 32.5546C22.7728 32.4752 22.8404 32.4088 22.9208 32.3611C23.0011 32.3133 23.0918 32.2856 23.1851 32.2802L23.1894 32.2694ZM17.4301 32.2845C17.5254 32.286 17.619 32.311 17.7024 32.3572C17.7858 32.4034 17.8566 32.4694 17.9085 32.5494C17.9603 32.6295 17.9917 32.7211 17.9998 32.8161C18.0078 32.9111 17.9924 33.0067 17.9548 33.0943V33.1073L16.6354 36.286C15.3768 35.477 14.4192 34.2766 13.9101 32.8697L17.3091 32.291C17.3472 32.2873 17.3855 32.2873 17.4236 32.291L17.4301 32.2845ZM20.3022 33.6795C20.4102 33.6763 20.517 33.703 20.6108 33.7568C20.7046 33.8105 20.7816 33.8892 20.8334 33.984H20.8464L22.5221 37.0073C22.3023 37.0811 22.0788 37.1438 21.8527 37.1952C20.62 37.4773 19.3332 37.4108 18.1362 37.003L19.8077 33.9797C19.8578 33.8924 19.9297 33.8197 20.0164 33.7686C20.1031 33.7175 20.2016 33.6898 20.3022 33.6882V33.6795Z" fill="white" stroke="white" stroke-width="0.053987"/>
<path d="M43.0499 30.6152L43.687 29.9198C43.9058 29.6779 44.1181 29.439 44.324 29.2029L44.9071 28.5291C45.0885 28.316 45.2447 28.1303 45.3757 27.972H47.8548C47.3595 28.5406 46.8772 29.0826 46.4079 29.598C45.9372 30.1134 45.4218 30.6461 44.8617 31.1961C45.169 31.4786 45.4575 31.7808 45.7255 32.1009C46.0235 32.4507 46.3115 32.8106 46.5893 33.1806C46.8672 33.5506 47.1234 33.9249 47.3581 34.3035C47.5913 34.6779 47.7871 35.0191 47.9455 35.3271H45.5484C45.4045 35.0824 45.2346 34.8132 45.0388 34.5195C44.843 34.2244 44.6415 33.935 44.4341 33.6514C44.2182 33.3635 43.9922 33.0806 43.7561 32.8027C43.541 32.5538 43.3047 32.3241 43.0499 32.116V35.3423H40.9639V24.8105L43.0499 24.4736V30.6173V30.6152ZM55.2078 35.081C54.7569 35.2043 54.299 35.3002 53.8365 35.3682C53.2536 35.4588 52.6644 35.5036 52.0744 35.5021C51.5426 35.5178 51.0127 35.432 50.5131 35.2494C50.1285 35.1034 49.7885 34.8601 49.5262 34.5433C49.2763 34.2257 49.0994 33.8571 49.0079 33.4635C48.9015 33.0092 48.8501 32.5437 48.8546 32.0771V27.9741H50.9407V31.818C50.9407 32.4903 51.0292 32.9755 51.2063 33.2735C51.3834 33.5715 51.7145 33.7205 52.1996 33.7205C52.3436 33.7205 52.502 33.7133 52.6747 33.6989C52.8475 33.6845 52.9965 33.6679 53.1217 33.6492V27.9698H55.2078V35.081ZM64.0142 31.6517C64.0216 32.1947 63.9338 32.7348 63.755 33.2476C63.5952 33.7025 63.3397 34.1178 63.0057 34.4655C62.6667 34.8098 62.256 35.0752 61.8028 35.2429C61.2828 35.4323 60.7323 35.5245 60.1789 35.515C59.927 35.515 59.6635 35.5035 59.3885 35.4805C59.115 35.4574 58.8444 35.4272 58.5766 35.3898C58.3103 35.3523 58.0562 35.3077 57.8143 35.2559C57.5724 35.2041 57.3565 35.1501 57.1664 35.0939V24.8083L59.2525 24.4714V28.1426C59.4867 28.0398 59.7305 27.9602 59.9803 27.905C60.247 27.8474 60.5193 27.8191 60.7922 27.8208C61.2685 27.8111 61.7413 27.9039 62.1786 28.0929C62.5716 28.2685 62.9173 28.5349 63.1871 28.8703C63.4696 29.2299 63.6787 29.6415 63.8025 30.0818C63.9482 30.5922 64.0195 31.1209 64.0142 31.6517ZM61.8871 31.5956C61.8871 30.2524 61.3925 29.5808 60.4035 29.5808C60.1884 29.5809 59.9742 29.6092 59.7665 29.665C59.5858 29.7102 59.4131 29.7831 59.2547 29.8809V33.6665C59.3554 33.6852 59.485 33.7018 59.6434 33.7162C59.8017 33.7306 59.9745 33.7378 60.1616 33.7378C60.4094 33.7549 60.6575 33.7101 60.8836 33.6076C61.1098 33.5051 61.3069 33.348 61.4573 33.1504C61.764 32.6919 61.914 32.1464 61.8849 31.5956H61.8871ZM65.271 31.7079C65.2584 31.1222 65.3604 30.5398 65.5711 29.9932C65.7501 29.5364 66.0189 29.12 66.3615 28.7688C66.6828 28.4497 67.0666 28.2005 67.4888 28.0367C67.905 27.8701 68.3491 27.7843 68.7974 27.7841C69.8426 27.7841 70.6682 28.1037 71.2743 28.7429C71.879 29.3821 72.1813 30.3222 72.1813 31.5632C72.1813 31.6841 72.177 31.8173 72.1684 31.9627C72.1597 32.1066 72.1504 32.2348 72.1403 32.3471H67.411C67.4295 32.5513 67.4931 32.7489 67.5973 32.9256C67.7015 33.1022 67.8437 33.2535 68.0135 33.3685C68.4383 33.6402 68.9374 33.7723 69.4409 33.7464C69.8192 33.7466 70.1966 33.7112 70.5682 33.6406C70.8777 33.5879 71.1805 33.501 71.4708 33.3814L71.7516 35.0745C71.6075 35.1429 71.458 35.1992 71.3046 35.2429C71.1001 35.3031 70.8925 35.3521 70.6826 35.3898C70.4523 35.433 70.2075 35.4689 69.9484 35.4977C69.688 35.5254 69.4264 35.539 69.1645 35.5388C68.5752 35.5515 67.9889 35.4519 67.4369 35.2451C66.9769 35.069 66.5611 34.794 66.219 34.4396C65.8944 34.0937 65.6509 33.6799 65.5064 33.2281C65.3461 32.7382 65.2659 32.2255 65.2688 31.71L65.271 31.7079ZM70.1687 30.9088C70.1597 30.733 70.1292 30.559 70.078 30.3906C70.029 30.2274 69.9482 30.0755 69.8404 29.9436C69.7287 29.8095 69.5905 29.7 69.4345 29.6218C69.2443 29.5323 69.0355 29.4894 68.8255 29.4965C68.6183 29.4911 68.4126 29.5317 68.223 29.6153C68.0626 29.6895 67.9197 29.797 67.804 29.9306C67.6899 30.065 67.6021 30.2195 67.5449 30.3863C67.4844 30.5567 67.4396 30.7324 67.411 30.911H70.1687V30.9088ZM78.2279 29.8183C78.0407 29.7722 77.8248 29.7233 77.58 29.6715C77.3126 29.6185 77.0406 29.5924 76.768 29.5937C76.6113 29.5955 76.4548 29.6071 76.2994 29.6283C76.1602 29.6437 76.0223 29.6697 75.887 29.706V35.3207H73.8009V28.3607C74.2316 28.2146 74.6699 28.092 75.1139 27.9935C75.672 27.8717 76.2421 27.8131 76.8134 27.8186C76.9257 27.8186 77.061 27.8258 77.2194 27.8402C77.3777 27.8546 77.5361 27.8733 77.6945 27.8964C77.8528 27.9194 78.0112 27.9482 78.1695 27.9827C78.3083 28.0095 78.4442 28.0493 78.5755 28.1015L78.2279 29.8183ZM79.6963 28.2246C80.1472 28.1015 80.6051 28.0056 81.0676 27.9374C81.6513 27.8467 82.2412 27.8019 82.8319 27.8035C83.3645 27.7878 83.8954 27.8713 84.3975 28.0497C84.7812 28.1909 85.1214 28.4298 85.3844 28.7429C85.6334 29.0545 85.8104 29.4173 85.9026 29.8054C86.0094 30.2545 86.0609 30.715 86.056 31.1766V35.3358H83.9678V31.4271C83.9678 30.7548 83.8792 30.2797 83.7021 30.0019C83.5251 29.7226 83.1939 29.5829 82.7088 29.5829C82.5648 29.5829 82.4065 29.5901 82.2337 29.6045C82.0609 29.6189 81.9119 29.6355 81.7867 29.6542V35.3336H79.7006V28.2246H79.6963ZM87.5892 31.7079C87.5767 31.1222 87.6787 30.5398 87.8894 29.9932C88.0684 29.5364 88.3371 29.12 88.6797 28.7688C88.9986 28.4508 89.3793 28.2016 89.7984 28.0367C90.2146 27.8702 90.6587 27.7844 91.107 27.7841C92.1522 27.7841 92.9778 28.1037 93.5839 28.7429C94.1886 29.3821 94.4909 30.3222 94.4909 31.5632C94.4909 31.6841 94.4859 31.8173 94.4758 31.9627C94.4657 32.1066 94.4563 32.2348 94.4477 32.3471H89.7185C89.7369 32.5513 89.8006 32.7489 89.9048 32.9256C90.009 33.1022 90.1511 33.2535 90.3209 33.3685C90.7457 33.6402 91.2448 33.7723 91.7484 33.7464C92.1266 33.7466 92.504 33.7112 92.8756 33.6406C93.1852 33.5879 93.4879 33.5009 93.7783 33.3814L94.059 35.0745C93.9149 35.1429 93.7654 35.1992 93.612 35.2429C93.4075 35.3031 93.1999 35.3521 92.9901 35.3898C92.7597 35.433 92.515 35.4689 92.2558 35.4977C91.9955 35.5254 91.7338 35.539 91.4719 35.5388C90.8827 35.5515 90.2963 35.4519 89.7444 35.2451C89.2843 35.069 88.8685 34.794 88.5264 34.4396C88.2025 34.0914 87.9605 33.6753 87.8181 33.2216C87.6607 32.7334 87.5827 32.223 87.587 31.71L87.5892 31.7079ZM92.4869 30.9088C92.4779 30.733 92.4474 30.559 92.3962 30.3906C92.3472 30.2274 92.2665 30.0755 92.1587 29.9436C92.0469 29.8095 91.9087 29.7 91.7527 29.6218C91.5625 29.5323 91.3538 29.4894 91.1437 29.4965C90.9366 29.491 90.7308 29.5316 90.5412 29.6153C90.3808 29.6895 90.238 29.797 90.1223 29.9306C90.0081 30.0649 89.9202 30.2195 89.8631 30.3863C89.8026 30.5567 89.7578 30.7324 89.7292 30.911H92.4869V30.9088ZM96.0392 26.1364L98.1253 25.7995V27.959H100.63V29.6866H98.1253V32.278C98.1081 32.6421 98.1879 33.0042 98.3564 33.3275C98.5104 33.5866 98.8199 33.7162 99.285 33.7162C99.5174 33.7155 99.7494 33.6946 99.9781 33.6535C100.199 33.6157 100.416 33.5572 100.626 33.4786L100.92 35.1026C100.647 35.2119 100.366 35.3007 100.08 35.3682C99.7074 35.4496 99.3269 35.4873 98.9459 35.4805C98.4646 35.4953 97.9851 35.4168 97.5336 35.2494C97.1849 35.1127 96.8766 34.8898 96.6374 34.6016C96.4054 34.3094 96.2449 33.967 96.1688 33.6017C96.0765 33.1761 96.0316 32.7415 96.0349 32.306V26.1364H96.0392ZM101.74 31.7079C101.728 31.1222 101.83 30.5398 102.04 29.9932C102.219 29.5364 102.488 29.12 102.831 28.7688C103.152 28.4498 103.536 28.2006 103.958 28.0367C104.374 27.8702 104.818 27.7844 105.267 27.7841C106.312 27.7841 107.138 28.1037 107.744 28.7429C108.348 29.3821 108.651 30.32 108.651 31.5567C108.651 31.6776 108.646 31.8108 108.635 31.9562C108.625 32.1002 108.616 32.2283 108.607 32.3406H103.878C103.897 32.545 103.961 32.7427 104.065 32.9194C104.17 33.0961 104.313 33.2473 104.483 33.362C104.908 33.6337 105.407 33.7658 105.91 33.7399C106.288 33.7401 106.666 33.7047 107.037 33.6341C107.347 33.5814 107.65 33.4945 107.94 33.375L108.221 35.068C108.077 35.1364 107.927 35.1927 107.774 35.2364C107.569 35.2966 107.362 35.3457 107.152 35.3833C106.922 35.4265 106.677 35.4625 106.418 35.4913C106.157 35.5189 105.896 35.5326 105.634 35.5323C105.045 35.545 104.458 35.4454 103.906 35.2386C103.446 35.0625 103.03 34.7875 102.688 34.4331C102.361 34.0881 102.114 33.6742 101.967 33.2216C101.81 32.7333 101.733 32.2229 101.738 31.71L101.74 31.7079ZM106.642 30.9088C106.633 30.733 106.603 30.559 106.552 30.3906C106.503 30.2274 106.422 30.0755 106.314 29.9436C106.202 29.8095 106.064 29.7 105.908 29.6218C105.718 29.5323 105.509 29.4894 105.299 29.4965C105.092 29.491 104.886 29.5316 104.697 29.6153C104.533 29.6876 104.386 29.7944 104.267 29.9284C104.153 30.0628 104.065 30.2173 104.008 30.3841C103.947 30.5546 103.902 30.7302 103.874 30.9088H106.642ZM112.371 33.8349C112.647 33.8518 112.923 33.8136 113.183 33.7226C113.262 33.6835 113.327 33.6211 113.37 33.5439C113.412 33.4667 113.43 33.3784 113.421 33.2908C113.412 33.198 113.379 33.1093 113.324 33.0335C113.27 32.9576 113.197 32.8974 113.112 32.8589C112.813 32.6876 112.499 32.5431 112.175 32.427C111.872 32.3161 111.575 32.19 111.285 32.0491C111.036 31.9297 110.807 31.7716 110.607 31.5804C110.42 31.3967 110.273 31.1761 110.175 30.9326C110.066 30.6423 110.014 30.3336 110.022 30.0235C110.01 29.709 110.073 29.3963 110.207 29.1114C110.341 28.8266 110.541 28.578 110.791 28.3866C111.303 27.9835 112.007 27.7819 112.903 27.7819C113.337 27.7799 113.771 27.8197 114.198 27.9007C114.532 27.9593 114.86 28.046 115.179 28.1598L114.816 29.7838C114.557 29.6978 114.293 29.6257 114.026 29.5678C113.711 29.4996 113.389 29.467 113.067 29.4706C112.413 29.4706 112.086 29.6527 112.086 30.017C112.086 30.091 112.1 30.1643 112.127 30.2329C112.166 30.3095 112.224 30.3744 112.296 30.4208C112.405 30.4958 112.519 30.5616 112.639 30.6173C112.783 30.6893 112.967 30.767 113.192 30.8505C113.582 30.9899 113.96 31.1574 114.326 31.3515C114.589 31.4894 114.827 31.6696 115.032 31.8849C115.199 32.0668 115.323 32.2837 115.395 32.5198C115.469 32.7832 115.505 33.056 115.5 33.3296C115.518 33.6516 115.452 33.9726 115.308 34.2614C115.165 34.5501 114.949 34.7968 114.682 34.9773C114.135 35.3487 113.363 35.5359 112.367 35.5388C111.819 35.55 111.271 35.4934 110.737 35.3703C110.429 35.2985 110.128 35.2047 109.834 35.0896L110.184 33.3966C110.538 33.5362 110.902 33.646 111.274 33.7248C111.635 33.7996 112.003 33.8365 112.371 33.8349Z" fill="black"/>
</svg>
