<svg width="120" height="60" viewBox="0 0 120 60" fill="none" xmlns="http://www.w3.org/2000/svg">
<path d="M33.0398 23.9499L34.3078 26.5939C35.0878 28.3059 35.6778 30.1139 35.9238 31.9789C36.1698 33.8439 36.0618 35.7789 35.4788 37.5569C34.8188 39.5749 33.5688 41.3709 32.0388 42.8409C30.2268 44.5809 27.8988 45.9209 25.3908 46.0189C23.7558 46.0829 22.1278 45.6159 20.6808 44.8539C19.4638 44.2139 18.3528 43.3599 17.4668 42.3089C16.5808 41.2579 15.9218 40.0059 15.6168 38.6649C15.2418 37.0149 15.4108 35.2609 15.9788 33.6649C16.3848 32.5249 16.9868 31.4619 17.4158 30.3289C17.8838 29.0909 18.1458 27.7689 18.7658 26.6009C19.3288 25.5409 20.1718 24.6359 20.6198 23.5229C20.8878 22.8579 21.0038 22.1429 21.1768 21.4489C21.3498 20.7549 21.5918 20.0529 22.0628 19.5129C22.6298 18.8629 23.4828 18.5089 24.3428 18.4099C25.2028 18.3109 26.0688 18.4449 26.9108 18.6369C27.5808 18.7899 28.2428 18.9799 28.8908 19.2099C29.4438 19.4069 29.9908 19.6359 30.4708 19.9759C31.1208 20.4399 31.6178 21.0919 32.0138 21.7859C32.4098 22.4799 32.7118 23.2229 33.0438 23.9499H33.0398Z" fill="#020204"/>
<path d="M25.838 46.035L27.898 46.235L29.684 46.587C30.608 46.811 31.529 47.087 32.479 47.124C32.729 47.131 32.981 47.12 33.226 47.066C33.4722 47.0153 33.7037 46.9093 33.903 46.756C34.195 46.523 34.38 46.172 34.449 45.806C34.518 45.44 34.475 45.056 34.369 44.7C34.154 43.985 33.694 43.375 33.312 42.734L32.662 41.629C32.425 41.273 32.142 40.9391 31.782 40.7091C31.285 40.3891 30.669 40.284 30.08 40.343C29.491 40.402 28.928 40.613 28.402 40.886C27.666 41.266 26.972 41.79 26.572 42.516C26.432 42.768 26.332 43.04 26.212 43.303C26.092 43.566 25.955 43.825 25.754 44.033C25.53 44.263 25.239 44.419 25.007 44.643C24.891 44.753 24.79 44.883 24.73 45.033C24.67 45.183 24.656 45.353 24.71 45.505C24.7488 45.6089 24.8139 45.7009 24.899 45.772C24.984 45.8425 25.0813 45.8968 25.186 45.932C25.394 46.005 25.618 46.016 25.838 46.029V46.035Z" fill="#020204"/>
<path d="M23.7998 45.99C23.2258 46.003 22.6578 46.106 22.0948 46.222L20.4908 46.596C19.5948 46.831 18.6978 47.113 17.7708 47.133C17.5268 47.1422 17.2826 47.121 17.0438 47.07C16.8068 47.015 16.5758 46.917 16.3858 46.765C16.0858 46.533 15.9098 46.183 15.8408 45.817C15.7718 45.451 15.8138 45.07 15.9208 44.713C16.1338 43.999 16.5888 43.388 16.9628 42.743L17.5928 41.64C17.8228 41.284 18.0988 40.94 18.4528 40.718C18.9348 40.401 19.5358 40.294 20.1098 40.35C20.6838 40.406 21.2338 40.618 21.7398 40.895C22.4548 41.295 23.1068 41.823 23.5198 42.525C23.8198 43.017 23.9768 43.58 24.3158 44.04C24.4978 44.288 24.7278 44.502 24.8798 44.77C24.9584 44.903 25.0075 45.0513 25.0238 45.205C25.0378 45.36 25.0038 45.518 24.9188 45.645C24.8603 45.7289 24.7833 45.7984 24.6938 45.848C24.6045 45.8973 24.508 45.9324 24.4078 45.952C24.2078 45.994 24.0028 45.987 23.7998 45.992V45.99ZM20.5818 22.09L20.3938 16.362C20.4308 15.409 20.5868 14.445 21.0098 13.59C21.4358 12.7278 22.1175 12.0182 22.9618 11.558C23.7618 11.132 24.6618 10.95 25.5588 10.96C26.7758 10.973 27.9968 11.34 28.9828 12.055C29.6008 12.503 30.1208 13.079 30.5308 13.723C30.8808 14.273 31.1528 14.873 31.3228 15.501C31.6728 16.801 31.5898 18.151 31.6578 19.484C31.7228 20.748 31.9248 22.009 31.8558 23.284C31.8408 23.558 31.8108 23.839 31.6888 24.086C31.5634 24.3247 31.3708 24.5215 31.1348 24.652C30.8991 24.7806 30.6419 24.865 30.3758 24.901C29.8458 24.983 29.3058 24.929 28.7718 24.978C27.9978 25.05 27.2598 25.338 26.4918 25.456C25.5758 25.596 24.6418 25.496 23.7178 25.46L22.6178 25.395C22.2498 25.349 21.8828 25.26 21.5548 25.095C21.3548 24.987 21.1678 24.847 21.0178 24.675C20.8678 24.503 20.7528 24.298 20.6938 24.078C20.6058 23.746 20.6458 23.396 20.6538 23.053C20.6612 22.7385 20.6408 22.4239 20.5928 22.113L20.5818 22.09Z" fill="#020204"/>
<path d="M22.04 21.7059C22.077 22.5399 21.923 23.3819 21.592 24.1489C21.415 24.5589 21.188 24.9489 20.946 25.3239C20.526 25.9769 20.046 26.6119 19.816 27.3539C19.676 27.8039 19.63 28.2839 19.686 28.7539C19.1801 29.4966 18.743 30.2839 18.38 31.1059C17.83 32.3509 17.454 33.676 17.32 35.032C17.158 36.692 17.37 38.3969 18.025 39.9289C18.499 41.0369 19.205 42.0509 20.125 42.8409C20.588 43.2409 21.102 43.5849 21.652 43.8549C23.558 44.792 25.912 44.793 27.786 43.795C28.766 43.273 29.592 42.5099 30.389 41.7379C30.869 41.2729 31.346 40.7979 31.713 40.2379C32.418 39.1619 32.663 37.8539 32.816 36.5759C33.083 34.3419 33.091 31.9829 32.112 29.9559C31.774 29.2572 31.3267 28.6168 30.787 28.0589C30.639 27.0849 30.357 26.1319 29.949 25.2349L29.013 23.3199C28.781 22.7859 28.589 22.2129 28.183 21.7939C27.763 21.3579 27.153 21.1419 26.55 21.0869C25.947 21.0319 25.35 21.1229 24.742 21.2199L22.052 21.7049L22.04 21.7059Z" fill="#FDFDFB"/>
<g filter="url(#filter0_f_48504_9947)">
<path d="M21.746 23.9336C21.9593 24.5521 22.3886 25.0799 22.8966 25.4923C23.0657 25.6295 23.2451 25.7558 23.4435 25.8452C23.6419 25.9345 23.8609 25.9855 24.0776 25.9669C24.2899 25.9489 24.4918 25.8655 24.6776 25.7607C24.8633 25.656 25.0353 25.5294 25.2153 25.4154C25.5238 25.22 25.8542 25.0622 26.1745 24.8868C26.5605 24.6755 26.9348 24.4358 27.2598 24.1402C27.4086 24.0043 27.5474 23.8561 27.7118 23.7394C27.8761 23.6227 28.0729 23.5382 28.274 23.5519C28.4248 23.5622 28.5662 23.6263 28.7139 23.6581C28.789 23.674 28.8642 23.6819 28.939 23.6704C29.0137 23.6589 29.0868 23.6273 29.1391 23.5727C29.2033 23.5059 29.2313 23.4098 29.2268 23.3171C29.2223 23.2244 29.1912 23.1351 29.1479 23.0532C29.0615 22.8894 28.9306 22.7482 28.8723 22.5725C28.8205 22.4159 28.831 22.2468 28.8355 22.0822C28.84 21.9176 28.8365 21.7452 28.7603 21.5991C28.7025 21.4876 28.6055 21.3993 28.4945 21.3405C28.3836 21.2818 28.259 21.2528 28.1343 21.2398C27.8844 21.2164 27.634 21.2649 27.3835 21.279C27.0508 21.2978 26.7168 21.2562 26.3843 21.2763C25.9697 21.3013 25.5629 21.4216 25.1474 21.4223C24.6732 21.4232 24.1995 21.268 23.731 21.3422C23.5299 21.374 23.3383 21.4471 23.1453 21.5115C22.9522 21.5759 22.7528 21.6326 22.5494 21.6298C22.3184 21.6264 22.0947 21.5465 21.8642 21.5299C21.749 21.5217 21.631 21.5299 21.5228 21.5704C21.4145 21.6108 21.3167 21.6861 21.2637 21.7887C21.2333 21.8476 21.2183 21.9136 21.2154 21.9797C21.2125 22.0459 21.2216 22.1121 21.2377 22.1764C21.2696 22.3049 21.3284 22.4248 21.3755 22.548C21.5499 22.9932 21.5874 23.481 21.7433 23.9329L21.746 23.9336Z" fill="black" fill-opacity="0.26"/>
</g>
<g opacity="0.3" filter="url(#filter1_f_48504_9947)">
<path d="M21.1515 22.1707C21.5658 22.4269 21.9377 22.7411 22.25 23.0997C22.5397 23.4325 22.7861 23.8098 23.1644 24.0562C23.4316 24.2302 23.7525 24.3283 24.0781 24.3581C24.4604 24.393 24.8472 24.3365 25.2157 24.2367C25.5573 24.1442 25.8875 24.014 26.1905 23.8421C26.7664 23.5149 27.2477 23.0352 27.8815 22.8202C28.0202 22.7732 28.1646 22.7396 28.2982 22.6817C28.4319 22.6238 28.5575 22.537 28.6214 22.4143C28.684 22.2964 28.6803 22.1602 28.7003 22.0306C28.7216 21.8922 28.7697 21.7581 28.796 21.6204C28.8223 21.4826 28.8255 21.3351 28.7609 21.2085C28.7073 21.1035 28.61 21.0206 28.4979 20.9679C28.3858 20.9152 28.2599 20.8913 28.1341 20.8855C27.8829 20.874 27.6346 20.9334 27.3841 20.9545C27.0521 20.9824 26.7179 20.943 26.3849 20.9522C25.9705 20.9637 25.5622 21.0503 25.148 21.0681C24.6756 21.0887 24.2043 21.0199 23.7316 21.0047C23.5272 20.998 23.3214 21.0012 23.1198 21.0339C22.9183 21.0665 22.7205 21.1287 22.5499 21.233C22.3845 21.3342 22.2496 21.4715 22.0981 21.5895C22.0223 21.6486 21.9417 21.7032 21.8533 21.7447C21.7649 21.7863 21.6679 21.8145 21.569 21.8189C21.518 21.8212 21.4665 21.8172 21.4161 21.8243C21.3739 21.8309 21.3335 21.8451 21.2972 21.8661C21.261 21.8871 21.2296 21.9145 21.2049 21.9467C21.1802 21.979 21.1627 22.0154 21.1533 22.0539C21.144 22.0924 21.143 22.1322 21.1505 22.1711L21.1515 22.1707Z" fill="black"/>
</g>
<path d="M22.2298 16.5129C22.0047 16.5297 21.7925 16.6245 21.6298 16.7809C21.4668 16.9339 21.3518 17.1329 21.2798 17.3449C21.1378 17.7689 21.1798 18.2279 21.2028 18.6749C21.2328 19.0789 21.2628 19.4899 21.4028 19.8749C21.4761 20.0641 21.5859 20.237 21.7258 20.3839C21.8666 20.531 22.0451 20.6365 22.2418 20.6889C22.4274 20.734 22.6219 20.7271 22.8038 20.6689C22.9838 20.6119 23.1498 20.5089 23.2858 20.3759C23.4838 20.1819 23.6158 19.9289 23.6938 19.6629C23.7652 19.395 23.7969 19.1181 23.7878 18.8409C23.7828 18.4949 23.7378 18.1469 23.6278 17.8179C23.5178 17.4889 23.3478 17.1779 23.1048 16.9299C22.9878 16.8099 22.8548 16.7039 22.7048 16.6299C22.5548 16.5559 22.3848 16.5139 22.2188 16.5229L22.2298 16.5129Z" fill="url(#paint0_radial_48504_9947)"/>
<path d="M26.1777 16.513C25.8127 16.731 25.5307 17.081 25.3947 17.483C25.2247 17.987 25.2877 18.545 25.4577 19.049C25.6317 19.567 25.9297 20.059 26.3797 20.369C26.6046 20.5264 26.8644 20.6266 27.1367 20.661C27.4097 20.6946 27.6866 20.6459 27.9317 20.521C28.2257 20.367 28.4517 20.098 28.5897 19.796C28.7277 19.494 28.7897 19.161 28.8097 18.83C28.8347 18.407 28.7937 17.977 28.6527 17.577C28.5007 17.145 28.2227 16.747 27.8387 16.5C27.6457 16.376 27.4287 16.29 27.2007 16.258C26.9727 16.226 26.7387 16.246 26.5237 16.324C26.4007 16.369 26.2837 16.432 26.1797 16.512L26.1777 16.513Z" fill="url(#paint1_radial_48504_9947)"/>
<g opacity="0.3" filter="url(#filter2_f_48504_9947)">
<path d="M22.156 20.1199L21.5126 20.7067C21.3994 20.8207 21.2859 20.9427 21.2352 21.095C21.1901 21.2303 21.1986 21.3772 21.1763 21.5184C21.1688 21.5668 21.1575 21.6149 21.1573 21.6637C21.1569 21.6882 21.1601 21.7126 21.167 21.7361C21.1742 21.7595 21.1858 21.7816 21.2027 21.7995C21.2305 21.8292 21.2701 21.8453 21.31 21.8534C21.3498 21.8614 21.3907 21.8624 21.4312 21.8668C21.6136 21.8864 21.7817 21.9749 21.9328 22.0791L22.3774 22.4029C22.7194 22.6201 23.1281 22.7167 23.5331 22.7321C23.9381 22.7475 24.342 22.6857 24.7393 22.6062C25.055 22.543 25.3699 22.4684 25.6694 22.3501C26.1282 22.1693 26.5417 21.8908 26.9368 21.5958C27.1163 21.4618 27.2933 21.3236 27.4545 21.1681C27.5092 21.1152 27.5622 21.0603 27.6209 21.012C27.6795 20.9636 27.7446 20.9215 27.817 20.8982C27.9272 20.8628 28.047 20.8729 28.1612 20.892C28.2473 20.9064 28.3336 20.9258 28.4208 20.922C28.4644 20.9203 28.5081 20.9128 28.5485 20.8965C28.589 20.8802 28.6264 20.8552 28.6541 20.8213C28.6903 20.7761 28.7098 20.7199 28.7095 20.662C28.7097 20.6046 28.692 20.548 28.6631 20.4985C28.6049 20.3996 28.5043 20.3328 28.3995 20.2862C28.2559 20.2223 28.1006 20.191 27.9478 20.1539C27.4787 20.0407 27.0227 19.8734 26.5905 19.6587C26.3755 19.5519 26.1666 19.4337 25.9551 19.3205C25.7377 19.204 25.5161 19.092 25.28 19.0205C24.7523 18.8605 24.1752 18.913 23.6545 19.0939C23.0758 19.2948 22.5525 19.6529 22.1556 20.1195L22.156 20.1199Z" fill="black"/>
</g>
<path d="M23.2776 19.458C23.4976 19.208 23.6506 18.906 23.8626 18.648C23.9686 18.52 24.0926 18.403 24.2356 18.32C24.3795 18.2339 24.5462 18.1935 24.7136 18.204C24.8986 18.22 25.0716 18.312 25.2066 18.439C25.3416 18.566 25.4416 18.726 25.5216 18.893C25.5986 19.053 25.6596 19.223 25.7696 19.363C25.8876 19.511 26.0526 19.613 26.2016 19.729C26.2773 19.7858 26.3461 19.8512 26.4066 19.924C26.4666 19.998 26.5116 20.084 26.5306 20.177C26.5496 20.27 26.5406 20.371 26.5076 20.461C26.4746 20.551 26.4176 20.633 26.3496 20.701C26.2096 20.834 26.0226 20.906 25.8316 20.933C25.4516 20.987 25.0656 20.873 24.6816 20.883C24.2976 20.893 23.9116 21.031 23.5236 21.017C23.3275 21.0153 23.136 20.9578 22.9716 20.851C22.891 20.7958 22.8229 20.7242 22.7716 20.641C22.7216 20.558 22.6916 20.461 22.6876 20.365C22.6859 20.2716 22.7051 20.1791 22.7436 20.094C22.7806 20.009 22.8336 19.931 22.8916 19.859C23.0096 19.715 23.1516 19.595 23.2766 19.456L23.2776 19.458Z" fill="url(#paint2_radial_48504_9947)"/>
<g filter="url(#filter3_f_48504_9947)">
<path d="M27.6178 12.5661C27.2966 12.7927 27.4369 13.0756 27.575 13.3596C27.7132 13.6436 27.2714 14.4623 27.2666 14.4975C27.2619 14.5327 28.1362 14.0825 28.3745 13.79C28.6559 13.4446 29.367 14.2573 29.3285 14.1335C29.3288 13.9122 27.939 12.3395 27.6179 12.5661H27.6178Z" fill="#7C7C7C"/>
</g>
<path d="M26.9808 17.565C26.85 17.5744 26.7223 17.6191 26.6113 17.6902C26.5003 17.7614 26.4055 17.855 26.3311 17.9633C26.1824 18.1798 26.1169 18.4452 26.1065 18.7074C26.0986 18.9043 26.1203 19.1038 26.1857 19.2898C26.2511 19.4758 26.3611 19.6481 26.513 19.7737C26.6683 19.9024 26.8657 19.9796 27.0673 19.9892C27.2688 19.9987 27.4731 19.9407 27.6385 19.8254C27.7704 19.7336 27.8767 19.6072 27.9525 19.4656C28.0283 19.3239 28.074 19.1671 28.0947 19.0077C28.1315 18.7263 28.0899 18.4324 27.9598 18.1801C27.8296 17.9279 27.609 17.7201 27.3426 17.622C27.2274 17.5794 27.1034 17.5573 26.9808 17.5661V17.565Z" fill="#020204"/>
<g filter="url(#filter4_f_48504_9947)">
<path d="M27.2934 18.4237C27.1849 18.4665 27.0132 18.4396 26.9657 18.5461C26.9376 18.6092 26.9774 18.713 27.0413 18.739C27.1705 18.7916 27.371 18.6964 27.4233 18.5667C27.4459 18.5104 27.4117 18.4214 27.3557 18.3976C27.335 18.3889 27.3143 18.4152 27.2935 18.4234L27.2934 18.4237Z" fill="#141413"/>
</g>
<g filter="url(#filter5_f_48504_9947)">
<path d="M27.7904 18.7054C27.9357 18.5601 27.6869 18.1743 27.4929 18.0165C27.3523 17.9021 26.943 17.7823 26.9605 17.9069C26.978 18.0315 27.1609 18.1908 27.2856 18.3124C27.4374 18.4621 27.7215 18.7746 27.7904 18.7054Z" fill="url(#paint3_linear_48504_9947)"/>
</g>
<path d="M24.8626 17.7817C25.1623 17.5331 25.508 17.3458 25.8799 17.2306C26.6423 16.9951 27.5083 17.0881 28.182 17.5155C28.4146 17.6631 28.6219 17.8465 28.8383 18.0171C29.0548 18.1877 29.2843 18.3478 29.5443 18.4392C29.6846 18.4885 29.8347 18.5172 29.9827 18.5018C30.1165 18.4878 30.2458 18.4377 30.3565 18.3615C30.4672 18.2854 30.5601 18.1839 30.6296 18.0688C30.7689 17.8387 30.8137 17.5596 30.7897 17.2918C30.7417 16.7561 30.4394 16.2831 30.1862 15.8087C30.1069 15.6602 30.0313 15.509 29.9356 15.3703C29.6421 14.9449 29.1749 14.6643 28.6849 14.5C28.1949 14.3356 27.677 14.2763 27.1642 14.2116C26.9355 14.1828 26.7041 14.1528 26.4753 14.1803C26.2122 14.212 25.9647 14.3181 25.7081 14.3839C25.5862 14.4152 25.4621 14.4371 25.3413 14.4721C25.2206 14.507 25.1017 14.556 25.0035 14.6344C24.8601 14.7491 24.7699 14.9212 24.7308 15.1007C24.6917 15.2802 24.7007 15.467 24.7293 15.6484C24.7867 16.0111 24.9222 16.3654 24.9094 16.7324C24.9006 16.9844 24.8215 17.2319 24.8311 17.484C24.834 17.5591 24.8445 17.6314 24.8624 17.7032" fill="url(#paint4_linear_48504_9947)"/>
<g filter="url(#filter6_f_48504_9947)">
<path d="M27.3875 15.4816C27.3278 15.5567 27.2738 15.6384 27.231 15.7283C27.4998 15.7862 27.7571 15.8969 27.9863 16.0494C28.4303 16.3442 28.7675 16.7754 29.004 17.255C29.0591 17.1939 29.1095 17.1282 29.1528 17.0553C28.9151 16.5558 28.5711 16.104 28.1117 15.799C27.891 15.6524 27.6451 15.5417 27.3877 15.4821L27.3875 15.4816Z" fill="url(#paint5_linear_48504_9947)"/>
</g>
<g filter="url(#filter7_f_48504_9947)">
<path d="M22.2047 15.7264C22.1744 15.7258 22.145 15.7286 22.1145 15.73L22.0557 15.7335C22.2327 15.7495 22.4086 15.7971 22.5685 15.8687C22.7864 15.9664 22.9786 16.1059 23.1478 16.2646C23.4615 16.5583 23.6946 16.9209 23.8524 17.3055C23.8138 17.0149 23.7265 16.7329 23.5941 16.4714C23.5322 16.4 23.4681 16.3298 23.3985 16.2647C23.2294 16.1061 23.037 15.9668 22.8191 15.8689C22.6287 15.7833 22.4165 15.7301 22.2046 15.7263L22.2047 15.7264Z" fill="url(#paint6_linear_48504_9947)"/>
</g>
<path d="M21.6917 18.361C21.6447 18.641 21.6437 18.937 21.7397 19.206C21.8059 19.3829 21.9069 19.5448 22.0367 19.682C22.1207 19.782 22.2168 19.855 22.3368 19.908C22.4478 19.9644 22.575 19.9806 22.6968 19.954C22.8073 19.9231 22.9049 19.8571 22.9748 19.766C23.0448 19.676 23.0948 19.571 23.1278 19.463C23.2278 19.143 23.2118 18.791 23.1128 18.47C23.0408 18.236 22.9207 18.01 22.7327 17.853C22.6427 17.778 22.5387 17.719 22.4257 17.693C22.3127 17.667 22.1887 17.673 22.0827 17.721C21.9655 17.779 21.8709 17.8743 21.8137 17.992C21.7537 18.107 21.7237 18.235 21.7017 18.362L21.6917 18.361Z" fill="#020204"/>
<g filter="url(#filter8_f_48504_9947)">
<path d="M22.2868 18.1574C22.3171 18.2368 22.4188 18.2656 22.4747 18.3296C22.529 18.3918 22.5858 18.4561 22.6156 18.5331C22.6726 18.6804 22.5593 18.8989 22.6783 19.0029C22.7156 19.0354 22.7904 19.0362 22.8271 19.0029C22.9705 18.8723 22.9386 18.609 22.8819 18.4235C22.8306 18.2552 22.7032 18.0958 22.5462 18.0158C22.4736 17.9789 22.3646 17.9482 22.3025 18.0008C22.2624 18.0346 22.2682 18.1085 22.2868 18.1574Z" fill="url(#paint7_linear_48504_9947)"/>
</g>
<path d="M21.1679 21.8582C21.1754 21.8952 21.1895 21.9309 21.2088 21.9635C21.2421 22.0192 21.2908 22.0644 21.3432 22.1025C21.3957 22.1406 21.4526 22.1727 21.5076 22.2071C21.7999 22.3909 22.0381 22.6493 22.2497 22.922C22.5337 23.288 22.7849 23.6942 23.1642 23.9604C23.432 24.1483 23.7524 24.2554 24.0778 24.2881C24.4599 24.3265 24.8469 24.2648 25.2154 24.1563C25.5569 24.0557 25.8872 23.9145 26.1902 23.7279C26.7664 23.3727 27.2474 22.8519 27.8812 22.6185C28.0199 22.5675 28.1643 22.531 28.2978 22.4681C28.4314 22.4053 28.5571 22.3111 28.621 22.1778C28.6837 22.0498 28.6799 21.902 28.6999 21.7613C28.7212 21.611 28.7693 21.4654 28.7956 21.3159C28.8219 21.1663 28.8251 21.0062 28.7606 20.8687C28.707 20.7547 28.6096 20.6648 28.4975 20.6075C28.3854 20.5503 28.2595 20.5243 28.1338 20.5181C27.8825 20.5056 27.6342 20.5701 27.3837 20.593C27.0518 20.6233 26.7176 20.5807 26.3845 20.5905C25.9701 20.603 25.5618 20.6963 25.1477 20.7164C24.6752 20.7393 24.2038 20.6663 23.7312 20.6475C23.5265 20.6392 23.3204 20.6412 23.1184 20.6757C22.9165 20.7101 22.7182 20.7789 22.5497 20.8952C22.3857 21.0087 22.2546 21.1633 22.1038 21.2941C22.0284 21.3595 21.9472 21.4193 21.8576 21.4628C21.7679 21.5063 21.6688 21.5334 21.569 21.5313C21.5189 21.5301 21.465 21.5217 21.4161 21.5372C21.3856 21.5468 21.3585 21.5656 21.3355 21.5881C21.3124 21.6105 21.2935 21.6365 21.2756 21.6632C21.2339 21.7251 21.1976 21.7904 21.167 21.8584L21.1679 21.8582Z" fill="url(#paint8_radial_48504_9947)"/>
<g filter="url(#filter9_f_48504_9947)">
<path d="M23.0221 22.3675C22.9753 22.5697 23.005 22.782 23.1056 22.9635C23.2061 23.145 23.3703 23.2829 23.5665 23.3504C23.8143 23.4331 24.0935 23.3925 24.325 23.2718C24.459 23.2016 24.5818 23.1032 24.6594 22.9732C24.6987 22.9082 24.7245 22.8359 24.7352 22.7607C24.7452 22.6856 24.7383 22.6079 24.712 22.5371C24.6832 22.4595 24.6319 22.3908 24.5685 22.3372C24.5051 22.2836 24.4301 22.2448 24.3514 22.2187C24.1938 22.1666 24.0245 22.1656 23.8586 22.1736C23.6073 22.1857 23.3574 22.2172 23.1109 22.2679" fill="#D9B30D"/>
</g>
<g filter="url(#filter10_f_48504_9947)">
<path d="M22.2093 20.8122L21.721 21.1332C21.6387 21.1916 21.5539 21.2547 21.5106 21.3456C21.4797 21.4102 21.4727 21.4834 21.473 21.5548C21.4732 21.6262 21.4767 21.6981 21.4672 21.7678C21.461 21.8161 21.4479 21.8637 21.4457 21.9125C21.4444 21.9369 21.4463 21.9613 21.4527 21.9851C21.4588 22.0089 21.4706 22.0307 21.4871 22.0489C21.5088 22.0718 21.5382 22.0859 21.5686 22.0952C21.5989 22.1045 21.6299 22.109 21.6608 22.1165C21.8079 22.1511 21.9359 22.2414 22.0483 22.3425L22.379 22.6526C22.6968 22.9112 23.118 23.0184 23.5264 23.025C23.9347 23.0317 24.3411 22.9461 24.7408 22.8559L25.6709 22.5999C26.1347 22.4289 26.5652 22.17 26.9382 21.8456C27.1074 21.6985 27.2661 21.5369 27.456 21.4178C27.6238 21.3123 27.8121 21.2427 27.9828 21.1418C27.9981 21.1328 28.0132 21.1236 28.0269 21.1122C28.0405 21.1008 28.0527 21.0874 28.0607 21.0715C28.0745 21.0439 28.0745 21.0113 28.0657 20.9818C28.057 20.9522 28.0399 20.9261 28.0206 20.9023C27.9993 20.876 27.9752 20.852 27.9492 20.83C27.7709 20.6771 27.5287 20.6218 27.2946 20.6032C27.0605 20.5847 26.8236 20.5978 26.5932 20.5591C26.3752 20.5216 26.1681 20.4414 25.9578 20.3741C25.7372 20.3028 25.5116 20.2479 25.2828 20.21C24.7448 20.1224 24.1909 20.1391 23.6573 20.2501C23.149 20.356 22.659 20.547 22.2118 20.8113L22.2093 20.8122Z" fill="#604405"/>
</g>
<path d="M22.156 20.2452C21.9142 20.4081 21.6968 20.6064 21.5126 20.8321C21.4074 20.9611 21.3117 21.1014 21.2587 21.2595C21.217 21.3837 21.2029 21.5153 21.1766 21.6437C21.1665 21.6918 21.1553 21.7401 21.1553 21.789C21.1554 21.8135 21.1585 21.8382 21.166 21.8616C21.1736 21.885 21.1858 21.907 21.2029 21.9246C21.2311 21.9539 21.2705 21.9697 21.3103 21.978C21.3502 21.9862 21.391 21.9874 21.4313 21.992C21.6136 22.0127 21.7813 22.1012 21.9324 22.2052L22.3776 22.5281C22.72 22.7448 23.1285 22.841 23.5334 22.8567C23.9382 22.8723 24.3422 22.8108 24.7396 22.7314C25.0553 22.6684 25.3702 22.5936 25.6697 22.4754C26.1284 22.2945 26.542 22.0161 26.9371 21.7211C27.1166 21.587 27.2936 21.4489 27.4548 21.2933C27.5095 21.2404 27.5625 21.1856 27.6211 21.1372C27.6797 21.0889 27.7449 21.0468 27.8173 21.0235C27.9275 20.988 28.0473 20.9982 28.1615 21.0172C28.2476 21.0316 28.3339 21.051 28.421 21.0473C28.4646 21.0455 28.5083 21.038 28.5488 21.0217C28.5893 21.0054 28.6267 20.9804 28.6544 20.9466C28.6905 20.9014 28.7101 20.8451 28.7098 20.7872C28.71 20.7299 28.6922 20.6733 28.6634 20.6238C28.6052 20.5248 28.5046 20.4581 28.3997 20.4115C28.2562 20.3476 28.1009 20.3163 27.9481 20.2792C27.4789 20.166 27.023 19.9986 26.5907 19.7839C26.3758 19.6772 26.1668 19.5589 25.9554 19.4457C25.7379 19.3292 25.5164 19.2172 25.2802 19.1457C24.7525 18.9857 24.1754 19.0382 23.6547 19.2191C23.076 19.42 22.5528 19.7781 22.1559 20.2447L22.156 20.2452Z" fill="url(#paint9_linear_48504_9947)"/>
<g filter="url(#filter11_f_48504_9947)">
<path d="M25.8634 20.3612C25.8351 20.3254 25.7945 20.3001 25.7506 20.2873C25.7068 20.2745 25.6598 20.2748 25.6149 20.281C25.5247 20.2965 25.444 20.3437 25.3686 20.3969C25.1544 20.5442 24.9653 20.7261 24.8003 20.9268C24.5817 21.1923 24.4013 21.4995 24.3408 21.838C24.3308 21.895 24.3239 21.9533 24.3311 22.0109C24.3382 22.0685 24.3602 22.1255 24.4012 22.1666C24.437 22.2027 24.4859 22.2247 24.5362 22.232C24.5866 22.2393 24.6385 22.2322 24.6866 22.216C24.783 22.1834 24.8632 22.1157 24.9388 22.0481C25.3567 21.6742 25.7346 21.2254 25.8858 20.6853C25.9008 20.631 25.9139 20.5755 25.9134 20.5193C25.9129 20.463 25.8983 20.4053 25.8635 20.3612H25.8634Z" fill="#F6DA4A"/>
</g>
<g opacity="0.8" filter="url(#filter12_f_48504_9947)">
<path d="M24.8626 19.5871C24.8914 19.68 25.0415 19.6647 25.1282 19.7092C25.2042 19.7483 25.2652 19.8341 25.3508 19.8366C25.4322 19.8391 25.5592 19.8084 25.57 19.7276C25.584 19.6208 25.4279 19.5529 25.3276 19.5137C25.1986 19.4633 25.0328 19.4378 24.9117 19.5052C24.8839 19.5206 24.8536 19.5568 24.8631 19.5872L24.8626 19.5871Z" fill="url(#paint10_radial_48504_9947)"/>
</g>
<g opacity="0.8" filter="url(#filter13_f_48504_9947)">
<path d="M23.4315 19.5332C23.3203 19.4969 23.1363 19.6932 23.1963 19.7938C23.2128 19.8213 23.2633 19.8564 23.2973 19.8376C23.3486 19.8094 23.3905 19.7086 23.446 19.6691C23.483 19.6428 23.4748 19.5474 23.4314 19.5334L23.4315 19.5332Z" fill="url(#paint11_radial_48504_9947)"/>
</g>
<g filter="url(#filter14_f_48504_9947)">
<path d="M28.3368 21.4425C28.5345 21.4425 28.7169 21.2443 28.7443 20.9998C28.7717 20.7553 28.6337 20.5571 28.436 20.5571C28.2384 20.5571 28.0559 20.7553 28.0285 20.9998C28.0011 21.2443 28.1391 21.4425 28.3368 21.4425Z" fill="url(#paint12_linear_48504_9947)"/>
</g>
<path d="M21.7489 17.4109C22.0852 17.2105 22.4948 17.1641 22.8846 17.201C23.2745 17.2378 23.6519 17.3523 24.0295 17.4552C24.3066 17.5307 24.5872 17.6006 24.8469 17.7231C25.1065 17.8456 25.3479 18.0257 25.4909 18.2746L25.5586 18.3951C25.5829 18.4342 25.6116 18.4715 25.6483 18.499C25.685 18.5266 25.7306 18.5446 25.7765 18.5421C25.7996 18.5409 25.8224 18.5346 25.8422 18.5228C25.862 18.5111 25.8789 18.494 25.8895 18.4737C25.9018 18.4503 25.9056 18.4231 25.9042 18.3966C25.9021 18.3702 25.8972 18.344 25.8895 18.3187C25.795 17.9738 25.572 17.6813 25.4023 17.3667L25.1144 16.791C24.7614 16.1446 24.182 15.6366 23.5236 15.307C22.8652 14.9775 22.1298 14.819 21.3945 14.7759C20.5428 14.7261 19.6885 14.8273 18.848 14.9751C18.4835 15.0392 18.114 15.1147 17.7913 15.296C17.6301 15.3866 17.4823 15.5036 17.3669 15.648C17.2515 15.7924 17.1695 15.9655 17.1429 16.1487C17.1174 16.3253 17.1442 16.5069 17.2056 16.6742C17.2669 16.8416 17.3631 16.9947 17.4757 17.133C17.7008 17.4095 17.9893 17.6257 18.2551 17.8632C18.5209 18.1007 18.7687 18.3633 19.0647 18.5601C19.2132 18.6584 19.3745 18.7398 19.5461 18.7877C19.7177 18.8355 19.9006 18.849 20.0752 18.8132C20.2562 18.7761 20.4238 18.6873 20.5704 18.575C20.7171 18.4626 20.8443 18.3269 20.9648 18.1869C21.2059 17.9068 21.4311 17.5999 21.7485 17.4108L21.7489 17.4109Z" fill="url(#paint13_radial_48504_9947)"/>
<path d="M33.6127 29.426C34.3747 30.039 34.8587 30.966 35.0087 31.932C35.1257 32.686 35.0487 33.46 34.8787 34.202C34.7087 34.944 34.4467 35.665 34.1857 36.382C34.0817 36.668 33.9777 36.957 33.9357 37.258C33.8937 37.559 33.9207 37.878 34.0657 38.146C34.2327 38.452 34.5437 38.663 34.8777 38.763C35.2108 38.8579 35.5632 38.8624 35.8987 38.776C36.2327 38.693 36.5447 38.53 36.8167 38.319C37.5067 37.782 37.9247 36.949 38.0867 36.089C38.2487 35.229 38.1737 34.342 38.0237 33.479C37.8187 32.304 37.4737 31.155 37.0367 30.046C36.7147 29.23 36.3367 28.428 35.8107 27.726C35.2947 27.04 34.6447 26.462 34.1407 25.768C33.7907 25.286 33.5087 24.748 33.0877 24.324C32.8805 24.108 32.6305 23.9377 32.3537 23.824C32.0753 23.7107 31.7678 23.69 31.4767 23.765C31.0987 23.872 30.7887 24.17 30.6247 24.527C30.4607 24.884 30.4317 25.294 30.4947 25.682C30.5777 26.182 30.8047 26.647 31.0647 27.084C31.3547 27.577 31.6947 28.052 32.1347 28.419C32.5947 28.802 33.1497 29.054 33.6147 29.419L33.6127 29.426Z" fill="#020204"/>
<g filter="url(#filter15_f_48504_9947)">
<path d="M31.8184 28.2449L32.0096 28.4171C32.4773 28.7998 32.7263 29.2294 33.2005 29.6042C33.9765 30.2174 34.7639 31.2757 34.9162 32.2422C35.035 32.9963 34.8779 33.4059 34.686 34.295C34.4941 35.1841 33.9502 36.443 33.6564 37.3002C33.5391 37.6422 33.8936 37.501 33.8472 37.8614C33.8238 38.0384 33.8223 38.2175 33.8427 38.3949L33.8516 38.2919C33.9081 37.8005 34.0586 37.328 34.2227 36.8646C34.5382 35.9725 34.9004 35.0984 35.1501 34.183C35.3998 33.2676 35.372 32.6092 35.2419 31.8226C35.078 30.8335 34.5026 29.9202 33.6877 29.3174C33.1113 28.8911 32.432 28.6178 31.8187 28.2449H31.8184Z" fill="#838384"/>
</g>
<g opacity="0.25" filter="url(#filter16_f_48504_9947)">
<path d="M19.9356 27.6906C20.0629 27.8815 19.8565 28.5396 22.8222 28.1183C22.8222 28.1183 22.3014 28.1756 21.788 28.2942C20.9898 28.5614 20.2943 28.86 19.7579 29.2556C19.2264 29.6466 18.8373 30.1571 18.3496 30.5955C18.3496 30.5955 19.1394 29.1525 19.3361 28.7182C19.5329 28.2839 19.3032 28.3048 19.459 27.6643C19.6149 27.0237 19.9959 26.4108 19.9959 26.4108C19.9959 26.4108 19.6848 27.3139 19.9356 27.6904V27.6906Z" fill="url(#paint14_radial_48504_9947)"/>
</g>
<g opacity="0.42" filter="url(#filter17_f_48504_9947)">
<path d="M29.4723 27.5183C28.8679 27.9392 28.5138 27.8894 27.7804 27.9717C27.047 28.054 25.0625 28.0243 25.0625 28.0243C25.0625 28.0243 25.3498 28.0189 25.9867 28.1376C26.6235 28.2562 27.9223 28.3696 28.6537 28.648C29.3851 28.9265 29.6518 29.0059 30.0964 29.2868C30.7289 29.6869 31.1934 30.3136 31.7983 30.752C31.7983 30.752 31.8276 30.1703 31.5833 29.7359C31.3391 29.3015 30.6815 28.6167 30.4896 27.9772C30.2977 27.3378 30.2047 26.0818 30.2047 26.0818C30.2047 26.0818 30.0769 27.097 29.4724 27.518L29.4723 27.5183Z" fill="url(#paint15_radial_48504_9947)"/>
</g>
<g opacity="0.2" filter="url(#filter18_f_48504_9947)">
<path d="M23.7882 26.6192L23.7009 27.1633C23.6833 27.2522 23.6639 27.3412 23.6307 27.4255C23.5975 27.5098 23.5501 27.5898 23.4829 27.6504C23.4241 27.7036 23.3522 27.7401 23.28 27.7732C22.9984 27.9022 22.697 27.9878 22.3896 28.0262L22.7573 28.0598C22.8343 28.0682 22.9116 28.0776 22.9868 28.0969C23.0619 28.1162 23.1352 28.147 23.1977 28.1914C23.2664 28.2416 23.3202 28.3102 23.3605 28.3851C23.4407 28.5344 23.4675 28.7061 23.4824 28.8736C23.5012 29.0894 23.5027 29.307 23.4866 29.523C23.5011 29.3784 23.5314 29.2354 23.5767 29.0973C23.6585 28.8486 23.7902 28.6153 23.9676 28.4227C24.038 28.3463 24.1154 28.2761 24.2005 28.2162C24.4645 28.0321 24.7879 27.9535 25.1069 27.9957C24.7833 28.0089 24.4651 27.9101 24.2058 27.716C24.0753 27.6176 23.9615 27.4951 23.8826 27.3521C23.7601 27.1279 23.7265 26.8658 23.7886 26.6179L23.7882 26.6192Z" fill="url(#paint16_radial_48504_9947)"/>
</g>
<g opacity="0.1" filter="url(#filter19_f_48504_9947)">
<path d="M23.0152 30.8831C22.8611 31.4695 22.7553 32.0677 22.6988 32.6714C22.619 33.5247 22.6382 34.384 22.5923 35.2399C22.5547 35.9661 22.4683 36.6999 22.5943 37.4162C22.6544 37.7578 22.7625 38.0907 22.9144 38.4026C22.9385 38.2836 22.9561 38.1633 22.9672 38.0423C23.0207 37.4616 22.9229 36.879 22.8898 36.2968C22.8319 35.2763 22.9732 34.2551 23.0307 33.2357C23.0749 32.452 23.0697 31.6663 23.0151 30.8832L23.0152 30.8831Z" fill="black"/>
</g>
<g filter="url(#filter20_f_48504_9947)">
<path d="M30.0535 22.0875C29.7827 22.3343 30.1805 22.7048 30.3692 23.1402C30.4864 23.4108 30.8109 23.7922 31.1247 23.7312C31.3608 23.6852 31.5073 23.3454 31.485 23.1061C31.4419 22.6439 31.0519 22.5358 30.7689 22.3771C30.5446 22.2513 30.2436 21.9144 30.0536 22.0877L30.0535 22.0875Z" fill="#838384"/>
</g>
<g opacity="0.2" filter="url(#filter21_f_48504_9947)">
<path d="M94.0462 42.7572C94.1632 42.9573 93.8442 43.1816 93.6839 43.3507C93.3312 43.7231 92.8543 43.9647 92.411 44.23C91.6503 44.6854 90.7877 44.9695 90.0417 45.4472C89.5422 45.767 89.0991 46.1639 88.6448 46.5422C88.2561 46.8659 87.9396 47.2783 87.5087 47.5466C87.0778 47.8149 86.6027 48.0669 86.0951 48.129C85.4799 48.2042 84.8253 48.097 84.2557 47.858C83.8576 47.6909 83.4634 47.4346 83.2315 47.0776C82.9983 46.7187 82.9665 46.2586 82.9442 45.8345C82.9047 45.0754 83.1196 44.3239 83.2244 43.5707C83.3119 42.9441 83.4627 42.3252 83.5151 41.6949C83.6103 40.5497 83.4148 39.3891 83.5563 38.2486C83.6019 37.8807 83.5331 37.4143 83.8151 37.1658C84.0772 36.9347 84.5135 37.0255 84.8672 37.0327C85.2975 37.0414 85.7203 37.1517 86.1394 37.2477C86.4038 37.3082 86.6536 37.4244 86.9204 37.4745C87.3629 37.5575 87.8164 37.608 88.2668 37.5937C88.7536 37.5782 89.2234 37.3687 89.7105 37.3726C89.9101 37.3743 90.1123 37.4079 90.3004 37.4728C90.4911 37.5386 90.6847 37.6239 90.8307 37.7603C90.942 37.8643 91.0146 38.0054 91.0725 38.1449C91.159 38.353 91.1875 38.5805 91.2226 38.8025C91.2538 38.9996 91.203 39.2121 91.2759 39.3987C91.5113 40 91.9932 40.4919 92.4625 40.9448C92.6867 41.1872 92.9809 41.3875 93.2557 41.5496C93.5477 41.7217 93.8176 41.8565 93.9584 42.1528C94.0433 42.3388 93.8885 42.6238 94.0463 42.7573L94.0462 42.7572Z" fill="url(#paint17_linear_48504_9947)"/>
</g>
<path d="M41.2415 42.7572C41.1575 42.9726 41.0377 43.1739 40.8887 43.3507C40.56 43.7409 40.1036 43.9983 39.6491 44.23C38.8738 44.6251 38.0706 44.9718 37.3418 45.4472C36.8536 45.7656 36.4029 46.1395 35.9815 46.5422C35.6211 46.8867 35.2793 47.2546 34.8752 47.5465C34.4673 47.8409 33.9959 48.0544 33.4986 48.129C32.8936 48.2198 32.2685 48.1023 31.7073 47.8579C31.3143 47.6867 30.9362 47.4417 30.7099 47.0776C30.4827 46.7121 30.4308 46.2649 30.4302 45.8345C30.4292 45.0733 30.5702 44.3188 30.703 43.5706C30.8132 42.9478 30.9184 42.3237 30.9861 41.6949C31.1092 40.5512 31.1083 39.3959 31.0262 38.2486C31.0136 38.0564 30.9964 37.8624 31.0252 37.6719C31.054 37.4813 31.1323 37.2914 31.2782 37.1658C31.4131 37.0497 31.5939 36.9984 31.7717 36.9887C31.9496 36.9789 32.1267 37.0071 32.3028 37.0328C32.7178 37.0934 33.1361 37.1411 33.5417 37.2478C33.7976 37.3151 34.0468 37.4057 34.3022 37.4746C34.7285 37.5898 35.1748 37.6449 35.6134 37.5938C36.0856 37.5387 36.544 37.3612 37.0193 37.3727C37.2143 37.3775 37.4076 37.4143 37.5937 37.4729C37.7835 37.5328 37.9708 37.6185 38.1102 37.7604C38.2162 37.8681 38.2901 38.004 38.3457 38.145C38.4283 38.3546 38.4728 38.578 38.4919 38.8026C38.5088 39.0015 38.506 39.2027 38.5437 39.3988C38.6057 39.7214 38.7751 40.0155 38.9856 40.2675C39.1962 40.5195 39.4491 40.7335 39.6991 40.9449C39.9496 41.1554 40.2014 41.3652 40.4716 41.5497C40.5984 41.6364 40.7291 41.7175 40.8495 41.8127C40.9699 41.9079 41.0806 42.019 41.1558 42.1528C41.2579 42.3344 41.2891 42.5547 41.2413 42.7573L41.2415 42.7572Z" fill="url(#paint18_linear_48504_9947)"/>
<g filter="url(#filter22_f_48504_9947)">
<path d="M40.8511 42.3624C40.7736 42.5567 40.6648 42.7369 40.5291 42.896C40.2282 43.2485 39.8113 43.479 39.397 43.6864C38.6889 44.0409 37.9561 44.3526 37.2901 44.7806C36.8449 45.0667 36.4333 45.4026 36.0477 45.7651C35.7183 46.0749 35.4058 46.406 35.0374 46.668C34.6641 46.9336 34.2334 47.1248 33.7801 47.1916C33.2277 47.273 32.6578 47.1674 32.1445 46.9479C31.7866 46.7948 31.4409 46.5758 31.2336 46.2464C31.0274 45.9186 30.9793 45.5161 30.978 45.1288C30.9764 44.4443 31.1056 43.7672 31.2273 43.0936C31.3284 42.5337 31.4246 41.9727 31.4858 41.4072C31.5973 40.379 31.5921 39.3406 31.5224 38.3089C31.5108 38.136 31.4974 37.9614 31.5239 37.7903C31.5505 37.6192 31.6214 37.4487 31.7527 37.3356C31.8758 37.2295 32.0411 37.183 32.2036 37.1745C32.3661 37.166 32.5276 37.1923 32.6884 37.2158C33.067 37.2716 33.4489 37.3135 33.8195 37.4091C34.0531 37.4695 34.2809 37.5509 34.514 37.613C34.9036 37.717 35.3109 37.7665 35.7115 37.7203C36.1424 37.6705 36.5617 37.5111 36.9955 37.5215C37.1733 37.5258 37.3499 37.559 37.5203 37.6117C37.6934 37.665 37.8648 37.7412 37.9919 37.8701C38.0879 37.9671 38.1541 38.0898 38.2069 38.2158C38.2853 38.4033 38.3362 38.6037 38.3404 38.807C38.3448 39.0192 38.2983 39.2323 38.3271 39.4425C38.3504 39.6132 38.4227 39.7742 38.515 39.9197C38.6073 40.0653 38.7197 40.1965 38.831 40.3281C39.0461 40.5823 39.2619 40.8413 39.5316 41.0364C39.8388 41.2586 40.2033 41.3884 40.5206 41.596C40.6151 41.6578 40.7067 41.7277 40.7733 41.8189C40.829 41.8966 40.8651 41.9865 40.8787 42.0811C40.8923 42.1757 40.883 42.2722 40.8515 42.3624H40.8511Z" fill="#CD8907"/>
</g>
<g filter="url(#filter23_f_48504_9947)">
<path d="M40.8072 42.1436C40.721 42.3389 40.6093 42.5209 40.4764 42.6823C40.1682 43.0571 39.752 43.3152 39.3135 43.4807C38.5916 43.7535 37.8036 43.79 37.095 44.1006C36.6632 44.2898 36.2747 44.575 35.881 44.8446C35.5628 45.0623 35.2379 45.2722 34.8885 45.4244C34.4941 45.5965 34.0745 45.693 33.6535 45.7609C33.3858 45.8041 33.1148 45.8356 32.8443 45.8206C32.5739 45.8057 32.3026 45.7424 32.0641 45.6045C31.8831 45.4999 31.7205 45.3494 31.6237 45.1541C31.5163 44.9371 31.4977 44.6824 31.5003 44.4363C31.5068 43.7809 31.6472 43.1326 31.6429 42.4772C31.6391 41.9067 31.5262 41.3434 31.4937 40.774C31.4311 39.6788 31.6662 38.5646 31.4593 37.4903C31.4264 37.3183 31.3817 37.1465 31.3839 36.9709C31.385 36.8829 31.3982 36.7949 31.429 36.7136C31.4597 36.6322 31.5096 36.5584 31.5757 36.507C31.6315 36.4638 31.6974 36.4376 31.7651 36.4257C31.8328 36.4138 31.9021 36.4161 31.9701 36.4268C32.1059 36.4479 32.2353 36.5012 32.3674 36.5405C32.7457 36.6532 33.1453 36.6507 33.5295 36.7358C33.7708 36.7892 34.0044 36.8763 34.2431 36.9417C34.644 37.0498 35.062 37.0981 35.4732 37.0498C35.9156 36.998 36.3476 36.8375 36.7922 36.8491C36.9745 36.8537 37.1555 36.8877 37.3313 36.9402C37.5071 36.9926 37.6828 37.0667 37.8158 37.201C37.9117 37.298 37.9804 37.4218 38.0365 37.5499C38.1181 37.737 38.175 37.9404 38.1737 38.1469C38.173 38.2545 38.1565 38.3612 38.1469 38.468C38.1373 38.5748 38.1343 38.6847 38.1598 38.7886C38.1853 38.8925 38.2391 38.9873 38.3005 39.0726C38.362 39.158 38.4315 39.2363 38.495 39.3199C38.6728 39.5541 38.7999 39.827 38.9384 40.0902C39.0768 40.3534 39.2321 40.6139 39.4509 40.8033C39.7487 41.0614 40.135 41.1645 40.4668 41.3683C40.5642 41.428 40.6583 41.4979 40.7266 41.5936C40.7813 41.6707 40.8174 41.7612 40.8314 41.8571C40.8454 41.953 40.837 42.0511 40.8069 42.1426L40.8072 42.1436Z" fill="#F5C021"/>
</g>
<g filter="url(#filter24_f_48504_9947)">
<path d="M31.3841 37.5933C31.7944 37.4822 32.1439 37.7933 32.4415 38.0282C32.6338 38.1923 32.9116 38.1509 33.1476 38.1587C33.5384 38.1446 33.9274 38.2242 34.3184 38.1757C35.0881 38.1106 35.8426 37.9215 36.616 37.8876C36.9855 37.8643 37.4001 37.8429 37.7193 38.0586C37.8487 38.1483 38.0383 38.5271 38.1659 38.3849C38.1133 37.9868 37.8181 37.6013 37.4219 37.4953C37.1119 37.4465 36.7956 37.5316 36.4837 37.5041C35.5539 37.4819 34.6307 37.3093 33.6986 37.3588C33.0503 37.3644 32.4026 37.3344 31.7552 37.3091C31.5009 37.2571 31.4111 37.4832 31.2729 37.5696" fill="url(#paint19_linear_48504_9947)"/>
</g>
<g opacity="0.75" filter="url(#filter25_f_48504_9947)">
<path d="M33.2237 30.0242C33.3725 30.0012 34.2906 30.7817 34.1651 31.073C34.0396 31.3642 33.8037 31.1881 33.6351 31.1901C33.4664 31.192 33.0049 31.4015 32.9276 31.2694C32.8503 31.1372 33.1317 30.8284 33.279 30.5705C33.3976 30.3627 33.0749 30.0487 33.2238 30.0256L33.2237 30.0242Z" fill="#7C7C7C"/>
</g>
<g opacity="0.25" filter="url(#filter26_f_48504_9947)">
<path d="M20.2688 25.1114C20.254 24.9315 19.9972 24.9046 19.8826 24.9943C19.7859 25.0701 19.6952 25.3288 19.7787 25.4301C19.9143 25.5941 20.2891 25.3581 20.2688 25.1116L20.2688 25.1114Z" fill="#7C7C7C"/>
</g>
<g opacity="0.35" filter="url(#filter27_f_48504_9947)">
<path d="M36.9169 38.2184C36.8464 38.0803 36.7182 37.9771 36.575 37.9174C36.4318 37.8576 36.2747 37.8385 36.1198 37.8397C35.8098 37.8422 35.5016 37.9229 35.1929 37.8961C34.9319 37.8735 34.6843 37.7754 34.4288 37.7136C34.1661 37.6509 33.8874 37.6259 33.6265 37.6957C33.3476 37.7716 33.1016 37.958 32.9476 38.2023C32.8118 38.4178 32.7471 38.6724 32.7271 38.9263C32.7071 39.1803 32.7287 39.4357 32.7544 39.6892C32.7729 39.8726 32.7937 40.0562 32.8381 40.2353C32.8824 40.4144 32.9513 40.5889 33.0593 40.7382C33.2146 40.9532 33.4455 41.1065 33.6944 41.1986C34.1055 41.3488 34.5578 41.3409 34.9635 41.1764C35.6725 40.8686 36.2725 40.3166 36.6382 39.6357C36.7691 39.3919 36.8709 39.1322 36.9366 38.8635C36.9627 38.7566 36.9832 38.6478 36.9842 38.5378C36.9852 38.4278 36.9658 38.3161 36.9158 38.2184H36.9169Z" fill="url(#paint20_radial_48504_9947)"/>
</g>
<g opacity="0.35" filter="url(#filter28_f_48504_9947)">
<path d="M36.9169 38.0735C36.8464 37.9737 36.7182 37.8991 36.575 37.8559C36.4318 37.8127 36.2747 37.7989 36.1198 37.7998C35.8098 37.8016 35.5016 37.8599 35.1929 37.8405C34.9319 37.8242 34.6843 37.7533 34.4288 37.7086C34.1661 37.6633 33.8874 37.6452 33.6265 37.6956C33.3476 37.7505 33.1016 37.8852 32.9476 38.0619C32.8118 38.2177 32.7471 38.4018 32.7271 38.5853C32.7071 38.7689 32.7287 38.9535 32.7544 39.1368C32.7729 39.2694 32.7937 39.4021 32.8381 39.5316C32.8824 39.6611 32.9513 39.7872 33.0593 39.8952C33.2146 40.0506 33.4455 40.1614 33.6944 40.228C34.1055 40.3366 34.5578 40.3309 34.9635 40.2119C35.6725 39.9895 36.2725 39.5904 36.6382 39.0981C36.7691 38.9219 36.8709 38.7341 36.9366 38.5399C36.9627 38.4626 36.9832 38.3839 36.9842 38.3044C36.9852 38.2249 36.9658 38.1441 36.9158 38.0735H36.9169Z" fill="url(#paint21_radial_48504_9947)"/>
</g>
<path d="M37.5063 36.9266C37.4556 36.7884 37.3663 36.6659 37.257 36.5671C37.1478 36.4684 37.019 36.3928 36.8834 36.3352C36.6122 36.2199 36.3172 36.1773 36.0276 36.1227L35.2099 35.9628C34.9256 35.9144 34.6314 35.8836 34.35 35.9471C34.1037 36.0026 33.876 36.13 33.6896 36.3003C33.5032 36.4707 33.3577 36.6831 33.2531 36.9141C33.0687 37.3187 33.0107 37.774 33.0459 38.2172C33.0722 38.547 33.1555 38.8869 33.3728 39.1366C33.5482 39.3383 33.7971 39.4642 34.0535 39.54C34.495 39.6706 34.9763 39.6637 35.4138 39.5206C36.1415 39.2746 36.7708 38.8013 37.2088 38.1704C37.3516 37.9637 37.4734 37.7385 37.5286 37.4936C37.5707 37.3057 37.5722 37.1078 37.5063 36.928V36.9266Z" fill="#020204"/>
<g filter="url(#filter29_f_48504_9947)">
<path d="M34.5038 35.8153C34.4355 35.819 34.3675 35.8269 34.3002 35.8389C33.8656 35.9162 33.4676 36.1909 33.2434 36.5709C33.0852 36.8418 33.0128 37.1544 33.036 37.4673C33.0451 37.2491 33.1023 37.0355 33.2082 36.8447C33.3878 36.5213 33.7132 36.2773 34.0773 36.2106C34.3027 36.1696 34.5322 36.1944 34.7584 36.2224C34.9755 36.2495 35.1943 36.2779 35.4083 36.3243C35.739 36.3959 36.0664 36.5059 36.344 36.7C36.4086 36.7451 36.4692 36.7965 36.5201 36.8566C36.5709 36.9167 36.6105 36.9866 36.6258 37.064C36.6481 37.1773 36.6158 37.2962 36.5594 37.3967C36.5031 37.4973 36.426 37.5855 36.344 37.6668C36.2776 37.7327 36.2068 37.7963 36.1365 37.8585C36.4572 37.7963 36.7819 37.7084 37.0484 37.5219C37.1612 37.443 37.2633 37.3484 37.3303 37.2283C37.3973 37.1081 37.4257 36.9627 37.3929 36.8291C37.3707 36.7389 37.3215 36.6559 37.2599 36.5864C37.1983 36.5169 37.1246 36.4597 37.0486 36.4064C36.7129 36.1713 36.3202 36.0206 35.9135 35.9718C35.6529 35.9238 35.3899 35.8833 35.1268 35.8503C34.921 35.8245 34.7109 35.8035 34.5043 35.8152L34.5038 35.8153Z" fill="url(#paint22_radial_48504_9947)"/>
</g>
<g filter="url(#filter30_f_48504_9947)">
<path d="M34.5038 35.8153C34.4355 35.819 34.3675 35.8269 34.3002 35.8389C33.8656 35.9162 33.4676 36.1909 33.2434 36.5709C33.0852 36.8418 33.0128 37.1544 33.036 37.4673C33.0451 37.2491 33.1023 37.0355 33.2082 36.8447C33.3878 36.5213 33.7132 36.2773 34.0773 36.2106C34.3027 36.1696 34.5322 36.1944 34.7584 36.2224C34.9755 36.2495 35.1943 36.2779 35.4083 36.3243C35.739 36.3959 36.0664 36.5059 36.344 36.7C36.4086 36.7451 36.4692 36.7965 36.5201 36.8566C36.5709 36.9167 36.6105 36.9866 36.6258 37.064C36.6481 37.1773 36.6158 37.2962 36.5594 37.3967C36.5031 37.4973 36.426 37.5855 36.344 37.6668C36.2776 37.7327 36.2068 37.7963 36.1365 37.8585C36.4572 37.7963 36.7819 37.7084 37.0484 37.5219C37.1612 37.443 37.2633 37.3484 37.3303 37.2283C37.3973 37.1081 37.4257 36.9627 37.3929 36.8291C37.3707 36.7389 37.3215 36.6559 37.2599 36.5864C37.1983 36.5169 37.1246 36.4597 37.0486 36.4064C36.7129 36.1713 36.3202 36.0206 35.9135 35.9718C35.6529 35.9238 35.3899 35.8833 35.1268 35.8503C34.921 35.8245 34.7109 35.8035 34.5043 35.8152L34.5038 35.8153Z" fill="url(#paint23_linear_48504_9947)"/>
</g>
<path d="M20.2595 24.288L18.1395 26.942C17.6965 27.492 17.2435 28.044 16.9555 28.687C16.7075 29.24 16.5905 29.84 16.4215 30.422C16.2285 31.082 15.9675 31.722 15.6735 32.342L14.8035 34.037C14.5855 34.445 14.3635 34.861 14.2885 35.317C14.2285 35.677 14.2635 36.049 14.3555 36.403C14.4475 36.757 14.5955 37.103 14.7615 37.418C15.4615 38.805 16.5365 40.001 17.7985 40.916C18.3715 41.331 18.9845 41.69 19.6285 41.984C19.9785 42.144 20.3445 42.284 20.7285 42.292C20.9205 42.295 21.1135 42.264 21.2885 42.187C21.4635 42.11 21.6205 41.987 21.7245 41.825C21.8525 41.627 21.8965 41.382 21.8705 41.148C21.8396 40.9134 21.7577 40.6885 21.6305 40.489C21.3305 39.999 20.8585 39.642 20.4035 39.289L17.5635 36.889C17.3065 36.649 17.0505 36.403 16.8705 36.102C16.6955 35.808 16.6005 35.474 16.5375 35.138C16.3625 34.218 16.4075 33.248 16.7205 32.366C16.8435 32.02 17.0045 31.691 17.1605 31.359C17.4305 30.784 17.6875 30.199 18.0435 29.672C18.4865 29.017 19.0795 28.472 19.4405 27.758C19.7455 27.164 19.8685 26.496 19.9865 25.838L20.2605 24.295L20.2595 24.288Z" fill="#020204"/>
<g opacity="0.95" filter="url(#filter31_f_48504_9947)">
<path d="M18.2341 29.2785C17.9429 29.5467 17.6918 29.8554 17.4884 30.1951C17.1542 30.7538 16.9573 31.3811 16.7145 31.9851C16.5337 32.4348 16.3231 32.8861 16.2978 33.37C16.2849 33.6185 16.3216 33.8668 16.33 34.1155C16.3384 34.3643 16.3152 34.6229 16.1922 34.8401C16.0904 35.0217 15.9209 35.1645 15.7246 35.2339C15.9913 35.3237 16.2244 35.4926 16.3929 35.718C16.5325 35.9059 16.6219 36.1256 16.7431 36.3255C16.8417 36.4881 16.9627 36.6387 17.1117 36.757C17.2608 36.8754 17.4387 36.96 17.6274 36.9841C17.7573 36.9999 17.8891 36.9874 18.0137 36.9476C18.1383 36.9078 18.2529 36.8416 18.3496 36.7534C18.1085 34.4942 18.3293 32.1868 18.9947 30.0144C19.0366 29.8772 19.0807 29.739 19.0911 29.596C19.1015 29.453 19.0748 29.3019 18.9879 29.1879C18.9416 29.1272 18.8792 29.0789 18.8088 29.0491C18.7384 29.0193 18.6602 29.0084 18.5846 29.0175C18.5089 29.0267 18.4355 29.0559 18.3741 29.1015C18.3128 29.1471 18.2636 29.2088 18.233 29.2787L18.2341 29.2785Z" fill="#7C7C7C"/>
</g>
<path d="M15.1333 36.3871C15.3337 36.304 15.5589 36.2889 15.7721 36.3282C15.9853 36.3675 16.1867 36.4597 16.3662 36.5815C16.725 36.8252 16.991 37.18 17.2459 37.531C17.8311 38.3369 18.3946 39.1596 18.905 40.0149C19.3191 40.7086 19.6997 41.4249 20.1782 42.0758C20.4906 42.5007 20.8429 42.895 21.1568 43.3186C21.4707 43.7423 21.7491 44.2025 21.8883 44.7112C22.0692 45.3722 21.9992 46.1007 21.6845 46.7095C21.4632 47.1378 21.1239 47.5051 20.711 47.7541C20.2982 48.0031 19.8129 48.1317 19.3311 48.1136C18.5653 48.0848 17.8656 47.7021 17.1536 47.4184C15.7031 46.8407 14.1273 46.6593 12.6321 46.2094C12.1724 46.0711 11.7207 45.9075 11.2579 45.7803C11.0525 45.7239 10.8433 45.674 10.6492 45.5861C10.455 45.4982 10.2734 45.3669 10.1654 45.1831C10.082 45.0411 10.0467 44.8738 10.0489 44.7089C10.0512 44.5441 10.0898 44.3814 10.1459 44.2264C10.2581 43.9165 10.4394 43.6359 10.5617 43.3299C10.7615 42.8301 10.7975 42.2792 10.7706 41.7416C10.7436 41.204 10.6566 40.6712 10.6196 40.1345C10.6033 39.8948 10.5971 39.6519 10.6428 39.416C10.6885 39.1801 10.7901 38.9494 10.9632 38.7828C11.1228 38.6291 11.3346 38.5379 11.5514 38.4926C11.7683 38.4472 11.9917 38.4454 12.2133 38.4502C12.4349 38.4551 12.6567 38.467 12.8777 38.449C13.0987 38.431 13.3202 38.3814 13.5128 38.2714C13.6957 38.1669 13.8452 38.0115 13.9692 37.8412C14.0932 37.671 14.1934 37.4847 14.2962 37.3009C14.3989 37.117 14.5051 36.9336 14.6396 36.7715C14.7742 36.6094 14.939 36.468 15.1335 36.3873L15.1333 36.3871Z" fill="url(#paint24_linear_48504_9947)"/>
<g filter="url(#filter32_f_48504_9947)">
<path d="M15.4492 36.7328C15.6314 36.6593 15.8367 36.6513 16.0282 36.6947C16.2198 36.738 16.3978 36.8325 16.5528 36.9511C16.8632 37.1908 17.0789 37.529 17.2861 37.8617C17.7834 38.6675 18.2694 39.4819 18.7286 40.3127C19.0765 40.9381 19.4082 41.577 19.8355 42.1515C20.1191 42.5326 20.4427 42.8818 20.7322 43.2585C21.0216 43.6351 21.2796 44.0454 21.4077 44.5027C21.5725 45.0922 21.5058 45.7428 21.2204 46.2855C21.0138 46.6769 20.7021 47.0028 20.3203 47.2266C19.9376 47.4491 19.4991 47.5572 19.0568 47.5383C18.3556 47.5059 17.7153 47.1557 17.0551 46.9182C15.7896 46.459 14.418 46.3974 13.1199 46.0389C12.6546 45.9126 12.2009 45.7442 11.7333 45.6263C11.5264 45.574 11.3158 45.5315 11.1193 45.4484C10.9227 45.3654 10.7376 45.2367 10.631 45.052C10.5517 44.9145 10.52 44.7528 10.5249 44.5943C10.5298 44.4357 10.57 44.2811 10.6251 44.1315C10.7381 43.835 10.9157 43.5679 11.0297 43.2704C11.2026 42.8227 11.2239 42.3304 11.1918 41.8517C11.1597 41.3729 11.0765 40.8984 11.0474 40.4194C11.0343 40.2052 11.0323 39.9885 11.0757 39.7786C11.119 39.5687 11.2105 39.3652 11.3631 39.2134C11.5285 39.0493 11.7565 38.9599 11.9866 38.9248C12.2167 38.8897 12.4508 38.905 12.6824 38.9257C12.914 38.9464 13.1465 38.9724 13.3788 38.9585C13.6112 38.9446 13.8468 38.888 14.039 38.7572C14.214 38.6388 14.3454 38.4661 14.4453 38.2815C14.5453 38.0968 14.6167 37.8988 14.6928 37.7031C14.769 37.5075 14.8515 37.3121 14.9712 37.1395C15.0908 36.9669 15.2512 36.8132 15.4479 36.7343" fill="#D99A03"/>
</g>
<g filter="url(#filter33_f_48504_9947)">
<path d="M15.2806 36.2775C15.4573 36.1899 15.6652 36.1719 15.8588 36.2114C16.0525 36.2509 16.2319 36.3455 16.3844 36.4693C16.6895 36.7153 16.883 37.0689 17.0634 37.4146C17.4773 38.2086 17.8629 39.0199 18.3583 39.7676C18.7178 40.3088 19.1324 40.8153 19.4959 41.3551C19.989 42.087 20.3898 42.8922 20.5551 43.7547C20.6664 44.3348 20.6629 44.9602 20.3833 45.484C20.1991 45.8279 19.901 46.1113 19.5487 46.2866C19.1963 46.4619 18.7917 46.5347 18.3975 46.4999C17.777 46.4452 17.2133 46.1401 16.6292 45.9273C15.5927 45.5497 14.4725 45.4595 13.4057 45.1745C12.9558 45.0543 12.5164 44.8995 12.0592 44.8054C11.858 44.7634 11.6528 44.7329 11.4608 44.6603C11.2688 44.5877 11.0868 44.4676 10.9886 44.29C10.9197 44.165 10.8963 44.0188 10.9067 43.8771C10.917 43.7353 10.9593 43.5972 11.015 43.4659C11.1262 43.2034 11.2906 42.9628 11.3783 42.6915C11.5052 42.2927 11.453 41.8603 11.3577 41.453C11.2624 41.0457 11.1251 40.646 11.0829 40.2302C11.0641 40.0451 11.0645 39.8563 11.1067 39.6748C11.1489 39.4934 11.2353 39.3191 11.371 39.1889C11.5455 39.0214 11.7899 38.938 12.0327 38.9146C12.2756 38.8912 12.5203 38.9232 12.7618 38.9577C13.0033 38.9921 13.2463 39.0315 13.4902 39.0192C13.734 39.0069 13.9822 38.9441 14.1732 38.7948C14.3621 38.6472 14.4809 38.4274 14.549 38.1999C14.6171 37.9725 14.6392 37.7347 14.6671 37.4992C14.695 37.2638 14.7297 37.0261 14.8212 36.8067C14.9126 36.5872 15.0667 36.385 15.2821 36.2781L15.2806 36.2775Z" fill="#F5BD0C"/>
</g>
<g filter="url(#filter34_f_48504_9947)">
<path d="M17.4917 38.2596C17.8181 38.85 18.0173 39.5275 18.341 40.1229C18.6388 40.6705 18.9778 41.2345 19.2804 41.7395C19.4151 41.9644 19.7292 42.3101 20.047 42.8465C20.3349 43.3325 20.6255 44.011 20.7882 44.2389C20.6947 43.972 20.5026 43.2559 20.2734 42.7454C20.0604 42.2681 19.8099 41.9961 19.6562 41.7395C19.3536 41.2345 19.0278 40.7805 18.7168 40.299C18.2877 39.6349 17.9607 38.8917 17.4917 38.2598V38.2596Z" fill="url(#paint25_linear_48504_9947)"/>
</g>
<path d="M50.1299 23.524H54.0299V32.924H59.6269V36.162H50.1299V23.524ZM62.1769 23.524H66.0769V36.172H62.1769V23.524ZM68.9799 23.524H72.9669L76.6499 30.294H76.6879V23.524H80.3709V36.172H76.5709L72.6929 29.267H72.6549V36.172H68.9719L68.9799 23.524ZM94.7799 31.284C94.7799 34.81 92.9199 36.484 89.0199 36.484C85.1199 36.484 83.2439 34.819 83.2439 31.284V23.522H87.1439V30.416C87.1439 31.691 87.1439 33.323 89.0419 33.323C90.9399 33.323 90.8859 31.696 90.8859 30.416V23.522H94.7859V31.284H94.7799ZM100.98 29.441L96.8199 23.524H101.392L103.292 26.964L105.174 23.524H109.497L105.44 29.479L109.953 36.172H105.261L103.097 32.402L100.867 36.172H96.4029L100.98 29.441Z" fill="#003764"/>
<defs>
<filter id="filter0_f_48504_9947" x="20.7048" y="20.7235" width="9.03233" height="5.75731" filterUnits="userSpaceOnUse" color-interpolation-filters="sRGB">
<feFlood flood-opacity="0" result="BackgroundImageFix"/>
<feBlend mode="normal" in="SourceGraphic" in2="BackgroundImageFix" result="shape"/>
<feGaussianBlur stdDeviation="0.255031" result="effect1_foregroundBlur_48504_9947"/>
</filter>
<filter id="filter1_f_48504_9947" x="20.9214" y="20.6599" width="8.11614" height="3.93255" filterUnits="userSpaceOnUse" color-interpolation-filters="sRGB">
<feFlood flood-opacity="0" result="BackgroundImageFix"/>
<feBlend mode="normal" in="SourceGraphic" in2="BackgroundImageFix" result="shape"/>
<feGaussianBlur stdDeviation="0.112044" result="effect1_foregroundBlur_48504_9947"/>
</filter>
<filter id="filter2_f_48504_9947" x="20.8163" y="18.5841" width="8.23417" height="4.49125" filterUnits="userSpaceOnUse" color-interpolation-filters="sRGB">
<feFlood flood-opacity="0" result="BackgroundImageFix"/>
<feBlend mode="normal" in="SourceGraphic" in2="BackgroundImageFix" result="shape"/>
<feGaussianBlur stdDeviation="0.17048" result="effect1_foregroundBlur_48504_9947"/>
</filter>
<filter id="filter3_f_48504_9947" x="26.7643" y="12.0416" width="3.068" height="2.96009" filterUnits="userSpaceOnUse" color-interpolation-filters="sRGB">
<feFlood flood-opacity="0" result="BackgroundImageFix"/>
<feBlend mode="normal" in="SourceGraphic" in2="BackgroundImageFix" result="shape"/>
<feGaussianBlur stdDeviation="0.251131" result="effect1_foregroundBlur_48504_9947"/>
</filter>
<filter id="filter4_f_48504_9947" x="26.8942" y="18.3335" width="0.598393" height="0.48267" filterUnits="userSpaceOnUse" color-interpolation-filters="sRGB">
<feFlood flood-opacity="0" result="BackgroundImageFix"/>
<feBlend mode="normal" in="SourceGraphic" in2="BackgroundImageFix" result="shape"/>
<feGaussianBlur stdDeviation="0.03119" result="effect1_foregroundBlur_48504_9947"/>
</filter>
<filter id="filter5_f_48504_9947" x="26.8299" y="17.724" width="1.13407" height="1.12137" filterUnits="userSpaceOnUse" color-interpolation-filters="sRGB">
<feFlood flood-opacity="0" result="BackgroundImageFix"/>
<feBlend mode="normal" in="SourceGraphic" in2="BackgroundImageFix" result="shape"/>
<feGaussianBlur stdDeviation="0.0650105" result="effect1_foregroundBlur_48504_9947"/>
</filter>
<filter id="filter6_f_48504_9947" x="27.1939" y="15.4445" width="1.99603" height="1.84759" filterUnits="userSpaceOnUse" color-interpolation-filters="sRGB">
<feFlood flood-opacity="0" result="BackgroundImageFix"/>
<feBlend mode="normal" in="SourceGraphic" in2="BackgroundImageFix" result="shape"/>
<feGaussianBlur stdDeviation="0.0185386" result="effect1_foregroundBlur_48504_9947"/>
</filter>
<filter id="filter7_f_48504_9947" x="22.0218" y="15.6925" width="1.86452" height="1.64686" filterUnits="userSpaceOnUse" color-interpolation-filters="sRGB">
<feFlood flood-opacity="0" result="BackgroundImageFix"/>
<feBlend mode="normal" in="SourceGraphic" in2="BackgroundImageFix" result="shape"/>
<feGaussianBlur stdDeviation="0.0169102" result="effect1_foregroundBlur_48504_9947"/>
</filter>
<filter id="filter8_f_48504_9947" x="22.1439" y="17.8441" width="0.914262" height="1.31197" filterUnits="userSpaceOnUse" color-interpolation-filters="sRGB">
<feFlood flood-opacity="0" result="BackgroundImageFix"/>
<feBlend mode="normal" in="SourceGraphic" in2="BackgroundImageFix" result="shape"/>
<feGaussianBlur stdDeviation="0.0642589" result="effect1_foregroundBlur_48504_9947"/>
</filter>
<filter id="filter9_f_48504_9947" x="22.7753" y="21.9447" width="2.1897" height="1.67432" filterUnits="userSpaceOnUse" color-interpolation-filters="sRGB">
<feFlood flood-opacity="0" result="BackgroundImageFix"/>
<feBlend mode="normal" in="SourceGraphic" in2="BackgroundImageFix" result="shape"/>
<feGaussianBlur stdDeviation="0.11261" result="effect1_foregroundBlur_48504_9947"/>
</filter>
<filter id="filter10_f_48504_9947" x="21.2554" y="19.9642" width="7.00626" height="3.25113" filterUnits="userSpaceOnUse" color-interpolation-filters="sRGB">
<feFlood flood-opacity="0" result="BackgroundImageFix"/>
<feBlend mode="normal" in="SourceGraphic" in2="BackgroundImageFix" result="shape"/>
<feGaussianBlur stdDeviation="0.0949478" result="effect1_foregroundBlur_48504_9947"/>
</filter>
<filter id="filter11_f_48504_9947" x="24.1154" y="20.0642" width="2.01084" height="2.38339" filterUnits="userSpaceOnUse" color-interpolation-filters="sRGB">
<feFlood flood-opacity="0" result="BackgroundImageFix"/>
<feBlend mode="normal" in="SourceGraphic" in2="BackgroundImageFix" result="shape"/>
<feGaussianBlur stdDeviation="0.106347" result="effect1_foregroundBlur_48504_9947"/>
</filter>
<filter id="filter12_f_48504_9947" x="24.8338" y="19.4368" width="0.764587" height="0.427551" filterUnits="userSpaceOnUse" color-interpolation-filters="sRGB">
<feFlood flood-opacity="0" result="BackgroundImageFix"/>
<feBlend mode="normal" in="SourceGraphic" in2="BackgroundImageFix" result="shape"/>
<feGaussianBlur stdDeviation="0.0137787" result="effect1_foregroundBlur_48504_9947"/>
</filter>
<filter id="filter13_f_48504_9947" x="23.157" y="19.5013" width="0.339783" height="0.369202" filterUnits="userSpaceOnUse" color-interpolation-filters="sRGB">
<feFlood flood-opacity="0" result="BackgroundImageFix"/>
<feBlend mode="normal" in="SourceGraphic" in2="BackgroundImageFix" result="shape"/>
<feGaussianBlur stdDeviation="0.0137787" result="effect1_foregroundBlur_48504_9947"/>
</filter>
<filter id="filter14_f_48504_9947" x="27.9393" y="20.4716" width="0.894272" height="1.0565" filterUnits="userSpaceOnUse" color-interpolation-filters="sRGB">
<feFlood flood-opacity="0" result="BackgroundImageFix"/>
<feBlend mode="normal" in="SourceGraphic" in2="BackgroundImageFix" result="shape"/>
<feGaussianBlur stdDeviation="0.0427819" result="effect1_foregroundBlur_48504_9947"/>
</filter>
<filter id="filter15_f_48504_9947" x="31.4766" y="27.9031" width="4.2045" height="10.8335" filterUnits="userSpaceOnUse" color-interpolation-filters="sRGB">
<feFlood flood-opacity="0" result="BackgroundImageFix"/>
<feBlend mode="normal" in="SourceGraphic" in2="BackgroundImageFix" result="shape"/>
<feGaussianBlur stdDeviation="0.170876" result="effect1_foregroundBlur_48504_9947"/>
</filter>
<filter id="filter16_f_48504_9947" x="18.1765" y="26.2377" width="4.81879" height="4.53083" filterUnits="userSpaceOnUse" color-interpolation-filters="sRGB">
<feFlood flood-opacity="0" result="BackgroundImageFix"/>
<feBlend mode="normal" in="SourceGraphic" in2="BackgroundImageFix" result="shape"/>
<feGaussianBlur stdDeviation="0.0865343" result="effect1_foregroundBlur_48504_9947"/>
</filter>
<filter id="filter17_f_48504_9947" x="24.7774" y="25.7967" width="7.307" height="5.24048" filterUnits="userSpaceOnUse" color-interpolation-filters="sRGB">
<feFlood flood-opacity="0" result="BackgroundImageFix"/>
<feBlend mode="normal" in="SourceGraphic" in2="BackgroundImageFix" result="shape"/>
<feGaussianBlur stdDeviation="0.142547" result="effect1_foregroundBlur_48504_9947"/>
</filter>
<filter id="filter18_f_48504_9947" x="22.193" y="26.4213" width="3.1106" height="3.29835" filterUnits="userSpaceOnUse" color-interpolation-filters="sRGB">
<feFlood flood-opacity="0" result="BackgroundImageFix"/>
<feBlend mode="normal" in="SourceGraphic" in2="BackgroundImageFix" result="shape"/>
<feGaussianBlur stdDeviation="0.0983299" result="effect1_foregroundBlur_48504_9947"/>
</filter>
<filter id="filter19_f_48504_9947" x="22.1661" y="30.5208" width="1.25674" height="8.24404" filterUnits="userSpaceOnUse" color-interpolation-filters="sRGB">
<feFlood flood-opacity="0" result="BackgroundImageFix"/>
<feBlend mode="normal" in="SourceGraphic" in2="BackgroundImageFix" result="shape"/>
<feGaussianBlur stdDeviation="0.181127" result="effect1_foregroundBlur_48504_9947"/>
</filter>
<filter id="filter20_f_48504_9947" x="29.7362" y="21.8135" width="1.97683" height="2.14993" filterUnits="userSpaceOnUse" color-interpolation-filters="sRGB">
<feFlood flood-opacity="0" result="BackgroundImageFix"/>
<feBlend mode="normal" in="SourceGraphic" in2="BackgroundImageFix" result="shape"/>
<feGaussianBlur stdDeviation="0.11286" result="effect1_foregroundBlur_48504_9947"/>
</filter>
<filter id="filter21_f_48504_9947" x="82.3787" y="36.4484" width="12.2534" height="12.2651" filterUnits="userSpaceOnUse" color-interpolation-filters="sRGB">
<feFlood flood-opacity="0" result="BackgroundImageFix"/>
<feBlend mode="normal" in="SourceGraphic" in2="BackgroundImageFix" result="shape"/>
<feGaussianBlur stdDeviation="0.280396" result="effect1_foregroundBlur_48504_9947"/>
</filter>
<filter id="filter22_f_48504_9947" x="29.7808" y="35.9756" width="12.3012" height="12.4406" filterUnits="userSpaceOnUse" color-interpolation-filters="sRGB">
<feFlood flood-opacity="0" result="BackgroundImageFix"/>
<feBlend mode="normal" in="SourceGraphic" in2="BackgroundImageFix" result="shape"/>
<feGaussianBlur stdDeviation="0.598622" result="effect1_foregroundBlur_48504_9947"/>
</filter>
<filter id="filter23_f_48504_9947" x="30.4404" y="35.4743" width="11.3409" height="11.2935" filterUnits="userSpaceOnUse" color-interpolation-filters="sRGB">
<feFlood flood-opacity="0" result="BackgroundImageFix"/>
<feBlend mode="normal" in="SourceGraphic" in2="BackgroundImageFix" result="shape"/>
<feGaussianBlur stdDeviation="0.471697" result="effect1_foregroundBlur_48504_9947"/>
</filter>
<filter id="filter24_f_48504_9947" x="31.1529" y="37.1814" width="7.13307" height="1.35511" filterUnits="userSpaceOnUse" color-interpolation-filters="sRGB">
<feFlood flood-opacity="0" result="BackgroundImageFix"/>
<feBlend mode="normal" in="SourceGraphic" in2="BackgroundImageFix" result="shape"/>
<feGaussianBlur stdDeviation="0.06" result="effect1_foregroundBlur_48504_9947"/>
</filter>
<filter id="filter25_f_48504_9947" x="32.3403" y="29.4494" width="2.41068" height="2.4379" filterUnits="userSpaceOnUse" color-interpolation-filters="sRGB">
<feFlood flood-opacity="0" result="BackgroundImageFix"/>
<feBlend mode="normal" in="SourceGraphic" in2="BackgroundImageFix" result="shape"/>
<feGaussianBlur stdDeviation="0.287119" result="effect1_foregroundBlur_48504_9947"/>
</filter>
<filter id="filter26_f_48504_9947" x="19.5853" y="24.7842" width="0.844502" height="0.860615" filterUnits="userSpaceOnUse" color-interpolation-filters="sRGB">
<feFlood flood-opacity="0" result="BackgroundImageFix"/>
<feBlend mode="normal" in="SourceGraphic" in2="BackgroundImageFix" result="shape"/>
<feGaussianBlur stdDeviation="0.080144" result="effect1_foregroundBlur_48504_9947"/>
</filter>
<filter id="filter27_f_48504_9947" x="32.0068" y="36.9412" width="5.69011" height="5.07707" filterUnits="userSpaceOnUse" color-interpolation-filters="sRGB">
<feFlood flood-opacity="0" result="BackgroundImageFix"/>
<feBlend mode="normal" in="SourceGraphic" in2="BackgroundImageFix" result="shape"/>
<feGaussianBlur stdDeviation="0.356242" result="effect1_foregroundBlur_48504_9947"/>
</filter>
<filter id="filter28_f_48504_9947" x="32.443" y="37.389" width="4.81768" height="3.1928" filterUnits="userSpaceOnUse" color-interpolation-filters="sRGB">
<feFlood flood-opacity="0" result="BackgroundImageFix"/>
<feBlend mode="normal" in="SourceGraphic" in2="BackgroundImageFix" result="shape"/>
<feGaussianBlur stdDeviation="0.138135" result="effect1_foregroundBlur_48504_9947"/>
</filter>
<filter id="filter29_f_48504_9947" x="32.775" y="35.5551" width="4.88857" height="2.56008" filterUnits="userSpaceOnUse" color-interpolation-filters="sRGB">
<feFlood flood-opacity="0" result="BackgroundImageFix"/>
<feBlend mode="normal" in="SourceGraphic" in2="BackgroundImageFix" result="shape"/>
<feGaussianBlur stdDeviation="0.128393" result="effect1_foregroundBlur_48504_9947"/>
</filter>
<filter id="filter30_f_48504_9947" x="32.775" y="35.5551" width="4.88857" height="2.56008" filterUnits="userSpaceOnUse" color-interpolation-filters="sRGB">
<feFlood flood-opacity="0" result="BackgroundImageFix"/>
<feBlend mode="normal" in="SourceGraphic" in2="BackgroundImageFix" result="shape"/>
<feGaussianBlur stdDeviation="0.128393" result="effect1_foregroundBlur_48504_9947"/>
</filter>
<filter id="filter31_f_48504_9947" x="15.441" y="28.7308" width="3.93583" height="8.5435" filterUnits="userSpaceOnUse" color-interpolation-filters="sRGB">
<feFlood flood-opacity="0" result="BackgroundImageFix"/>
<feBlend mode="normal" in="SourceGraphic" in2="BackgroundImageFix" result="shape"/>
<feGaussianBlur stdDeviation="0.141795" result="effect1_foregroundBlur_48504_9947"/>
</filter>
<filter id="filter32_f_48504_9947" x="9.54137" y="35.6852" width="12.9378" height="12.8383" filterUnits="userSpaceOnUse" color-interpolation-filters="sRGB">
<feFlood flood-opacity="0" result="BackgroundImageFix"/>
<feBlend mode="normal" in="SourceGraphic" in2="BackgroundImageFix" result="shape"/>
<feGaussianBlur stdDeviation="0.491524" result="effect1_foregroundBlur_48504_9947"/>
</filter>
<filter id="filter33_f_48504_9947" x="10.2993" y="35.5865" width="10.9293" height="11.5269" filterUnits="userSpaceOnUse" color-interpolation-filters="sRGB">
<feFlood flood-opacity="0" result="BackgroundImageFix"/>
<feBlend mode="normal" in="SourceGraphic" in2="BackgroundImageFix" result="shape"/>
<feGaussianBlur stdDeviation="0.302509" result="effect1_foregroundBlur_48504_9947"/>
</filter>
<filter id="filter34_f_48504_9947" x="17.399" y="38.167" width="3.48177" height="6.16463" filterUnits="userSpaceOnUse" color-interpolation-filters="sRGB">
<feFlood flood-opacity="0" result="BackgroundImageFix"/>
<feBlend mode="normal" in="SourceGraphic" in2="BackgroundImageFix" result="shape"/>
<feGaussianBlur stdDeviation="0.0463466" result="effect1_foregroundBlur_48504_9947"/>
</filter>
<radialGradient id="paint0_radial_48504_9947" cx="0" cy="0" r="1" gradientUnits="userSpaceOnUse" gradientTransform="translate(47.9724 140.208) rotate(-2.41004) scale(3.88822 9.58074)">
<stop stop-color="#FEFEFC"/>
<stop offset="0.757" stop-color="#FEFEFC"/>
<stop offset="1" stop-color="#D4D4D4"/>
</radialGradient>
<radialGradient id="paint1_radial_48504_9947" cx="0" cy="0" r="1" gradientUnits="userSpaceOnUse" gradientTransform="translate(89.3855 144.064) rotate(-1.81001) scale(6.984 10.0917)">
<stop stop-color="#FEFEFC"/>
<stop offset="0.757" stop-color="#FEFEFC"/>
<stop offset="1" stop-color="#D4D4D4"/>
</radialGradient>
<radialGradient id="paint2_radial_48504_9947" cx="0" cy="0" r="1" gradientUnits="userSpaceOnUse" gradientTransform="translate(116.556 27.5913) rotate(-36.0084) scale(6.40425 4.24791)">
<stop stop-color="#020204"/>
<stop offset="0.734" stop-color="#020204"/>
<stop offset="1" stop-color="#5C5C5C"/>
</radialGradient>
<linearGradient id="paint3_linear_48504_9947" x1="291.785" y1="132.207" x2="297.555" y2="139.142" gradientUnits="userSpaceOnUse">
<stop stop-color="#949494" stop-opacity="0.392"/>
<stop offset="0.5" stop-color="#949494"/>
<stop offset="1" stop-color="#949494" stop-opacity="0.392"/>
</linearGradient>
<linearGradient id="paint4_linear_48504_9947" x1="556.165" y1="534.501" x2="660.497" y2="620.201" gradientUnits="userSpaceOnUse">
<stop stop-color="#747474"/>
<stop offset="0.125" stop-color="#8C8C8C"/>
<stop offset="0.25" stop-color="#A4A4A4"/>
<stop offset="0.5" stop-color="#D4D4D4"/>
<stop offset="0.619" stop-color="#D4D4D4"/>
<stop offset="1" stop-color="#7C7C7C"/>
</linearGradient>
<linearGradient id="paint5_linear_48504_9947" x1="57.0393" y1="202.69" x2="82.3124" y2="228.546" gradientUnits="userSpaceOnUse">
<stop stop-color="#646464" stop-opacity="0"/>
<stop offset="0.306" stop-color="#646464" stop-opacity="0.583"/>
<stop offset="0.47" stop-color="#646464"/>
<stop offset="0.728" stop-color="#646464" stop-opacity="0.257"/>
<stop offset="1" stop-color="#646464" stop-opacity="0"/>
</linearGradient>
<linearGradient id="paint6_linear_48504_9947" x1="-24.2518" y1="184.17" x2="-3.16423" y2="207.276" gradientUnits="userSpaceOnUse">
<stop stop-color="#646464" stop-opacity="0"/>
<stop offset="0.306" stop-color="#646464" stop-opacity="0.583"/>
<stop offset="0.47" stop-color="#646464"/>
<stop offset="0.728" stop-color="#646464" stop-opacity="0.257"/>
<stop offset="1" stop-color="#646464" stop-opacity="0"/>
</linearGradient>
<linearGradient id="paint7_linear_48504_9947" x1="130.103" y1="157.288" x2="137.283" y2="165.288" gradientUnits="userSpaceOnUse">
<stop stop-color="#757574" stop-opacity="0"/>
<stop offset="0.263" stop-color="#757574"/>
<stop offset="0.5" stop-color="#757574"/>
<stop offset="1" stop-color="#757574" stop-opacity="0"/>
</linearGradient>
<radialGradient id="paint8_radial_48504_9947" cx="0" cy="0" r="1" gradientUnits="userSpaceOnUse" gradientTransform="translate(2301.65 -359.786) rotate(-22.428) scale(240.926 83.7022)">
<stop stop-color="#D2940A"/>
<stop offset="0.751" stop-color="#D89C08"/>
<stop offset="0.866" stop-color="#B67E07"/>
<stop offset="1" stop-color="#946106"/>
</radialGradient>
<linearGradient id="paint9_linear_48504_9947" x1="375.136" y1="622.042" x2="801.737" y2="615.421" gradientUnits="userSpaceOnUse">
<stop stop-color="#AD780A"/>
<stop offset="0.12" stop-color="#D89E08"/>
<stop offset="0.255" stop-color="#EDB80B"/>
<stop offset="0.392" stop-color="#EBC80D"/>
<stop offset="0.527" stop-color="#F5D838"/>
<stop offset="0.769" stop-color="#F6D811"/>
<stop offset="1" stop-color="#F5CD31"/>
</linearGradient>
<radialGradient id="paint10_radial_48504_9947" cx="0" cy="0" r="1" gradientUnits="userSpaceOnUse" gradientTransform="translate(79.9711 51.4925) scale(2.29175 0.701612)">
<stop stop-color="#3A2903"/>
<stop offset="0.555" stop-color="#735208"/>
<stop offset="1" stop-color="#AC8C04"/>
</radialGradient>
<radialGradient id="paint11_radial_48504_9947" cx="0" cy="0" r="1" gradientUnits="userSpaceOnUse" gradientTransform="translate(41.1674 69.3089) scale(0.437286 0.518381)">
<stop stop-color="#3A2903"/>
<stop offset="0.555" stop-color="#735208"/>
<stop offset="1" stop-color="#AC8C04"/>
</radialGradient>
<linearGradient id="paint12_linear_48504_9947" x1="186.465" y1="159.581" x2="186.919" y2="161.936" gradientUnits="userSpaceOnUse">
<stop stop-color="#F5CE2D"/>
<stop offset="1" stop-color="#D79B08"/>
</linearGradient>
<radialGradient id="paint13_radial_48504_9947" cx="0" cy="0" r="1" gradientUnits="userSpaceOnUse" gradientTransform="translate(505.165 35.8543) rotate(-9.34942) scale(63.5787 27.2711)">
<stop stop-color="#C8C8C8"/>
<stop offset="1" stop-color="#797978"/>
</radialGradient>
<radialGradient id="paint14_radial_48504_9947" cx="0" cy="0" r="1" gradientUnits="userSpaceOnUse" gradientTransform="translate(-990.244 731.227) rotate(180) scale(85.5655 87.4989)">
<stop/>
<stop offset="1" stop-opacity="0.25"/>
</radialGradient>
<radialGradient id="paint15_radial_48504_9947" cx="0" cy="0" r="1" gradientUnits="userSpaceOnUse" gradientTransform="translate(2091.75 868.279) scale(184.53 97.6505)">
<stop/>
<stop offset="1" stop-opacity="0.25"/>
</radialGradient>
<radialGradient id="paint16_radial_48504_9947" cx="0" cy="0" r="1" gradientUnits="userSpaceOnUse" gradientTransform="translate(734.949 724.623) scale(29.469 33.6866)">
<stop/>
<stop offset="1" stop-opacity="0.25"/>
</radialGradient>
<linearGradient id="paint17_linear_48504_9947" x1="397.818" y1="3646.42" x2="439.046" y2="3953.82" gradientUnits="userSpaceOnUse">
<stop/>
<stop offset="1" stop-opacity="0"/>
</linearGradient>
<linearGradient id="paint18_linear_48504_9947" x1="4819.05" y1="4188.22" x2="5363.57" y2="3332.22" gradientUnits="userSpaceOnUse">
<stop stop-color="#3E2A06"/>
<stop offset="1" stop-color="#AD780A"/>
</linearGradient>
<linearGradient id="paint19_linear_48504_9947" x1="342.588" y1="360.226" x2="342.33" y2="374.59" gradientUnits="userSpaceOnUse">
<stop stop-color="#F3CD0C"/>
<stop offset="1" stop-color="#F3CD0C" stop-opacity="0"/>
</linearGradient>
<radialGradient id="paint20_radial_48504_9947" cx="0" cy="0" r="1" gradientUnits="userSpaceOnUse" gradientTransform="translate(1601.4 2087.71) rotate(15) scale(97.3083 87.4661)">
<stop stop-color="#110800"/>
<stop offset="0.591" stop-color="#A65A00" stop-opacity="0.8"/>
<stop offset="1" stop-color="#FF921E" stop-opacity="0"/>
</radialGradient>
<radialGradient id="paint21_radial_48504_9947" cx="0" cy="0" r="1" gradientUnits="userSpaceOnUse" gradientTransform="translate(1601.4 1519.7) rotate(10.9628) scale(95.7398 64.2674)">
<stop stop-color="#110800"/>
<stop offset="0.591" stop-color="#A65A00" stop-opacity="0.8"/>
<stop offset="1" stop-color="#FF921E" stop-opacity="0"/>
</radialGradient>
<radialGradient id="paint22_radial_48504_9947" cx="0" cy="0" r="1" gradientUnits="userSpaceOnUse" gradientTransform="translate(600.89 382.949) rotate(23.5217) scale(35.3021 7.63222)">
<stop stop-color="#7C7C7C"/>
<stop offset="1" stop-color="#7C7C7C" stop-opacity="0.33"/>
</radialGradient>
<linearGradient id="paint23_linear_48504_9947" x1="1601.41" y1="607.544" x2="1614.45" y2="606.382" gradientUnits="userSpaceOnUse">
<stop stop-color="#7C7C7C"/>
<stop offset="1" stop-color="#7C7C7C" stop-opacity="0.33"/>
</linearGradient>
<linearGradient id="paint24_linear_48504_9947" x1="1479.97" y1="3596.83" x2="2040.61" y2="4547.79" gradientUnits="userSpaceOnUse">
<stop stop-color="#B98309"/>
<stop offset="1" stop-color="#382605"/>
</linearGradient>
<linearGradient id="paint25_linear_48504_9947" x1="581.324" y1="1964.9" x2="689.674" y2="2077.35" gradientUnits="userSpaceOnUse">
<stop stop-color="#EBC40C"/>
<stop offset="1" stop-color="#EBC40C" stop-opacity="0"/>
</linearGradient>
</defs>
</svg>
