<svg width="120" height="60" viewBox="0 0 120 60" fill="none" xmlns="http://www.w3.org/2000/svg">
<path d="M17.57 30.5511C17.3271 30.2931 17.031 30.0881 16.7047 29.9439C16.3783 29.7997 16.0291 29.7314 15.6724 29.7314C15.3156 29.7238 14.9665 29.7997 14.6401 29.9363C14.3137 30.0805 14.0177 30.2855 13.7748 30.5436C13.5243 30.794 13.327 31.0901 13.1979 31.4164C13.0689 31.7504 13.0006 32.0996 13.0006 32.4487C12.993 32.8055 13.0613 33.1546 13.1979 33.481C13.3345 33.8074 13.5319 34.1034 13.7824 34.3539C14.0253 34.6121 14.3198 34.8164 14.6466 34.9537C14.9735 35.091 15.3255 35.1582 15.68 35.1509C16.0337 35.1528 16.3841 35.0832 16.7102 34.9463C17.0363 34.8093 17.3313 34.6078 17.5775 34.3539C17.8356 34.111 18.033 33.815 18.1696 33.4886C18.3062 33.1622 18.3745 32.8131 18.3745 32.4563C18.3745 32.0996 18.3062 31.7504 18.1696 31.424C18.0254 31.0901 17.828 30.794 17.57 30.5511ZM49.3356 24.3878C49.2976 26.088 49.3811 27.7958 49.5784 29.4885H49.4874C49.2748 29.071 48.8042 28.2968 48.0832 27.1658L30.7772 0H25.5246V34.6803H29.5627V9.60938C29.6082 8.023 29.5399 6.43661 29.3729 4.85023H29.5248C29.8132 5.60927 30.1851 6.33794 30.6254 7.02107L48.4019 34.6803H53.3736V0H49.3356V24.3878ZM80.752 30.8699H66.4821V18.8544H78.9683V15.1959H66.4821V3.67373H79.8791V0H62.3454V34.6803H80.7292L80.752 30.8699ZM83.8413 0V3.67373H93.7846V34.6803H97.8227V3.67373H107.88V0H83.8413ZM44.2652 43.3029C43.2566 43.7054 42.3457 44.3187 41.5934 45.1018C40.8192 45.9292 40.212 46.9007 39.8173 47.971C39.4226 49.0412 39.248 50.1722 39.2935 51.3031C39.2176 53.3981 39.9463 55.4475 41.3429 57.0111C42.0412 57.7474 42.8914 58.3166 43.8326 58.6961C44.7738 59.0757 45.7833 59.2427 46.7928 59.1971C48.3109 59.2502 49.8213 58.9314 51.1952 58.2635L51.2104 56.4949C49.9504 57.2312 48.5158 57.5956 47.0585 57.5576C46.2766 57.588 45.4948 57.4513 44.7738 57.1553C44.0527 56.8593 43.3999 56.4039 42.8686 55.827C41.7575 54.5364 41.1866 52.8672 41.2746 51.1665C41.1835 49.3676 41.7983 47.6067 42.9824 46.2556C43.5441 45.6332 44.2348 45.1474 45.0015 44.8134C45.771 44.4861 46.602 44.3282 47.438 44.3504C48.7663 44.3276 50.0718 44.654 51.2331 45.2992V43.394C50.0287 42.9083 48.7358 42.6808 47.438 42.7261C46.3526 42.7109 45.2671 42.9006 44.2652 43.3029ZM63.1879 48.7376C62.6806 48.2041 62.0638 47.7867 61.3798 47.5141C60.6959 47.2416 59.961 47.1204 59.2258 47.1588C58.444 47.1209 57.6698 47.2499 56.9411 47.5307C56.2124 47.8116 55.5521 48.2367 54.9904 48.7756C54.4439 49.3828 54.0264 50.0887 53.7531 50.8629C53.4799 51.6371 53.366 52.4493 53.4192 53.2691C53.3433 54.8251 53.8822 56.3507 54.9145 57.5121C55.4306 58.0661 56.053 58.5064 56.7513 58.8024C57.4496 59.0908 58.2011 59.2351 58.9525 59.2047C59.7192 59.2275 60.4858 59.0833 61.1993 58.7872C61.9128 58.4912 62.5504 58.0434 63.0741 57.4741C64.1386 56.2741 64.6892 54.7041 64.6073 53.1021C64.6984 51.5081 64.1899 49.9521 63.1879 48.7376ZM61.7989 56.5329C61.4649 56.9184 61.047 57.2222 60.5772 57.4209C60.1075 57.6196 59.5984 57.7079 59.0892 57.679C58.5654 57.7018 58.0493 57.6031 57.5711 57.4058C57.0929 57.2008 56.6678 56.8972 56.3187 56.5025C55.5912 55.602 55.2259 54.4626 55.294 53.307C55.2257 52.1153 55.59 50.9388 56.3187 49.9976C56.6602 49.6029 57.0853 49.2917 57.5635 49.0792C58.0417 48.8742 58.5654 48.7756 59.0816 48.7983C59.5977 48.768 60.1063 48.8666 60.5769 49.0716C61.0475 49.2765 61.4649 49.5877 61.7989 49.9824C62.4887 50.9367 62.8243 52.1016 62.7477 53.2766C62.8236 54.4304 62.4896 55.5917 61.7989 56.5329ZM70.5961 47.9938C70.0268 48.5023 69.6094 49.1627 69.4044 49.8989V47.5156H67.5068V58.9314H69.4044V53.1097C69.3437 52.0546 69.617 50.9995 70.1786 50.1039C70.3836 49.7775 70.6568 49.5042 70.9908 49.3145C71.3248 49.1247 71.6967 49.0109 72.0762 49.0033C72.562 48.9653 73.0478 49.0944 73.4577 49.3676V47.4852C73.1085 47.3714 72.7442 47.3182 72.3798 47.3334C71.7271 47.3258 71.0971 47.5611 70.5961 47.9938ZM84.5624 52.7074C84.6534 51.2576 84.2208 49.8306 83.3479 48.6769C82.9152 48.1911 82.3839 47.804 81.7843 47.5535C81.1847 47.303 80.5395 47.1892 79.8943 47.2271C79.1808 47.2044 78.4673 47.3486 77.8069 47.637C77.1542 47.9254 76.5697 48.3581 76.0991 48.9046C75.0685 50.1071 74.5339 51.6565 74.6038 53.2387C74.5051 54.8175 74.9985 56.3811 75.9853 57.6107C76.4635 58.1345 77.0555 58.5443 77.7083 58.8176C78.361 59.0908 79.0745 59.2047 79.7804 59.1743C81.1847 59.2427 82.5737 58.8631 83.7426 58.0889V56.3735C82.7439 57.185 81.4998 57.6344 80.2131 57.6487C79.7197 57.679 79.2188 57.6031 78.7557 57.421C78.2927 57.2388 77.8677 56.9731 77.5185 56.6164C76.8404 55.7956 76.4962 54.7496 76.5545 53.6865H84.5775L84.5624 52.7074ZM76.5394 52.176C76.638 51.2728 77.0327 50.4227 77.6551 49.7623C77.9341 49.4626 78.2727 49.2247 78.6492 49.0639C79.0257 48.903 79.4318 48.8229 79.8412 48.8287C80.2359 48.8059 80.623 48.8742 80.9873 49.026C81.3516 49.1779 81.6704 49.4056 81.9285 49.7016C82.4598 50.4075 82.7255 51.2728 82.6875 52.1533L76.5394 52.176Z" fill="#621EE5"/>
</svg>
