<svg width="172" height="60" viewBox="0 0 172 60" fill="none" xmlns="http://www.w3.org/2000/svg">
<path d="M71.9862 30.314C71.9862 25.272 70.5482 22.684 67.6732 22.542C66.5309 22.4869 65.3899 22.6744 64.3252 23.092C63.4582 23.392 62.8752 23.71 62.5672 24.02V36.055C64.4072 37.209 66.0402 37.755 67.4642 37.661C70.4782 37.461 71.9862 35.015 71.9862 30.314ZM75.5332 30.514C75.5332 33.076 74.9332 35.202 73.7332 36.894C72.3862 38.808 70.5202 39.794 68.1332 39.847C66.3332 39.904 64.4812 39.341 62.5752 38.16V49.098L59.4902 47.998V23.718C59.9962 23.098 60.6482 22.564 61.4372 22.112C63.2732 21.042 65.5042 20.492 68.1292 20.465L68.1732 20.509C70.5732 20.479 72.4232 21.464 73.7212 23.462C74.9332 25.295 75.5412 27.644 75.5412 30.516L75.5332 30.514ZM94.3852 37.7C94.3852 41.136 94.0412 43.515 93.3522 44.838C92.6632 46.161 91.3442 47.218 89.4002 48.004C87.8242 48.624 86.1202 48.962 84.3002 49.02L83.8002 47.076C85.6602 46.823 86.9702 46.57 87.7282 46.316C89.2232 45.81 90.2482 45.034 90.8132 43.994C91.2652 43.147 91.4882 41.53 91.4882 39.138V38.335C89.407 39.2861 87.1445 39.7753 84.8562 39.769C83.3362 39.769 81.9962 39.293 80.8432 38.335C79.5472 37.292 78.8992 35.969 78.8992 34.365V21.53L81.9842 20.474V33.396C81.9842 34.776 82.4292 35.839 83.3202 36.596C84.2112 37.353 85.3652 37.7 86.7802 37.673C88.1952 37.646 89.7102 37.096 91.3202 36.026V20.938H94.4052V37.7H94.3852ZM106.427 39.686L105.411 39.73C103.666 39.73 102.306 39.315 101.334 38.48C100.362 37.645 99.8792 36.496 99.8792 35.027V22.88H97.7662V20.94H99.8792V15.787L102.959 14.69V20.94H106.425V22.88H102.959V34.945C102.959 36.103 103.259 36.923 103.889 37.402C104.422 37.797 105.269 38.022 106.424 38.08V39.686H106.427ZM125.103 39.433H122.018V27.526C122.018 26.314 121.735 25.272 121.171 24.401C120.521 23.416 119.615 22.923 118.454 22.923C117.04 22.923 115.271 23.669 113.149 25.161V39.433H110.064V10.973L113.15 10V22.963C115.12 21.529 117.274 20.81 119.613 20.81C121.246 20.81 122.569 21.36 123.583 22.457C124.597 23.554 125.105 24.921 125.105 26.554V39.434L125.103 39.433ZM141.5 29.828C141.5 27.891 141.132 26.291 140.4 25.026C139.53 23.484 138.176 22.67 136.347 22.586C132.965 22.782 131.277 25.206 131.277 29.849C131.277 31.979 131.627 33.757 132.337 35.185C133.241 37.005 134.597 37.902 136.407 37.871C139.802 37.844 141.5 35.164 141.5 29.829V29.828ZM144.878 29.848C144.878 32.605 144.173 34.9 142.765 36.733C141.215 38.785 139.065 39.813 136.345 39.813C133.638 39.813 131.529 38.783 130.007 36.733C128.627 34.9 127.937 32.605 127.937 29.848C127.937 27.256 128.683 25.076 130.175 23.301C131.751 21.418 133.823 20.473 136.375 20.473C138.927 20.473 141.022 21.418 142.629 23.301C144.121 25.076 144.867 27.256 144.867 29.848H144.878ZM162.562 39.433H159.477V26.85C159.477 25.47 159.062 24.393 158.232 23.617C157.402 22.841 156.295 22.47 154.914 22.5C153.449 22.527 152.054 23.006 150.734 23.934V39.432H147.649V23.552C149.424 22.259 151.049 21.416 152.549 21.022C153.956 20.654 155.199 20.472 156.269 20.472C157.001 20.472 157.689 20.542 158.339 20.685C159.551 20.965 160.536 21.485 161.295 22.248C162.142 23.092 162.565 24.104 162.565 25.288V39.432L162.562 39.433Z" fill="#646464"/>
<path d="M29.0152 11.0861C27.4282 11.0931 25.9122 11.2291 24.5792 11.4661C20.6492 12.1601 19.9372 13.6131 19.9372 16.2921V19.8301H29.2212V21.0101H16.4532C13.7552 21.0101 11.3932 22.6321 10.6532 25.7171C9.80122 29.2531 9.75322 31.4601 10.6532 35.1521C11.3132 37.9001 12.8892 39.8591 15.5872 39.8591H18.7792V35.6171C18.7792 32.5531 21.4292 29.8501 24.5792 29.8501H33.8522C36.4322 29.8501 38.4942 27.7251 38.4942 25.1321V16.3001C38.4942 13.7841 36.3722 11.8941 33.8522 11.4741C32.2572 11.2091 30.6022 11.0881 29.0152 11.0941V11.0861ZM23.9952 13.9321C24.9552 13.9321 25.7372 14.7281 25.7372 15.7071C25.7372 16.6861 24.9542 17.4711 23.9952 17.4711C23.0362 17.4711 22.2532 16.6811 22.2532 15.7071C22.2532 14.7331 23.0332 13.9321 23.9952 13.9321Z" fill="url(#paint0_linear_48398_12107)"/>
<path d="M39.652 21.0081V25.1311C39.652 28.3271 36.952 31.0171 33.852 31.0171H24.58C22.04 31.0171 19.938 33.1911 19.938 35.7351V44.5751C19.938 47.0911 22.126 48.5711 24.58 49.2931C27.52 50.1571 30.337 50.3131 33.853 49.2931C36.19 48.6161 38.495 47.2531 38.495 44.5751V41.0371H29.22V39.8571H43.135C45.833 39.8571 46.839 37.9751 47.777 35.1501C48.747 32.2421 48.705 29.4451 47.777 25.7151C47.11 23.0291 45.837 21.0081 43.135 21.0081H39.651H39.652ZM34.437 43.3951C35.399 43.3951 36.179 44.1851 36.179 45.1591C36.179 46.1331 35.399 46.9341 34.437 46.9341C33.475 46.9341 32.695 46.1381 32.695 45.1591C32.695 44.1801 33.478 43.3951 34.437 43.3951Z" fill="url(#paint1_linear_48398_12107)"/>
<defs>
<linearGradient id="paint0_linear_48398_12107" x1="10.0002" y1="11.0861" x2="31.2342" y2="29.5311" gradientUnits="userSpaceOnUse">
<stop stop-color="#5A9FD4"/>
<stop offset="1" stop-color="#306998"/>
</linearGradient>
<linearGradient id="paint1_linear_48398_12107" x1="34.213" y1="44.8611" x2="26.631" y2="34.0301" gradientUnits="userSpaceOnUse">
<stop stop-color="#FFD43B"/>
<stop offset="1" stop-color="#FFE873"/>
</linearGradient>
</defs>
</svg>
