<svg width="48" height="36" viewBox="0 0 48 36" fill="none" xmlns="http://www.w3.org/2000/svg">
<path d="M11.1665 14.3333C10.6462 14.3333 10.1468 14.4127 9.64985 14.485C9.81085 13.9437 9.97652 13.393 10.2425 12.8983C10.5085 12.1797 10.9239 11.5567 11.3369 10.929C11.6822 10.25 12.2912 9.79032 12.7392 9.20932C13.2082 8.64465 13.8475 8.26899 14.3539 7.79999C14.8509 7.30999 15.5019 7.06499 16.0199 6.71965C16.5612 6.40932 17.0325 6.06632 17.5365 5.90299L18.7942 5.38499L19.9002 4.92532L18.7685 0.40332L17.3755 0.739319C16.9299 0.851319 16.3862 0.981986 15.7679 1.13832C15.1355 1.25499 14.4612 1.57465 13.7099 1.86632C12.9679 2.19765 12.1092 2.42165 11.3112 2.95365C10.5085 3.46232 9.58218 3.88699 8.76552 4.56832C7.97452 5.27065 7.02018 5.87965 6.31552 6.77332C5.54552 7.60865 4.78485 8.48599 4.19452 9.48465C3.51085 10.4367 3.04652 11.482 2.55652 12.5157C2.11318 13.5493 1.75618 14.6063 1.46452 15.633C0.911517 17.691 0.664184 19.6463 0.568517 21.3193C0.489184 22.9947 0.535851 24.3877 0.633851 25.3957C0.668851 25.8717 0.734184 26.3337 0.780851 26.6533L0.839184 27.0453L0.89985 27.0313C1.31486 28.9699 2.27023 30.7514 3.65543 32.1697C5.04064 33.5881 6.79908 34.5852 8.72734 35.0459C10.6556 35.5066 12.6749 35.4119 14.5516 34.7729C16.4283 34.1339 18.0858 32.9766 19.3323 31.435C20.5787 29.8933 21.3633 28.0303 21.5952 26.0613C21.827 24.0924 21.4967 22.0981 20.6425 20.309C19.7883 18.52 18.445 17.0093 16.768 15.9518C15.0911 14.8943 13.149 14.3332 11.1665 14.3333ZM36.8332 14.3333C36.3128 14.3333 35.8135 14.4127 35.3165 14.485C35.4775 13.9437 35.6432 13.393 35.9092 12.8983C36.1752 12.1797 36.5905 11.5567 37.0035 10.929C37.3489 10.25 37.9578 9.79032 38.4058 9.20932C38.8748 8.64465 39.5142 8.26899 40.0205 7.79999C40.5175 7.30999 41.1685 7.06499 41.6865 6.71965C42.2278 6.40932 42.6992 6.06632 43.2032 5.90299L44.4608 5.38499L45.5668 4.92532L44.4352 0.40332L43.0422 0.739319C42.5965 0.851319 42.0528 0.981986 41.4345 1.13832C40.8022 1.25499 40.1278 1.57465 39.3765 1.86632C38.6368 2.19999 37.7758 2.42165 36.9778 2.95599C36.1752 3.46465 35.2489 3.88932 34.4322 4.57065C33.6412 5.27299 32.6868 5.88199 31.9822 6.77332C31.2122 7.60865 30.4515 8.48599 29.8612 9.48465C29.1775 10.4367 28.7132 11.482 28.2232 12.5157C27.7799 13.5493 27.4228 14.6063 27.1312 15.633C26.5782 17.691 26.3308 19.6463 26.2352 21.3193C26.1558 22.9947 26.2025 24.3877 26.3005 25.3957C26.3355 25.8717 26.4008 26.3337 26.4475 26.6533L26.5058 27.0453L26.5665 27.0313C26.9815 28.9699 27.9369 30.7514 29.3221 32.1697C30.7073 33.5881 32.4657 34.5852 34.394 35.0459C36.3223 35.5066 38.3416 35.4119 40.2183 34.7729C42.095 34.1339 43.7525 32.9766 44.9989 31.435C46.2454 29.8933 47.03 28.0303 47.2618 26.0613C47.4937 24.0924 47.1634 22.0981 46.3092 20.309C45.4549 18.52 44.1116 17.0093 42.4347 15.9518C40.7578 14.8943 38.8157 14.3332 36.8332 14.3333Z" fill="#DFE3FF"/>
</svg>
