<svg width="120" height="60" viewBox="0 0 120 60" fill="none" xmlns="http://www.w3.org/2000/svg">
<path d="M26.04 33.4438C27.9595 33.4438 29.5156 31.8878 29.5156 29.9682C29.5156 28.0487 27.9595 26.4927 26.04 26.4927C24.1205 26.4927 22.5645 28.0487 22.5645 29.9682C22.5645 31.8878 24.1205 33.4438 26.04 33.4438Z" fill="black"/>
<path fill-rule="evenodd" clip-rule="evenodd" d="M26.0402 22.9016C30.7067 22.9016 35.0417 23.5712 38.3102 24.6964C42.2484 26.0523 44.6697 28.1073 44.6697 29.9682C44.6697 31.9073 42.1036 34.0905 37.8745 35.4917C34.6772 36.551 30.4699 37.104 26.0402 37.104C21.4987 37.104 17.198 36.585 13.9647 35.4801C9.87403 34.0819 7.41016 31.8704 7.41016 29.9682C7.41016 28.1224 9.72203 26.0832 13.6048 24.7295C16.8856 23.5857 21.3276 22.9016 26.0396 22.9016H26.0402Z" stroke="black" stroke-width="1.66272"/>
<path fill-rule="evenodd" clip-rule="evenodd" d="M19.8884 26.4553C22.2197 22.4129 24.9653 18.9922 27.5729 16.7228C30.7148 13.9886 33.7047 12.9178 35.3167 13.8474C36.9966 14.8161 37.6058 18.1298 36.7069 22.4932C36.0279 25.7922 34.4044 29.713 32.1915 33.5503C29.9226 37.4846 27.3246 40.9508 24.7524 43.1991C21.4976 46.0443 18.351 47.0739 16.7031 46.1236C15.1041 45.2022 14.4927 42.1802 15.2597 38.1402C15.9079 34.7268 17.5343 30.5371 19.8877 26.4552L19.8884 26.4553Z" stroke="black" stroke-width="1.66272"/>
<path fill-rule="evenodd" clip-rule="evenodd" d="M19.8943 33.5606C17.5564 29.5229 15.9647 25.435 15.3003 22.0425C14.5005 17.955 15.066 14.8297 16.6765 13.8975C18.3547 12.9259 21.5299 14.053 24.8612 17.011C27.38 19.2473 29.9663 22.6113 32.1857 26.445C34.4611 30.3755 36.1665 34.3575 36.83 37.7087C37.6694 41.9495 36.99 45.1898 35.3437 46.1429C33.7463 47.0676 30.8232 46.0885 27.7063 43.4063C25.0727 41.1401 22.2552 37.6385 19.8943 33.5606V33.5606Z" stroke="black" stroke-width="1.66272"/>
<path fill-rule="evenodd" clip-rule="evenodd" d="M64.62 38.848L60.36 32.412C62.513 32.222 64.453 30.662 64.453 27.812C64.453 24.912 62.395 23.056 59.508 23.056H53.168V38.836H55.132V32.566H58.279L62.301 38.836L64.62 38.848ZM59.273 30.851H55.133V24.818H59.273C61.143 24.818 62.42 26.048 62.42 27.823C62.42 29.598 61.142 30.853 59.273 30.853V30.851ZM71.931 39.131C73.801 39.131 75.338 38.516 76.474 37.381L75.622 36.221C74.722 37.144 73.398 37.664 72.097 37.664C69.637 37.664 68.122 35.866 67.98 33.714H77.23V33.264C77.23 29.834 75.195 27.136 71.74 27.136C68.475 27.136 66.11 29.81 66.11 33.122C66.11 36.695 68.547 39.122 71.93 39.122L71.931 39.131ZM75.481 32.411H67.981C68.076 30.661 69.281 28.601 71.719 28.601C74.322 28.601 75.457 30.707 75.481 32.411ZM89.015 38.847V30.992C89.015 28.224 87.005 27.135 84.591 27.135C82.721 27.135 81.255 27.75 80.025 29.028L80.853 30.258C81.87 29.17 82.983 28.673 84.355 28.673C86.011 28.673 87.242 29.548 87.242 31.086V33.144C86.319 32.079 85.018 31.582 83.456 31.582C81.516 31.582 79.456 32.789 79.456 35.344C79.456 37.828 81.514 39.13 83.456 39.13C84.994 39.13 86.296 38.586 87.242 37.545V38.845L89.015 38.847ZM84.095 37.853C82.439 37.853 81.279 36.813 81.279 35.369C81.279 33.902 82.439 32.861 84.095 32.861C85.349 32.861 86.555 33.334 87.242 34.281V36.434C86.556 37.38 85.349 37.854 84.095 37.854V37.853ZM97.595 39.131C99.677 39.131 100.907 38.279 101.783 37.144L100.6 36.056C99.843 37.073 98.873 37.546 97.7 37.546C95.263 37.546 93.75 35.653 93.75 33.122C93.75 30.591 95.264 28.722 97.7 28.722C98.883 28.722 99.853 29.172 100.6 30.212L101.783 29.124C100.908 27.988 99.677 27.137 97.595 27.137C94.188 27.137 91.893 29.74 91.893 33.123C91.893 36.53 94.188 39.123 97.595 39.123V39.131ZM107.155 39.131C108.195 39.131 108.835 38.823 109.285 38.398L108.765 37.073C108.528 37.333 108.065 37.546 107.558 37.546C106.778 37.546 106.398 36.931 106.398 36.079V28.981H108.718V27.42H106.398V24.297H104.623V27.42H102.73V28.982H104.623V36.459C104.623 38.163 105.475 39.133 107.155 39.133V39.131Z" fill="black"/>
</svg>
