<svg width="120" height="38" viewBox="0 0 120 38" fill="none" xmlns="http://www.w3.org/2000/svg">
<g clip-path="url(#clip0_49004_9990)">
<path d="M37.2748 10.6863C37.2726 10.3114 37.2685 9.9367 37.2581 9.56135C37.2363 8.74489 37.188 7.92102 37.0429 7.11328C36.8956 6.29299 36.6549 5.53026 36.2756 4.7851C35.9032 4.0533 35.4164 3.38365 34.8357 2.80294C34.2551 2.22222 33.5854 1.73547 32.8533 1.36289C32.1088 0.983973 31.3459 0.743327 30.5264 0.596077C29.7182 0.450522 28.8943 0.402569 28.0772 0.380475C27.7021 0.370307 27.3273 0.366039 26.9523 0.363717C26.5071 0.361206 26.0617 0.361206 25.6167 0.361206H15.7488H11.6608C11.2153 0.361206 10.7704 0.361206 10.3254 0.363779C9.95023 0.366102 9.57501 0.37037 9.20042 0.380538C8.99618 0.386061 8.7915 0.393217 8.5867 0.403071C7.97234 0.432697 7.35704 0.48699 6.75122 0.59614C6.13655 0.706609 5.55371 0.86955 4.98668 1.10398C4.79769 1.18206 4.61039 1.26818 4.42423 1.36289C3.87515 1.64233 3.36109 1.98597 2.89355 2.38529C2.7377 2.51842 2.587 2.6577 2.44188 2.80288C1.86104 3.38359 1.37423 4.05324 1.00184 4.78503C0.622477 5.53019 0.382082 6.29293 0.234707 7.11322C0.0897169 7.92096 0.0415124 8.74483 0.0195442 9.56129C0.00925056 9.93663 0.00491969 10.3113 0.0024718 10.6863C-0.000352676 11.1315 2.39209e-05 11.5768 2.39209e-05 12.022V18.0989V25.9777C2.39209e-05 26.4233 -0.000415443 26.8681 0.0024718 27.3137C0.00491969 27.6886 0.00925056 28.0633 0.0195442 28.438C0.0415124 29.2549 0.0896541 30.079 0.234707 30.8864C0.382082 31.7064 0.622477 32.4698 1.00184 33.2148C1.37423 33.9468 1.86104 34.6163 2.44188 35.1967C3.02228 35.7777 3.69212 36.2644 4.42429 36.6372C5.16889 37.0162 5.93168 37.2565 6.75141 37.4038C7.55909 37.5491 8.38358 37.5975 9.20049 37.6193C9.57508 37.6293 9.95029 37.6337 10.3254 37.6359C10.7705 37.6391 11.2154 37.6386 11.6609 37.6386H25.6167C26.0617 37.6386 26.5071 37.6391 26.9522 37.6359C27.3273 37.6337 27.702 37.6293 28.0772 37.6193C28.8943 37.5975 29.7181 37.5491 30.5263 37.4038C31.3459 37.2565 32.1087 37.0161 32.8533 36.6372C33.5854 36.2644 34.255 35.7777 34.8356 35.1967C35.4163 34.6162 35.9032 33.9468 36.2755 33.2148C36.6549 32.4698 36.8956 31.7065 37.0428 30.8864C37.188 30.079 37.2362 29.2549 37.2581 28.438C37.2684 28.0633 37.2725 27.6887 37.2748 27.3137C37.2776 26.8681 37.2774 26.4233 37.2774 25.9777V12.022C37.2775 11.5768 37.2776 11.1315 37.2748 10.6863Z" fill="#F05138"/>
<path d="M29.5381 23.3718C29.5372 23.3706 29.5364 23.3698 29.5354 23.3688C29.5767 23.2284 29.6192 23.089 29.6553 22.9451C31.2025 16.7809 27.4264 9.4931 21.0365 5.65588C23.8367 9.45192 25.0748 14.0498 23.9748 18.0707C23.8767 18.4294 23.7587 18.7736 23.6284 19.1081C23.4869 19.0152 23.3086 18.9097 23.0692 18.7777C23.0692 18.7777 16.713 14.8531 9.82381 7.91145C9.64304 7.72924 13.4974 13.4204 17.8716 18.0419C15.8108 16.8853 10.0674 12.7065 6.43148 9.37867C6.87819 10.1236 7.40951 10.841 7.99355 11.5316C11.0299 15.3823 14.9896 20.1334 19.7335 23.7816C16.4004 25.8214 11.6906 25.98 7.00128 23.7838C5.84142 23.2402 4.75104 22.5844 3.7417 21.8392C5.72668 25.0142 8.78384 27.7536 12.5047 29.3528C16.9419 31.2597 21.3545 31.1304 24.6409 29.3841L24.6383 29.3879C24.6533 29.3784 24.6724 29.368 24.688 29.3584C24.8229 29.2859 24.9569 29.212 25.0879 29.134C26.6669 28.3144 29.7857 27.4828 31.4598 30.74C31.8698 31.5372 32.741 27.3127 29.5381 23.3718Z" fill="white"/>
<path d="M51.4247 24.5528C51.7159 27.139 54.1825 28.8345 57.608 28.8345C60.8627 28.8345 63.2092 27.139 63.2092 24.7928C63.2092 22.7716 61.7877 21.5378 58.5158 20.716L55.3471 19.911C50.7909 18.7804 48.7353 16.7247 48.7353 13.3336C48.7353 9.15431 52.3837 6.25928 57.574 6.25928C62.6095 6.25928 66.1895 9.17113 66.3095 13.368H62.9696C62.7124 10.7987 60.6227 9.22235 57.4884 9.22235C54.3877 9.22235 52.2296 10.8155 52.2296 13.1448C52.2296 14.9604 53.5659 16.0398 56.8546 16.8792L59.4924 17.5642C64.5967 18.8148 66.6863 20.8016 66.6863 24.3816C66.6863 28.9378 63.072 31.7985 57.3167 31.7985C51.9727 31.7985 48.3243 28.9547 48.0503 24.5529H51.4247V24.5528Z" fill="black"/>
<path d="M87.9034 31.3872H84.5459L80.6234 17.7186H80.555L76.6498 31.3872H73.2926L68.3252 13.4873H71.5795L75.0394 27.8584H75.1082L79.0135 13.4873H82.165L86.1046 27.8584H86.1734L89.6334 13.4873H92.8533L87.9034 31.3872Z" fill="black"/>
<path d="M95.021 8.67409C95.021 7.59545 95.912 6.72168 96.991 6.72168C98.0873 6.72168 98.9779 7.59545 98.9779 8.67409C98.9779 9.75348 98.0873 10.6441 96.991 10.6441C95.912 10.6441 95.021 9.75354 95.021 8.67409ZM95.3638 13.4872H98.6353V31.3871H95.3638V13.4872Z" fill="black"/>
<path d="M120 16.1254V13.4872H116.54V9.20548H113.285V13.4872H110.63H107.031V11.9116C107.048 10.3185 107.665 9.65037 109.138 9.65037C109.618 9.65037 110.097 9.70234 110.491 9.77038V7.20104C109.909 7.11543 109.378 7.06421 108.761 7.06421C105.267 7.06421 103.794 8.52051 103.794 11.8604V13.4872H101.293V16.1254H103.794V31.3871H107.048V16.1254H110.63H113.285V26.694C113.285 30.154 114.604 31.4895 118.03 31.4895C118.766 31.4895 119.606 31.4383 119.983 31.3527V28.6809C119.76 28.7153 119.109 28.7665 118.749 28.7665C117.225 28.7665 116.54 28.0471 116.54 26.4372V16.1254H120Z" fill="black"/>
</g>
<defs>
<clipPath id="clip0_49004_9990">
<rect width="120" height="37.2776" fill="white" transform="translate(0 0.361206)"/>
</clipPath>
</defs>
</svg>
