<svg width="221" height="159" viewBox="0 0 221 159" fill="none" xmlns="http://www.w3.org/2000/svg">
<g clip-path="url(#clip0_45603_18188)">
<g opacity="0.8">
<path d="M119.4 135.335H162.64C170.818 135.335 175.086 125.614 169.541 119.599L151.75 100.317L126.3 72.7894C122.591 68.7658 116.208 68.7658 112.499 72.7894L87.049 100.317L69.2583 119.599C63.7137 125.614 67.9819 135.335 76.1592 135.335H119.4Z" fill="#FFC83E"/>
<path d="M119.041 56.6154L137.789 53.9861L129.851 65.4992L121.913 77.0122L111.103 68.1285L100.292 59.2048L119.041 56.6154Z" fill="#FFC83E"/>
<path d="M127.178 68.7261H111.701V73.7457H127.178V68.7261Z" fill="#5F36A8"/>
<path d="M119.36 72.7498H115.77V84.6612H119.36V72.7498Z" fill="#5F36A8"/>
<path d="M123.07 107.21H125.542V121.75H123.588L115.73 111.552V121.75H113.297V107.21H115.251L123.07 117.368V107.21Z" fill="#5F36A8"/>
<path d="M127.936 110.755H110.864V112.786H127.936V110.755Z" fill="#5F36A8"/>
<path d="M127.936 116.213H110.864V118.244H127.936V116.213Z" fill="#5F36A8"/>
</g>
<path d="M177.626 90.2048C177.166 90.2048 176.756 90.3853 176.436 90.7055L168.675 98.515H179.316V91.9072C179.307 90.9858 178.536 90.2048 177.626 90.2048Z" fill="#0D823F"/>
<path d="M192.818 109.359H189.208V118.45H192.818V109.359Z" fill="#0D823F"/>
<path d="M154.343 134.8V137.283L158.223 136.231L162.104 137.283V134.8H154.343Z" fill="#0D823F"/>
<path d="M168.033 134.8V137.283L171.913 136.231L175.794 137.283V134.8H168.033Z" fill="#0D823F"/>
<path d="M190.447 113.494C190.267 104.814 183.687 97.7451 175.295 96.7741V90.7166C175.295 89.7951 174.515 89.0142 173.605 89.0142C173.145 89.0142 172.735 89.1946 172.415 89.5148L165.344 96.6336H157.173C152.333 96.7238 148.043 98.8359 144.982 102.14C144.712 101.449 144.302 100.859 143.752 100.398C143.702 100.348 143.702 100.348 143.662 100.308C143.712 99.7071 143.611 99.117 143.432 98.6059C142.931 97.3643 141.791 96.6336 140.141 96.4931C139.911 96.4931 139.731 96.6336 139.682 96.8636C139.682 97.0943 139.821 97.274 140.052 97.3243C141.372 97.4145 142.242 97.9655 142.652 98.9365C142.741 99.2168 142.832 99.537 142.832 99.8077C142.012 99.3972 141.051 99.2567 140.231 99.4372C139.321 99.6672 138.681 100.538 138.681 101.549C138.681 102.561 139.271 103.342 140.231 103.612C141.102 103.843 142.012 103.522 142.692 102.741C143.062 102.33 143.332 101.82 143.472 101.269C143.882 101.73 144.202 102.281 144.342 102.921C141.972 105.815 140.461 109.489 140.371 113.534C140.371 113.675 140.371 113.814 140.371 113.945C140.371 123.356 147.862 130.986 157.173 131.216H173.335C182.786 131.216 190.497 123.496 190.497 113.945C190.447 113.764 190.447 113.634 190.447 113.494ZM142.012 102.19C141.742 102.511 141.141 103.022 140.371 102.791C139.501 102.561 139.411 101.78 139.411 101.549C139.411 101.049 139.731 100.398 140.371 100.218C140.551 100.168 140.741 100.168 140.962 100.168C141.551 100.168 142.191 100.348 142.741 100.719C142.612 101.229 142.382 101.78 142.012 102.19Z" fill="#48D38A"/>
<path d="M190.449 113.905C190.449 113.765 190.449 113.625 190.449 113.495C190.219 121.024 182.638 127.091 173.287 127.091H157.125C147.954 126.951 140.553 120.934 140.323 113.495C140.323 113.635 140.323 113.775 140.323 113.905C140.323 122.355 146.354 129.384 154.335 130.855V134.901H162.096V131.176H168.027V134.901H175.788V130.996C184.109 129.794 190.449 122.586 190.449 113.905Z" fill="#48D38A"/>
<path d="M169.406 99.5273H160.916C160.095 99.5273 159.406 100.218 159.406 101.039C159.406 101.87 160.086 102.551 160.916 102.551H169.406C170.227 102.551 170.917 101.86 170.917 101.039C170.917 100.218 170.227 99.5273 169.406 99.5273Z" fill="#0D823F"/>
<path d="M184.608 109.409C184.338 109.409 184.058 109.178 184.058 108.858C184.058 108.217 183.507 107.667 182.867 107.667C182.227 107.667 181.678 108.217 181.678 108.858C181.678 109.138 181.447 109.409 181.127 109.409C180.807 109.409 180.577 109.178 180.577 108.858C180.577 107.616 181.578 106.605 182.818 106.605C184.048 106.605 185.058 107.616 185.058 108.858C185.108 109.178 184.878 109.409 184.608 109.409Z" fill="#0D823F"/>
<path d="M76.4496 135.969C75.8259 135.969 75.2215 135.969 74.5978 135.969C74.5978 135.004 74.5978 134.04 74.5978 133.056C66.8775 133.056 59.1962 133.056 51.4955 133.056C51.4955 134.021 51.4955 134.984 51.4955 135.969C50.8521 135.969 50.2673 135.969 49.6239 135.969C49.6239 135.004 49.6239 134.04 49.6239 133.036C47.9083 133.036 46.2122 133.036 44.5161 133.036C44.4966 121.486 44.4966 109.975 44.4966 98.4639C56.8568 98.4639 69.1974 98.4639 81.5771 98.4639C81.5771 109.975 81.5771 121.486 81.5771 133.017C79.8811 133.017 78.185 133.017 76.4496 133.017C76.4496 134.021 76.4496 134.984 76.4496 135.969ZM51.0471 115.721C51.0276 118.928 53.6205 121.604 56.7788 121.624C60.0345 121.643 62.6859 119.046 62.7054 115.779C62.7249 112.533 60.093 109.876 56.8763 109.876C53.679 109.856 51.0666 112.494 51.0471 115.721ZM66.5656 111.824C66.5656 112.395 66.5656 112.946 66.5656 113.497C67.1309 113.497 67.6573 113.497 68.2226 113.497C68.2226 112.926 68.2226 112.375 68.2226 111.824C67.6573 111.824 67.1114 111.824 66.5656 111.824ZM71.6539 113.497C71.6539 112.907 71.6539 112.375 71.6539 111.824C71.0885 111.824 70.5426 111.824 69.9968 111.824C69.9968 112.395 69.9968 112.946 69.9968 113.497C70.5621 113.497 71.108 113.497 71.6539 113.497ZM73.4475 113.497C74.0128 113.497 74.5585 113.497 75.1043 113.497C75.1043 112.926 75.1043 112.375 75.1043 111.824C74.5392 111.824 73.9933 111.824 73.4475 111.824C73.4475 112.395 73.4475 112.946 73.4475 113.497ZM68.2032 116.586C68.2032 116.016 68.2032 115.445 68.2032 114.894C67.6378 114.894 67.1114 114.894 66.5656 114.894C66.5656 115.465 66.5656 116.016 66.5656 116.586C67.1114 116.586 67.6573 116.586 68.2032 116.586ZM69.9968 116.586C70.5816 116.586 71.1275 116.586 71.6539 116.586C71.6539 116.016 71.6539 115.465 71.6539 114.894C71.0885 114.894 70.5426 114.894 69.9968 114.894C69.9968 115.465 69.9968 116.016 69.9968 116.586ZM73.4475 116.586C74.0323 116.586 74.5785 116.586 75.1244 116.586C75.1244 116.016 75.1244 115.465 75.1244 114.914C74.5585 114.914 74.0128 114.914 73.4475 114.914C73.4475 115.484 73.4475 116.016 73.4475 116.586ZM68.2032 119.676C68.2032 119.105 68.2032 118.554 68.2032 117.983C67.6378 117.983 67.0919 117.983 66.5461 117.983C66.5461 118.554 66.5461 119.105 66.5461 119.676C67.1114 119.676 67.6573 119.676 68.2032 119.676ZM69.9968 117.983C69.9968 118.574 69.9968 119.125 69.9968 119.676C70.5621 119.676 71.108 119.676 71.6539 119.676C71.6539 119.105 71.6539 118.554 71.6539 117.983C71.0885 117.983 70.5621 117.983 69.9968 117.983ZM75.1043 119.676C75.1043 119.085 75.1043 118.534 75.1043 117.983C74.5392 117.983 73.9933 117.983 73.4475 117.983C73.4475 118.554 73.4475 119.105 73.4475 119.676C74.0128 119.676 74.5585 119.676 75.1043 119.676Z" fill="#FFC83E"/>
<path d="M51.048 115.721C51.0675 112.494 53.6799 109.876 56.8772 109.857C60.0939 109.857 62.7258 112.514 62.7063 115.76C62.6868 119.027 60.0549 121.644 56.7796 121.604C53.6214 121.585 51.0285 118.928 51.048 115.721Z" fill="#E2951A"/>
<path d="M66.5649 111.824C67.1108 111.824 67.6567 111.824 68.2221 111.824C68.2221 112.375 68.2221 112.926 68.2221 113.497C67.6762 113.497 67.1303 113.497 66.5649 113.497C66.5649 112.946 66.5649 112.395 66.5649 111.824Z" fill="#E2951A"/>
<path d="M71.6552 113.497C71.1093 113.497 70.5634 113.497 69.998 113.497C69.998 112.946 69.998 112.395 69.998 111.824C70.5439 111.824 71.0898 111.824 71.6552 111.824C71.6552 112.375 71.6552 112.926 71.6552 113.497Z" fill="#E2951A"/>
<path d="M73.4473 113.497C73.4473 112.946 73.4473 112.395 73.4473 111.824C73.9932 111.824 74.5394 111.824 75.1045 111.824C75.1045 112.375 75.1045 112.926 75.1045 113.497C74.5586 113.497 74.0127 113.497 73.4473 113.497Z" fill="#E2951A"/>
<path d="M68.2026 116.587C67.6567 116.587 67.1108 116.587 66.5649 116.587C66.5649 116.036 66.5649 115.485 66.5649 114.895C67.1108 114.895 67.6372 114.895 68.2026 114.895C68.2026 115.465 68.2026 116.016 68.2026 116.587Z" fill="#E2951A"/>
<path d="M69.998 116.587C69.998 116.016 69.998 115.465 69.998 114.895C70.5634 114.895 71.0898 114.895 71.6552 114.895C71.6552 115.446 71.6552 115.997 71.6552 116.587C71.1093 116.587 70.5829 116.587 69.998 116.587Z" fill="#E2951A"/>
<path d="M73.4473 116.586C73.4473 116.015 73.4473 115.484 73.4473 114.913C73.9932 114.913 74.5394 114.913 75.1237 114.913C75.1237 115.464 75.1237 116.015 75.1237 116.586C74.5586 116.586 74.0127 116.586 73.4473 116.586Z" fill="#E2951A"/>
<path d="M68.2035 119.676C67.6381 119.676 67.1118 119.676 66.5464 119.676C66.5464 119.105 66.5464 118.554 66.5464 117.984C67.0923 117.984 67.6381 117.984 68.2035 117.984C68.2035 118.554 68.2035 119.105 68.2035 119.676Z" fill="#E2951A"/>
<path d="M69.998 117.984C70.5439 117.984 71.0898 117.984 71.6552 117.984C71.6552 118.535 71.6552 119.086 71.6552 119.676C71.1093 119.676 70.5634 119.676 69.998 119.676C69.998 119.125 69.998 118.574 69.998 117.984Z" fill="#E2951A"/>
<path d="M75.1045 119.676C74.5586 119.676 74.0127 119.676 73.4473 119.676C73.4473 119.125 73.4473 118.574 73.4473 117.984C73.9932 117.984 74.5394 117.984 75.1045 117.984C75.1045 118.535 75.1045 119.086 75.1045 119.676Z" fill="#E2951A"/>
<path d="M212.253 147.698H12.0918V6.99951H212.253V147.698ZM12.6707 147.12H211.61V7.57743H12.6707V147.12Z" fill="#DEDFE0"/>
<path d="M10.677 148.404V5.0731L3.53754 0L0 1.34855V159H219.328L221 155.147L10.677 148.404Z" fill="#DCDDDE"/>
<path d="M3.5376 0V155.147H221V0H3.5376ZM211.931 147.441H12.4136V7.25646H211.995V147.441H211.931Z" fill="white"/>
<path d="M209.808 10.3387L211.931 7.25635H12.4136L14.5361 10.3387H209.808Z" fill="#BEC0C2"/>
<path d="M14.5361 10.3387L12.4136 7.25635V147.441L14.5361 145.001V10.3387Z" fill="#DADBDC"/>
<path d="M211.931 147.441L209.808 145H14.5361L12.4136 147.441H211.931Z" fill="#DADBDC"/>
<path d="M209.809 10.3387V145.001L211.931 147.441V7.25635L209.809 10.3387Z" fill="#DADBDC"/>
<path d="M201.898 138.065H119.827V16.8892H201.898V138.065ZM120.406 137.552H201.383V17.4029H120.406V137.552Z" fill="#DEDFE0"/>
<path d="M112.172 10.3389V145.001H209.808V10.3389H112.172ZM201.64 137.809H120.148V17.1458H201.64V137.809Z" fill="white"/>
<path d="M199.711 19.9715L201.64 17.146H120.148L122.078 19.9715H199.711Z" fill="#BEC0C2"/>
<path d="M122.078 19.9715L120.148 17.146V137.809L122.078 134.983V19.9715Z" fill="#DADBDC"/>
<path d="M201.64 137.809L199.711 134.983H122.078L120.148 137.809H201.64Z" fill="#DADBDC"/>
<path d="M199.71 19.9715V134.983L201.64 137.809V17.146L199.71 19.9715Z" fill="#DADBDC"/>
<path opacity="0.5" d="M122.078 19.9712V79.9495L182.152 19.9712H122.078Z" fill="white"/>
<path opacity="0.98" d="M199.711 19.9712H182.152L122.078 79.9495V99.4067L199.711 21.8978V19.9712Z" fill="#E6E7E8"/>
<path opacity="0.98" d="M199.711 28.6406L122.078 106.15V109.81L199.711 32.301V28.6406Z" fill="#E6E7E8"/>
<path opacity="0.5" d="M122.078 109.811V134.983H199.711V32.301L122.078 109.811Z" fill="white"/>
<path opacity="0.5" d="M199.711 21.8977L122.078 99.4067V106.15L199.711 28.6405V21.8977Z" fill="white"/>
<path d="M131.918 80.5272H117.254C116.353 80.5272 115.646 79.821 115.646 78.9217C115.646 78.0232 116.353 77.3169 117.254 77.3169H131.918V80.5272Z" fill="white"/>
<path d="M115.71 78.6008C115.71 78.7295 115.71 78.7939 115.71 78.9218C115.71 79.8211 116.417 80.5273 117.318 80.5273H131.983V79.8854H117.318C116.482 79.8854 115.839 79.3071 115.71 78.6008Z" fill="#C7C8CA"/>
<path d="M104.326 138.065H22.2544V16.8892H104.326V138.065ZM22.769 137.552H103.746V17.4029H22.769V137.552Z" fill="#DEDFE0"/>
<path d="M14.5361 10.3389V145.001H112.173V10.3389H14.5361ZM104.004 137.809H22.5116V17.1458H104.004V137.809Z" fill="white"/>
<path d="M102.075 19.9715L104.004 17.146H22.5117L24.5056 19.9715H102.075Z" fill="#BEC0C2"/>
<path d="M24.5056 19.9715L22.5117 17.146V137.809L24.5056 134.983V19.9715Z" fill="#DADBDC"/>
<path d="M104.004 137.809L102.075 134.983H24.5056L22.5117 137.809H104.004Z" fill="#DADBDC"/>
<path d="M102.074 19.9715V134.983L104.003 137.809V17.146L102.074 19.9715Z" fill="#DADBDC"/>
<path opacity="0.5" d="M24.5054 19.9712V79.9495L84.5147 19.9712H24.5054Z" fill="white"/>
<path d="M102.074 19.9712H84.5147L24.5054 79.9495V99.4067L102.074 21.8978V19.9712Z" fill="#E3E3E6"/>
<path d="M102.074 28.6406L24.5054 106.15V109.81L102.074 32.301V28.6406Z" fill="#E3E3E6"/>
<path opacity="0.5" d="M24.5054 109.811V134.983H102.074V32.301L24.5054 109.811Z" fill="white"/>
<path opacity="0.5" d="M102.074 21.8977L24.5054 99.4067V106.15L102.074 28.6405V21.8977Z" fill="white"/>
<path d="M91.9116 80.5272H106.576C107.477 80.5272 108.184 79.821 108.184 78.9217C108.184 78.0232 107.477 77.3169 106.576 77.3169H91.9116V80.5272Z" fill="white"/>
<path d="M108.184 78.6008C108.184 78.7295 108.184 78.7939 108.184 78.9218C108.184 79.8211 107.477 80.5273 106.576 80.5273H91.9116V79.8854H106.576C107.348 79.8854 108.056 79.3714 108.184 78.6008Z" fill="#C7C8CA"/>
<path d="M112.43 10.3389H111.915V145.001H112.43V10.3389Z" fill="#DADBDC"/>
</g>
<defs>
<clipPath id="clip0_45603_18188">
<rect width="221" height="159" fill="white"/>
</clipPath>
</defs>
</svg>
