<svg width="485" height="263" viewBox="0 0 485 263" fill="none" xmlns="http://www.w3.org/2000/svg">
<g opacity="0.5" clip-path="url(#clip0_46927_10649)">
<path d="M65.5627 265.471L66.4126 265.722L69.522 255.197L68.6721 254.946L65.5627 265.471Z" fill="#E2951A"/>
<path d="M59.7653 265.7L60.6152 265.951L63.7247 255.425L62.8748 255.174L59.7653 265.7Z" fill="#E2951A"/>
<path d="M71.1545 269.064L72.0044 269.315L75.1138 258.79L74.2639 258.539L71.1545 269.064Z" fill="#E2951A"/>
<path d="M79.123 222.756C72.1009 220.682 64.7204 224.714 62.6383 231.761C60.5562 238.809 64.5609 246.204 71.5831 248.279C78.6052 250.353 85.9858 246.321 88.0679 239.274C90.1499 232.226 86.1452 224.831 79.123 222.756Z" fill="#FFC83E"/>
<path d="M78.8406 223.712C85.317 225.625 89.024 232.471 87.1037 238.971C85.1835 245.47 78.3516 249.203 71.8752 247.289C65.3989 245.376 61.6918 238.53 63.612 232.031C65.5323 225.531 72.3642 221.798 78.8406 223.712ZM72.0466 246.709C78.2 248.527 84.6793 244.988 86.5038 238.812C88.3283 232.636 84.8125 226.144 78.6591 224.326C72.5057 222.508 66.0264 226.048 64.202 232.223C62.3825 238.382 65.8932 244.891 72.0466 246.709Z" fill="#E2951A"/>
<path d="M72.8261 234.711C72.8105 234.763 72.8172 234.804 72.8016 234.856C72.7713 236.913 72.7462 238.952 72.7159 241.008C72.6968 242.207 72.6777 243.406 72.6533 244.623L75.3553 235.477L72.8209 234.728L72.8261 234.711Z" fill="#E2951A"/>
<path d="M72.6536 244.623C72.6811 244.593 72.6915 244.558 72.7138 244.545C74.4362 241.803 76.1415 239.056 77.8587 236.331C77.8914 236.284 77.9018 236.249 77.9122 236.213L75.3607 235.46L72.6536 244.623Z" fill="#F4AB0B"/>
<path d="M75.3607 235.46L78.0626 226.314C78.0299 226.361 78.0247 226.379 77.9972 226.409C76.28 229.134 74.5747 231.881 72.8574 234.605C72.8248 234.653 72.8143 234.688 72.8039 234.723L75.3555 235.477L75.3607 235.46Z" fill="#F4AB0B"/>
<path d="M77.9121 236.213C77.9277 236.16 77.921 236.12 77.9365 236.068C77.9704 232.865 78.0214 229.667 78.0723 226.47C78.0708 226.412 78.0641 226.372 78.0625 226.314L75.3606 235.46L77.9121 236.213Z" fill="#E2951A"/>
</g>
<g opacity="0.5" clip-path="url(#clip1_46927_10649)">
<path d="M197.948 -4.16601L197.555 -3.67798L203.599 1.19148L203.992 0.703452L197.948 -4.16601Z" fill="#E2951A"/>
<path d="M226.078 13.5238C229.327 9.49153 228.679 3.5794 224.633 0.318895C220.586 -2.94173 214.671 -2.31624 211.422 1.71602C208.174 5.74828 208.821 11.6604 212.868 14.921C216.915 18.1815 222.829 17.5561 226.078 13.5238Z" fill="#FFC83E"/>
<path d="M225.529 13.0817C222.533 16.8006 217.058 17.3796 213.326 14.3724C209.594 11.3653 208.995 5.89262 211.991 2.17375C214.987 -1.54511 220.462 -2.1241 224.194 0.882986C227.927 3.89019 228.526 9.36289 225.529 13.0817ZM212.324 2.4421C209.477 5.97551 210.045 11.1657 213.591 14.0229C217.138 16.8801 222.33 16.3309 225.177 12.7975C228.024 9.26411 227.455 4.07394 223.909 1.21673C220.373 -1.63259 215.171 -1.09129 212.324 2.4421Z" fill="#E2951A"/>
<path d="M219.959 6.18529C219.929 6.16093 219.9 6.15441 219.87 6.13005C218.534 5.55605 217.207 4.99016 215.871 4.41628C215.092 4.08056 214.313 3.74496 213.524 3.40112L218.776 7.63246L219.949 6.17717L219.959 6.18529Z" fill="#E2951A"/>
<path d="M213.524 3.40108C213.537 3.42727 213.557 3.44351 213.559 3.46145C214.888 5.32659 216.224 7.18188 217.543 9.0389C217.565 9.07308 217.585 9.08943 217.606 9.10567L218.786 7.64053L213.524 3.40108Z" fill="#F4AB0B"/>
<path d="M218.786 7.64044L224.038 11.8718C224.015 11.8375 224.005 11.8294 223.993 11.8033C222.674 9.94628 221.338 8.09099 220.019 6.23397C219.997 6.19978 219.976 6.18342 219.956 6.16719L218.776 7.63232L218.786 7.64044Z" fill="#F4AB0B"/>
<path d="M217.605 9.10571C217.636 9.13018 217.664 9.13659 217.694 9.16094C219.779 10.0462 221.856 10.9413 223.933 11.8363C223.971 11.8509 223.999 11.8573 224.038 11.8719L218.786 7.64058L217.605 9.10571Z" fill="#E2951A"/>
</g>
<path d="M50.0119 42.4908C46.5289 42.4908 43.7031 39.6628 43.7031 36.1763C43.7031 32.6898 46.5289 29.8618 50.0119 29.8618C53.4949 29.8618 56.3207 32.6898 56.3207 36.1763C56.3207 39.6628 53.4949 42.4908 50.0119 42.4908ZM50.0119 30.2128C46.7261 30.2128 44.0537 32.8876 44.0537 36.1763C44.0537 39.4651 46.7261 42.1398 50.0119 42.1398C53.2978 42.1398 55.9702 39.4651 55.9702 36.1763C55.9702 32.8876 53.2978 30.2128 50.0119 30.2128Z" fill="#FFC83E"/>
<path d="M25.0119 206.491C21.5289 206.491 18.7031 203.663 18.7031 200.176C18.7031 196.69 21.5289 193.862 25.0119 193.862C28.4949 193.862 31.3207 196.69 31.3207 200.176C31.3207 203.663 28.4949 206.491 25.0119 206.491ZM25.0119 194.213C21.7261 194.213 19.0537 196.888 19.0537 200.176C19.0537 203.465 21.7261 206.14 25.0119 206.14C28.2978 206.14 30.9702 203.465 30.9702 200.176C30.9702 196.888 28.2978 194.213 25.0119 194.213Z" fill="#FFC83E"/>
<path d="M49.5989 20.4763C49.5551 20.4763 49.5113 20.4546 49.4675 20.4328L44.4511 15.4116C44.3854 15.3455 44.3854 15.2357 44.4511 15.1704L49.4675 10.1493C49.5332 10.0831 49.6428 10.0831 49.7084 10.1493L54.7248 15.1704C54.7905 15.2357 54.7905 15.3455 54.7248 15.4116L49.7084 20.4328C49.6865 20.4546 49.6428 20.4763 49.5989 20.4763ZM44.8454 15.2801L49.5989 20.06L54.3743 15.2801L49.5989 10.522L44.8454 15.2801Z" fill="#1DC8EF"/>
<path d="M24.5989 184.476C24.5551 184.476 24.5113 184.455 24.4675 184.433L19.4511 179.412C19.3854 179.345 19.3854 179.236 19.4511 179.17L24.4675 174.149C24.5332 174.083 24.6428 174.083 24.7084 174.149L29.7248 179.17C29.7905 179.236 29.7905 179.345 29.7248 179.412L24.7084 184.433C24.6865 184.455 24.6428 184.476 24.5989 184.476ZM19.8454 179.28L24.5989 184.06L29.3743 179.28L24.5989 174.522L19.8454 179.28Z" fill="#1DC8EF"/>
<path d="M32.3619 15.0613C32.3181 15.0613 32.2743 15.0395 32.2304 15.0177L25.5493 8.33046C25.4836 8.26427 25.4836 8.15452 25.5493 8.0892C25.615 8.023 25.7245 8.023 25.7902 8.0892L32.4714 14.7765C32.5371 14.8418 32.5371 14.9516 32.4714 15.0177C32.4495 15.0395 32.4057 15.0613 32.3619 15.0613Z" fill="#48D38A"/>
<path d="M7.36187 179.061C7.31806 179.061 7.27425 179.04 7.23044 179.018L0.549287 172.33C0.483571 172.264 0.483571 172.155 0.549287 172.089C0.615003 172.023 0.724532 172.023 0.790249 172.089L7.47141 178.776C7.53712 178.842 7.53712 178.952 7.47141 179.018C7.4495 179.04 7.40568 179.061 7.36187 179.061Z" fill="#48D38A"/>
<path d="M25.6983 15.0613C25.6545 15.0613 25.6107 15.0395 25.5669 15.0177C25.5011 14.9516 25.5011 14.8418 25.5669 14.7765L32.248 8.0892C32.3137 8.023 32.4233 8.023 32.489 8.0892C32.5547 8.15452 32.5547 8.26427 32.489 8.33046L25.8078 15.0177C25.7859 15.0395 25.7421 15.0613 25.6983 15.0613Z" fill="#48D38A"/>
<path d="M0.698296 179.061C0.654486 179.061 0.610676 179.04 0.566865 179.018C0.501149 178.952 0.501149 178.842 0.566865 178.776L7.24803 172.089C7.31374 172.023 7.42327 172.023 7.48899 172.089C7.5547 172.155 7.5547 172.264 7.48899 172.33L0.807823 179.018C0.785918 179.04 0.742107 179.061 0.698296 179.061Z" fill="#48D38A"/>
<path d="M68.6548 12.9999C66.8367 12.9999 65.3472 11.5088 65.3472 9.68847C65.3472 7.86902 66.8367 6.37793 68.6548 6.37793C70.4731 6.37793 71.9626 7.86902 71.9626 9.68847C71.9626 11.5088 70.4731 12.9999 68.6548 12.9999ZM68.6548 6.70716C67.012 6.70716 65.6976 8.04409 65.6976 9.6667C65.6976 11.2893 67.0338 12.6271 68.6548 12.6271C70.2978 12.6271 71.6122 11.2893 71.6122 9.6667C71.6122 8.04409 70.2758 6.70716 68.6548 6.70716Z" fill="#48D38A"/>
<path d="M43.6548 177C41.8367 177 40.3472 175.509 40.3472 173.688C40.3472 171.869 41.8367 170.378 43.6548 170.378C45.4731 170.378 46.9626 171.869 46.9626 173.688C46.9626 175.509 45.4731 177 43.6548 177ZM43.6548 170.707C42.012 170.707 40.6976 172.044 40.6976 173.667C40.6976 175.289 42.0338 176.627 43.6548 176.627C45.2978 176.627 46.6122 175.289 46.6122 173.667C46.6122 172.044 45.2758 170.707 43.6548 170.707Z" fill="#48D38A"/>
<path d="M24.8162 161.892H21.5523C21.4646 161.892 21.377 161.805 21.377 161.717V158.472C21.377 158.385 21.4646 158.297 21.5523 158.297H24.8162C24.9037 158.297 24.9914 158.385 24.9914 158.472V161.739C24.9914 161.827 24.9037 161.892 24.8162 161.892ZM21.7275 161.542H24.6409V158.648H21.7275V161.542Z" fill="#FFC83E"/>
<path d="M49.5068 152.289C48.5867 152.289 47.8638 151.543 47.8638 150.644C47.8638 149.746 48.6085 149 49.5068 149C50.4268 149 51.1496 149.746 51.1496 150.644C51.1496 151.543 50.4049 152.289 49.5068 152.289ZM49.5068 149.329C48.7839 149.329 48.2143 149.921 48.2143 150.623C48.2143 151.324 48.8058 151.916 49.5068 151.916C50.2077 151.916 50.7991 151.324 50.7991 150.623C50.7991 149.921 50.2296 149.329 49.5068 149.329Z" fill="#1DC8EF"/>
<path d="M395.186 71.3776C394.764 68.5413 396.723 65.8984 399.56 65.4771C402.396 65.0557 405.039 67.0149 405.46 69.8512C405.882 72.6875 403.923 75.3303 401.086 75.7517C398.25 76.1731 395.607 74.2138 395.186 71.3776ZM405.175 69.8936C404.777 67.218 402.278 65.365 399.602 65.7625C396.927 66.16 395.074 68.6595 395.471 71.3351C395.869 74.0109 398.368 75.8638 401.044 75.4663C403.72 75.0689 405.572 72.5694 405.175 69.8936Z" fill="#FFC83E"/>
<path d="M433.282 170.731C432.861 167.895 434.82 165.252 437.656 164.831C440.493 164.409 443.135 166.369 443.557 169.205C443.978 172.041 442.019 174.684 439.182 175.105C436.346 175.527 433.703 173.568 433.282 170.731ZM443.271 169.247C442.874 166.572 440.374 164.719 437.699 165.116C435.023 165.514 433.17 168.013 433.568 170.689C433.965 173.365 436.464 175.218 439.14 174.82C441.816 174.423 443.669 171.923 443.271 169.247Z" fill="#FFC83E"/>
<path d="M282.263 18.1432C281.842 15.3069 283.801 12.6641 286.638 12.2427C289.474 11.8213 292.117 13.7806 292.538 16.6168C292.959 19.4531 291 22.096 288.164 22.5173C285.327 22.9387 282.685 20.9794 282.263 18.1432ZM292.253 16.6592C291.855 13.9836 289.356 12.1306 286.68 12.5281C284.004 12.9256 282.151 15.4251 282.549 18.1008C282.946 20.7765 285.446 22.6295 288.122 22.232C290.797 21.8345 292.65 19.335 292.253 16.6592Z" fill="#FFC83E"/>
<path d="M300.228 107.654C299.806 104.817 301.765 102.175 304.602 101.753C307.438 101.332 310.081 103.291 310.502 106.127C310.924 108.964 308.965 111.606 306.128 112.028C303.292 112.449 300.649 110.49 300.228 107.654ZM310.217 106.17C309.819 103.494 307.32 101.641 304.644 102.039C301.969 102.436 300.116 104.936 300.513 107.611C300.911 110.287 303.41 112.14 306.086 111.742C308.762 111.345 310.614 108.845 310.217 106.17Z" fill="#FFC83E"/>
<path d="M413.369 68.1024C413.363 68.0639 413.374 68.0228 413.385 67.9818L416.596 62.9902C416.638 62.9248 416.723 62.9123 416.781 62.9626L421.305 66.8053C421.364 66.8555 421.378 66.952 421.336 67.0174L418.125 72.0089C418.084 72.0742 417.999 72.0868 417.94 72.0365L413.416 68.1939C413.397 68.1771 413.374 68.141 413.369 68.1024ZM416.749 63.3224L413.689 68.0548L417.995 71.7128L421.035 66.9636L416.749 63.3224Z" fill="#1DC8EF"/>
<path d="M451.465 167.457C451.459 167.419 451.472 167.377 451.486 167.336L455.249 162.262C455.299 162.196 455.395 162.182 455.461 162.231L460.537 165.991C460.604 166.041 460.618 166.137 460.568 166.203L456.805 171.277C456.756 171.343 456.66 171.358 456.593 171.309L451.517 167.548C451.495 167.532 451.47 167.496 451.465 167.457ZM455.416 162.592L451.831 167.403L456.663 170.983L460.226 166.156L455.416 162.592Z" fill="#1DC8EF"/>
<path d="M300.531 15.4379C300.526 15.4041 300.537 15.3679 300.549 15.3317L303.842 10.8923C303.885 10.8341 303.97 10.8215 304.028 10.8647L308.469 14.1552C308.527 14.1982 308.54 14.2826 308.496 14.3408L305.204 18.7801C305.161 18.8383 305.076 18.8508 305.018 18.8077L300.577 15.5173C300.557 15.5029 300.536 15.4717 300.531 15.4379ZM303.988 11.181L300.851 15.3902L305.079 18.5227L308.197 14.299L303.988 11.181Z" fill="#1DC8EF"/>
<path d="M318.411 104.378C318.405 104.34 318.418 104.298 318.432 104.257L322.195 99.1832C322.245 99.1168 322.341 99.1024 322.407 99.1517L327.483 102.912C327.55 102.961 327.564 103.058 327.514 103.124L323.751 108.198C323.702 108.264 323.606 108.279 323.539 108.229L318.463 104.469C318.441 104.453 318.416 104.417 318.411 104.378ZM322.362 99.5133L318.777 104.324L323.609 107.904L327.172 103.077L322.362 99.5133Z" fill="#1DC8EF"/>
<path d="M415.879 53.5862C415.874 53.5506 415.886 53.5123 415.898 53.4741L420.528 47.2344C420.574 47.173 420.663 47.1597 420.724 47.2052C420.786 47.2507 420.799 47.3397 420.753 47.4012L416.124 53.6408C416.079 53.7022 415.989 53.7154 415.928 53.67C415.907 53.6548 415.884 53.6218 415.879 53.5862Z" fill="#48D38A"/>
<path d="M453.976 152.94C453.97 152.905 453.983 152.866 453.995 152.828L458.624 146.588C458.67 146.527 458.76 146.514 458.821 146.559C458.882 146.605 458.896 146.694 458.85 146.755L454.22 152.995C454.175 153.056 454.086 153.069 454.024 153.024C454.004 153.009 453.981 152.976 453.976 152.94Z" fill="#48D38A"/>
<path d="M320.918 89.8363C320.911 89.7935 320.923 89.7481 320.934 89.7028L325.402 82.3767C325.446 82.3046 325.536 82.2913 325.598 82.3475C325.661 82.4037 325.677 82.5105 325.633 82.5826L321.165 89.9087C321.122 89.9807 321.032 89.994 320.969 89.9379C320.948 89.9191 320.924 89.879 320.918 89.8363Z" fill="#48D38A"/>
<path d="M415.072 48.1541C415.067 48.1185 415.079 48.0802 415.092 48.042C415.137 47.9806 415.227 47.9673 415.288 48.0128L421.531 52.6373C421.593 52.6828 421.606 52.7718 421.56 52.8333C421.515 52.8946 421.426 52.9078 421.364 52.8624L415.121 48.2379C415.1 48.2227 415.077 48.1897 415.072 48.1541Z" fill="#48D38A"/>
<path d="M453.169 147.508C453.163 147.472 453.176 147.434 453.188 147.396C453.234 147.335 453.323 147.321 453.384 147.367L459.628 151.991C459.689 152.037 459.703 152.126 459.657 152.187C459.611 152.249 459.522 152.262 459.461 152.216L453.217 147.592C453.197 147.577 453.174 147.544 453.169 147.508Z" fill="#48D38A"/>
<path d="M319.949 83.3178C319.943 83.275 319.954 83.2296 319.966 83.1843C320.01 83.1122 320.099 83.0989 320.162 83.1551L326.567 88.8661C326.63 88.9222 326.646 89.029 326.601 89.1011C326.558 89.1731 326.469 89.1864 326.405 89.1303L320.001 83.4194C319.98 83.4006 319.956 83.3605 319.949 83.3178Z" fill="#48D38A"/>
<path d="M421.365 82.6569C421.132 81.0881 422.226 79.6119 423.795 79.3788C425.364 79.1458 426.84 80.2401 427.073 81.8089C427.306 83.3777 426.212 84.8539 424.643 85.0869C423.074 85.32 421.598 84.2257 421.365 82.6569ZM426.789 81.851C426.579 80.4335 425.258 79.4706 423.859 79.6784C422.46 79.8862 421.478 81.2104 421.686 82.6091C421.897 84.0268 423.218 84.9895 424.617 84.7817C426.016 84.574 426.997 83.2497 426.789 81.851Z" fill="#48D38A"/>
<path d="M460.688 182.413C460.501 181.158 461.377 179.977 462.632 179.79C463.887 179.604 465.068 180.479 465.254 181.734C465.441 182.989 464.565 184.17 463.31 184.357C462.055 184.543 460.874 183.668 460.688 182.413ZM465.027 181.768C464.859 180.634 463.802 179.864 462.683 180.03C461.564 180.196 460.779 181.256 460.945 182.375C461.113 183.509 462.171 184.279 463.29 184.113C464.408 183.946 465.193 182.887 465.027 181.768Z" fill="#48D38A"/>
<path d="M308.612 30.5643C308.379 28.9956 309.473 27.5193 311.042 27.2862C312.611 27.0532 314.087 28.1476 314.32 29.7163C314.553 31.2852 313.459 32.7614 311.89 32.9944C310.321 33.2275 308.845 32.1332 308.612 30.5643ZM314.036 29.7585C313.826 28.3409 312.505 27.3781 311.106 27.5858C309.707 27.7936 308.725 29.1179 308.933 30.5166C309.144 31.9342 310.465 32.897 311.864 32.6892C313.263 32.4814 314.244 31.1572 314.036 29.7585Z" fill="#48D38A"/>
<path d="M327.548 118.764C327.315 117.195 328.153 115.757 329.408 115.57C330.663 115.384 331.882 116.516 332.115 118.085C332.348 119.654 331.511 121.092 330.256 121.278C329.001 121.465 327.781 120.332 327.548 118.764ZM331.888 118.119C331.677 116.701 330.587 115.704 329.468 115.871C328.349 116.037 327.598 117.327 327.805 118.725C328.016 120.143 329.107 121.14 330.226 120.974C331.345 120.808 332.096 119.518 331.888 118.119Z" fill="#48D38A"/>
<path d="M431.617 65.2688L431.31 63.2069C431.302 63.1516 431.377 63.0839 431.461 63.0714L434.552 62.6122C434.635 62.5999 434.727 62.6428 434.735 62.6981L435.041 64.76C435.05 64.8153 434.974 64.8831 434.891 64.8954L431.779 65.3578C431.695 65.3702 431.625 65.3241 431.617 65.2688ZM431.66 63.2681L431.934 65.1085L434.691 64.6989L434.417 62.8585L431.66 63.2681Z" fill="#FFC83E"/>
<path d="M470.854 164.454L470.548 162.392C470.54 162.336 470.587 162.273 470.643 162.265L472.704 161.958C472.759 161.95 472.823 161.997 472.831 162.053L473.138 164.114C473.146 164.17 473.098 164.233 473.043 164.242L470.968 164.55C470.912 164.558 470.863 164.509 470.854 164.454ZM470.787 162.469L471.06 164.31L472.898 164.037L472.625 162.196L470.787 162.469Z" fill="#FFC83E"/>
<path d="M318.856 13.1212L318.396 10.0284C318.384 9.94536 318.454 9.84998 318.538 9.83753L321.63 9.37829C321.713 9.36596 321.809 9.43658 321.821 9.51964L322.281 12.6124C322.293 12.6953 322.221 12.7909 322.138 12.8032L319.026 13.2655C318.943 13.2779 318.868 13.2041 318.856 13.1212ZM318.754 10.1449L319.164 12.9056L321.921 12.496L321.511 9.73534L318.754 10.1449Z" fill="#FFC83E"/>
<path d="M442.678 84.741C442.583 84.1017 443.285 83.484 444.221 83.345C445.157 83.2059 446.01 83.6081 446.103 84.2322C446.198 84.8715 445.496 85.4892 444.56 85.6282C443.624 85.7673 442.771 85.3651 442.678 84.741ZM445.76 84.2832C445.685 83.7809 445.011 83.4766 444.28 83.5852C443.549 83.6937 442.994 84.1963 443.066 84.6834C443.138 85.1704 443.816 85.4897 444.546 85.3813C445.277 85.2727 445.834 84.7855 445.76 84.2832Z" fill="#1DC8EF"/>
<path d="M481.916 183.926C481.821 183.287 482.264 182.708 482.888 182.615C483.512 182.522 484.106 182.963 484.199 183.587C484.294 184.227 483.851 184.806 483.227 184.898C482.603 184.991 482.008 184.55 481.916 183.926ZM483.97 183.621C483.896 183.119 483.426 182.784 482.939 182.856C482.452 182.929 482.102 183.401 482.174 183.888C482.247 184.375 482.719 184.725 483.206 184.653C483.693 184.58 484.045 184.123 483.97 183.621Z" fill="#1DC8EF"/>
<path d="M329.839 32.078C329.697 31.1189 330.361 30.2501 331.297 30.1111C332.233 29.972 333.125 30.633 333.264 31.5692C333.407 32.5281 332.742 33.3969 331.806 33.536C330.87 33.675 329.978 33.0141 329.839 32.078ZM332.921 31.6201C332.809 30.8666 332.105 30.3645 331.374 30.4731C330.644 30.5816 330.119 31.2896 330.227 32.0203C330.336 32.7509 331.044 33.2757 331.775 33.1672C332.506 33.0586 333.033 32.3736 332.921 31.6201Z" fill="#1DC8EF"/>
<path d="M348.861 120.849C348.766 120.209 349.209 119.63 349.833 119.538C350.457 119.445 351.052 119.885 351.145 120.51C351.24 121.149 350.797 121.728 350.173 121.821C349.549 121.913 348.954 121.473 348.861 120.849ZM350.916 120.544C350.842 120.041 350.372 119.706 349.885 119.779C349.398 119.851 349.048 120.323 349.12 120.81C349.193 121.297 349.665 121.647 350.152 121.575C350.639 121.503 350.991 121.046 350.916 120.544Z" fill="#1DC8EF"/>
<defs>
<clipPath id="clip0_46927_10649">
<rect width="26.516" height="70.2674" fill="white" transform="translate(71.9297 293.901) rotate(-163.542)"/>
</clipPath>
<clipPath id="clip1_46927_10649">
<rect width="18.7519" height="49.6925" fill="white" transform="translate(181.5 -10.3521) rotate(-51.1419)"/>
</clipPath>
</defs>
</svg>
