<svg width="37" height="37" viewBox="0 0 37 37" fill="none" xmlns="http://www.w3.org/2000/svg">
<g id="Icon">
<circle id="Ellipse" cx="18.5" cy="18.5" r="18.5" fill="#F4F4F4"/>
<g id="Group 275">
<g id="Group 4.2">
<path id="Rectangle" d="M12.8999 18.4737C12.8999 15.3948 15.3958 12.8989 18.4747 12.8989C21.5535 12.8989 24.0495 15.3948 24.0495 18.4737C24.0495 21.5526 21.5535 24.0485 18.4747 24.0485C15.3958 24.0485 12.8999 21.5526 12.8999 18.4737Z" fill="#1DCBEF"/>
</g>
<g id="Group 6059">
<circle id="Ellipse 73" cx="18.5" cy="18.2988" r="7.5" fill="black"/>
<path id="&#244;&#128;&#141;&#189;" d="M18.5171 19.7953C18.8414 19.7953 19.1194 19.6795 19.351 19.4478C19.5827 19.2162 19.6985 18.9356 19.6985 18.6062C19.6985 18.3643 19.6341 18.1481 19.5054 17.9576C19.3768 17.762 19.2095 17.6179 19.0036 17.5252V14.1742C19.0036 14.03 18.9547 13.9091 18.8569 13.8113C18.7642 13.7135 18.651 13.6646 18.5171 13.6646C18.3781 13.6646 18.2597 13.7135 18.1619 13.8113C18.0641 13.9091 18.0152 14.03 18.0152 14.1742V17.5252C17.8093 17.6179 17.642 17.762 17.5133 17.9576C17.3847 18.1481 17.3203 18.3643 17.3203 18.6062C17.3203 18.9356 17.4361 19.2162 17.6678 19.4478C17.8994 19.6795 18.1825 19.7953 18.5171 19.7953Z" fill="#48D38A"/>
</g>
</g>
</g>
</svg>
