<svg width="37" height="38" viewBox="0 0 37 38" fill="none" xmlns="http://www.w3.org/2000/svg">
<circle cx="18.5" cy="18.5" r="18.5" fill="#F4F4F4"/>
<mask id="mask0_1372_7967" style="mask-type:alpha" maskUnits="userSpaceOnUse" x="0" y="0" width="37" height="38">
<circle cx="18.5" cy="18.6604" r="18.5" fill="#F4F4F4"/>
</mask>
<g mask="url(#mask0_1372_7967)">
<path d="M16.9492 16.6877C16.9853 16.6977 17.0133 16.716 17.0334 16.7426C17.0535 16.7686 17.0635 16.8011 17.0635 16.84C17.0635 16.895 17.0452 16.9375 17.0086 16.9676C16.972 16.9971 16.9203 17.0119 16.8536 17.0119H16.5913V16.3811H16.8447C16.9091 16.3811 16.959 16.3956 16.9944 16.4245C17.0304 16.4529 17.0485 16.4933 17.0485 16.5459C17.0485 16.5796 17.0396 16.6088 17.0219 16.6336C17.0048 16.6578 16.9805 16.6758 16.9492 16.6877ZM16.6631 16.6611H16.8332C16.8804 16.6611 16.9162 16.6516 16.9404 16.6327C16.9646 16.6138 16.9767 16.5861 16.9767 16.5494C16.9767 16.4774 16.9289 16.4414 16.8332 16.4414H16.6631V16.6611ZM16.8473 16.9517C16.897 16.9517 16.9333 16.9425 16.9563 16.9242C16.9799 16.9053 16.9918 16.8767 16.9918 16.8383C16.9918 16.7609 16.9436 16.7222 16.8473 16.7222H16.6631V16.9517H16.8473Z" fill="black"/>
<path d="M17.5381 17.019C17.4554 17.019 17.3928 16.9977 17.3503 16.9552C17.3083 16.9121 17.2874 16.8486 17.2874 16.7647V16.3811H17.3591V16.7709C17.3591 16.8324 17.3742 16.8787 17.4043 16.91C17.4344 16.9413 17.479 16.957 17.5381 16.957C17.5966 16.957 17.6406 16.9413 17.6701 16.91C17.7002 16.8787 17.7153 16.8324 17.7153 16.7709V16.3811H17.7879V16.7647C17.7879 16.848 17.7667 16.9112 17.7241 16.9543C17.6816 16.9974 17.6196 17.019 17.5381 17.019Z" fill="black"/>
<path d="M18.2375 17.019C18.1389 17.019 18.0603 16.9924 18.0018 16.9393L18.0293 16.8834C18.0606 16.91 18.0925 16.9289 18.125 16.9401C18.1575 16.9514 18.1953 16.957 18.2384 16.957C18.2892 16.957 18.3282 16.9472 18.3553 16.9277C18.3831 16.9077 18.397 16.8796 18.397 16.8436C18.397 16.8223 18.3902 16.8052 18.3766 16.7922C18.3636 16.7786 18.3462 16.768 18.3243 16.7603C18.3031 16.7526 18.2744 16.7446 18.2384 16.7364C18.19 16.7257 18.1501 16.7142 18.1188 16.7018C18.0875 16.6894 18.0621 16.6717 18.0426 16.6487C18.0231 16.625 18.0134 16.5943 18.0134 16.5565C18.0134 16.5205 18.0228 16.4889 18.0417 16.4617C18.0606 16.434 18.0872 16.4124 18.1214 16.3971C18.1563 16.3817 18.1968 16.374 18.2428 16.374C18.2865 16.374 18.3273 16.3808 18.3651 16.3944C18.4029 16.408 18.4348 16.4278 18.4608 16.4538L18.4324 16.5096C18.4029 16.4842 18.3728 16.4656 18.3421 16.4538C18.3119 16.4419 18.2789 16.436 18.2428 16.436C18.1938 16.436 18.1554 16.4467 18.1277 16.4679C18.0999 16.4886 18.086 16.5173 18.086 16.5539C18.086 16.5858 18.0981 16.6097 18.1223 16.6256C18.1466 16.6416 18.1838 16.6555 18.234 16.6673C18.2883 16.6803 18.3308 16.6924 18.3615 16.7036C18.3928 16.7142 18.4188 16.7308 18.4395 16.7532C18.4602 16.7751 18.4705 16.8043 18.4705 16.8409C18.4705 16.8764 18.4611 16.9077 18.4422 16.9348C18.4233 16.9614 18.3961 16.9821 18.3607 16.9968C18.3258 17.0116 18.2848 17.019 18.2375 17.019Z" fill="black"/>
<path d="M18.6867 16.3811H18.7594V17.0119H18.6867V16.3811Z" fill="black"/>
<path d="M19.5185 16.3811V17.0119H19.4618L19.0808 16.5043V17.0119H19.0126V16.3811H19.0684L19.4494 16.8888V16.3811H19.5185Z" fill="black"/>
<path d="M19.7711 16.3811H20.1697V16.4414H19.8428V16.6611H20.152V16.7222H19.8428V16.9517H20.1697V17.0119H19.7711V16.3811Z" fill="black"/>
<path d="M20.5809 17.019C20.4823 17.019 20.4037 16.9924 20.3453 16.9393L20.3727 16.8834C20.404 16.91 20.4359 16.9289 20.4684 16.9401C20.5009 16.9514 20.5387 16.957 20.5818 16.957C20.6326 16.957 20.6716 16.9472 20.6988 16.9277C20.7265 16.9077 20.7404 16.8796 20.7404 16.8436C20.7404 16.8223 20.7336 16.8052 20.72 16.7922C20.707 16.7786 20.6896 16.768 20.6678 16.7603C20.6465 16.7526 20.6178 16.7446 20.5818 16.7364C20.5334 16.7257 20.4935 16.7142 20.4622 16.7018C20.4309 16.6894 20.4055 16.6717 20.386 16.6487C20.3665 16.625 20.3568 16.5943 20.3568 16.5565C20.3568 16.5205 20.3662 16.4889 20.3851 16.4617C20.404 16.434 20.4306 16.4124 20.4649 16.3971C20.4997 16.3817 20.5402 16.374 20.5862 16.374C20.63 16.374 20.6707 16.3808 20.7085 16.3944C20.7463 16.408 20.7782 16.4278 20.8042 16.4538L20.7758 16.5096C20.7463 16.4842 20.7162 16.4656 20.6855 16.4538C20.6553 16.4419 20.6223 16.436 20.5862 16.436C20.5372 16.436 20.4988 16.4467 20.4711 16.4679C20.4433 16.4886 20.4294 16.5173 20.4294 16.5539C20.4294 16.5858 20.4415 16.6097 20.4658 16.6256C20.49 16.6416 20.5272 16.6555 20.5774 16.6673C20.6317 16.6803 20.6743 16.6924 20.705 16.7036C20.7363 16.7142 20.7623 16.7308 20.7829 16.7532C20.8036 16.7751 20.8139 16.8043 20.8139 16.8409C20.8139 16.8764 20.8045 16.9077 20.7856 16.9348C20.7667 16.9614 20.7395 16.9821 20.7041 16.9968C20.6692 17.0116 20.6282 17.019 20.5809 17.019Z" fill="black"/>
<path d="M21.2304 17.019C21.1317 17.019 21.0532 16.9924 20.9947 16.9393L21.0222 16.8834C21.0535 16.91 21.0854 16.9289 21.1179 16.9401C21.1503 16.9514 21.1881 16.957 21.2313 16.957C21.2821 16.957 21.321 16.9472 21.3482 16.9277C21.376 16.9077 21.3898 16.8796 21.3898 16.8436C21.3898 16.8223 21.3831 16.8052 21.3695 16.7922C21.3565 16.7786 21.3391 16.768 21.3172 16.7603C21.2959 16.7526 21.2673 16.7446 21.2313 16.7364C21.1828 16.7257 21.143 16.7142 21.1117 16.7018C21.0804 16.6894 21.055 16.6717 21.0355 16.6487C21.016 16.625 21.0062 16.5943 21.0062 16.5565C21.0062 16.5205 21.0157 16.4889 21.0346 16.4617C21.0535 16.434 21.0801 16.4124 21.1143 16.3971C21.1492 16.3817 21.1896 16.374 21.2357 16.374C21.2794 16.374 21.3202 16.3808 21.358 16.3944C21.3958 16.408 21.4276 16.4278 21.4536 16.4538L21.4253 16.5096C21.3958 16.4842 21.3656 16.4656 21.3349 16.4538C21.3048 16.4419 21.2717 16.436 21.2357 16.436C21.1867 16.436 21.1483 16.4467 21.1205 16.4679C21.0928 16.4886 21.0789 16.5173 21.0789 16.5539C21.0789 16.5858 21.091 16.6097 21.1152 16.6256C21.1394 16.6416 21.1766 16.6555 21.2268 16.6673C21.2812 16.6803 21.3237 16.6924 21.3544 16.7036C21.3857 16.7142 21.4117 16.7308 21.4324 16.7532C21.453 16.7751 21.4634 16.8043 21.4634 16.8409C21.4634 16.8764 21.4539 16.9077 21.435 16.9348C21.4161 16.9614 21.389 16.9821 21.3535 16.9968C21.3187 17.0116 21.2776 17.019 21.2304 17.019Z" fill="black"/>
<path d="M15.882 17.0118L15.6069 16.6927L15.7572 17.0118H15.653L15.4998 16.6865L15.5635 17.0118H15.4995L15.4357 16.686V17.0118H15.4106V16.3074H15.4357V16.6588L15.5004 16.3074H15.5642L15.4993 16.6604L15.6554 16.3074H15.7585L15.6029 16.659L15.8854 16.3074H16.0468L15.7546 16.6712L16.0482 17.0118H15.882Z" fill="black"/>
<path d="M16.1373 17.0123C16.1804 17.0123 16.2154 16.9769 16.2154 16.9334C16.2154 16.8898 16.1804 16.8545 16.1373 16.8545C16.0941 16.8545 16.0591 16.8898 16.0591 16.9334C16.0591 16.9769 16.0941 17.0123 16.1373 17.0123Z" fill="black"/>
<g clip-path="url(#clip0_1372_7967)">
<path d="M14.7236 16.864V28.133C14.7236 28.3885 14.9307 28.5966 15.1873 28.5966H21.6816C21.9371 28.5966 22.1452 28.3896 22.1452 28.133V16.864C22.1452 16.6085 21.9381 16.4004 21.6816 16.4004H15.1873C14.9307 16.4004 14.7236 16.6075 14.7236 16.864Z" fill="#48D38A"/>
<path d="M21.6806 16.4004H18.4072V28.5966H21.6806C21.9362 28.5966 22.1443 28.3896 22.1443 28.133V16.864C22.1443 16.6075 21.9372 16.4004 21.6806 16.4004Z" fill="#48D38A"/>
<path d="M17.523 16.4004H16.3999V28.5966H17.523V16.4004Z" fill="black"/>
<path d="M23.4189 26.0078V17.5833C23.4189 17.4731 23.4457 17.3649 23.4972 17.268L23.9217 16.4634C23.9732 16.3666 24 16.2584 24 16.1481V10.3509C24 9.9779 23.6981 9.67603 23.3251 9.67603H13.6749C13.3019 9.675 13 9.9779 13 10.3509V16.1481C13 16.2584 13.0268 16.3666 13.0783 16.4634L13.5028 17.268C13.5543 17.3649 13.5811 17.4731 13.5811 17.5833V26.0067C13.5811 26.3797 13.883 26.6816 14.256 26.6816H22.743C23.116 26.6826 23.4189 26.3807 23.4189 26.0078Z" fill="#121212"/>
<path d="M23.4191 26.0078V17.5833C23.4191 17.4731 23.4459 17.3649 23.4974 17.268L23.9136 16.4799C23.9652 16.383 23.9919 16.2749 23.9919 16.1646V10.3508C23.9919 9.97789 23.6901 9.67603 23.3171 9.67603H18.4919V26.6836H22.7432C23.1161 26.6826 23.4191 26.3807 23.4191 26.0078Z" fill="#121212"/>
<path d="M22.6244 9.70679H14.3579V12.9325H22.6244V9.70679Z" fill="#121212"/>
<path d="M22.5986 13.7742H14.3857V17.4162H22.5986V13.7742Z" fill="#F9F9F9"/>
<path d="M22.5979 13.7742H18.4919V17.4162H22.5979V13.7742Z" fill="#F9F9F9"/>
<path d="M15.0164 20.0185V20.4203C15.0164 20.5594 15.1297 20.6727 15.2688 20.6727H16.6072C16.7463 20.6727 16.8597 20.5594 16.8597 20.4203V20.0185C16.8597 19.8794 16.7463 19.7661 16.6072 19.7661H15.2688C15.1297 19.7661 15.0164 19.8784 15.0164 20.0185Z" fill="#E6E7E8"/>
<path d="M17.5706 20.0185V20.4203C17.5706 20.5594 17.6839 20.6727 17.823 20.6727H19.1614C19.3005 20.6727 19.4138 20.5594 19.4138 20.4203V20.0185C19.4138 19.8794 19.3005 19.7661 19.1614 19.7661H17.823C17.6829 19.7661 17.5706 19.8784 17.5706 20.0185Z" fill="#E6E7E8"/>
<path d="M20.1238 20.0185V20.4203C20.1238 20.5594 20.2371 20.6727 20.3762 20.6727H21.7146C21.8537 20.6727 21.9671 20.5594 21.9671 20.4203V20.0185C21.9671 19.8794 21.8537 19.7661 21.7146 19.7661H20.3762C20.2371 19.7661 20.1238 19.8784 20.1238 20.0185Z" fill="#E6E7E8"/>
<path d="M15.0164 21.3847V21.7865C15.0164 21.9256 15.1297 22.039 15.2688 22.039H16.6072C16.7463 22.039 16.8597 21.9256 16.8597 21.7865V21.3847C16.8597 21.2457 16.7463 21.1323 16.6072 21.1323H15.2688C15.1297 21.1323 15.0164 21.2446 15.0164 21.3847Z" fill="#E6E7E8"/>
<path d="M17.5706 21.3847V21.7865C17.5706 21.9256 17.6839 22.039 17.823 22.039H19.1614C19.3005 22.039 19.4138 21.9256 19.4138 21.7865V21.3847C19.4138 21.2457 19.3005 21.1323 19.1614 21.1323H17.823C17.6829 21.1323 17.5706 21.2446 17.5706 21.3847Z" fill="#E6E7E8"/>
<path d="M20.1238 21.3847V21.7865C20.1238 21.9256 20.2371 22.039 20.3762 22.039H21.7146C21.8537 22.039 21.9671 21.9256 21.9671 21.7865V21.3847C21.9671 21.2457 21.8537 21.1323 21.7146 21.1323H20.3762C20.2371 21.1323 20.1238 21.2446 20.1238 21.3847Z" fill="#E6E7E8"/>
<path d="M15.0164 22.7509V23.1528C15.0164 23.2918 15.1297 23.4052 15.2688 23.4052H16.6072C16.7463 23.4052 16.8597 23.2918 16.8597 23.1528V22.7509C16.8597 22.6119 16.7463 22.4985 16.6072 22.4985H15.2688C15.1297 22.4985 15.0164 22.6108 15.0164 22.7509Z" fill="#E6E7E8"/>
<path d="M17.5706 22.7509V23.1528C17.5706 23.2918 17.6839 23.4052 17.823 23.4052H19.1614C19.3005 23.4052 19.4138 23.2918 19.4138 23.1528V22.7509C19.4138 22.6119 19.3005 22.4985 19.1614 22.4985H17.823C17.6829 22.4985 17.5706 22.6108 17.5706 22.7509Z" fill="#E6E7E8"/>
<path d="M20.1238 22.7509V23.1528C20.1238 23.2918 20.2371 23.4052 20.3762 23.4052H21.7146C21.8537 23.4052 21.9671 23.2918 21.9671 23.1528V22.7509C21.9671 22.6119 21.8537 22.4985 21.7146 22.4985H20.3762C20.2371 22.4985 20.1238 22.6108 20.1238 22.7509Z" fill="#E6E7E8"/>
<path d="M15.0164 24.1169V24.5187C15.0164 24.6578 15.1297 24.7711 15.2688 24.7711H16.6072C16.7463 24.7711 16.8597 24.6578 16.8597 24.5187V24.1169C16.8597 23.9778 16.7463 23.8645 16.6072 23.8645H15.2688C15.1297 23.8645 15.0164 23.9768 15.0164 24.1169Z" fill="#F7685B"/>
<path d="M17.5706 24.1169V24.5187C17.5706 24.6578 17.6839 24.7711 17.823 24.7711H19.1614C19.3005 24.7711 19.4138 24.6578 19.4138 24.5187V24.1169C19.4138 23.9778 19.3005 23.8645 19.1614 23.8645H17.823C17.6829 23.8645 17.5706 23.9768 17.5706 24.1169Z" fill="#FFC83E"/>
<path d="M20.1238 24.1169V24.5187C20.1238 24.6578 20.2371 24.7711 20.3762 24.7711H21.7146C21.8537 24.7711 21.9671 24.6578 21.9671 24.5187V24.1169C21.9671 23.9778 21.8537 23.8645 21.7146 23.8645H20.3762C20.2371 23.8645 20.1238 23.9768 20.1238 24.1169Z" fill="#48D38A"/>
<path d="M21.7394 9.29775L21.4097 9L21.08 9.29775L20.7503 9L20.4206 9.29775L20.0898 9L19.7601 9.29775L19.4304 9L19.0997 9.29775L18.7699 9L18.4392 9.29775L18.1085 9L17.7787 9.29775L17.448 9L17.1183 9.29775L16.7876 9L16.4568 9.29775L16.1261 9L15.7953 9.29775L15.4646 9L15.1328 9.29775V11.5994H21.7394V9.29775Z" fill="#CACACA"/>
<path d="M21.08 9.29775L20.7503 9L20.4205 9.29775L20.0898 9L19.7601 9.29775L19.4304 9L19.0996 9.29775L18.7699 9L18.4443 9.29259V11.5994H21.7394V9.29775L21.4097 9L21.08 9.29775Z" fill="#CACACA"/>
<path d="M15.3524 18.1209L15.849 18.4074C16.0077 18.4991 16.0077 18.7288 15.849 18.8205L15.3524 19.1069C15.1937 19.1986 14.9949 19.0842 14.9949 18.8998V18.326C14.9949 18.1436 15.1937 18.0293 15.3524 18.1209Z" fill="#E6E7E8"/>
<path d="M21.6303 18.1209L21.1337 18.4074C20.975 18.4991 20.975 18.7288 21.1337 18.8205L21.6303 19.1069C21.789 19.1986 21.9878 19.0842 21.9878 18.8998V18.326C21.9888 18.1436 21.79 18.0293 21.6303 18.1209Z" fill="#E6E7E8"/>
<path d="M18.4362 18.0972C17.9015 18.0972 17.4688 18.329 17.4688 18.6154C17.4688 18.9018 17.9025 19.1336 18.4362 19.1336C18.971 19.1336 19.4037 18.9018 19.4037 18.6154C19.4048 18.329 18.971 18.0972 18.4362 18.0972Z" fill="#E6E7E8"/>
</g>
</g>
<defs>
<clipPath id="clip0_1372_7967">
<rect width="11" height="19.5966" fill="white" transform="translate(13 9)"/>
</clipPath>
</defs>
</svg>
