<svg width="37" height="37" viewBox="0 0 37 37" fill="none" xmlns="http://www.w3.org/2000/svg">
<circle cx="18.5" cy="18.5" r="18.5" fill="#F4F4F4"/>
<path d="M12.8999 18.4737C12.8999 15.3948 15.3958 12.8989 18.4747 12.8989C21.5535 12.8989 24.0495 15.3948 24.0495 18.4737C24.0495 21.5526 21.5535 24.0485 18.4747 24.0485C15.3958 24.0485 12.8999 21.5526 12.8999 18.4737Z" fill="#1DCBEF"/>
<path d="M9.40039 24.8431H14.2003V20.0432H12.2231L12.223 18.0866H18.0623V22.1991L16.0793 22.1992V26.999H20.8791V22.1991H18.9168L18.9111 18.0866H24.7504L24.7503 20.0433H22.7582V24.8431H27.558V20.0433H25.5957L25.5957 17.1694H18.9111V14.799H20.8867V9.99902H16.0868V14.799H18.0623V17.1694H11.3776L11.3777 20.0432H9.40039V24.8431Z" fill="black"/>
</svg>
