<svg width="700" height="424" viewBox="0 0 700 424" fill="none" xmlns="http://www.w3.org/2000/svg">
<rect x="1.05701" y="1.05701" width="697.886" height="114.157" rx="7.39907" fill="white"/>
<g filter="url(#filter0_d_1160_8173)">
<rect x="32.667" y="32.9355" width="43.9679" height="50.4" rx="7.46667" fill="white"/>
<path d="M60.7021 54.3641H56.0262L59.7578 49.4082C59.8614 49.27 59.9059 49.0963 59.8815 48.9254C59.8571 48.7544 59.7657 48.6001 59.6276 48.4965C59.5591 48.4451 59.4813 48.4078 59.3984 48.3866C59.3156 48.3654 59.2294 48.3607 59.1447 48.3728C58.9737 48.3972 58.8194 48.4885 58.7158 48.6267L55.8829 52.4234L54.7237 53.9343L50.7446 48.6267C50.6933 48.5583 50.629 48.5006 50.5554 48.4571C50.4818 48.4135 50.4004 48.3849 50.3157 48.3728C50.2311 48.3607 50.1448 48.3654 50.062 48.3866C49.9792 48.4078 49.9013 48.4451 49.8329 48.4965C49.6947 48.6001 49.6034 48.7544 49.5789 48.9254C49.5545 49.0963 49.599 49.27 49.7026 49.4082L53.4342 54.3641H48.602C47.9112 54.3641 47.2486 54.6386 46.76 55.1271C46.2715 55.6156 45.9971 56.2782 45.9971 56.9691V65.2985C45.9971 65.9894 46.2715 66.652 46.76 67.1405C47.2486 67.629 47.9112 67.9035 48.602 67.9035H60.7021C61.393 67.9035 62.0556 67.629 62.5441 67.1405C63.0326 66.652 63.3071 65.9894 63.3071 65.2985V56.9691C63.3071 56.2782 63.0326 55.6156 62.5441 55.1271C62.0556 54.6386 61.393 54.3641 60.7021 54.3641V54.3641ZM52.6202 61.0459C52.5345 61.0464 52.4495 61.0299 52.3702 60.9975C52.2908 60.9651 52.2187 60.9174 52.1578 60.857C52.0968 60.7965 52.0483 60.7245 52.0153 60.6451C51.9822 60.5657 51.9652 60.4806 51.9652 60.3946C51.9652 60.3087 51.9822 60.2235 52.0153 60.1442C52.0483 60.0648 52.0968 59.9928 52.1578 59.9323L53.7338 58.3628C53.7922 58.2946 53.864 58.2392 53.9448 58.2001C54.0256 58.161 54.1136 58.1391 54.2033 58.1356C54.293 58.1322 54.3825 58.1473 54.466 58.18C54.5496 58.2127 54.6255 58.2624 54.689 58.3259C54.7524 58.3893 54.8021 58.4652 54.8348 58.5488C54.8676 58.6324 54.8827 58.7218 54.8792 58.8115C54.8758 58.9012 54.8538 58.9892 54.8147 59.07C54.7756 59.1508 54.7202 59.2226 54.6521 59.281L53.0826 60.857C53.0217 60.9174 52.9496 60.9651 52.8702 60.9975C52.7909 61.0299 52.7059 61.0464 52.6202 61.0459ZM58.9307 59.9583L54.6 64.2956C54.5394 64.3566 54.4674 64.4051 54.388 64.4381C54.3087 64.4712 54.2236 64.4882 54.1376 64.4882C54.0516 64.4882 53.9665 64.4712 53.8871 64.4381C53.8078 64.4051 53.7357 64.3566 53.6752 64.2956C53.6142 64.235 53.5657 64.163 53.5327 64.0836C53.4996 64.0043 53.4826 63.9192 53.4826 63.8332C53.4826 63.7472 53.4996 63.6621 53.5327 63.5827C53.5657 63.5034 53.6142 63.4314 53.6752 63.3708L58.0125 59.0401C58.0709 58.9719 58.1427 58.9165 58.2235 58.8774C58.3043 58.8383 58.3923 58.8164 58.482 58.8129C58.5717 58.8094 58.6611 58.8246 58.7447 58.8573C58.8283 58.89 58.9042 58.9397 58.9676 59.0032C59.0311 59.0666 59.0807 59.1425 59.1135 59.2261C59.1462 59.3097 59.1613 59.3991 59.1579 59.4888C59.1544 59.5785 59.1324 59.6665 59.0934 59.7473C59.0543 59.8281 58.9989 59.8999 58.9307 59.9583V59.9583Z" fill="#1DCBEF"/>
</g>
<path d="M114.64 68.0056V51.8216H108.368V48.2656H125.28V51.8216H119.008V68.0056H114.64Z" fill="black"/>
<path d="M134.591 68.0056L125.715 48.2656H130.419L137.167 64.0576H135.795L142.543 48.2656H147.079L138.203 68.0056H134.591Z" fill="black"/>
<path d="M637.467 68.4544L640.293 71.2021L654.267 57.6329L640.293 44.0637L637.467 46.8115L648.605 57.6329L637.467 68.4544Z" fill="#C6C6C6" fill-opacity="0.5"/>
<rect x="1.05701" y="1.05701" width="697.886" height="114.157" rx="7.39907" stroke="black" stroke-width="2.11402"/>
<rect x="1.05701" y="154.535" width="697.886" height="114.157" rx="7.39907" fill="white"/>
<g filter="url(#filter1_d_1160_8173)">
<rect x="32.667" y="186.413" width="43.9679" height="50.4" rx="7.46667" fill="white"/>
<path d="M54.6611 220.146C54.8159 220.146 54.9643 220.105 55.1063 220.023C55.2547 219.947 55.4322 219.814 55.6387 219.624L57.952 217.421C58.0746 217.307 58.1423 217.168 58.1552 217.003C58.1746 216.833 58.1262 216.677 58.01 216.538C57.6164 216.057 57.1196 215.677 56.5194 215.399C55.9258 215.114 55.3063 214.971 54.6611 214.971C54.0093 214.971 53.3737 215.123 52.7543 215.427C52.1348 215.731 51.625 216.146 51.225 216.671C51.1411 216.785 51.1185 216.915 51.1572 217.06C51.1959 217.2 51.2701 217.32 51.3798 217.421L53.6932 219.624C53.8996 219.814 54.0771 219.947 54.2255 220.023C54.3739 220.105 54.5191 220.146 54.6611 220.146ZM48.9407 214.857C49.0956 215.003 49.2698 215.073 49.4634 215.066C49.657 215.06 49.828 214.978 49.9764 214.819C50.5765 214.218 51.2895 213.743 52.1155 213.395C52.9479 213.047 53.7932 212.873 54.6514 212.873C55.5225 212.873 56.3775 213.053 57.2163 213.414C58.0617 213.769 58.7876 214.25 59.3941 214.857C59.5297 215.003 59.6877 215.076 59.8684 215.076C60.0491 215.07 60.2136 214.997 60.3621 214.857L61.8817 213.462C62.0107 213.348 62.0785 213.218 62.0849 213.072C62.0978 212.92 62.0494 212.781 61.9397 212.654C61.4106 212.059 60.7621 211.54 59.9942 211.097C59.2264 210.648 58.3875 210.303 57.4777 210.062C56.5678 209.815 55.6257 209.692 54.6514 209.692C53.6899 209.692 52.7511 209.815 51.8348 210.062C50.9185 210.303 50.0764 210.648 49.3085 211.097C48.5471 211.54 47.905 212.059 47.3824 212.654C47.2598 212.781 47.2049 212.92 47.2178 213.072C47.2307 213.218 47.3017 213.348 47.4308 213.462L48.9407 214.857ZM45.011 211.173C45.153 211.312 45.3207 211.382 45.5143 211.382C45.7143 211.376 45.8821 211.297 46.0176 211.145C47.1791 209.955 48.489 209.053 49.9473 208.438C51.4121 207.818 52.9801 207.508 54.6514 207.508C56.3485 207.508 57.9294 207.818 59.3941 208.438C60.8589 209.059 62.1656 209.97 63.3142 211.173C63.4497 211.306 63.6142 211.369 63.8078 211.363C64.0014 211.357 64.1659 211.284 64.3014 211.145L65.6565 209.806C65.7791 209.686 65.8437 209.543 65.8501 209.379C65.863 209.214 65.8146 209.072 65.7049 208.951C64.9048 207.983 63.9175 207.141 62.7431 206.425C61.5752 205.704 60.2943 205.144 58.9005 204.745C57.5132 204.346 56.0968 204.146 54.6514 204.146C53.2124 204.146 51.7993 204.346 50.4119 204.745C49.0246 205.144 47.7437 205.704 46.5693 206.425C45.3949 207.141 44.4109 207.983 43.6172 208.951C43.5011 209.072 43.4462 209.214 43.4527 209.379C43.4656 209.543 43.5333 209.686 43.6559 209.806L45.011 211.173Z" fill="#48D38A"/>
</g>
<path d="M108.368 221.329V201.589H112.736V221.329H108.368Z" fill="black"/>
<path d="M116.455 221.329V210.829C116.455 210.232 116.437 209.625 116.399 209.009C116.362 208.374 116.306 207.749 116.231 207.133H120.291L120.599 209.765H120.263C120.73 208.832 121.393 208.113 122.251 207.609C123.11 207.105 124.109 206.853 125.247 206.853C126.909 206.853 128.15 207.338 128.971 208.309C129.811 209.261 130.231 210.745 130.231 212.761V221.329H126.003V212.957C126.003 211.93 125.817 211.202 125.443 210.773C125.07 210.344 124.51 210.129 123.763 210.129C122.83 210.129 122.083 210.428 121.523 211.025C120.963 211.604 120.683 212.388 120.683 213.377V221.329H116.455Z" fill="black"/>
<path d="M140.263 221.637C138.415 221.637 137.025 221.18 136.091 220.265C135.158 219.332 134.691 217.941 134.691 216.093V210.297H132.003V207.133H134.691V203.661L138.919 202.625V207.133H142.559V210.297H138.919V215.869C138.919 216.765 139.106 217.381 139.479 217.717C139.853 218.053 140.329 218.221 140.907 218.221C141.262 218.221 141.551 218.202 141.775 218.165C142.018 218.109 142.27 218.034 142.531 217.941V221.217C142.177 221.366 141.803 221.469 141.411 221.525C141.019 221.6 140.637 221.637 140.263 221.637Z" fill="black"/>
<path d="M151.732 221.637C149.268 221.637 147.345 220.974 145.964 219.649C144.583 218.324 143.892 216.522 143.892 214.245C143.892 212.77 144.181 211.482 144.76 210.381C145.357 209.28 146.179 208.421 147.224 207.805C148.288 207.17 149.529 206.853 150.948 206.853C152.348 206.853 153.515 207.152 154.448 207.749C155.4 208.346 156.109 209.186 156.576 210.269C157.061 211.333 157.304 212.574 157.304 213.993V214.973H147.364V212.873H154.224L153.748 213.265C153.748 212.089 153.505 211.202 153.02 210.605C152.553 209.989 151.872 209.681 150.976 209.681C149.987 209.681 149.221 210.045 148.68 210.773C148.157 211.501 147.896 212.546 147.896 213.909V214.357C147.896 215.738 148.232 216.765 148.904 217.437C149.595 218.109 150.584 218.445 151.872 218.445C152.637 218.445 153.356 218.352 154.028 218.165C154.719 217.96 155.372 217.642 155.988 217.213L157.164 220.013C156.455 220.536 155.633 220.937 154.7 221.217C153.785 221.497 152.796 221.637 151.732 221.637Z" fill="black"/>
<path d="M159.959 221.329V210.885C159.959 210.269 159.94 209.644 159.903 209.009C159.884 208.374 159.837 207.749 159.763 207.133H163.823L164.299 211.277H163.655C163.841 210.269 164.14 209.438 164.551 208.785C164.98 208.132 165.503 207.646 166.119 207.329C166.753 207.012 167.472 206.853 168.275 206.853C168.629 206.853 168.909 206.872 169.115 206.909C169.32 206.928 169.525 206.974 169.731 207.049L169.703 210.773C169.311 210.605 168.975 210.502 168.695 210.465C168.433 210.409 168.097 210.381 167.687 210.381C166.903 210.381 166.249 210.53 165.727 210.829C165.223 211.128 164.84 211.566 164.579 212.145C164.336 212.724 164.215 213.424 164.215 214.245V221.329H159.959Z" fill="black"/>
<path d="M171.498 221.329V210.829C171.498 210.232 171.48 209.625 171.442 209.009C171.405 208.374 171.349 207.749 171.274 207.133H175.334L175.642 209.765H175.306C175.773 208.832 176.436 208.113 177.294 207.609C178.153 207.105 179.152 206.853 180.29 206.853C181.952 206.853 183.193 207.338 184.014 208.309C184.854 209.261 185.274 210.745 185.274 212.761V221.329H181.046V212.957C181.046 211.93 180.86 211.202 180.486 210.773C180.113 210.344 179.553 210.129 178.806 210.129C177.873 210.129 177.126 210.428 176.566 211.025C176.006 211.604 175.726 212.388 175.726 213.377V221.329H171.498Z" fill="black"/>
<path d="M195.81 221.637C193.346 221.637 191.424 220.974 190.042 219.649C188.661 218.324 187.97 216.522 187.97 214.245C187.97 212.77 188.26 211.482 188.838 210.381C189.436 209.28 190.257 208.421 191.302 207.805C192.366 207.17 193.608 206.853 195.026 206.853C196.426 206.853 197.593 207.152 198.526 207.749C199.478 208.346 200.188 209.186 200.654 210.269C201.14 211.333 201.382 212.574 201.382 213.993V214.973H191.442V212.873H198.302L197.826 213.265C197.826 212.089 197.584 211.202 197.098 210.605C196.632 209.989 195.95 209.681 195.054 209.681C194.065 209.681 193.3 210.045 192.758 210.773C192.236 211.501 191.974 212.546 191.974 213.909V214.357C191.974 215.738 192.31 216.765 192.982 217.437C193.673 218.109 194.662 218.445 195.95 218.445C196.716 218.445 197.434 218.352 198.106 218.165C198.797 217.96 199.45 217.642 200.066 217.213L201.242 220.013C200.533 220.536 199.712 220.937 198.778 221.217C197.864 221.497 196.874 221.637 195.81 221.637Z" fill="black"/>
<path d="M210.619 221.637C208.771 221.637 207.38 221.18 206.447 220.265C205.513 219.332 205.047 217.941 205.047 216.093V210.297H202.359V207.133H205.047V203.661L209.275 202.625V207.133H212.915V210.297H209.275V215.869C209.275 216.765 209.461 217.381 209.835 217.717C210.208 218.053 210.684 218.221 211.263 218.221C211.617 218.221 211.907 218.202 212.131 218.165C212.373 218.109 212.625 218.034 212.887 217.941V221.217C212.532 221.366 212.159 221.469 211.767 221.525C211.375 221.6 210.992 221.637 210.619 221.637Z" fill="black"/>
<path d="M637.467 221.932L640.293 224.68L654.267 211.11L640.293 197.541L637.467 200.289L648.605 211.11L637.467 221.932Z" fill="#C6C6C6" fill-opacity="0.5"/>
<rect x="1.05701" y="154.535" width="697.886" height="114.157" rx="7.39907" stroke="black" stroke-width="2.11402"/>
<rect x="1.05701" y="308.013" width="697.886" height="114.157" rx="7.39907" fill="white"/>
<g filter="url(#filter2_d_1160_8173)">
<rect x="32.667" y="339.892" width="43.9679" height="50.4" rx="7.46667" fill="white"/>
<path d="M46.1172 363.935H48.2933C48.5137 363.935 48.7019 363.853 48.858 363.689C49.0187 363.52 49.099 363.322 49.099 363.096C49.099 362.874 49.0187 362.679 48.858 362.51C48.6973 362.341 48.5091 362.257 48.2933 362.257H46.1172C45.9014 362.257 45.7132 362.341 45.5525 362.51C45.3964 362.674 45.3184 362.869 45.3184 363.096C45.3184 363.322 45.3964 363.52 45.5525 363.689C45.7132 363.853 45.9014 363.935 46.1172 363.935ZM51.4166 359.329C51.5681 359.17 51.6438 358.975 51.6438 358.743C51.6438 358.512 51.5658 358.314 51.4097 358.15L49.8809 356.531C49.7294 356.372 49.5412 356.292 49.3162 356.292C49.0958 356.287 48.9076 356.367 48.7515 356.531C48.6 356.69 48.5243 356.885 48.5243 357.116C48.5288 357.348 48.6069 357.545 48.7584 357.709L50.2872 359.329C50.4433 359.493 50.6315 359.575 50.8519 359.575C51.0723 359.575 51.2605 359.493 51.4166 359.329ZM55.2042 357.854C55.4199 357.854 55.6059 357.772 55.762 357.608C55.9181 357.444 55.9961 357.249 55.9961 357.022V354.745C55.9961 354.509 55.9181 354.309 55.762 354.145C55.6059 353.976 55.4199 353.892 55.2042 353.892C54.9884 353.892 54.8001 353.976 54.6395 354.145C54.4834 354.313 54.4053 354.513 54.4053 354.745V357.022C54.4053 357.249 54.4834 357.444 54.6395 357.608C54.7956 357.772 54.9838 357.854 55.2042 357.854ZM58.9848 359.329C59.1363 359.493 59.3223 359.575 59.5426 359.575C59.7676 359.575 59.9558 359.493 60.1073 359.329L61.6361 357.709C61.7922 357.545 61.8703 357.348 61.8703 357.116C61.8749 356.885 61.7991 356.69 61.643 356.531C61.4915 356.367 61.3033 356.287 61.0783 356.292C60.858 356.292 60.6697 356.374 60.5136 356.538L58.9848 358.15C58.8333 358.314 58.7576 358.512 58.7576 358.743C58.7576 358.975 58.8333 359.17 58.9848 359.329ZM62.1081 363.935H64.2842C64.4954 363.935 64.6814 363.853 64.842 363.689C65.0027 363.52 65.0831 363.322 65.0831 363.096C65.0831 362.869 65.0027 362.674 64.842 362.51C64.6814 362.341 64.4954 362.257 64.2842 362.257H62.1081C61.8923 362.257 61.7041 362.341 61.5434 362.51C61.3827 362.679 61.3024 362.874 61.3024 363.096C61.3024 363.322 61.3804 363.52 61.5365 363.689C61.6972 363.853 61.8877 363.935 62.1081 363.935Z" fill="#FFC83E"/>
<path d="M52.8219 372.517H57.7595C57.9156 372.517 58.0418 372.467 58.1383 372.366C58.2393 372.259 58.2898 372.125 58.2898 371.961V370.97C58.2898 370.637 58.3678 370.324 58.5239 370.03C58.68 369.736 58.8728 369.432 59.1024 369.119C59.3365 368.806 59.5683 368.466 59.7979 368.1C60.032 367.728 60.2272 367.309 60.3833 366.842C60.5393 366.369 60.6174 365.825 60.6174 365.208C60.6174 364.383 60.4888 363.634 60.2317 362.959C59.9792 362.279 59.6166 361.696 59.1437 361.209C58.6754 360.717 58.1153 360.342 57.4634 360.081C56.8115 359.816 56.0861 359.684 55.2872 359.684C54.493 359.684 53.7699 359.816 53.118 360.081C52.4661 360.342 51.9037 360.717 51.4308 361.209C50.9579 361.696 50.5952 362.279 50.3427 362.959C50.0902 363.634 49.964 364.383 49.964 365.208C49.964 365.825 50.042 366.369 50.1981 366.842C50.3542 367.309 50.547 367.728 50.7766 368.1C51.0107 368.466 51.2426 368.806 51.4721 369.119C51.7017 369.432 51.8945 369.736 52.0506 370.03C52.2113 370.324 52.2916 370.637 52.2916 370.97V371.961C52.2916 372.125 52.3398 372.259 52.4362 372.366C52.5372 372.467 52.6658 372.517 52.8219 372.517ZM55.2872 376.292C55.7968 376.292 56.2192 376.176 56.5544 375.945C56.8895 375.718 57.0754 375.419 57.1122 375.048H53.4692C53.5013 375.419 53.6827 375.718 54.0132 375.945C54.3484 376.176 54.7731 376.292 55.2872 376.292ZM52.9527 374.498H57.6355C57.8238 374.498 57.9845 374.426 58.1176 374.282C58.2507 374.142 58.3173 373.975 58.3173 373.783C58.3173 373.585 58.2507 373.414 58.1176 373.269C57.9845 373.13 57.8238 373.06 57.6355 373.06H52.9527C52.7599 373.06 52.5969 373.13 52.4638 373.269C52.3306 373.414 52.2641 373.585 52.2641 373.783C52.2641 373.975 52.3306 374.142 52.4638 374.282C52.5969 374.426 52.7599 374.498 52.9527 374.498Z" fill="#FFC83E"/>
</g>
<path d="M108.368 372.217V352.477H122.088V355.865H112.54V360.485H121.416V363.901H112.54V368.829H122.088V372.217H108.368Z" fill="black"/>
<path d="M124.85 372.217V351.609H129.078V372.217H124.85Z" fill="black"/>
<path d="M139.673 372.525C137.209 372.525 135.287 371.863 133.905 370.537C132.524 369.212 131.833 367.411 131.833 365.133C131.833 363.659 132.123 362.371 132.701 361.269C133.299 360.168 134.12 359.309 135.165 358.693C136.229 358.059 137.471 357.741 138.889 357.741C140.289 357.741 141.456 358.04 142.389 358.637C143.341 359.235 144.051 360.075 144.517 361.157C145.003 362.221 145.245 363.463 145.245 364.881V365.861H135.305V363.761H142.165L141.689 364.153C141.689 362.977 141.447 362.091 140.961 361.493C140.495 360.877 139.813 360.569 138.917 360.569C137.928 360.569 137.163 360.933 136.621 361.661C136.099 362.389 135.837 363.435 135.837 364.797V365.245C135.837 366.627 136.173 367.653 136.845 368.325C137.536 368.997 138.525 369.333 139.813 369.333C140.579 369.333 141.297 369.24 141.969 369.053C142.66 368.848 143.313 368.531 143.929 368.101L145.105 370.901C144.396 371.424 143.575 371.825 142.641 372.105C141.727 372.385 140.737 372.525 139.673 372.525Z" fill="black"/>
<path d="M154.76 372.525C153.248 372.525 151.923 372.227 150.784 371.629C149.645 371.032 148.768 370.173 148.152 369.053C147.536 367.933 147.228 366.608 147.228 365.077C147.228 363.528 147.536 362.212 148.152 361.129C148.787 360.028 149.664 359.188 150.784 358.609C151.923 358.031 153.248 357.741 154.76 357.741C155.712 357.741 156.636 357.881 157.532 358.161C158.447 358.441 159.193 358.833 159.772 359.337L158.54 362.249C158.073 361.82 157.532 361.503 156.916 361.297C156.319 361.073 155.74 360.961 155.18 360.961C154.041 360.961 153.155 361.316 152.52 362.025C151.885 362.735 151.568 363.761 151.568 365.105C151.568 366.449 151.885 367.476 152.52 368.185C153.155 368.895 154.041 369.249 155.18 369.249C155.721 369.249 156.291 369.147 156.888 368.941C157.504 368.736 158.055 368.428 158.54 368.017L159.772 370.901C159.175 371.405 158.419 371.807 157.504 372.105C156.608 372.385 155.693 372.525 154.76 372.525Z" fill="black"/>
<path d="M168.892 372.525C167.044 372.525 165.653 372.068 164.72 371.153C163.787 370.22 163.32 368.829 163.32 366.981V361.185H160.632V358.021H163.32V354.549L167.548 353.513V358.021H171.188V361.185H167.548V366.757C167.548 367.653 167.735 368.269 168.108 368.605C168.481 368.941 168.957 369.109 169.536 369.109C169.891 369.109 170.18 369.091 170.404 369.053C170.647 368.997 170.899 368.923 171.16 368.829V372.105C170.805 372.255 170.432 372.357 170.04 372.413C169.648 372.488 169.265 372.525 168.892 372.525Z" fill="black"/>
<path d="M173.33 372.217V361.773C173.33 361.157 173.311 360.532 173.274 359.897C173.255 359.263 173.208 358.637 173.134 358.021H177.194L177.67 362.165H177.026C177.212 361.157 177.511 360.327 177.922 359.673C178.351 359.02 178.874 358.535 179.49 358.217C180.124 357.9 180.843 357.741 181.646 357.741C182 357.741 182.28 357.76 182.486 357.797C182.691 357.816 182.896 357.863 183.102 357.937L183.074 361.661C182.682 361.493 182.346 361.391 182.066 361.353C181.804 361.297 181.468 361.269 181.058 361.269C180.274 361.269 179.62 361.419 179.098 361.717C178.594 362.016 178.211 362.455 177.95 363.033C177.707 363.612 177.586 364.312 177.586 365.133V372.217H173.33Z" fill="black"/>
<path d="M184.869 372.217V358.021H189.097V372.217H184.869ZM184.701 355.697V351.749H189.237V355.697H184.701Z" fill="black"/>
<path d="M199.385 372.525C197.873 372.525 196.548 372.227 195.409 371.629C194.27 371.032 193.393 370.173 192.777 369.053C192.161 367.933 191.853 366.608 191.853 365.077C191.853 363.528 192.161 362.212 192.777 361.129C193.412 360.028 194.289 359.188 195.409 358.609C196.548 358.031 197.873 357.741 199.385 357.741C200.337 357.741 201.261 357.881 202.157 358.161C203.072 358.441 203.818 358.833 204.397 359.337L203.165 362.249C202.698 361.82 202.157 361.503 201.541 361.297C200.944 361.073 200.365 360.961 199.805 360.961C198.666 360.961 197.78 361.316 197.145 362.025C196.51 362.735 196.193 363.761 196.193 365.105C196.193 366.449 196.51 367.476 197.145 368.185C197.78 368.895 198.666 369.249 199.805 369.249C200.346 369.249 200.916 369.147 201.513 368.941C202.129 368.736 202.68 368.428 203.165 368.017L204.397 370.901C203.8 371.405 203.044 371.807 202.129 372.105C201.233 372.385 200.318 372.525 199.385 372.525Z" fill="black"/>
<path d="M206.799 372.217V358.021H211.027V372.217H206.799ZM206.631 355.697V351.749H211.167V355.697H206.631Z" fill="black"/>
<path d="M221.119 372.525C219.271 372.525 217.88 372.068 216.947 371.153C216.013 370.22 215.547 368.829 215.547 366.981V361.185H212.859V358.021H215.547V354.549L219.775 353.513V358.021H223.415V361.185H219.775V366.757C219.775 367.653 219.961 368.269 220.335 368.605C220.708 368.941 221.184 369.109 221.763 369.109C222.117 369.109 222.407 369.091 222.631 369.053C222.873 368.997 223.125 368.923 223.387 368.829V372.105C223.032 372.255 222.659 372.357 222.267 372.413C221.875 372.488 221.492 372.525 221.119 372.525Z" fill="black"/>
<path d="M225.69 378.573L224.71 375.269C225.588 375.101 226.325 374.905 226.922 374.681C227.538 374.457 228.042 374.159 228.434 373.785C228.826 373.431 229.144 372.964 229.386 372.385L230.086 370.733L229.974 372.357L223.814 358.021H228.266L232.326 368.297H231.458L235.574 358.021H239.774L233.362 372.777C232.896 373.841 232.392 374.719 231.85 375.409C231.328 376.119 230.758 376.679 230.142 377.089C229.526 377.5 228.845 377.817 228.098 378.041C227.37 378.265 226.568 378.443 225.69 378.573Z" fill="black"/>
<path d="M637.467 375.41L640.293 378.158L654.267 364.589L640.293 351.02L637.467 353.768L648.605 364.589L637.467 375.41Z" fill="#C6C6C6" fill-opacity="0.5"/>
<rect x="1.05701" y="308.013" width="697.886" height="114.157" rx="7.39907" stroke="black" stroke-width="2.11402"/>
<defs>
<filter id="filter0_d_1160_8173" x="14.0003" y="14.2689" width="81.3011" height="87.7337" filterUnits="userSpaceOnUse" color-interpolation-filters="sRGB">
<feFlood flood-opacity="0" result="BackgroundImageFix"/>
<feColorMatrix in="SourceAlpha" type="matrix" values="0 0 0 0 0 0 0 0 0 0 0 0 0 0 0 0 0 0 127 0" result="hardAlpha"/>
<feOffset/>
<feGaussianBlur stdDeviation="9.33333"/>
<feColorMatrix type="matrix" values="0 0 0 0 0 0 0 0 0 0 0 0 0 0 0 0 0 0 0.06 0"/>
<feBlend mode="normal" in2="BackgroundImageFix" result="effect1_dropShadow_1160_8173"/>
<feBlend mode="normal" in="SourceGraphic" in2="effect1_dropShadow_1160_8173" result="shape"/>
</filter>
<filter id="filter1_d_1160_8173" x="14.0003" y="167.746" width="81.3011" height="87.7337" filterUnits="userSpaceOnUse" color-interpolation-filters="sRGB">
<feFlood flood-opacity="0" result="BackgroundImageFix"/>
<feColorMatrix in="SourceAlpha" type="matrix" values="0 0 0 0 0 0 0 0 0 0 0 0 0 0 0 0 0 0 127 0" result="hardAlpha"/>
<feOffset/>
<feGaussianBlur stdDeviation="9.33333"/>
<feColorMatrix type="matrix" values="0 0 0 0 0 0 0 0 0 0 0 0 0 0 0 0 0 0 0.06 0"/>
<feBlend mode="normal" in2="BackgroundImageFix" result="effect1_dropShadow_1160_8173"/>
<feBlend mode="normal" in="SourceGraphic" in2="effect1_dropShadow_1160_8173" result="shape"/>
</filter>
<filter id="filter2_d_1160_8173" x="14.0003" y="321.225" width="81.3011" height="87.7337" filterUnits="userSpaceOnUse" color-interpolation-filters="sRGB">
<feFlood flood-opacity="0" result="BackgroundImageFix"/>
<feColorMatrix in="SourceAlpha" type="matrix" values="0 0 0 0 0 0 0 0 0 0 0 0 0 0 0 0 0 0 127 0" result="hardAlpha"/>
<feOffset/>
<feGaussianBlur stdDeviation="9.33333"/>
<feColorMatrix type="matrix" values="0 0 0 0 0 0 0 0 0 0 0 0 0 0 0 0 0 0 0.06 0"/>
<feBlend mode="normal" in2="BackgroundImageFix" result="effect1_dropShadow_1160_8173"/>
<feBlend mode="normal" in="SourceGraphic" in2="effect1_dropShadow_1160_8173" result="shape"/>
</filter>
</defs>
</svg>
