<svg width="839" height="773" viewBox="0 0 839 773" fill="none" xmlns="http://www.w3.org/2000/svg">
<g filter="url(#filter0_d_1159_7864)">
<path d="M45.6104 28.1408C45.6104 23.278 49.5524 19.3359 54.4152 19.3359H732.386C737.249 19.3359 741.191 23.278 741.191 28.1408V639.195C741.191 644.058 737.249 648 732.386 648H54.4152C49.5524 648 45.6104 644.058 45.6104 639.195V28.1408Z" fill="white"/>
<path d="M54.4152 20.2164H732.386V18.4555H54.4152V20.2164ZM740.31 28.1408V639.195H742.071V28.1408H740.31ZM732.386 647.12H54.4152V648.88H732.386V647.12ZM46.4908 639.195V28.1408H44.7299V639.195H46.4908ZM54.4152 647.12C50.0387 647.12 46.4908 643.572 46.4908 639.195H44.7299C44.7299 644.544 49.0661 648.88 54.4152 648.88V647.12ZM740.31 639.195C740.31 643.572 736.763 647.12 732.386 647.12V648.88C737.735 648.88 742.071 644.544 742.071 639.195H740.31ZM732.386 20.2164C736.763 20.2164 740.31 23.7643 740.31 28.1408H742.071C742.071 22.7917 737.735 18.4555 732.386 18.4555V20.2164ZM54.4152 18.4555C49.0661 18.4555 44.7299 22.7917 44.7299 28.1408H46.4908C46.4908 23.7643 50.0387 20.2164 54.4152 20.2164V18.4555Z" fill="#DBDCE0" fill-opacity="0.5"/>
</g>
<path d="M136.849 115.908C134.853 115.908 132.986 115.662 131.249 115.168C129.511 114.675 128.032 113.995 126.811 113.126L128.431 108.829C129.23 109.369 130.075 109.827 130.967 110.203C131.859 110.578 132.798 110.872 133.785 111.083C134.771 111.271 135.804 111.365 136.884 111.365C138.574 111.365 139.772 111.107 140.476 110.59C141.204 110.073 141.568 109.416 141.568 108.618C141.568 107.89 141.321 107.338 140.828 106.962C140.359 106.563 139.49 106.223 138.222 105.941L134.066 105.096C131.789 104.626 130.087 103.828 128.959 102.701C127.832 101.574 127.269 100.071 127.269 98.1928C127.269 96.5962 127.692 95.2109 128.537 94.0369C129.382 92.8629 130.568 91.9472 132.094 91.2898C133.644 90.6324 135.452 90.3037 137.518 90.3037C139.279 90.3037 140.922 90.5502 142.448 91.0433C143.975 91.5364 145.231 92.2407 146.217 93.1564L144.597 97.1714C143.634 96.3966 142.554 95.8214 141.357 95.4457C140.183 95.0465 138.868 94.847 137.412 94.847C135.886 94.847 134.712 95.117 133.89 95.657C133.092 96.197 132.693 96.9366 132.693 97.8758C132.693 98.5802 132.939 99.1555 133.432 99.6016C133.925 100.024 134.794 100.365 136.039 100.623L140.124 101.433C142.448 101.903 144.174 102.689 145.301 103.793C146.428 104.896 146.992 106.364 146.992 108.195C146.992 109.745 146.569 111.095 145.724 112.245C144.902 113.396 143.728 114.3 142.202 114.957C140.699 115.591 138.915 115.908 136.849 115.908Z" fill="black"/>
<path d="M150.697 115.521V97.6645H156.015V115.521H150.697ZM150.486 94.7413V89.7754H156.191V94.7413H150.486Z" fill="black"/>
<path d="M168.849 123.41C167.135 123.41 165.609 123.234 164.271 122.882C162.933 122.553 161.735 122.048 160.679 121.367L161.7 117.563C162.357 117.986 163.05 118.326 163.778 118.585C164.529 118.867 165.292 119.066 166.067 119.183C166.865 119.324 167.652 119.395 168.427 119.395C170 119.395 171.174 119.019 171.949 118.268C172.724 117.516 173.111 116.448 173.111 115.063V111.365H173.463C173.087 112.492 172.336 113.396 171.209 114.077C170.082 114.758 168.814 115.098 167.405 115.098C165.809 115.098 164.412 114.734 163.214 114.006C162.04 113.278 161.125 112.245 160.467 110.907C159.81 109.569 159.481 107.995 159.481 106.188C159.481 104.38 159.81 102.807 160.467 101.468C161.125 100.13 162.04 99.1085 163.214 98.4041C164.412 97.6762 165.809 97.3123 167.405 97.3123C168.838 97.3123 170.094 97.6528 171.174 98.3337C172.277 98.9911 173.017 99.8716 173.393 100.975L173.111 100.834L173.463 97.6645H178.605C178.511 98.4393 178.441 99.2259 178.394 100.024C178.347 100.799 178.323 101.562 178.323 102.313V114.464C178.323 117.352 177.513 119.559 175.893 121.085C174.273 122.635 171.925 123.41 168.849 123.41ZM168.99 111.083C170.235 111.083 171.221 110.66 171.949 109.815C172.677 108.97 173.041 107.761 173.041 106.188C173.041 104.614 172.677 103.417 171.949 102.595C171.221 101.75 170.235 101.327 168.99 101.327C167.699 101.327 166.678 101.75 165.926 102.595C165.198 103.417 164.834 104.614 164.834 106.188C164.834 107.761 165.198 108.97 165.926 109.815C166.678 110.66 167.699 111.083 168.99 111.083Z" fill="black"/>
<path d="M182.649 115.521V102.313C182.649 101.562 182.625 100.799 182.578 100.024C182.531 99.2259 182.461 98.4393 182.367 97.6645H187.474L187.861 100.975H187.439C188.026 99.8011 188.859 98.8972 189.939 98.2632C191.019 97.6293 192.275 97.3123 193.708 97.3123C195.797 97.3123 197.359 97.9228 198.392 99.1437C199.448 100.341 199.977 102.208 199.977 104.744V115.521H194.659V104.99C194.659 103.699 194.424 102.783 193.954 102.243C193.485 101.703 192.78 101.433 191.841 101.433C190.667 101.433 189.728 101.809 189.023 102.56C188.319 103.288 187.967 104.274 187.967 105.518V115.521H182.649Z" fill="black"/>
<path d="M225.212 115.908C221.572 115.908 218.86 115.004 217.076 113.196C215.291 111.388 214.399 108.7 214.399 105.131V90.6911H219.893V105.166C219.893 107.162 220.316 108.676 221.161 109.709C222.03 110.743 223.38 111.259 225.212 111.259C226.996 111.259 228.323 110.743 229.191 109.709C230.084 108.676 230.53 107.162 230.53 105.166V90.6911H235.953V105.131C235.953 108.7 235.049 111.388 233.242 113.196C231.457 115.004 228.78 115.908 225.212 115.908Z" fill="black"/>
<path d="M240.465 123.128V102.313C240.465 101.562 240.441 100.799 240.394 100.024C240.347 99.2259 240.277 98.4393 240.183 97.6645H245.29L245.712 101.151H245.325C245.677 99.9772 246.417 99.0498 247.544 98.3689C248.671 97.6645 249.962 97.3123 251.418 97.3123C252.968 97.3123 254.329 97.688 255.503 98.4393C256.677 99.1672 257.593 100.224 258.251 101.609C258.931 102.994 259.272 104.65 259.272 106.575C259.272 108.524 258.931 110.191 258.251 111.576C257.593 112.961 256.677 114.03 255.503 114.781C254.329 115.532 252.968 115.908 251.418 115.908C249.986 115.908 248.706 115.568 247.579 114.887C246.476 114.206 245.736 113.302 245.36 112.175H245.783V123.128H240.465ZM249.798 111.893C251.042 111.893 252.04 111.459 252.792 110.59C253.543 109.721 253.919 108.383 253.919 106.575C253.919 104.767 253.543 103.44 252.792 102.595C252.04 101.75 251.042 101.327 249.798 101.327C248.577 101.327 247.579 101.75 246.804 102.595C246.053 103.44 245.677 104.767 245.677 106.575C245.677 108.383 246.053 109.721 246.804 110.59C247.579 111.459 248.577 111.893 249.798 111.893Z" fill="black"/>
<path d="M141.815 161.142L134.418 172.342V179.949H132.252V172.316L124.856 161.142H127.392L133.362 170.387L139.332 161.142H141.815Z" fill="#979797"/>
<path d="M146.893 180.134C145.643 180.134 144.542 179.852 143.592 179.289C142.641 178.725 141.901 177.924 141.373 176.885C140.862 175.846 140.607 174.631 140.607 173.24C140.607 171.849 140.862 170.634 141.373 169.595C141.901 168.556 142.641 167.755 143.592 167.191C144.542 166.628 145.643 166.346 146.893 166.346C148.144 166.346 149.244 166.628 150.195 167.191C151.146 167.755 151.877 168.556 152.388 169.595C152.916 170.634 153.18 171.849 153.18 173.24C153.18 174.631 152.916 175.846 152.388 176.885C151.877 177.924 151.146 178.725 150.195 179.289C149.244 179.852 148.144 180.134 146.893 180.134ZM146.893 178.364C148.214 178.364 149.227 177.933 149.931 177.07C150.635 176.19 150.988 174.913 150.988 173.24C150.988 171.62 150.627 170.37 149.905 169.489C149.183 168.591 148.179 168.142 146.893 168.142C145.59 168.142 144.578 168.591 143.856 169.489C143.134 170.37 142.773 171.62 142.773 173.24C142.773 174.913 143.125 176.19 143.829 177.07C144.551 177.933 145.573 178.364 146.893 178.364Z" fill="#979797"/>
<path d="M167.636 166.663V179.949H165.549V177.651C165.126 178.461 164.536 179.078 163.779 179.5C163.022 179.923 162.168 180.134 161.217 180.134C159.65 180.134 158.461 179.694 157.651 178.813C156.841 177.933 156.436 176.63 156.436 174.904V166.663H158.576V174.851C158.576 176.049 158.822 176.929 159.315 177.493C159.808 178.056 160.557 178.338 161.56 178.338C162.74 178.338 163.691 177.959 164.413 177.202C165.135 176.427 165.496 175.415 165.496 174.165V166.663H167.636Z" fill="#979797"/>
<path d="M184.221 180.134C182.936 180.134 181.809 179.852 180.84 179.289C179.889 178.725 179.15 177.933 178.621 176.912C178.111 175.873 177.855 174.666 177.855 173.293C177.855 171.919 178.119 170.713 178.648 169.674C179.176 168.618 179.924 167.799 180.893 167.218C181.879 166.636 183.024 166.346 184.327 166.346C185.225 166.346 186.088 166.504 186.915 166.821C187.761 167.121 188.456 167.543 189.002 168.089L188.289 169.674C187.62 169.146 186.968 168.758 186.334 168.512C185.718 168.265 185.084 168.142 184.432 168.142C183.076 168.142 182.011 168.6 181.236 169.516C180.461 170.414 180.074 171.673 180.074 173.293C180.074 174.895 180.453 176.146 181.21 177.044C181.985 177.924 183.059 178.364 184.432 178.364C185.084 178.364 185.718 178.241 186.334 177.995C186.968 177.748 187.62 177.361 188.289 176.832L189.002 178.417C188.439 178.946 187.725 179.368 186.863 179.685C186.017 179.985 185.137 180.134 184.221 180.134Z" fill="#979797"/>
<path d="M203.427 166.663V179.949H201.314V177.546C200.927 178.373 200.337 179.016 199.545 179.474C198.77 179.914 197.863 180.134 196.824 180.134C195.644 180.134 194.605 179.852 193.707 179.289C192.826 178.725 192.14 177.933 191.647 176.912C191.171 175.873 190.933 174.666 190.933 173.293C190.933 171.919 191.18 170.713 191.673 169.674C192.166 168.618 192.853 167.799 193.733 167.218C194.631 166.636 195.662 166.346 196.824 166.346C197.863 166.346 198.77 166.575 199.545 167.033C200.319 167.49 200.909 168.133 201.314 168.961V166.663H203.427ZM197.246 178.364C198.55 178.364 199.553 177.924 200.258 177.044C200.962 176.146 201.314 174.878 201.314 173.24C201.314 171.602 200.962 170.343 200.258 169.463C199.553 168.582 198.55 168.142 197.246 168.142C195.943 168.142 194.922 168.6 194.182 169.516C193.46 170.414 193.099 171.673 193.099 173.293C193.099 174.913 193.46 176.163 194.182 177.044C194.904 177.924 195.926 178.364 197.246 178.364Z" fill="#979797"/>
<path d="M214.194 166.346C217.382 166.346 218.975 168.098 218.975 171.602V179.949H216.836V171.708C216.836 170.475 216.589 169.577 216.096 169.014C215.603 168.433 214.828 168.142 213.772 168.142C212.539 168.142 211.553 168.521 210.813 169.278C210.074 170.035 209.704 171.056 209.704 172.342V179.949H207.564V170.387C207.564 169.014 207.494 167.772 207.353 166.663H209.387L209.598 169.04C210.003 168.177 210.611 167.517 211.421 167.059C212.231 166.584 213.155 166.346 214.194 166.346Z" fill="#979797"/>
<path d="M234.393 180.134C232.157 180.134 230.387 179.562 229.084 178.417L229.797 176.832C230.519 177.396 231.25 177.801 231.99 178.047C232.729 178.294 233.557 178.417 234.473 178.417C235.476 178.417 236.234 178.25 236.744 177.915C237.273 177.563 237.537 177.061 237.537 176.41C237.537 175.881 237.361 175.459 237.009 175.142C236.656 174.825 236.075 174.578 235.265 174.402L233.02 173.874C231.911 173.627 231.048 173.187 230.431 172.553C229.833 171.919 229.533 171.162 229.533 170.282C229.533 169.119 230 168.177 230.933 167.455C231.866 166.716 233.099 166.346 234.631 166.346C235.565 166.346 236.445 166.496 237.273 166.795C238.1 167.094 238.796 167.526 239.359 168.089L238.646 169.648C237.396 168.609 236.058 168.089 234.631 168.089C233.68 168.089 232.941 168.274 232.412 168.644C231.902 168.996 231.646 169.498 231.646 170.15C231.646 170.695 231.805 171.127 232.122 171.444C232.456 171.761 232.985 172.007 233.707 172.183L235.952 172.738C237.185 173.02 238.1 173.46 238.699 174.059C239.298 174.64 239.597 175.406 239.597 176.357C239.597 177.502 239.13 178.417 238.197 179.104C237.264 179.791 235.996 180.134 234.393 180.134Z" fill="#979797"/>
<path d="M243.007 179.949V166.663H245.147V179.949H243.007ZM242.796 161.037H245.411V163.467H242.796V161.037Z" fill="#979797"/>
<path d="M261.135 166.663V179.844C261.135 181.816 260.624 183.304 259.603 184.308C258.599 185.329 257.111 185.84 255.139 185.84C253.114 185.84 251.37 185.382 249.909 184.466L250.278 182.723C251.124 183.198 251.916 183.542 252.656 183.753C253.413 183.964 254.241 184.07 255.139 184.07C256.424 184.07 257.393 183.727 258.044 183.04C258.696 182.371 259.022 181.367 259.022 180.029V176.885C258.617 177.73 258.018 178.391 257.225 178.866C256.451 179.324 255.526 179.553 254.452 179.553C253.29 179.553 252.251 179.28 251.335 178.734C250.437 178.188 249.741 177.414 249.248 176.41C248.755 175.406 248.509 174.253 248.509 172.949C248.509 171.646 248.755 170.493 249.248 169.489C249.741 168.485 250.437 167.711 251.335 167.165C252.251 166.619 253.29 166.346 254.452 166.346C255.509 166.346 256.424 166.575 257.199 167.033C257.991 167.49 258.59 168.133 258.995 168.961V166.663H261.135ZM254.875 177.757C256.16 177.757 257.164 177.334 257.886 176.489C258.625 175.626 258.995 174.446 258.995 172.949C258.995 171.453 258.625 170.282 257.886 169.436C257.164 168.573 256.16 168.142 254.875 168.142C253.571 168.142 252.541 168.573 251.784 169.436C251.044 170.282 250.675 171.453 250.675 172.949C250.675 174.446 251.044 175.626 251.784 176.489C252.541 177.334 253.571 177.757 254.875 177.757Z" fill="#979797"/>
<path d="M271.873 166.346C275.06 166.346 276.654 168.098 276.654 171.602V179.949H274.514V171.708C274.514 170.475 274.268 169.577 273.775 169.014C273.281 168.433 272.507 168.142 271.45 168.142C270.217 168.142 269.231 168.521 268.492 169.278C267.752 170.035 267.382 171.056 267.382 172.342V179.949H265.243V170.387C265.243 169.014 265.172 167.772 265.031 166.663H267.065L267.277 169.04C267.682 168.177 268.289 167.517 269.099 167.059C269.909 166.584 270.834 166.346 271.873 166.346Z" fill="#979797"/>
<path d="M298.702 166.663V179.949H296.615V177.651C296.193 178.461 295.603 179.078 294.845 179.5C294.088 179.923 293.234 180.134 292.283 180.134C290.716 180.134 289.527 179.694 288.717 178.813C287.907 177.933 287.502 176.63 287.502 174.904V166.663H289.642V174.851C289.642 176.049 289.888 176.929 290.381 177.493C290.874 178.056 291.623 178.338 292.627 178.338C293.806 178.338 294.757 177.959 295.479 177.202C296.201 176.427 296.562 175.415 296.562 174.165V166.663H298.702Z" fill="#979797"/>
<path d="M309.457 166.346C310.619 166.346 311.649 166.636 312.547 167.218C313.445 167.799 314.141 168.618 314.634 169.674C315.127 170.713 315.373 171.919 315.373 173.293C315.373 174.666 315.127 175.873 314.634 176.912C314.141 177.933 313.445 178.725 312.547 179.289C311.667 179.852 310.636 180.134 309.457 180.134C308.418 180.134 307.511 179.905 306.736 179.447C305.961 178.99 305.371 178.338 304.966 177.493V185.655H302.827V170.387C302.827 169.014 302.756 167.772 302.615 166.663H304.649L304.86 169.225C305.23 168.309 305.811 167.605 306.604 167.112C307.414 166.601 308.365 166.346 309.457 166.346ZM309.06 178.364C310.363 178.364 311.367 177.924 312.072 177.044C312.794 176.163 313.155 174.913 313.155 173.293C313.155 171.673 312.794 170.414 312.072 169.516C311.35 168.6 310.346 168.142 309.06 168.142C307.74 168.142 306.727 168.582 306.023 169.463C305.318 170.343 304.966 171.602 304.966 173.24C304.966 174.878 305.318 176.146 306.023 177.044C306.727 177.924 307.74 178.364 309.06 178.364Z" fill="#979797"/>
<path d="M343.62 166.663H345.733L340.82 179.949H338.759L334.956 169.568L331.179 179.949H329.118L324.205 166.663H326.45L330.201 177.387L334.084 166.663H335.96L339.79 177.414L343.62 166.663Z" fill="#979797"/>
<path d="M348.51 179.949V166.663H350.65V179.949H348.51ZM348.299 161.037H350.914V163.467H348.299V161.037Z" fill="#979797"/>
<path d="M357.657 168.353V175.617C357.657 176.603 357.859 177.299 358.264 177.704C358.669 178.091 359.242 178.285 359.981 178.285C360.474 178.285 360.95 178.206 361.408 178.047V179.87C360.862 180.046 360.246 180.134 359.559 180.134C358.291 180.134 357.296 179.782 356.574 179.078C355.87 178.356 355.517 177.299 355.517 175.908V168.353H352.929V166.663H355.517V163.255L357.657 162.489V166.663H361.461V168.353H357.657Z" fill="#979797"/>
<path d="M370.669 166.346C373.856 166.346 375.45 168.098 375.45 171.602V179.949H373.31V171.708C373.31 170.475 373.064 169.577 372.571 169.014C372.078 168.433 371.303 168.142 370.246 168.142C369.014 168.142 368.027 168.521 367.288 169.278C366.548 170.035 366.178 171.056 366.178 172.342V179.949H364.039V160.508H366.178V168.829C366.601 168.019 367.2 167.402 367.975 166.98C368.767 166.557 369.665 166.346 370.669 166.346Z" fill="#979797"/>
<path d="M398.053 166.663L391.845 181.164C391.194 182.679 390.375 183.788 389.389 184.493C388.403 185.197 387.188 185.681 385.744 185.945L385.295 184.281C386.545 184 387.487 183.621 388.121 183.145C388.773 182.688 389.31 181.974 389.732 181.006L390.261 179.817L384.634 166.663H386.88L391.37 177.625L395.913 166.663H398.053Z" fill="#979797"/>
<path d="M405.75 180.134C404.5 180.134 403.399 179.852 402.448 179.289C401.497 178.725 400.757 177.924 400.229 176.885C399.719 175.846 399.463 174.631 399.463 173.24C399.463 171.849 399.719 170.634 400.229 169.595C400.757 168.556 401.497 167.755 402.448 167.191C403.399 166.628 404.5 166.346 405.75 166.346C407 166.346 408.101 166.628 409.052 167.191C410.003 167.755 410.733 168.556 411.244 169.595C411.772 170.634 412.036 171.849 412.036 173.24C412.036 174.631 411.772 175.846 411.244 176.885C410.733 177.924 410.003 178.725 409.052 179.289C408.101 179.852 407 180.134 405.75 180.134ZM405.75 178.364C407.071 178.364 408.083 177.933 408.787 177.07C409.492 176.19 409.844 174.913 409.844 173.24C409.844 171.62 409.483 170.37 408.761 169.489C408.039 168.591 407.035 168.142 405.75 168.142C404.447 168.142 403.434 168.591 402.712 169.489C401.99 170.37 401.629 171.62 401.629 173.24C401.629 174.913 401.981 176.19 402.686 177.07C403.408 177.933 404.429 178.364 405.75 178.364Z" fill="#979797"/>
<path d="M426.492 166.663V179.949H424.405V177.651C423.983 178.461 423.393 179.078 422.636 179.5C421.878 179.923 421.024 180.134 420.073 180.134C418.506 180.134 417.318 179.694 416.508 178.813C415.697 177.933 415.292 176.63 415.292 174.904V166.663H417.432V174.851C417.432 176.049 417.679 176.929 418.172 177.493C418.665 178.056 419.413 178.338 420.417 178.338C421.597 178.338 422.548 177.959 423.27 177.202C423.992 176.427 424.353 175.415 424.353 174.165V166.663H426.492Z" fill="#979797"/>
<path d="M436.798 166.346C437.238 166.346 437.643 166.399 438.013 166.504L437.96 168.459C437.555 168.318 437.088 168.248 436.56 168.248C435.275 168.248 434.315 168.653 433.681 169.463C433.065 170.255 432.756 171.224 432.756 172.368V179.949H430.617V170.387C430.617 169.014 430.546 167.772 430.405 166.663H432.439L432.651 169.119C432.985 168.221 433.522 167.535 434.262 167.059C435.002 166.584 435.847 166.346 436.798 166.346Z" fill="#979797"/>
<path d="M458.195 173.24H448.448C448.465 174.931 448.853 176.207 449.61 177.07C450.385 177.933 451.503 178.364 452.965 178.364C454.514 178.364 455.941 177.845 457.244 176.806L457.957 178.364C457.376 178.91 456.627 179.342 455.712 179.659C454.814 179.976 453.889 180.134 452.938 180.134C450.86 180.134 449.231 179.527 448.052 178.312C446.872 177.079 446.282 175.397 446.282 173.266C446.282 171.911 446.546 170.713 447.074 169.674C447.603 168.618 448.342 167.799 449.293 167.218C450.244 166.636 451.327 166.346 452.542 166.346C454.303 166.346 455.685 166.927 456.689 168.089C457.693 169.234 458.195 170.819 458.195 172.844V173.24ZM452.568 168.01C451.459 168.01 450.552 168.345 449.848 169.014C449.161 169.683 448.721 170.625 448.527 171.84H456.266C456.161 170.59 455.791 169.639 455.157 168.987C454.541 168.336 453.678 168.01 452.568 168.01Z" fill="#979797"/>
<path d="M476.181 166.346C479.122 166.346 480.593 168.098 480.593 171.602V179.949H478.453V171.708C478.453 170.458 478.233 169.551 477.793 168.987C477.37 168.424 476.675 168.142 475.706 168.142C474.579 168.142 473.699 168.521 473.065 169.278C472.431 170.035 472.114 171.065 472.114 172.368V179.949H469.974V171.708C469.974 170.475 469.754 169.577 469.314 169.014C468.873 168.433 468.169 168.142 467.201 168.142C466.074 168.142 465.184 168.521 464.533 169.278C463.899 170.035 463.582 171.065 463.582 172.368V179.949H461.442V170.387C461.442 169.014 461.372 167.772 461.231 166.663H463.265L463.476 168.987C463.846 168.142 464.392 167.49 465.114 167.033C465.853 166.575 466.708 166.346 467.676 166.346C468.733 166.346 469.596 166.557 470.265 166.98C470.934 167.402 471.427 168.054 471.744 168.934C472.149 168.142 472.739 167.517 473.514 167.059C474.306 166.584 475.195 166.346 476.181 166.346Z" fill="#979797"/>
<path d="M496.36 166.663V179.949H494.247V177.546C493.859 178.373 493.269 179.016 492.477 179.474C491.702 179.914 490.795 180.134 489.756 180.134C488.576 180.134 487.537 179.852 486.639 179.289C485.759 178.725 485.072 177.933 484.579 176.912C484.103 175.873 483.866 174.666 483.866 173.293C483.866 171.919 484.112 170.713 484.605 169.674C485.098 168.618 485.785 167.799 486.666 167.218C487.564 166.636 488.594 166.346 489.756 166.346C490.795 166.346 491.702 166.575 492.477 167.033C493.252 167.49 493.841 168.133 494.247 168.961V166.663H496.36ZM490.179 178.364C491.482 178.364 492.486 177.924 493.19 177.044C493.894 176.146 494.247 174.878 494.247 173.24C494.247 171.602 493.894 170.343 493.19 169.463C492.486 168.582 491.482 168.142 490.179 168.142C488.876 168.142 487.854 168.6 487.115 169.516C486.393 170.414 486.032 171.673 486.032 173.293C486.032 174.913 486.393 176.163 487.115 177.044C487.837 177.924 488.858 178.364 490.179 178.364Z" fill="#979797"/>
<path d="M500.496 179.949V166.663H502.636V179.949H500.496ZM500.285 161.037H502.9V163.467H500.285V161.037Z" fill="#979797"/>
<path d="M506.79 179.949V160.508H508.93V179.949H506.79Z" fill="#979797"/>
<path d="M531.673 166.663V179.949H529.56V177.546C529.173 178.373 528.583 179.016 527.791 179.474C527.016 179.914 526.109 180.134 525.07 180.134C523.89 180.134 522.851 179.852 521.953 179.289C521.072 178.725 520.386 177.933 519.893 176.912C519.417 175.873 519.179 174.666 519.179 173.293C519.179 171.919 519.426 170.713 519.919 169.674C520.412 168.618 521.099 167.799 521.979 167.218C522.877 166.636 523.908 166.346 525.07 166.346C526.109 166.346 527.016 166.575 527.791 167.033C528.565 167.49 529.155 168.133 529.56 168.961V166.663H531.673ZM525.492 178.364C526.796 178.364 527.799 177.924 528.504 177.044C529.208 176.146 529.56 174.878 529.56 173.24C529.56 171.602 529.208 170.343 528.504 169.463C527.799 168.582 526.796 168.142 525.492 168.142C524.189 168.142 523.168 168.6 522.428 169.516C521.706 170.414 521.345 171.673 521.345 173.293C521.345 174.913 521.706 176.163 522.428 177.044C523.15 177.924 524.172 178.364 525.492 178.364Z" fill="#979797"/>
<path d="M547.512 160.508V179.949H545.399V177.546C545.011 178.373 544.421 179.016 543.629 179.474C542.854 179.914 541.947 180.134 540.908 180.134C539.746 180.134 538.716 179.844 537.818 179.263C536.937 178.681 536.25 177.871 535.757 176.832C535.264 175.776 535.018 174.561 535.018 173.187C535.018 171.814 535.256 170.616 535.731 169.595C536.224 168.556 536.92 167.755 537.818 167.191C538.716 166.628 539.746 166.346 540.908 166.346C541.947 166.346 542.854 166.575 543.629 167.033C544.404 167.473 544.985 168.098 545.372 168.908V160.508H547.512ZM541.331 178.364C542.634 178.364 543.638 177.924 544.342 177.044C545.046 176.146 545.399 174.878 545.399 173.24C545.399 171.62 545.046 170.37 544.342 169.489C543.638 168.591 542.634 168.142 541.331 168.142C540.028 168.142 539.006 168.582 538.267 169.463C537.545 170.343 537.184 171.585 537.184 173.187C537.184 174.825 537.545 176.102 538.267 177.017C539.006 177.915 540.028 178.364 541.331 178.364Z" fill="#979797"/>
<path d="M563.35 160.508V179.949H561.237V177.546C560.85 178.373 560.26 179.016 559.467 179.474C558.692 179.914 557.786 180.134 556.747 180.134C555.584 180.134 554.554 179.844 553.656 179.263C552.776 178.681 552.089 177.871 551.596 176.832C551.103 175.776 550.856 174.561 550.856 173.187C550.856 171.814 551.094 170.616 551.569 169.595C552.062 168.556 552.758 167.755 553.656 167.191C554.554 166.628 555.584 166.346 556.747 166.346C557.786 166.346 558.692 166.575 559.467 167.033C560.242 167.473 560.823 168.098 561.211 168.908V160.508H563.35ZM557.169 178.364C558.472 178.364 559.476 177.924 560.18 177.044C560.885 176.146 561.237 174.878 561.237 173.24C561.237 171.62 560.885 170.37 560.18 169.489C559.476 168.591 558.472 168.142 557.169 168.142C555.866 168.142 554.845 168.582 554.105 169.463C553.383 170.343 553.022 171.585 553.022 173.187C553.022 174.825 553.383 176.102 554.105 177.017C554.845 177.915 555.866 178.364 557.169 178.364Z" fill="#979797"/>
<path d="M573.668 166.346C574.108 166.346 574.513 166.399 574.883 166.504L574.83 168.459C574.425 168.318 573.959 168.248 573.43 168.248C572.145 168.248 571.185 168.653 570.551 169.463C569.935 170.255 569.627 171.224 569.627 172.368V179.949H567.487V170.387C567.487 169.014 567.417 167.772 567.276 166.663H569.31L569.521 169.119C569.855 168.221 570.393 167.535 571.132 167.059C571.872 166.584 572.717 166.346 573.668 166.346Z" fill="#979797"/>
<path d="M587.92 173.24H578.173C578.19 174.931 578.578 176.207 579.335 177.07C580.11 177.933 581.228 178.364 582.69 178.364C584.239 178.364 585.666 177.845 586.969 176.806L587.682 178.364C587.101 178.91 586.352 179.342 585.437 179.659C584.539 179.976 583.614 180.134 582.663 180.134C580.585 180.134 578.956 179.527 577.776 178.312C576.597 177.079 576.007 175.397 576.007 173.266C576.007 171.911 576.271 170.713 576.799 169.674C577.327 168.618 578.067 167.799 579.018 167.218C579.969 166.636 581.052 166.346 582.267 166.346C584.028 166.346 585.41 166.927 586.414 168.089C587.418 169.234 587.92 170.819 587.92 172.844V173.24ZM582.293 168.01C581.184 168.01 580.277 168.345 579.573 169.014C578.886 169.683 578.446 170.625 578.252 171.84H585.991C585.886 170.59 585.516 169.639 584.882 168.987C584.266 168.336 583.403 168.01 582.293 168.01Z" fill="#979797"/>
<path d="M595.658 180.134C593.421 180.134 591.651 179.562 590.348 178.417L591.061 176.832C591.783 177.396 592.514 177.801 593.254 178.047C593.993 178.294 594.821 178.417 595.737 178.417C596.741 178.417 597.498 178.25 598.008 177.915C598.537 177.563 598.801 177.061 598.801 176.41C598.801 175.881 598.625 175.459 598.273 175.142C597.92 174.825 597.339 174.578 596.529 174.402L594.284 173.874C593.175 173.627 592.312 173.187 591.695 172.553C591.097 171.919 590.797 171.162 590.797 170.282C590.797 169.119 591.264 168.177 592.197 167.455C593.131 166.716 594.363 166.346 595.895 166.346C596.829 166.346 597.709 166.496 598.537 166.795C599.364 167.094 600.06 167.526 600.623 168.089L599.91 169.648C598.66 168.609 597.322 168.089 595.895 168.089C594.944 168.089 594.205 168.274 593.676 168.644C593.166 168.996 592.91 169.498 592.91 170.15C592.91 170.695 593.069 171.127 593.386 171.444C593.721 171.761 594.249 172.007 594.971 172.183L597.216 172.738C598.449 173.02 599.364 173.46 599.963 174.059C600.562 174.64 600.861 175.406 600.861 176.357C600.861 177.502 600.395 178.417 599.461 179.104C598.528 179.791 597.26 180.134 595.658 180.134Z" fill="#979797"/>
<path d="M608.762 180.134C606.525 180.134 604.755 179.562 603.452 178.417L604.165 176.832C604.887 177.396 605.618 177.801 606.358 178.047C607.098 178.294 607.925 178.417 608.841 178.417C609.845 178.417 610.602 178.25 611.113 177.915C611.641 177.563 611.905 177.061 611.905 176.41C611.905 175.881 611.729 175.459 611.377 175.142C611.024 174.825 610.443 174.578 609.633 174.402L607.388 173.874C606.279 173.627 605.416 173.187 604.799 172.553C604.201 171.919 603.901 171.162 603.901 170.282C603.901 169.119 604.368 168.177 605.301 167.455C606.235 166.716 607.467 166.346 608.999 166.346C609.933 166.346 610.813 166.496 611.641 166.795C612.468 167.094 613.164 167.526 613.728 168.089L613.014 169.648C611.764 168.609 610.426 168.089 608.999 168.089C608.048 168.089 607.309 168.274 606.781 168.644C606.27 168.996 606.015 169.498 606.015 170.15C606.015 170.695 606.173 171.127 606.49 171.444C606.825 171.761 607.353 172.007 608.075 172.183L610.32 172.738C611.553 173.02 612.468 173.46 613.067 174.059C613.666 174.64 613.965 175.406 613.965 176.357C613.965 177.502 613.499 178.417 612.565 179.104C611.632 179.791 610.364 180.134 608.762 180.134Z" fill="#979797"/>
<path d="M629.757 180.134C628.506 180.134 627.406 179.852 626.455 179.289C625.504 178.725 624.764 177.924 624.236 176.885C623.725 175.846 623.47 174.631 623.47 173.24C623.47 171.849 623.725 170.634 624.236 169.595C624.764 168.556 625.504 167.755 626.455 167.191C627.406 166.628 628.506 166.346 629.757 166.346C631.007 166.346 632.108 166.628 633.059 167.191C634.009 167.755 634.74 168.556 635.251 169.595C635.779 170.634 636.043 171.849 636.043 173.24C636.043 174.631 635.779 175.846 635.251 176.885C634.74 177.924 634.009 178.725 633.059 179.289C632.108 179.852 631.007 180.134 629.757 180.134ZM629.757 178.364C631.077 178.364 632.09 177.933 632.794 177.07C633.499 176.19 633.851 174.913 633.851 173.24C633.851 171.62 633.49 170.37 632.768 169.489C632.046 168.591 631.042 168.142 629.757 168.142C628.454 168.142 627.441 168.591 626.719 169.489C625.997 170.37 625.636 171.62 625.636 173.24C625.636 174.913 625.988 176.19 626.693 177.07C627.415 177.933 628.436 178.364 629.757 178.364Z" fill="#979797"/>
<path d="M645.56 166.346C646 166.346 646.405 166.399 646.775 166.504L646.722 168.459C646.317 168.318 645.85 168.248 645.322 168.248C644.036 168.248 643.077 168.653 642.443 169.463C641.826 170.255 641.518 171.224 641.518 172.368V179.949H639.379V170.387C639.379 169.014 639.308 167.772 639.167 166.663H641.201L641.413 169.119C641.747 168.221 642.284 167.535 643.024 167.059C643.763 166.584 644.609 166.346 645.56 166.346Z" fill="#979797"/>
<path d="M130.245 203.923V211.187C130.245 212.173 130.448 212.868 130.853 213.273C131.258 213.661 131.83 213.854 132.569 213.854C133.063 213.854 133.538 213.775 133.996 213.617V215.439C133.45 215.615 132.834 215.703 132.147 215.703C130.879 215.703 129.884 215.351 129.162 214.647C128.458 213.925 128.105 212.868 128.105 211.477V203.923H125.517V202.232H128.105V198.825L130.245 198.059V202.232H134.049V203.923H130.245Z" fill="#979797"/>
<path d="M143.257 201.915C146.444 201.915 148.038 203.667 148.038 207.172V215.518H145.898V207.277C145.898 206.045 145.652 205.146 145.159 204.583C144.666 204.002 143.891 203.711 142.834 203.711C141.602 203.711 140.616 204.09 139.876 204.847C139.136 205.604 138.767 206.626 138.767 207.911V215.518H136.627V196.077H138.767V204.398C139.189 203.588 139.788 202.972 140.563 202.549C141.355 202.126 142.253 201.915 143.257 201.915Z" fill="#979797"/>
<path d="M163.199 208.809H153.452C153.47 210.5 153.857 211.776 154.614 212.639C155.389 213.502 156.507 213.934 157.969 213.934C159.518 213.934 160.945 213.414 162.248 212.375L162.961 213.934C162.38 214.48 161.632 214.911 160.716 215.228C159.818 215.545 158.893 215.703 157.942 215.703C155.864 215.703 154.236 215.096 153.056 213.881C151.876 212.648 151.286 210.966 151.286 208.836C151.286 207.48 151.55 206.282 152.078 205.243C152.607 204.187 153.346 203.368 154.297 202.787C155.248 202.206 156.331 201.915 157.546 201.915C159.307 201.915 160.69 202.496 161.693 203.658C162.697 204.803 163.199 206.388 163.199 208.413V208.809ZM157.573 203.579C156.463 203.579 155.556 203.914 154.852 204.583C154.165 205.252 153.725 206.194 153.531 207.409H161.271C161.165 206.159 160.795 205.208 160.161 204.556C159.545 203.905 158.682 203.579 157.573 203.579Z" fill="#979797"/>
<path d="M177.824 215.703C175.588 215.703 173.818 215.131 172.515 213.986L173.228 212.402C173.95 212.965 174.681 213.37 175.421 213.617C176.16 213.863 176.988 213.986 177.903 213.986C178.907 213.986 179.664 213.819 180.175 213.485C180.703 213.132 180.968 212.631 180.968 211.979C180.968 211.451 180.791 211.028 180.439 210.711C180.087 210.394 179.506 210.148 178.696 209.971L176.451 209.443C175.341 209.197 174.478 208.756 173.862 208.122C173.263 207.488 172.964 206.731 172.964 205.851C172.964 204.689 173.431 203.746 174.364 203.024C175.297 202.285 176.53 201.915 178.062 201.915C178.995 201.915 179.876 202.065 180.703 202.364C181.531 202.663 182.227 203.095 182.79 203.658L182.077 205.217C180.827 204.178 179.488 203.658 178.062 203.658C177.111 203.658 176.371 203.843 175.843 204.213C175.332 204.565 175.077 205.067 175.077 205.719C175.077 206.265 175.236 206.696 175.553 207.013C175.887 207.33 176.415 207.577 177.137 207.753L179.383 208.307C180.615 208.589 181.531 209.029 182.13 209.628C182.729 210.209 183.028 210.975 183.028 211.926C183.028 213.071 182.561 213.986 181.628 214.673C180.695 215.36 179.427 215.703 177.824 215.703Z" fill="#979797"/>
<path d="M186.438 215.518V202.232H188.577V215.518H186.438ZM186.227 196.606H188.842V199.036H186.227V196.606Z" fill="#979797"/>
<path d="M204.566 202.232V215.413C204.566 217.385 204.055 218.873 203.034 219.877C202.03 220.898 200.542 221.409 198.569 221.409C196.544 221.409 194.801 220.951 193.339 220.035L193.709 218.292C194.554 218.767 195.347 219.111 196.087 219.322C196.844 219.533 197.671 219.639 198.569 219.639C199.855 219.639 200.824 219.296 201.475 218.609C202.127 217.94 202.452 216.936 202.452 215.598V212.454C202.047 213.3 201.449 213.96 200.656 214.435C199.881 214.893 198.957 215.122 197.883 215.122C196.72 215.122 195.682 214.849 194.766 214.303C193.868 213.758 193.172 212.983 192.679 211.979C192.186 210.975 191.939 209.822 191.939 208.519C191.939 207.216 192.186 206.062 192.679 205.058C193.172 204.055 193.868 203.28 194.766 202.734C195.682 202.188 196.72 201.915 197.883 201.915C198.939 201.915 199.855 202.144 200.63 202.602C201.422 203.06 202.021 203.702 202.426 204.53V202.232H204.566ZM198.305 213.326C199.591 213.326 200.595 212.903 201.317 212.058C202.056 211.195 202.426 210.015 202.426 208.519C202.426 207.022 202.056 205.851 201.317 205.006C200.595 204.143 199.591 203.711 198.305 203.711C197.002 203.711 195.972 204.143 195.215 205.006C194.475 205.851 194.105 207.022 194.105 208.519C194.105 210.015 194.475 211.195 195.215 212.058C195.972 212.903 197.002 213.326 198.305 213.326Z" fill="#979797"/>
<path d="M215.303 201.915C218.491 201.915 220.084 203.667 220.084 207.172V215.518H217.945V207.277C217.945 206.045 217.698 205.146 217.205 204.583C216.712 204.002 215.937 203.711 214.881 203.711C213.648 203.711 212.662 204.09 211.922 204.847C211.183 205.604 210.813 206.626 210.813 207.911V215.518H208.673V205.956C208.673 204.583 208.603 203.341 208.462 202.232H210.496L210.707 204.609C211.112 203.746 211.72 203.086 212.53 202.628C213.34 202.153 214.264 201.915 215.303 201.915Z" fill="#979797"/>
<path d="M223.993 209.311V207.541H231.468V209.311H223.993Z" fill="#979797"/>
<path d="M235.449 215.518V202.232H237.589V215.518H235.449ZM235.238 196.606H237.853V199.036H235.238V196.606Z" fill="#979797"/>
<path d="M248.373 201.915C251.56 201.915 253.154 203.667 253.154 207.172V215.518H251.015V207.277C251.015 206.045 250.768 205.146 250.275 204.583C249.782 204.002 249.007 203.711 247.95 203.711C246.718 203.711 245.732 204.09 244.992 204.847C244.252 205.604 243.883 206.626 243.883 207.911V215.518H241.743V205.956C241.743 204.583 241.673 203.341 241.532 202.232H243.566L243.777 204.609C244.182 203.746 244.79 203.086 245.6 202.628C246.41 202.153 247.334 201.915 248.373 201.915Z" fill="#979797"/>
<path d="M275.783 196.077V215.518H273.67V213.115C273.283 213.942 272.693 214.585 271.901 215.043C271.126 215.483 270.219 215.703 269.18 215.703C268.018 215.703 266.987 215.413 266.089 214.832C265.209 214.251 264.522 213.441 264.029 212.402C263.536 211.345 263.289 210.13 263.289 208.756C263.289 207.383 263.527 206.185 264.003 205.164C264.496 204.125 265.191 203.324 266.089 202.76C266.987 202.197 268.018 201.915 269.18 201.915C270.219 201.915 271.126 202.144 271.901 202.602C272.675 203.042 273.256 203.667 273.644 204.477V196.077H275.783ZM269.602 213.934C270.906 213.934 271.909 213.493 272.614 212.613C273.318 211.715 273.67 210.447 273.67 208.809C273.67 207.189 273.318 205.939 272.614 205.058C271.909 204.16 270.906 203.711 269.602 203.711C268.299 203.711 267.278 204.151 266.538 205.032C265.816 205.912 265.455 207.154 265.455 208.756C265.455 210.394 265.816 211.671 266.538 212.586C267.278 213.485 268.299 213.934 269.602 213.934Z" fill="#979797"/>
<path d="M291.041 208.809H281.294C281.311 210.5 281.699 211.776 282.456 212.639C283.231 213.502 284.349 213.934 285.811 213.934C287.36 213.934 288.787 213.414 290.09 212.375L290.803 213.934C290.222 214.48 289.473 214.911 288.558 215.228C287.66 215.545 286.735 215.703 285.784 215.703C283.706 215.703 282.077 215.096 280.898 213.881C279.718 212.648 279.128 210.966 279.128 208.836C279.128 207.48 279.392 206.282 279.92 205.243C280.449 204.187 281.188 203.368 282.139 202.787C283.09 202.206 284.173 201.915 285.388 201.915C287.149 201.915 288.531 202.496 289.535 203.658C290.539 204.803 291.041 206.388 291.041 208.413V208.809ZM285.414 203.579C284.305 203.579 283.398 203.914 282.694 204.583C282.007 205.252 281.567 206.194 281.373 207.409H289.112C289.007 206.159 288.637 205.208 288.003 204.556C287.387 203.905 286.524 203.579 285.414 203.579Z" fill="#979797"/>
<path d="M297.064 203.923V211.187C297.064 212.173 297.266 212.868 297.671 213.273C298.076 213.661 298.648 213.854 299.388 213.854C299.881 213.854 300.357 213.775 300.814 213.617V215.439C300.269 215.615 299.652 215.703 298.965 215.703C297.698 215.703 296.703 215.351 295.981 214.647C295.276 213.925 294.924 212.868 294.924 211.477V203.923H292.335V202.232H294.924V198.825L297.064 198.059V202.232H300.867V203.923H297.064Z" fill="#979797"/>
<path d="M315.147 202.232V215.518H313.034V213.115C312.647 213.942 312.057 214.585 311.264 215.043C310.489 215.483 309.583 215.703 308.544 215.703C307.364 215.703 306.325 215.422 305.427 214.858C304.546 214.295 303.859 213.502 303.366 212.481C302.891 211.442 302.653 210.236 302.653 208.862C302.653 207.488 302.9 206.282 303.393 205.243C303.886 204.187 304.573 203.368 305.453 202.787C306.351 202.206 307.381 201.915 308.544 201.915C309.583 201.915 310.489 202.144 311.264 202.602C312.039 203.06 312.629 203.702 313.034 204.53V202.232H315.147ZM308.966 213.934C310.269 213.934 311.273 213.493 311.977 212.613C312.682 211.715 313.034 210.447 313.034 208.809C313.034 207.172 312.682 205.912 311.977 205.032C311.273 204.151 310.269 203.711 308.966 203.711C307.663 203.711 306.642 204.169 305.902 205.085C305.18 205.983 304.819 207.242 304.819 208.862C304.819 210.482 305.18 211.732 305.902 212.613C306.624 213.493 307.646 213.934 308.966 213.934Z" fill="#979797"/>
<path d="M319.284 215.518V202.232H321.424V215.518H319.284ZM319.073 196.606H321.688V199.036H319.073V196.606Z" fill="#979797"/>
<path d="M325.578 215.518V196.077H327.718V215.518H325.578Z" fill="#979797"/>
<path d="M336.363 215.703C334.126 215.703 332.356 215.131 331.053 213.986L331.766 212.402C332.488 212.965 333.219 213.37 333.959 213.617C334.698 213.863 335.526 213.986 336.442 213.986C337.446 213.986 338.203 213.819 338.713 213.485C339.242 213.132 339.506 212.631 339.506 211.979C339.506 211.451 339.33 211.028 338.978 210.711C338.625 210.394 338.044 210.148 337.234 209.971L334.989 209.443C333.88 209.197 333.017 208.756 332.4 208.122C331.802 207.488 331.502 206.731 331.502 205.851C331.502 204.689 331.969 203.746 332.902 203.024C333.836 202.285 335.068 201.915 336.6 201.915C337.534 201.915 338.414 202.065 339.242 202.364C340.069 202.663 340.765 203.095 341.328 203.658L340.615 205.217C339.365 204.178 338.027 203.658 336.6 203.658C335.649 203.658 334.91 203.843 334.381 204.213C333.871 204.565 333.615 205.067 333.615 205.719C333.615 206.265 333.774 206.696 334.091 207.013C334.425 207.33 334.954 207.577 335.676 207.753L337.921 208.307C339.154 208.589 340.069 209.029 340.668 209.628C341.267 210.209 341.566 210.975 341.566 211.926C341.566 213.071 341.1 213.986 340.166 214.673C339.233 215.36 337.965 215.703 336.363 215.703Z" fill="#979797"/>
<path d="M357.358 215.703C356.107 215.703 355.007 215.422 354.056 214.858C353.105 214.295 352.365 213.493 351.837 212.454C351.326 211.415 351.071 210.2 351.071 208.809C351.071 207.418 351.326 206.203 351.837 205.164C352.365 204.125 353.105 203.324 354.056 202.76C355.007 202.197 356.107 201.915 357.358 201.915C358.608 201.915 359.709 202.197 360.66 202.76C361.61 203.324 362.341 204.125 362.852 205.164C363.38 206.203 363.644 207.418 363.644 208.809C363.644 210.2 363.38 211.415 362.852 212.454C362.341 213.493 361.61 214.295 360.66 214.858C359.709 215.422 358.608 215.703 357.358 215.703ZM357.358 213.934C358.678 213.934 359.691 213.502 360.395 212.639C361.1 211.759 361.452 210.482 361.452 208.809C361.452 207.189 361.091 205.939 360.369 205.058C359.647 204.16 358.643 203.711 357.358 203.711C356.055 203.711 355.042 204.16 354.32 205.058C353.598 205.939 353.237 207.189 353.237 208.809C353.237 210.482 353.589 211.759 354.294 212.639C355.016 213.502 356.037 213.934 357.358 213.934Z" fill="#979797"/>
<path d="M372.052 197.821C371.347 197.821 370.793 198.023 370.388 198.428C370 198.816 369.807 199.494 369.807 200.462V202.232H373.056V203.923H369.807V215.518H367.667V203.923H365.078V202.232H367.667V200.198C367.667 198.807 368.01 197.759 368.697 197.055C369.402 196.333 370.379 195.972 371.629 195.972C372.245 195.972 372.844 196.051 373.425 196.21V198.032C372.932 197.891 372.474 197.821 372.052 197.821Z" fill="#979797"/>
<path d="M394.416 202.232L388.208 216.734C387.557 218.248 386.738 219.357 385.752 220.062C384.766 220.766 383.551 221.25 382.107 221.515L381.658 219.85C382.908 219.569 383.85 219.19 384.484 218.715C385.135 218.257 385.673 217.544 386.095 216.575L386.623 215.386L380.997 202.232H383.242L387.733 213.194L392.276 202.232H394.416Z" fill="#979797"/>
<path d="M402.113 215.703C400.862 215.703 399.762 215.422 398.811 214.858C397.86 214.295 397.12 213.493 396.592 212.454C396.081 211.415 395.826 210.2 395.826 208.809C395.826 207.418 396.081 206.203 396.592 205.164C397.12 204.125 397.86 203.324 398.811 202.76C399.762 202.197 400.862 201.915 402.113 201.915C403.363 201.915 404.464 202.197 405.414 202.76C406.365 203.324 407.096 204.125 407.607 205.164C408.135 206.203 408.399 207.418 408.399 208.809C408.399 210.2 408.135 211.415 407.607 212.454C407.096 213.493 406.365 214.295 405.414 214.858C404.464 215.422 403.363 215.703 402.113 215.703ZM402.113 213.934C403.433 213.934 404.446 213.502 405.15 212.639C405.855 211.759 406.207 210.482 406.207 208.809C406.207 207.189 405.846 205.939 405.124 205.058C404.402 204.16 403.398 203.711 402.113 203.711C400.81 203.711 399.797 204.16 399.075 205.058C398.353 205.939 397.992 207.189 397.992 208.809C397.992 210.482 398.344 211.759 399.049 212.639C399.771 213.502 400.792 213.934 402.113 213.934Z" fill="#979797"/>
<path d="M422.855 202.232V215.518H420.768V213.22C420.346 214.03 419.756 214.647 418.999 215.069C418.241 215.492 417.387 215.703 416.436 215.703C414.869 215.703 413.68 215.263 412.87 214.383C412.06 213.502 411.655 212.199 411.655 210.473V202.232H413.795V210.42C413.795 211.618 414.041 212.498 414.534 213.062C415.028 213.625 415.776 213.907 416.78 213.907C417.96 213.907 418.91 213.529 419.632 212.771C420.354 211.997 420.715 210.984 420.715 209.734V202.232H422.855Z" fill="#979797"/>
<path d="M433.161 201.915C433.601 201.915 434.006 201.968 434.376 202.074L434.323 204.028C433.918 203.887 433.451 203.817 432.923 203.817C431.637 203.817 430.678 204.222 430.044 205.032C429.427 205.824 429.119 206.793 429.119 207.938V215.518H426.98V205.956C426.98 204.583 426.909 203.341 426.768 202.232H428.802L429.014 204.689C429.348 203.79 429.885 203.104 430.625 202.628C431.364 202.153 432.21 201.915 433.161 201.915Z" fill="#979797"/>
<path d="M450.067 201.915C451.229 201.915 452.259 202.206 453.158 202.787C454.056 203.368 454.751 204.187 455.244 205.243C455.737 206.282 455.984 207.488 455.984 208.862C455.984 210.236 455.737 211.442 455.244 212.481C454.751 213.502 454.056 214.295 453.158 214.858C452.277 215.422 451.247 215.703 450.067 215.703C449.028 215.703 448.121 215.474 447.346 215.017C446.572 214.559 445.982 213.907 445.577 213.062V221.224H443.437V205.956C443.437 204.583 443.367 203.341 443.226 202.232H445.26L445.471 204.794C445.841 203.879 446.422 203.174 447.214 202.681C448.024 202.17 448.975 201.915 450.067 201.915ZM449.671 213.934C450.974 213.934 451.978 213.493 452.682 212.613C453.404 211.732 453.765 210.482 453.765 208.862C453.765 207.242 453.404 205.983 452.682 205.085C451.96 204.169 450.956 203.711 449.671 203.711C448.35 203.711 447.338 204.151 446.633 205.032C445.929 205.912 445.577 207.172 445.577 208.809C445.577 210.447 445.929 211.715 446.633 212.613C447.338 213.493 448.35 213.934 449.671 213.934Z" fill="#979797"/>
<path d="M470.396 208.809H460.649C460.667 210.5 461.054 211.776 461.811 212.639C462.586 213.502 463.704 213.934 465.166 213.934C466.715 213.934 468.142 213.414 469.445 212.375L470.158 213.934C469.577 214.48 468.829 214.911 467.913 215.228C467.015 215.545 466.09 215.703 465.139 215.703C463.061 215.703 461.433 215.096 460.253 213.881C459.073 212.648 458.483 210.966 458.483 208.836C458.483 207.48 458.747 206.282 459.275 205.243C459.804 204.187 460.543 203.368 461.494 202.787C462.445 202.206 463.528 201.915 464.743 201.915C466.504 201.915 467.887 202.496 468.89 203.658C469.894 204.803 470.396 206.388 470.396 208.413V208.809ZM464.77 203.579C463.66 203.579 462.753 203.914 462.049 204.583C461.362 205.252 460.922 206.194 460.728 207.409H468.468C468.362 206.159 467.992 205.208 467.358 204.556C466.742 203.905 465.879 203.579 464.77 203.579Z" fill="#979797"/>
<path d="M479.824 201.915C480.265 201.915 480.67 201.968 481.039 202.074L480.987 204.028C480.582 203.887 480.115 203.817 479.587 203.817C478.301 203.817 477.341 204.222 476.707 205.032C476.091 205.824 475.783 206.793 475.783 207.938V215.518H473.643V205.956C473.643 204.583 473.573 203.341 473.432 202.232H475.466L475.677 204.689C476.012 203.79 476.549 203.104 477.289 202.628C478.028 202.153 478.873 201.915 479.824 201.915Z" fill="#979797"/>
<path d="M487.575 215.703C485.339 215.703 483.569 215.131 482.266 213.986L482.979 212.402C483.701 212.965 484.432 213.37 485.171 213.617C485.911 213.863 486.739 213.986 487.654 213.986C488.658 213.986 489.415 213.819 489.926 213.485C490.454 213.132 490.718 212.631 490.718 211.979C490.718 211.451 490.542 211.028 490.19 210.711C489.838 210.394 489.257 210.148 488.447 209.971L486.201 209.443C485.092 209.197 484.229 208.756 483.613 208.122C483.014 207.488 482.715 206.731 482.715 205.851C482.715 204.689 483.181 203.746 484.115 203.024C485.048 202.285 486.281 201.915 487.813 201.915C488.746 201.915 489.627 202.065 490.454 202.364C491.282 202.663 491.977 203.095 492.541 203.658L491.828 205.217C490.577 204.178 489.239 203.658 487.813 203.658C486.862 203.658 486.122 203.843 485.594 204.213C485.083 204.565 484.828 205.067 484.828 205.719C484.828 206.265 484.986 206.696 485.303 207.013C485.638 207.33 486.166 207.577 486.888 207.753L489.133 208.307C490.366 208.589 491.282 209.029 491.881 209.628C492.479 210.209 492.779 210.975 492.779 211.926C492.779 213.071 492.312 213.986 491.379 214.673C490.445 215.36 489.178 215.703 487.575 215.703Z" fill="#979797"/>
<path d="M501.683 215.703C500.433 215.703 499.332 215.422 498.381 214.858C497.43 214.295 496.69 213.493 496.162 212.454C495.651 211.415 495.396 210.2 495.396 208.809C495.396 207.418 495.651 206.203 496.162 205.164C496.69 204.125 497.43 203.324 498.381 202.76C499.332 202.197 500.433 201.915 501.683 201.915C502.933 201.915 504.034 202.197 504.985 202.76C505.936 203.324 506.666 204.125 507.177 205.164C507.705 206.203 507.969 207.418 507.969 208.809C507.969 210.2 507.705 211.415 507.177 212.454C506.666 213.493 505.936 214.295 504.985 214.858C504.034 215.422 502.933 215.703 501.683 215.703ZM501.683 213.934C503.004 213.934 504.016 213.502 504.72 212.639C505.425 211.759 505.777 210.482 505.777 208.809C505.777 207.189 505.416 205.939 504.694 205.058C503.972 204.16 502.968 203.711 501.683 203.711C500.38 203.711 499.367 204.16 498.645 205.058C497.923 205.939 497.562 207.189 497.562 208.809C497.562 210.482 497.914 211.759 498.619 212.639C499.341 213.502 500.362 213.934 501.683 213.934Z" fill="#979797"/>
<path d="M517.935 201.915C521.122 201.915 522.716 203.667 522.716 207.172V215.518H520.576V207.277C520.576 206.045 520.33 205.146 519.837 204.583C519.343 204.002 518.569 203.711 517.512 203.711C516.279 203.711 515.293 204.09 514.554 204.847C513.814 205.604 513.444 206.626 513.444 207.911V215.518H511.305V205.956C511.305 204.583 511.234 203.341 511.093 202.232H513.127L513.339 204.609C513.744 203.746 514.351 203.086 515.161 202.628C515.971 202.153 516.896 201.915 517.935 201.915Z" fill="#979797"/>
<path d="M538.458 202.232V215.518H536.345V213.115C535.957 213.942 535.367 214.585 534.575 215.043C533.8 215.483 532.893 215.703 531.854 215.703C530.674 215.703 529.635 215.422 528.737 214.858C527.857 214.295 527.17 213.502 526.677 212.481C526.201 211.442 525.964 210.236 525.964 208.862C525.964 207.488 526.21 206.282 526.703 205.243C527.196 204.187 527.883 203.368 528.764 202.787C529.662 202.206 530.692 201.915 531.854 201.915C532.893 201.915 533.8 202.144 534.575 202.602C535.35 203.06 535.94 203.702 536.345 204.53V202.232H538.458ZM532.277 213.934C533.58 213.934 534.584 213.493 535.288 212.613C535.992 211.715 536.345 210.447 536.345 208.809C536.345 207.172 535.992 205.912 535.288 205.032C534.584 204.151 533.58 203.711 532.277 203.711C530.974 203.711 529.952 204.169 529.213 205.085C528.491 205.983 528.13 207.242 528.13 208.862C528.13 210.482 528.491 211.732 529.213 212.613C529.935 213.493 530.956 213.934 532.277 213.934Z" fill="#979797"/>
<path d="M542.594 215.518V196.077H544.734V215.518H542.594Z" fill="#979797"/>
<path d="M570.726 215.518H567.9L558.206 206.564V215.518H556.04V196.711H558.206V205.349L567.451 196.711H570.225L560.398 205.877L570.726 215.518Z" fill="#979797"/>
<path d="M583.38 202.232V215.518H581.293V213.22C580.87 214.03 580.28 214.647 579.523 215.069C578.766 215.492 577.912 215.703 576.961 215.703C575.394 215.703 574.205 215.263 573.395 214.383C572.585 213.502 572.18 212.199 572.18 210.473V202.232H574.319V210.42C574.319 211.618 574.566 212.498 575.059 213.062C575.552 213.625 576.301 213.907 577.304 213.907C578.484 213.907 579.435 213.529 580.157 212.771C580.879 211.997 581.24 210.984 581.24 209.734V202.232H583.38Z" fill="#979797"/>
<path d="M599.206 196.077V215.518H597.093V213.115C596.705 213.942 596.115 214.585 595.323 215.043C594.548 215.483 593.641 215.703 592.602 215.703C591.44 215.703 590.41 215.413 589.512 214.832C588.631 214.251 587.944 213.441 587.451 212.402C586.958 211.345 586.712 210.13 586.712 208.756C586.712 207.383 586.949 206.185 587.425 205.164C587.918 204.125 588.614 203.324 589.512 202.76C590.41 202.197 591.44 201.915 592.602 201.915C593.641 201.915 594.548 202.144 595.323 202.602C596.098 203.042 596.679 203.667 597.066 204.477V196.077H599.206ZM593.025 213.934C594.328 213.934 595.332 213.493 596.036 212.613C596.74 211.715 597.093 210.447 597.093 208.809C597.093 207.189 596.74 205.939 596.036 205.058C595.332 204.16 594.328 203.711 593.025 203.711C591.722 203.711 590.7 204.151 589.961 205.032C589.239 205.912 588.878 207.154 588.878 208.756C588.878 210.394 589.239 211.671 589.961 212.586C590.7 213.485 591.722 213.934 593.025 213.934Z" fill="#979797"/>
<path d="M615.044 202.232V215.518H612.931V213.115C612.544 213.942 611.954 214.585 611.161 215.043C610.386 215.483 609.479 215.703 608.441 215.703C607.261 215.703 606.222 215.422 605.324 214.858C604.443 214.295 603.756 213.502 603.263 212.481C602.788 211.442 602.55 210.236 602.55 208.862C602.55 207.488 602.797 206.282 603.29 205.243C603.783 204.187 604.47 203.368 605.35 202.787C606.248 202.206 607.278 201.915 608.441 201.915C609.479 201.915 610.386 202.144 611.161 202.602C611.936 203.06 612.526 203.702 612.931 204.53V202.232H615.044ZM608.863 213.934C610.166 213.934 611.17 213.493 611.874 212.613C612.579 211.715 612.931 210.447 612.931 208.809C612.931 207.172 612.579 205.912 611.874 205.032C611.17 204.151 610.166 203.711 608.863 203.711C607.56 203.711 606.539 204.169 605.799 205.085C605.077 205.983 604.716 207.242 604.716 208.862C604.716 210.482 605.077 211.732 605.799 212.613C606.521 213.493 607.542 213.934 608.863 213.934Z" fill="#979797"/>
<path d="M139.094 237.117V250.404H136.981V248C136.593 248.828 136.003 249.47 135.211 249.928C134.436 250.368 133.529 250.589 132.49 250.589C131.31 250.589 130.271 250.307 129.373 249.743C128.493 249.18 127.806 248.387 127.313 247.366C126.838 246.327 126.6 245.121 126.6 243.747C126.6 242.374 126.846 241.167 127.339 240.128C127.832 239.072 128.519 238.253 129.4 237.672C130.298 237.091 131.328 236.8 132.49 236.8C133.529 236.8 134.436 237.029 135.211 237.487C135.986 237.945 136.576 238.588 136.981 239.415V237.117H139.094ZM132.913 248.819C134.216 248.819 135.22 248.379 135.924 247.498C136.628 246.6 136.981 245.332 136.981 243.694C136.981 242.057 136.628 240.798 135.924 239.917C135.22 239.037 134.216 238.596 132.913 238.596C131.61 238.596 130.588 239.054 129.849 239.97C129.127 240.868 128.766 242.127 128.766 243.747C128.766 245.367 129.127 246.618 129.849 247.498C130.571 248.379 131.592 248.819 132.913 248.819Z" fill="#979797"/>
<path d="M148.804 250.589C147.519 250.589 146.392 250.307 145.423 249.743C144.472 249.18 143.732 248.387 143.204 247.366C142.693 246.327 142.438 245.121 142.438 243.747C142.438 242.374 142.702 241.167 143.231 240.128C143.759 239.072 144.507 238.253 145.476 237.672C146.462 237.091 147.607 236.8 148.91 236.8C149.808 236.8 150.671 236.959 151.498 237.276C152.344 237.575 153.039 237.998 153.585 238.544L152.872 240.128C152.203 239.6 151.551 239.213 150.917 238.966C150.301 238.72 149.667 238.596 149.015 238.596C147.659 238.596 146.594 239.054 145.819 239.97C145.044 240.868 144.657 242.127 144.657 243.747C144.657 245.35 145.036 246.6 145.793 247.498C146.568 248.379 147.642 248.819 149.015 248.819C149.667 248.819 150.301 248.696 150.917 248.449C151.551 248.202 152.203 247.815 152.872 247.287L153.585 248.872C153.022 249.4 152.308 249.823 151.445 250.139C150.6 250.439 149.72 250.589 148.804 250.589Z" fill="#979797"/>
<path d="M161.882 250.589C160.597 250.589 159.47 250.307 158.501 249.743C157.55 249.18 156.811 248.387 156.282 247.366C155.772 246.327 155.516 245.121 155.516 243.747C155.516 242.374 155.781 241.167 156.309 240.128C156.837 239.072 157.586 238.253 158.554 237.672C159.54 237.091 160.685 236.8 161.988 236.8C162.886 236.8 163.749 236.959 164.577 237.276C165.422 237.575 166.117 237.998 166.663 238.544L165.95 240.128C165.281 239.6 164.629 239.213 163.995 238.966C163.379 238.72 162.745 238.596 162.094 238.596C160.738 238.596 159.672 239.054 158.897 239.97C158.123 240.868 157.735 242.127 157.735 243.747C157.735 245.35 158.114 246.6 158.871 247.498C159.646 248.379 160.72 248.819 162.094 248.819C162.745 248.819 163.379 248.696 163.995 248.449C164.629 248.202 165.281 247.815 165.95 247.287L166.663 248.872C166.1 249.4 165.387 249.823 164.524 250.139C163.678 250.439 162.798 250.589 161.882 250.589Z" fill="#979797"/>
<path d="M174.881 250.589C173.631 250.589 172.53 250.307 171.579 249.743C170.629 249.18 169.889 248.379 169.361 247.34C168.85 246.301 168.595 245.086 168.595 243.694C168.595 242.303 168.85 241.088 169.361 240.049C169.889 239.01 170.629 238.209 171.579 237.645C172.53 237.082 173.631 236.8 174.881 236.8C176.132 236.8 177.232 237.082 178.183 237.645C179.134 238.209 179.865 239.01 180.376 240.049C180.904 241.088 181.168 242.303 181.168 243.694C181.168 245.086 180.904 246.301 180.376 247.34C179.865 248.379 179.134 249.18 178.183 249.743C177.232 250.307 176.132 250.589 174.881 250.589ZM174.881 248.819C176.202 248.819 177.215 248.387 177.919 247.524C178.623 246.644 178.976 245.367 178.976 243.694C178.976 242.074 178.615 240.824 177.893 239.944C177.171 239.045 176.167 238.596 174.881 238.596C173.578 238.596 172.566 239.045 171.844 239.944C171.122 240.824 170.761 242.074 170.761 243.694C170.761 245.367 171.113 246.644 171.817 247.524C172.539 248.387 173.561 248.819 174.881 248.819Z" fill="#979797"/>
<path d="M195.624 237.117V250.404H193.537V248.106C193.114 248.916 192.524 249.532 191.767 249.955C191.01 250.377 190.156 250.589 189.205 250.589C187.638 250.589 186.449 250.148 185.639 249.268C184.829 248.387 184.424 247.084 184.424 245.358V237.117H186.564V245.306C186.564 246.503 186.81 247.384 187.303 247.947C187.796 248.511 188.545 248.792 189.548 248.792C190.728 248.792 191.679 248.414 192.401 247.657C193.123 246.882 193.484 245.869 193.484 244.619V237.117H195.624Z" fill="#979797"/>
<path d="M206.378 236.8C209.566 236.8 211.159 238.552 211.159 242.057V250.404H209.02V242.162C209.02 240.93 208.773 240.032 208.28 239.468C207.787 238.887 207.012 238.596 205.956 238.596C204.723 238.596 203.737 238.975 202.997 239.732C202.258 240.489 201.888 241.511 201.888 242.796V250.404H199.748V240.842C199.748 239.468 199.678 238.227 199.537 237.117H201.571L201.782 239.494C202.187 238.632 202.795 237.971 203.605 237.513C204.415 237.038 205.339 236.8 206.378 236.8Z" fill="#979797"/>
<path d="M218.052 238.808V246.072C218.052 247.058 218.255 247.753 218.66 248.158C219.065 248.546 219.637 248.74 220.377 248.74C220.87 248.74 221.345 248.66 221.803 248.502V250.324C221.257 250.501 220.641 250.589 219.954 250.589C218.686 250.589 217.691 250.236 216.969 249.532C216.265 248.81 215.913 247.753 215.913 246.362V238.808H213.324V237.117H215.913V233.71L218.052 232.944V237.117H221.856V238.808H218.052Z" fill="#979797"/>
<path d="M227.146 247.683V249.611C227.146 250.351 227.023 251.029 226.777 251.645C226.53 252.261 226.116 252.86 225.535 253.441L224.531 252.675C225.218 251.883 225.606 251.126 225.694 250.404H224.426V247.683H227.146Z" fill="#979797"/>
<path d="M237.796 250.404V237.117H239.936V250.404H237.796ZM237.585 231.491H240.2V233.921H237.585V231.491Z" fill="#979797"/>
<path d="M249.188 232.706C248.484 232.706 247.929 232.908 247.524 233.313C247.137 233.701 246.943 234.379 246.943 235.347V237.117H250.192V238.808H246.943V250.404H244.804V238.808H242.215V237.117H244.804V235.083C244.804 233.692 245.147 232.644 245.834 231.94C246.538 231.218 247.516 230.857 248.766 230.857C249.382 230.857 249.981 230.936 250.562 231.095V232.917C250.069 232.776 249.611 232.706 249.188 232.706Z" fill="#979797"/>
<path d="M271.552 237.117L265.345 251.619C264.693 253.133 263.875 254.243 262.888 254.947C261.902 255.651 260.687 256.136 259.243 256.4L258.794 254.736C260.045 254.454 260.987 254.075 261.621 253.6C262.272 253.142 262.809 252.429 263.232 251.46L263.76 250.272L258.134 237.117H260.379L264.87 248.079L269.413 237.117H271.552Z" fill="#979797"/>
<path d="M279.249 250.589C277.999 250.589 276.898 250.307 275.948 249.743C274.997 249.18 274.257 248.379 273.729 247.34C273.218 246.301 272.963 245.086 272.963 243.694C272.963 242.303 273.218 241.088 273.729 240.049C274.257 239.01 274.997 238.209 275.948 237.645C276.898 237.082 277.999 236.8 279.249 236.8C280.5 236.8 281.6 237.082 282.551 237.645C283.502 238.209 284.233 239.01 284.744 240.049C285.272 241.088 285.536 242.303 285.536 243.694C285.536 245.086 285.272 246.301 284.744 247.34C284.233 248.379 283.502 249.18 282.551 249.743C281.6 250.307 280.5 250.589 279.249 250.589ZM279.249 248.819C280.57 248.819 281.583 248.387 282.287 247.524C282.991 246.644 283.344 245.367 283.344 243.694C283.344 242.074 282.983 240.824 282.261 239.944C281.539 239.045 280.535 238.596 279.249 238.596C277.946 238.596 276.934 239.045 276.212 239.944C275.49 240.824 275.129 242.074 275.129 243.694C275.129 245.367 275.481 246.644 276.185 247.524C276.907 248.387 277.929 248.819 279.249 248.819Z" fill="#979797"/>
<path d="M299.992 237.117V250.404H297.905V248.106C297.482 248.916 296.892 249.532 296.135 249.955C295.378 250.377 294.524 250.589 293.573 250.589C292.006 250.589 290.817 250.148 290.007 249.268C289.197 248.387 288.792 247.084 288.792 245.358V237.117H290.932V245.306C290.932 246.503 291.178 247.384 291.671 247.947C292.164 248.511 292.913 248.792 293.916 248.792C295.096 248.792 296.047 248.414 296.769 247.657C297.491 246.882 297.852 245.869 297.852 244.619V237.117H299.992Z" fill="#979797"/>
<path d="M317.634 236.8C320.821 236.8 322.415 238.552 322.415 242.057V250.404H320.275V242.162C320.275 240.93 320.029 240.032 319.536 239.468C319.042 238.887 318.268 238.596 317.211 238.596C315.978 238.596 314.992 238.975 314.253 239.732C313.513 240.489 313.143 241.511 313.143 242.796V250.404H311.004V230.963H313.143V239.283C313.566 238.473 314.165 237.857 314.939 237.434C315.732 237.012 316.63 236.8 317.634 236.8Z" fill="#979797"/>
<path d="M338.157 237.117V250.404H336.044V248C335.656 248.828 335.066 249.47 334.274 249.928C333.499 250.368 332.592 250.589 331.553 250.589C330.373 250.589 329.334 250.307 328.436 249.743C327.556 249.18 326.869 248.387 326.376 247.366C325.9 246.327 325.663 245.121 325.663 243.747C325.663 242.374 325.909 241.167 326.402 240.128C326.895 239.072 327.582 238.253 328.463 237.672C329.361 237.091 330.391 236.8 331.553 236.8C332.592 236.8 333.499 237.029 334.274 237.487C335.049 237.945 335.639 238.588 336.044 239.415V237.117H338.157ZM331.976 248.819C333.279 248.819 334.283 248.379 334.987 247.498C335.691 246.6 336.044 245.332 336.044 243.694C336.044 242.057 335.691 240.798 334.987 239.917C334.283 239.037 333.279 238.596 331.976 238.596C330.673 238.596 329.651 239.054 328.912 239.97C328.19 240.868 327.829 242.127 327.829 243.747C327.829 245.367 328.19 246.618 328.912 247.498C329.634 248.379 330.655 248.819 331.976 248.819Z" fill="#979797"/>
<path d="M351.829 237.144H353.969L348.237 250.404H346.203L340.55 237.144H342.795L347.286 248.079L351.829 237.144Z" fill="#979797"/>
<path d="M367.292 243.694H357.545C357.562 245.385 357.95 246.662 358.707 247.524C359.482 248.387 360.6 248.819 362.062 248.819C363.611 248.819 365.038 248.299 366.341 247.26L367.054 248.819C366.473 249.365 365.725 249.796 364.809 250.113C363.911 250.43 362.986 250.589 362.035 250.589C359.957 250.589 358.329 249.981 357.149 248.766C355.969 247.533 355.379 245.852 355.379 243.721C355.379 242.365 355.643 241.167 356.171 240.128C356.7 239.072 357.439 238.253 358.39 237.672C359.341 237.091 360.424 236.8 361.639 236.8C363.4 236.8 364.782 237.381 365.786 238.544C366.79 239.688 367.292 241.273 367.292 243.298V243.694ZM361.666 238.464C360.556 238.464 359.649 238.799 358.945 239.468C358.258 240.137 357.818 241.079 357.624 242.294H365.364C365.258 241.044 364.888 240.093 364.254 239.442C363.638 238.79 362.775 238.464 361.666 238.464Z" fill="#979797"/>
<path d="M382.921 250.589C381.671 250.589 380.57 250.307 379.619 249.743C378.668 249.18 377.929 248.379 377.4 247.34C376.89 246.301 376.634 245.086 376.634 243.694C376.634 242.303 376.89 241.088 377.4 240.049C377.929 239.01 378.668 238.209 379.619 237.645C380.57 237.082 381.671 236.8 382.921 236.8C384.171 236.8 385.272 237.082 386.223 237.645C387.174 238.209 387.904 239.01 388.415 240.049C388.943 241.088 389.208 242.303 389.208 243.694C389.208 245.086 388.943 246.301 388.415 247.34C387.904 248.379 387.174 249.18 386.223 249.743C385.272 250.307 384.171 250.589 382.921 250.589ZM382.921 248.819C384.242 248.819 385.254 248.387 385.959 247.524C386.663 246.644 387.015 245.367 387.015 243.694C387.015 242.074 386.654 240.824 385.932 239.944C385.21 239.045 384.206 238.596 382.921 238.596C381.618 238.596 380.605 239.045 379.883 239.944C379.161 240.824 378.8 242.074 378.8 243.694C378.8 245.367 379.152 246.644 379.857 247.524C380.579 248.387 381.6 248.819 382.921 248.819Z" fill="#979797"/>
<path d="M399.173 236.8C402.36 236.8 403.954 238.552 403.954 242.057V250.404H401.814V242.162C401.814 240.93 401.568 240.032 401.075 239.468C400.582 238.887 399.807 238.596 398.75 238.596C397.518 238.596 396.531 238.975 395.792 239.732C395.052 240.489 394.682 241.511 394.682 242.796V250.404H392.543V240.842C392.543 239.468 392.472 238.227 392.331 237.117H394.365L394.577 239.494C394.982 238.632 395.589 237.971 396.399 237.513C397.209 237.038 398.134 236.8 399.173 236.8Z" fill="#979797"/>
<path d="M419.115 243.694H409.368C409.385 245.385 409.773 246.662 410.53 247.524C411.305 248.387 412.423 248.819 413.885 248.819C415.434 248.819 416.861 248.299 418.164 247.26L418.877 248.819C418.296 249.365 417.547 249.796 416.632 250.113C415.734 250.43 414.809 250.589 413.858 250.589C411.78 250.589 410.151 249.981 408.972 248.766C407.792 247.533 407.202 245.852 407.202 243.721C407.202 242.365 407.466 241.167 407.994 240.128C408.523 239.072 409.262 238.253 410.213 237.672C411.164 237.091 412.247 236.8 413.462 236.8C415.223 236.8 416.605 237.381 417.609 238.544C418.613 239.688 419.115 241.273 419.115 243.298V243.694ZM413.488 238.464C412.379 238.464 411.472 238.799 410.768 239.468C410.081 240.137 409.641 241.079 409.447 242.294H417.186C417.081 241.044 416.711 240.093 416.077 239.442C415.461 238.79 414.598 238.464 413.488 238.464Z" fill="#979797"/>
<path d="M421.992 247.683H424.713V250.404H421.992V247.683Z" fill="#979797"/>
<path d="M351.474 445.376C350.048 445.376 348.807 445.094 347.75 444.53C346.711 443.949 345.901 443.139 345.32 442.1C344.756 441.061 344.475 439.82 344.475 438.376C344.475 436.949 344.756 435.717 345.32 434.678C345.901 433.639 346.711 432.837 347.75 432.274C348.807 431.71 350.048 431.429 351.474 431.429C352.901 431.429 354.142 431.71 355.199 432.274C356.255 432.837 357.065 433.639 357.629 434.678C358.21 435.717 358.501 436.949 358.501 438.376C358.501 439.82 358.21 441.061 357.629 442.1C357.065 443.139 356.255 443.949 355.199 444.53C354.142 445.094 352.901 445.376 351.474 445.376ZM351.474 442.364C352.39 442.364 353.112 442.039 353.64 441.387C354.186 440.735 354.459 439.732 354.459 438.376C354.459 437.02 354.186 436.025 353.64 435.391C353.112 434.757 352.39 434.44 351.474 434.44C350.559 434.44 349.828 434.757 349.282 435.391C348.754 436.025 348.49 437.02 348.49 438.376C348.49 439.732 348.754 440.735 349.282 441.387C349.828 442.039 350.559 442.364 351.474 442.364Z" fill="#979797"/>
<path d="M361.05 445.085V435.232C361.05 434.651 361.032 434.061 360.997 433.463C360.98 432.864 360.936 432.274 360.865 431.693H364.695L365.144 435.602H364.537C364.713 434.651 364.995 433.868 365.382 433.251C365.787 432.635 366.28 432.177 366.861 431.878C367.46 431.578 368.138 431.429 368.895 431.429C369.23 431.429 369.494 431.446 369.688 431.482C369.881 431.499 370.075 431.543 370.269 431.614L370.242 435.127C369.873 434.968 369.556 434.871 369.291 434.836C369.045 434.783 368.728 434.757 368.34 434.757C367.601 434.757 366.985 434.898 366.491 435.18C366.016 435.461 365.655 435.875 365.408 436.421C365.18 436.967 365.065 437.627 365.065 438.402V445.085H361.05Z" fill="#979797"/>
<g opacity="0.5">
<path d="M124.856 435.136L325.606 435.136M390.762 435.136H589.751" stroke="#DBDCE0" stroke-width="1.76096"/>
</g>
<path fill-rule="evenodd" clip-rule="evenodd" d="M124.86 490.608C124.86 480.882 132.744 472.998 142.47 472.998H572.145C581.871 472.998 589.755 480.882 589.755 490.608V534.632C589.755 544.357 581.871 552.241 572.145 552.241H142.47C132.744 552.241 124.86 544.357 124.86 534.632V490.608Z" fill="#F9F9F9" stroke="#40196D" stroke-opacity="0.3" stroke-width="1.76096"/>
<path opacity="0.4" d="M222.355 539.801H188.291C183.791 539.801 180.11 536.131 180.11 531.644V497.693C180.11 493.206 183.791 489.536 188.291 489.536H222.34C226.84 489.536 230.521 493.206 230.521 497.693V531.644C230.536 536.131 226.855 539.801 222.355 539.801Z" fill="#78ECBE"/>
<path d="M219.92 537.358H185.871C181.371 537.358 177.69 533.688 177.69 529.201V495.235C177.69 490.748 181.371 487.078 185.871 487.078H219.92C224.42 487.078 228.101 490.748 228.101 495.235V529.186C228.116 533.688 224.435 537.358 219.92 537.358Z" fill="#40196D"/>
<path d="M205.491 499.728H210.994L201.328 511.927L211.213 524.127H205.436L195.223 512.42L205.491 499.728Z" fill="white"/>
<path d="M197.493 499.728H201.338L195.474 512.42L201.065 524.127H196.891L191.901 512.31L197.493 499.728Z" fill="white"/>
<path d="M192.092 499.728H194.28L191.933 512.31L194.28 524.127H192.092L189.8 512.31L192.092 499.728Z" fill="white"/>
<path d="M188.954 499.728H190.181V524.127H188.954V499.728Z" fill="white"/>
<circle cx="214.411" cy="521.495" r="2.73436" fill="white"/>
<path d="M277.761 523.361C275.694 523.361 273.919 522.947 272.436 522.121C270.97 521.276 269.843 520.092 269.054 518.571C268.266 517.031 267.871 515.218 267.871 513.133C267.871 511.048 268.266 509.245 269.054 507.723C269.843 506.202 270.97 505.028 272.436 504.201C273.919 503.356 275.694 502.933 277.761 502.933C279.151 502.933 280.4 503.131 281.508 503.525C282.635 503.92 283.602 504.502 284.41 505.272L283.227 508.146C282.344 507.432 281.489 506.925 280.663 506.624C279.855 506.305 278.925 506.145 277.873 506.145C275.864 506.145 274.323 506.756 273.253 507.977C272.201 509.179 271.675 510.898 271.675 513.133C271.675 515.368 272.201 517.096 273.253 518.317C274.323 519.538 275.864 520.149 277.873 520.149C278.925 520.149 279.855 519.998 280.663 519.698C281.489 519.379 282.344 518.853 283.227 518.12L284.41 520.994C283.602 521.745 282.635 522.328 281.508 522.741C280.4 523.154 279.151 523.361 277.761 523.361Z" fill="#40196D"/>
<path d="M292.959 523.361C291.494 523.361 290.226 523.06 289.155 522.459C288.085 521.858 287.249 521.003 286.648 519.895C286.065 518.787 285.774 517.472 285.774 515.951C285.774 514.429 286.065 513.124 286.648 512.034C287.249 510.926 288.085 510.071 289.155 509.47C290.226 508.869 291.494 508.569 292.959 508.569C294.424 508.569 295.692 508.869 296.763 509.47C297.852 510.071 298.688 510.926 299.27 512.034C299.871 513.124 300.172 514.429 300.172 515.951C300.172 517.472 299.871 518.787 299.27 519.895C298.688 521.003 297.852 521.858 296.763 522.459C295.692 523.06 294.424 523.361 292.959 523.361ZM292.959 520.656C294.067 520.656 294.95 520.271 295.607 519.501C296.265 518.712 296.594 517.528 296.594 515.951C296.594 514.373 296.265 513.199 295.607 512.429C294.95 511.658 294.067 511.273 292.959 511.273C291.851 511.273 290.968 511.658 290.31 512.429C289.653 513.199 289.324 514.373 289.324 515.951C289.324 517.528 289.653 518.712 290.31 519.501C290.968 520.271 291.851 520.656 292.959 520.656Z" fill="#40196D"/>
<path d="M303.209 523.079V512.4C303.209 511.818 303.19 511.226 303.153 510.625C303.115 510.024 303.059 509.433 302.984 508.85H306.393L306.675 511.668H306.336C306.787 510.672 307.454 509.912 308.337 509.386C309.22 508.841 310.243 508.569 311.408 508.569C313.08 508.569 314.338 509.038 315.184 509.977C316.029 510.917 316.451 512.382 316.451 514.373V523.079H312.93V514.542C312.93 513.396 312.704 512.579 312.253 512.09C311.821 511.583 311.164 511.33 310.281 511.33C309.192 511.33 308.328 511.668 307.689 512.344C307.05 513.02 306.731 513.922 306.731 515.049V523.079H303.209Z" fill="#40196D"/>
<path d="M326.272 523.361C324.581 523.361 323.304 522.919 322.44 522.036C321.576 521.154 321.144 519.829 321.144 518.064V511.499H318.411V508.85H321.144V505.216L324.666 504.314V508.85H328.469V511.499H324.666V517.838C324.666 518.815 324.854 519.501 325.229 519.895C325.605 520.29 326.121 520.487 326.779 520.487C327.136 520.487 327.436 520.459 327.68 520.402C327.943 520.346 328.197 520.271 328.441 520.177V522.966C328.122 523.098 327.765 523.192 327.371 523.248C326.995 523.323 326.629 523.361 326.272 523.361Z" fill="#40196D"/>
<path d="M330.862 523.079V508.85H334.384V523.079H330.862ZM330.664 506.174V502.736H334.581V506.174H330.664Z" fill="#40196D"/>
<path d="M338.208 523.079V512.4C338.208 511.818 338.189 511.226 338.152 510.625C338.114 510.024 338.058 509.433 337.983 508.85H341.392L341.674 511.668H341.336C341.786 510.672 342.453 509.912 343.336 509.386C344.219 508.841 345.243 508.569 346.407 508.569C348.079 508.569 349.337 509.038 350.183 509.977C351.028 510.917 351.451 512.382 351.451 514.373V523.079H347.929V514.542C347.929 513.396 347.703 512.579 347.252 512.09C346.82 511.583 346.163 511.33 345.28 511.33C344.191 511.33 343.327 511.668 342.688 512.344C342.049 513.02 341.73 513.922 341.73 515.049V523.079H338.208Z" fill="#40196D"/>
<path d="M360.313 523.361C358.566 523.361 357.261 522.882 356.397 521.924C355.532 520.966 355.1 519.501 355.1 517.528V508.85H358.622V517.5C358.622 518.552 358.838 519.332 359.27 519.839C359.702 520.327 360.36 520.571 361.243 520.571C362.238 520.571 363.046 520.233 363.666 519.557C364.304 518.881 364.624 517.989 364.624 516.88V508.85H368.146V523.079H364.708V520.177H365.103C364.689 521.191 364.06 521.98 363.215 522.544C362.388 523.088 361.421 523.361 360.313 523.361Z" fill="#40196D"/>
<path d="M378.844 523.361C376.458 523.361 374.589 522.703 373.237 521.388C371.885 520.074 371.208 518.27 371.208 515.979C371.208 514.495 371.5 513.199 372.082 512.09C372.664 510.982 373.472 510.118 374.505 509.498C375.557 508.878 376.778 508.569 378.168 508.569C379.539 508.569 380.685 508.86 381.605 509.442C382.526 510.024 383.221 510.841 383.69 511.893C384.179 512.945 384.423 514.175 384.423 515.584V516.514H374.054V514.654H381.915L381.436 515.049C381.436 513.734 381.154 512.729 380.591 512.034C380.046 511.339 379.248 510.992 378.196 510.992C377.031 510.992 376.13 511.405 375.491 512.231C374.871 513.058 374.561 514.213 374.561 515.697V516.063C374.561 517.603 374.937 518.759 375.688 519.529C376.458 520.28 377.538 520.656 378.928 520.656C379.736 520.656 380.488 520.553 381.183 520.346C381.896 520.12 382.573 519.764 383.211 519.275L384.254 521.642C383.577 522.187 382.77 522.609 381.831 522.91C380.891 523.21 379.896 523.361 378.844 523.361Z" fill="#40196D"/>
<path d="M399.081 523.079L393.531 508.85H397.165L401.166 519.923H400.434L404.491 508.85H406.999L411.028 519.923H410.38L414.352 508.85H417.79L412.239 523.079H409.14L404.886 511.752H406.379L402.209 523.079H399.081Z" fill="#40196D"/>
<path d="M420.01 523.079V508.85H423.532V523.079H420.01ZM419.813 506.174V502.736H423.73V506.174H419.813Z" fill="#40196D"/>
<path d="M433.443 523.361C431.752 523.361 430.475 522.919 429.611 522.036C428.747 521.154 428.315 519.829 428.315 518.064V511.499H425.582V508.85H428.315V505.216L431.837 504.314V508.85H435.641V511.499H431.837V517.838C431.837 518.815 432.025 519.501 432.4 519.895C432.776 520.29 433.293 520.487 433.95 520.487C434.307 520.487 434.607 520.459 434.852 520.402C435.115 520.346 435.368 520.271 435.612 520.177V522.966C435.293 523.098 434.936 523.192 434.542 523.248C434.166 523.323 433.8 523.361 433.443 523.361Z" fill="#40196D"/>
<path d="M438.033 523.079V502.342H441.555V511.696H441.16C441.592 510.682 442.259 509.912 443.161 509.386C444.062 508.841 445.095 508.569 446.26 508.569C447.951 508.569 449.209 509.048 450.036 510.006C450.862 510.945 451.275 512.382 451.275 514.316V523.079H447.753V514.485C447.753 513.377 447.537 512.579 447.105 512.09C446.692 511.583 446.025 511.33 445.105 511.33C444.034 511.33 443.17 511.668 442.513 512.344C441.874 513.001 441.555 513.884 441.555 514.993V523.079H438.033Z" fill="#40196D"/>
<path d="M463.023 523.079V503.215H466.658V512.006H466.714L475.364 503.215H479.759L469.391 513.556L469.419 511.978L480.436 523.079H475.899L466.714 513.894H466.658V523.079H463.023Z" fill="#40196D"/>
<path d="M486.359 523.361C484.613 523.361 483.307 522.882 482.443 521.924C481.579 520.966 481.147 519.501 481.147 517.528V508.85H484.669V517.5C484.669 518.552 484.885 519.332 485.317 519.839C485.749 520.327 486.406 520.571 487.289 520.571C488.285 520.571 489.092 520.233 489.712 519.557C490.351 518.881 490.67 517.989 490.67 516.88V508.85H494.192V523.079H490.755V520.177H491.149C490.736 521.191 490.107 521.98 489.261 522.544C488.435 523.088 487.468 523.361 486.359 523.361Z" fill="#40196D"/>
<path d="M503.538 523.361C502.298 523.361 501.199 523.07 500.242 522.487C499.302 521.886 498.57 521.031 498.044 519.923C497.518 518.815 497.255 517.491 497.255 515.951C497.255 514.41 497.518 513.095 498.044 512.006C498.57 510.898 499.302 510.052 500.242 509.47C501.199 508.869 502.298 508.569 503.538 508.569C504.721 508.569 505.764 508.86 506.666 509.442C507.586 510.006 508.196 510.776 508.497 511.752H508.131V502.342H511.653V523.079H508.187V520.064H508.525C508.225 521.078 507.614 521.886 506.694 522.487C505.792 523.07 504.74 523.361 503.538 523.361ZM504.524 520.656C505.632 520.656 506.525 520.271 507.201 519.501C507.877 518.712 508.215 517.528 508.215 515.951C508.215 514.373 507.877 513.199 507.201 512.429C506.525 511.658 505.632 511.273 504.524 511.273C503.416 511.273 502.514 511.658 501.819 512.429C501.143 513.199 500.805 514.373 500.805 515.951C500.805 517.528 501.143 518.712 501.819 519.501C502.514 520.271 503.416 520.656 504.524 520.656Z" fill="#40196D"/>
<path d="M520.982 523.361C519.742 523.361 518.653 523.07 517.714 522.487C516.774 521.886 516.042 521.031 515.516 519.923C514.99 518.815 514.727 517.491 514.727 515.951C514.727 514.41 514.99 513.095 515.516 512.006C516.042 510.898 516.774 510.052 517.714 509.47C518.653 508.869 519.742 508.569 520.982 508.569C522.184 508.569 523.236 508.869 524.138 509.47C525.058 510.052 525.668 510.841 525.969 511.837H525.659L525.969 508.85H529.35C529.294 509.433 529.237 510.024 529.181 510.625C529.143 511.226 529.125 511.818 529.125 512.4V523.079H525.631L525.603 520.149H525.941C525.64 521.125 525.03 521.905 524.109 522.487C523.189 523.07 522.147 523.361 520.982 523.361ZM521.968 520.656C523.076 520.656 523.969 520.271 524.645 519.501C525.321 518.712 525.659 517.528 525.659 515.951C525.659 514.373 525.321 513.199 524.645 512.429C523.969 511.658 523.076 511.273 521.968 511.273C520.86 511.273 519.968 511.658 519.291 512.429C518.615 513.199 518.277 514.373 518.277 515.951C518.277 517.528 518.606 518.712 519.263 519.501C519.939 520.271 520.841 520.656 521.968 520.656Z" fill="#40196D"/>
<rect x="124.86" y="312.751" width="464.824" height="85.9718" rx="17.607" fill="black"/>
<path d="M204.414 357.078C204.878 357.078 205.354 356.834 205.841 356.346L215.938 346.353C215.505 345.943 214.712 345.738 213.559 345.738H194.873C193.891 345.738 193.21 345.928 192.831 346.307L202.986 356.346C203.466 356.834 203.942 357.078 204.414 357.078ZM191.867 363.867L200.073 355.754L191.844 347.642C191.666 347.974 191.577 348.535 191.577 349.325V362.138C191.577 362.958 191.674 363.534 191.867 363.867ZM195.221 365.736H213.907C214.875 365.736 215.552 365.55 215.938 365.179L207.57 356.892L206.804 357.669C206.023 358.412 205.226 358.784 204.414 358.784C203.593 358.784 202.796 358.412 202.023 357.669L201.245 356.892L192.9 365.167C193.341 365.546 194.115 365.736 195.221 365.736ZM216.925 363.856C217.111 363.515 217.204 362.942 217.204 362.138V349.325C217.204 348.543 217.118 347.994 216.948 347.677L208.743 355.754L216.925 363.856Z" fill="white"/>
<path d="M270.621 366.245C268.555 366.245 266.78 365.832 265.296 365.006C263.831 364.161 262.704 362.977 261.916 361.456C261.127 359.916 260.732 358.104 260.732 356.019C260.732 353.934 261.127 352.131 261.916 350.61C262.704 349.089 263.831 347.915 265.296 347.089C266.78 346.244 268.555 345.821 270.621 345.821C272.01 345.821 273.259 346.018 274.367 346.413C275.494 346.807 276.461 347.389 277.269 348.159L276.086 351.033C275.203 350.319 274.348 349.812 273.522 349.512C272.715 349.192 271.785 349.033 270.733 349.033C268.724 349.033 267.184 349.643 266.113 350.864C265.061 352.066 264.536 353.784 264.536 356.019C264.536 358.254 265.061 359.982 266.113 361.203C267.184 362.423 268.724 363.034 270.733 363.034C271.785 363.034 272.715 362.883 273.522 362.583C274.348 362.264 275.203 361.738 276.086 361.005L277.269 363.879C276.461 364.63 275.494 365.212 274.367 365.625C273.259 366.039 272.01 366.245 270.621 366.245Z" fill="white"/>
<path d="M285.816 366.245C284.352 366.245 283.084 365.945 282.013 365.344C280.943 364.743 280.107 363.888 279.506 362.78C278.924 361.672 278.633 360.357 278.633 358.836C278.633 357.315 278.924 356.01 279.506 354.92C280.107 353.812 280.943 352.958 282.013 352.357C283.084 351.756 284.352 351.455 285.816 351.455C287.281 351.455 288.549 351.756 289.62 352.357C290.709 352.958 291.545 353.812 292.127 354.92C292.728 356.01 293.028 357.315 293.028 358.836C293.028 360.357 292.728 361.672 292.127 362.78C291.545 363.888 290.709 364.743 289.62 365.344C288.549 365.945 287.281 366.245 285.816 366.245ZM285.816 363.541C286.924 363.541 287.807 363.156 288.465 362.386C289.122 361.597 289.451 360.414 289.451 358.836C289.451 357.259 289.122 356.085 288.465 355.315C287.807 354.545 286.924 354.16 285.816 354.16C284.708 354.16 283.826 354.545 283.168 355.315C282.511 356.085 282.182 357.259 282.182 358.836C282.182 360.414 282.511 361.597 283.168 362.386C283.826 363.156 284.708 363.541 285.816 363.541Z" fill="white"/>
<path d="M296.065 365.963V355.287C296.065 354.704 296.046 354.113 296.009 353.512C295.971 352.911 295.915 352.319 295.84 351.737H299.248L299.53 354.554H299.192C299.643 353.559 300.309 352.798 301.192 352.272C302.075 351.728 303.098 351.455 304.263 351.455C305.934 351.455 307.193 351.925 308.038 352.864C308.883 353.803 309.305 355.268 309.305 357.259V365.963H305.784V357.428C305.784 356.282 305.559 355.465 305.108 354.977C304.676 354.47 304.019 354.216 303.136 354.216C302.047 354.216 301.183 354.554 300.544 355.23C299.906 355.906 299.586 356.808 299.586 357.935V365.963H296.065Z" fill="white"/>
<path d="M319.124 366.245C317.434 366.245 316.157 365.804 315.293 364.921C314.429 364.038 313.997 362.714 313.997 360.949V354.385H311.264V351.737H313.997V348.103L317.518 347.201V351.737H321.322V354.385H317.518V360.724C317.518 361.7 317.706 362.386 318.082 362.78C318.458 363.175 318.974 363.372 319.631 363.372C319.988 363.372 320.289 363.344 320.533 363.287C320.796 363.231 321.049 363.156 321.293 363.062V365.851C320.974 365.982 320.617 366.076 320.223 366.133C319.847 366.208 319.481 366.245 319.124 366.245Z" fill="white"/>
<path d="M323.713 365.963V351.737H327.235V365.963H323.713ZM323.516 349.061V345.624H327.432V349.061H323.516Z" fill="white"/>
<path d="M331.059 365.963V355.287C331.059 354.704 331.04 354.113 331.003 353.512C330.965 352.911 330.909 352.319 330.834 351.737H334.242L334.524 354.554H334.186C334.637 353.559 335.303 352.798 336.186 352.272C337.069 351.728 338.092 351.455 339.257 351.455C340.928 351.455 342.187 351.925 343.032 352.864C343.877 353.803 344.299 355.268 344.299 357.259V365.963H340.778V357.428C340.778 356.282 340.553 355.465 340.102 354.977C339.67 354.47 339.013 354.216 338.13 354.216C337.041 354.216 336.177 354.554 335.538 355.23C334.9 355.906 334.58 356.808 334.58 357.935V365.963H331.059Z" fill="white"/>
<path d="M353.16 366.245C351.414 366.245 350.108 365.766 349.244 364.808C348.381 363.851 347.949 362.386 347.949 360.414V351.737H351.47V360.386C351.47 361.437 351.686 362.217 352.118 362.724C352.55 363.212 353.207 363.456 354.09 363.456C355.085 363.456 355.893 363.118 356.513 362.442C357.151 361.766 357.47 360.874 357.47 359.766V351.737H360.992V365.963H357.555V363.062H357.949C357.536 364.076 356.907 364.865 356.062 365.428C355.236 365.973 354.268 366.245 353.16 366.245Z" fill="white"/>
<path d="M371.689 366.245C369.303 366.245 367.435 365.588 366.082 364.273C364.73 362.959 364.054 361.156 364.054 358.864C364.054 357.381 364.345 356.085 364.927 354.977C365.51 353.869 366.317 353.005 367.35 352.385C368.402 351.765 369.623 351.455 371.012 351.455C372.383 351.455 373.529 351.746 374.449 352.329C375.37 352.911 376.064 353.728 376.534 354.78C377.022 355.831 377.266 357.061 377.266 358.47V359.4H366.899V357.54H374.759L374.28 357.935C374.28 356.62 373.999 355.615 373.435 354.92C372.891 354.225 372.092 353.878 371.041 353.878C369.876 353.878 368.975 354.291 368.336 355.118C367.716 355.944 367.407 357.099 367.407 358.583V358.949C367.407 360.489 367.782 361.644 368.533 362.414C369.303 363.165 370.383 363.541 371.773 363.541C372.581 363.541 373.332 363.437 374.027 363.231C374.74 363.006 375.417 362.649 376.055 362.16L377.097 364.527C376.421 365.071 375.614 365.494 374.675 365.794C373.736 366.095 372.74 366.245 371.689 366.245Z" fill="white"/>
<path d="M391.923 365.963L386.373 351.737H390.007L394.008 362.808H393.275L397.332 351.737H399.839L403.868 362.808H403.22L407.192 351.737H410.629L405.079 365.963H401.98L397.726 354.639H399.219L395.05 365.963H391.923Z" fill="white"/>
<path d="M412.849 365.963V351.737H416.37V365.963H412.849ZM412.652 349.061V345.624H416.567V349.061H412.652Z" fill="white"/>
<path d="M426.279 366.245C424.589 366.245 423.312 365.804 422.448 364.921C421.584 364.038 421.152 362.714 421.152 360.949V354.385H418.419V351.737H421.152V348.103L424.673 347.201V351.737H428.477V354.385H424.673V360.724C424.673 361.7 424.861 362.386 425.237 362.78C425.613 363.175 426.129 363.372 426.786 363.372C427.143 363.372 427.444 363.344 427.688 363.287C427.951 363.231 428.204 363.156 428.448 363.062V365.851C428.129 365.982 427.772 366.076 427.378 366.133C427.002 366.208 426.636 366.245 426.279 366.245Z" fill="white"/>
<path d="M430.868 365.963V345.229H434.39V354.582H433.995C434.427 353.568 435.094 352.798 435.996 352.272C436.897 351.728 437.93 351.455 439.094 351.455C440.785 351.455 442.043 351.934 442.869 352.892C443.696 353.831 444.109 355.268 444.109 357.202V365.963H440.588V357.371C440.588 356.263 440.372 355.465 439.94 354.977C439.526 354.47 438.86 354.216 437.939 354.216C436.869 354.216 436.005 354.554 435.348 355.23C434.709 355.888 434.39 356.77 434.39 357.878V365.963H430.868Z" fill="white"/>
<path d="M455.855 365.963V346.103H469.236V348.948H459.348V354.441H468.588V357.315H459.348V363.09H469.236V365.963H455.855Z" fill="white"/>
<path d="M472.327 365.963V355.287C472.327 354.704 472.309 354.113 472.271 353.512C472.234 352.911 472.177 352.319 472.102 351.737H475.511L475.792 354.554H475.454C475.849 353.578 476.45 352.817 477.257 352.272C478.084 351.728 479.06 351.455 480.187 351.455C481.314 351.455 482.244 351.728 482.976 352.272C483.727 352.798 484.253 353.625 484.554 354.751H484.103C484.497 353.737 485.145 352.939 486.047 352.357C486.948 351.756 487.981 351.455 489.146 351.455C490.742 351.455 491.935 351.925 492.723 352.864C493.512 353.803 493.907 355.268 493.907 357.259V365.963H490.385V357.399C490.385 356.273 490.197 355.465 489.822 354.977C489.446 354.47 488.845 354.216 488.019 354.216C487.042 354.216 486.272 354.564 485.709 355.258C485.145 355.935 484.864 356.855 484.864 358.019V365.963H481.342V357.399C481.342 356.273 481.154 355.465 480.779 354.977C480.403 354.47 479.802 354.216 478.976 354.216C477.999 354.216 477.229 354.564 476.666 355.258C476.121 355.935 475.849 356.855 475.849 358.019V365.963H472.327Z" fill="white"/>
<path d="M503.158 366.245C501.919 366.245 500.83 365.954 499.891 365.372C498.951 364.771 498.219 363.916 497.693 362.808C497.167 361.7 496.904 360.376 496.904 358.836C496.904 357.296 497.167 355.981 497.693 354.892C498.219 353.784 498.951 352.939 499.891 352.357C500.83 351.756 501.919 351.455 503.158 351.455C504.36 351.455 505.412 351.756 506.314 352.357C507.234 352.939 507.844 353.728 508.145 354.723H507.835L508.145 351.737H511.525C511.469 352.319 511.413 352.911 511.356 353.512C511.319 354.113 511.3 354.704 511.3 355.287V365.963H507.807L507.778 363.034H508.116C507.816 364.01 507.206 364.79 506.285 365.372C505.365 365.954 504.323 366.245 503.158 366.245ZM504.144 363.541C505.252 363.541 506.145 363.156 506.821 362.386C507.497 361.597 507.835 360.414 507.835 358.836C507.835 357.259 507.497 356.085 506.821 355.315C506.145 354.545 505.252 354.16 504.144 354.16C503.036 354.16 502.144 354.545 501.468 355.315C500.792 356.085 500.454 357.259 500.454 358.836C500.454 360.414 500.783 361.597 501.44 362.386C502.116 363.156 503.018 363.541 504.144 363.541Z" fill="white"/>
<path d="M515.134 365.963V351.737H518.656V365.963H515.134ZM514.937 349.061V345.624H518.853V349.061H514.937Z" fill="white"/>
<path d="M522.48 365.963V345.229H526.001V365.963H522.48Z" fill="white"/>
<defs>
<filter id="filter0_d_1159_7864" x="0.705397" y="0.84544" width="838.219" height="771.303" filterUnits="userSpaceOnUse" color-interpolation-filters="sRGB">
<feFlood flood-opacity="0" result="BackgroundImageFix"/>
<feColorMatrix in="SourceAlpha" type="matrix" values="0 0 0 0 0 0 0 0 0 0 0 0 0 0 0 0 0 0 127 0" result="hardAlpha"/>
<feOffset dx="26.4145" dy="52.8289"/>
<feGaussianBlur stdDeviation="35.2193"/>
<feColorMatrix type="matrix" values="0 0 0 0 0 0 0 0 0 0 0 0 0 0 0 0 0 0 0.07 0"/>
<feBlend mode="normal" in2="BackgroundImageFix" result="effect1_dropShadow_1159_7864"/>
<feBlend mode="normal" in="SourceGraphic" in2="effect1_dropShadow_1159_7864" result="shape"/>
</filter>
</defs>
</svg>
