<svg width="839" height="820" viewBox="0 0 839 820" fill="none" xmlns="http://www.w3.org/2000/svg">
<g filter="url(#filter0_d_1159_7947)">
<rect x="44" y="19" width="701" height="681.86" rx="8.40528" fill="white"/>
<rect x="44" y="19" width="701" height="681.86" rx="8.40528" stroke="black" stroke-width="2.47456"/>
</g>
<path d="M185.651 456.284V450.017H183.473V447.703H185.651V445.767H183.473V443.454H185.651V437.321H188.96L193.693 450.366H192.967V437.321H196.356V443.454H198.535V445.767H196.356V447.703H198.535V450.017H196.356V456.284H193.075L188.341 443.239H189.04V456.284H185.651Z" fill="black"/>
<path d="M201.779 456.284V452.841H206.082V440.818H208.046L202.236 444.207V440.28L207.293 437.321H210.278V452.841H214.313V456.284H201.779Z" fill="black"/>
<path d="M223.259 456.579C220.982 456.579 219.224 455.728 217.987 454.024C216.768 452.303 216.158 449.882 216.158 446.762C216.158 443.588 216.768 441.176 217.987 439.527C219.224 437.859 220.982 437.025 223.259 437.025C225.554 437.025 227.311 437.859 228.531 439.527C229.75 441.176 230.36 443.579 230.36 446.735C230.36 449.873 229.75 452.303 228.531 454.024C227.311 455.728 225.554 456.579 223.259 456.579ZM223.259 453.19C224.299 453.19 225.07 452.679 225.572 451.657C226.092 450.617 226.352 448.977 226.352 446.735C226.352 444.494 226.092 442.88 225.572 441.894C225.07 440.908 224.299 440.414 223.259 440.414C222.219 440.414 221.439 440.908 220.919 441.894C220.417 442.88 220.166 444.485 220.166 446.708C220.166 448.968 220.426 450.617 220.946 451.657C221.466 452.679 222.237 453.19 223.259 453.19Z" fill="black"/>
<path d="M234.572 460.157L232.985 458.893C233.613 458.265 234.061 457.673 234.33 457.117C234.599 456.561 234.733 455.961 234.733 455.315L235.594 456.284H232.636V451.98H236.993V454.75C236.993 455.773 236.814 456.705 236.455 457.548C236.096 458.39 235.469 459.26 234.572 460.157Z" fill="black"/>
<path d="M246.374 456.579C244.096 456.579 242.339 455.728 241.102 454.024C239.882 452.303 239.273 449.882 239.273 446.762C239.273 443.588 239.882 441.176 241.102 439.527C242.339 437.859 244.096 437.025 246.374 437.025C248.669 437.025 250.426 437.859 251.645 439.527C252.865 441.176 253.474 443.579 253.474 446.735C253.474 449.873 252.865 452.303 251.645 454.024C250.426 455.728 248.669 456.579 246.374 456.579ZM246.374 453.19C247.414 453.19 248.185 452.679 248.687 451.657C249.207 450.617 249.467 448.977 249.467 446.735C249.467 444.494 249.207 442.88 248.687 441.894C248.185 440.908 247.414 440.414 246.374 440.414C245.334 440.414 244.554 440.908 244.034 441.894C243.531 442.88 243.28 444.485 243.28 446.708C243.28 448.968 243.54 450.617 244.06 451.657C244.58 452.679 245.351 453.19 246.374 453.19Z" fill="black"/>
<path d="M262.501 456.579C260.224 456.579 258.467 455.728 257.229 454.024C256.01 452.303 255.4 449.882 255.4 446.762C255.4 443.588 256.01 441.176 257.229 439.527C258.467 437.859 260.224 437.025 262.501 437.025C264.796 437.025 266.554 437.859 267.773 439.527C268.992 441.176 269.602 443.579 269.602 446.735C269.602 449.873 268.992 452.303 267.773 454.024C266.554 455.728 264.796 456.579 262.501 456.579ZM262.501 453.19C263.541 453.19 264.312 452.679 264.814 451.657C265.334 450.617 265.594 448.977 265.594 446.735C265.594 444.494 265.334 442.88 264.814 441.894C264.312 440.908 263.541 440.414 262.501 440.414C261.461 440.414 260.681 440.908 260.161 441.894C259.659 442.88 259.408 444.485 259.408 446.708C259.408 448.968 259.668 450.617 260.188 451.657C260.708 452.679 261.479 453.19 262.501 453.19Z" fill="black"/>
<path d="M278.629 456.579C276.352 456.579 274.594 455.728 273.357 454.024C272.138 452.303 271.528 449.882 271.528 446.762C271.528 443.588 272.138 441.176 273.357 439.527C274.594 437.859 276.352 437.025 278.629 437.025C280.924 437.025 282.681 437.859 283.901 439.527C285.12 441.176 285.73 443.579 285.73 446.735C285.73 449.873 285.12 452.303 283.901 454.024C282.681 455.728 280.924 456.579 278.629 456.579ZM278.629 453.19C279.669 453.19 280.44 452.679 280.942 451.657C281.462 450.617 281.722 448.977 281.722 446.735C281.722 444.494 281.462 442.88 280.942 441.894C280.44 440.908 279.669 440.414 278.629 440.414C277.589 440.414 276.809 440.908 276.289 441.894C275.787 442.88 275.536 444.485 275.536 446.708C275.536 448.968 275.796 450.617 276.316 451.657C276.836 452.679 277.607 453.19 278.629 453.19Z" fill="black"/>
<path d="M295.825 456.284V442.781H298.004V456.284H295.825ZM295.556 439.715V437.267H298.246V439.715H295.556Z" fill="black"/>
<path d="M306.726 456.526C305.65 456.526 304.646 456.382 303.714 456.095C302.781 455.79 302.01 455.369 301.401 454.831L302.154 453.298C302.817 453.818 303.534 454.204 304.305 454.455C305.094 454.706 305.91 454.831 306.753 454.831C307.829 454.831 308.636 454.643 309.174 454.266C309.73 453.872 310.008 453.334 310.008 452.652C310.008 452.132 309.828 451.72 309.47 451.415C309.129 451.092 308.564 450.841 307.775 450.662L305.274 450.151C304.126 449.9 303.265 449.479 302.692 448.887C302.118 448.277 301.831 447.506 301.831 446.574C301.831 445.785 302.037 445.094 302.45 444.503C302.862 443.893 303.463 443.418 304.252 443.077C305.041 442.719 305.964 442.539 307.022 442.539C308.008 442.539 308.914 442.692 309.739 442.996C310.581 443.283 311.281 443.705 311.837 444.261L311.057 445.767C310.519 445.247 309.9 444.861 309.201 444.61C308.519 444.341 307.811 444.207 307.076 444.207C306.018 444.207 305.22 444.422 304.682 444.852C304.162 445.265 303.902 445.812 303.902 446.493C303.902 447.013 304.063 447.443 304.386 447.784C304.727 448.107 305.247 448.349 305.946 448.51L308.448 449.021C309.667 449.29 310.572 449.712 311.164 450.286C311.774 450.841 312.079 451.595 312.079 452.545C312.079 453.352 311.855 454.06 311.406 454.67C310.958 455.261 310.33 455.719 309.523 456.041C308.734 456.364 307.802 456.526 306.726 456.526Z" fill="black"/>
<path d="M328.132 456.526C326.841 456.526 325.711 456.248 324.743 455.692C323.792 455.118 323.057 454.311 322.537 453.271C322.017 452.213 321.757 450.967 321.757 449.532C321.757 448.08 322.017 446.834 322.537 445.794C323.057 444.754 323.792 443.956 324.743 443.4C325.711 442.826 326.841 442.539 328.132 442.539C329.441 442.539 330.57 442.826 331.521 443.4C332.489 443.956 333.233 444.754 333.753 445.794C334.291 446.834 334.56 448.08 334.56 449.532C334.56 450.967 334.291 452.213 333.753 453.271C333.233 454.311 332.489 455.118 331.521 455.692C330.57 456.248 329.441 456.526 328.132 456.526ZM328.132 454.75C329.423 454.75 330.445 454.311 331.198 453.432C331.951 452.536 332.328 451.236 332.328 449.532C332.328 447.811 331.942 446.511 331.171 445.632C330.418 444.736 329.405 444.288 328.132 444.288C326.859 444.288 325.845 444.736 325.092 445.632C324.339 446.511 323.963 447.811 323.963 449.532C323.963 451.236 324.339 452.536 325.092 453.432C325.845 454.311 326.859 454.75 328.132 454.75Z" fill="black"/>
<path d="M337.957 456.284V445.901C337.957 445.399 337.93 444.888 337.876 444.368C337.84 443.83 337.795 443.301 337.742 442.781H339.84L340.109 445.74H339.786C340.18 444.7 340.808 443.911 341.669 443.373C342.547 442.817 343.56 442.539 344.708 442.539C346.304 442.539 347.505 442.97 348.312 443.83C349.137 444.673 349.549 446.009 349.549 447.838V456.284H347.371V447.972C347.371 446.699 347.111 445.776 346.591 445.202C346.089 444.61 345.3 444.314 344.224 444.314C342.969 444.314 341.973 444.7 341.238 445.471C340.503 446.242 340.135 447.273 340.135 448.564V456.284H337.957Z" fill="black"/>
<path d="M360.73 456.284V442.781H362.909V456.284H360.73ZM360.461 439.715V437.267H363.151V439.715H360.461Z" fill="black"/>
<path d="M371.927 456.526C370.6 456.526 369.586 456.149 368.887 455.396C368.188 454.625 367.838 453.468 367.838 451.926V444.476H365.202V442.781H367.838V439.096L370.017 438.478V442.781H373.89V444.476H370.017V451.684C370.017 452.76 370.196 453.531 370.555 453.997C370.931 454.446 371.487 454.67 372.222 454.67C372.563 454.67 372.868 454.643 373.137 454.589C373.406 454.517 373.648 454.437 373.863 454.347V456.176C373.612 456.284 373.307 456.364 372.949 456.418C372.608 456.49 372.267 456.526 371.927 456.526Z" fill="black"/>
<path d="M381.034 456.526C379.958 456.526 378.954 456.382 378.022 456.095C377.089 455.79 376.318 455.369 375.708 454.831L376.462 453.298C377.125 453.818 377.842 454.204 378.613 454.455C379.402 454.706 380.218 454.831 381.061 454.831C382.137 454.831 382.944 454.643 383.482 454.266C384.038 453.872 384.315 453.334 384.315 452.652C384.315 452.132 384.136 451.72 383.778 451.415C383.437 451.092 382.872 450.841 382.083 450.662L379.582 450.151C378.434 449.9 377.573 449.479 377 448.887C376.426 448.277 376.139 447.506 376.139 446.574C376.139 445.785 376.345 445.094 376.757 444.503C377.17 443.893 377.771 443.418 378.56 443.077C379.349 442.719 380.272 442.539 381.33 442.539C382.316 442.539 383.222 442.692 384.047 442.996C384.889 443.283 385.589 443.705 386.144 444.261L385.364 445.767C384.827 445.247 384.208 444.861 383.509 444.61C382.827 444.341 382.119 444.207 381.384 444.207C380.326 444.207 379.528 444.422 378.99 444.852C378.47 445.265 378.21 445.812 378.21 446.493C378.21 447.013 378.371 447.443 378.694 447.784C379.035 448.107 379.555 448.349 380.254 448.51L382.755 449.021C383.975 449.29 384.88 449.712 385.472 450.286C386.082 450.841 386.387 451.595 386.387 452.545C386.387 453.352 386.162 454.06 385.714 454.67C385.266 455.261 384.638 455.719 383.831 456.041C383.042 456.364 382.11 456.526 381.034 456.526Z" fill="black"/>
<path d="M400.503 456.284L395.5 442.781H397.813L401.982 454.67H401.283L405.587 442.781H407.469L411.692 454.67H411.02L415.216 442.781H417.421L412.391 456.284H410.293L405.936 444.207H407.012L402.628 456.284H400.503Z" fill="black"/>
<path d="M425.151 456.526C423.949 456.526 422.9 456.248 422.004 455.692C421.107 455.118 420.408 454.311 419.906 453.271C419.422 452.231 419.18 450.985 419.18 449.532C419.18 448.062 419.422 446.807 419.906 445.767C420.408 444.727 421.107 443.929 422.004 443.373C422.9 442.817 423.949 442.539 425.151 442.539C426.37 442.539 427.419 442.853 428.298 443.481C429.194 444.09 429.786 444.924 430.073 445.982H429.75L430.046 442.781H432.144C432.09 443.301 432.036 443.83 431.982 444.368C431.947 444.888 431.929 445.399 431.929 445.901V456.284H429.75V453.11H430.046C429.759 454.168 429.167 455.001 428.271 455.611C427.374 456.221 426.334 456.526 425.151 456.526ZM425.581 454.75C426.872 454.75 427.894 454.311 428.647 453.432C429.4 452.536 429.777 451.236 429.777 449.532C429.777 447.811 429.4 446.511 428.647 445.632C427.894 444.736 426.872 444.288 425.581 444.288C424.308 444.288 423.286 444.736 422.515 445.632C421.762 446.511 421.385 447.811 421.385 449.532C421.385 451.236 421.762 452.536 422.515 453.432C423.286 454.311 424.308 454.75 425.581 454.75Z" fill="black"/>
<path d="M435.472 462.389L434.961 460.587C435.803 460.39 436.503 460.157 437.059 459.888C437.632 459.637 438.108 459.296 438.484 458.866C438.861 458.435 439.183 457.897 439.452 457.252L440.152 455.665L440.098 456.579L434.208 442.781H436.574L441.443 454.643H440.743L445.558 442.781H447.844L441.604 457.413C441.246 458.274 440.851 458.991 440.421 459.565C439.99 460.157 439.524 460.632 439.022 460.991C438.538 461.367 438 461.663 437.408 461.878C436.817 462.093 436.171 462.264 435.472 462.389Z" fill="black"/>
<path d="M462.099 456.526C460.772 456.526 459.759 456.149 459.06 455.396C458.361 454.625 458.011 453.468 458.011 451.926V444.476H455.375V442.781H458.011V439.096L460.19 438.478V442.781H464.063V444.476H460.19V451.684C460.19 452.76 460.369 453.531 460.728 453.997C461.104 454.446 461.66 454.67 462.395 454.67C462.736 454.67 463.041 454.643 463.31 454.589C463.579 454.517 463.821 454.437 464.036 454.347V456.176C463.785 456.284 463.48 456.364 463.121 456.418C462.781 456.49 462.44 456.526 462.099 456.526Z" fill="black"/>
<path d="M472.125 456.526C470.834 456.526 469.704 456.248 468.736 455.692C467.785 455.118 467.05 454.311 466.53 453.271C466.01 452.213 465.75 450.967 465.75 449.532C465.75 448.08 466.01 446.834 466.53 445.794C467.05 444.754 467.785 443.956 468.736 443.4C469.704 442.826 470.834 442.539 472.125 442.539C473.434 442.539 474.563 442.826 475.514 443.4C476.482 443.956 477.226 444.754 477.746 445.794C478.284 446.834 478.553 448.08 478.553 449.532C478.553 450.967 478.284 452.213 477.746 453.271C477.226 454.311 476.482 455.118 475.514 455.692C474.563 456.248 473.434 456.526 472.125 456.526ZM472.125 454.75C473.416 454.75 474.438 454.311 475.191 453.432C475.944 452.536 476.32 451.236 476.32 449.532C476.32 447.811 475.935 446.511 475.164 445.632C474.411 444.736 473.398 444.288 472.125 444.288C470.851 444.288 469.838 444.736 469.085 445.632C468.332 446.511 467.956 447.811 467.956 449.532C467.956 451.236 468.332 452.536 469.085 453.432C469.838 454.311 470.851 454.75 472.125 454.75Z" fill="black"/>
<path d="M486.542 456.284L495.257 437.321H498.726L507.549 456.284H503.299L501.013 451.012L502.653 452.168H491.384L493.051 451.012L490.765 456.284H486.542ZM496.978 441.732L493.508 449.963L492.782 448.941H501.255L500.636 449.963L497.086 441.732H496.978Z" fill="black"/>
<path d="M509.184 456.284V437.321H522.067V440.576H513.38V445.202H521.449V448.43H513.38V456.284H509.184Z" fill="black"/>
<path d="M523.906 446.789C523.906 444.817 524.274 443.104 525.009 441.652C525.762 440.181 526.838 439.043 528.236 438.236C529.635 437.429 531.294 437.025 533.212 437.025C535.131 437.025 536.79 437.429 538.188 438.236C539.587 439.043 540.663 440.181 541.416 441.652C542.187 443.104 542.572 444.808 542.572 446.762C542.572 448.752 542.187 450.483 541.416 451.953C540.663 453.406 539.587 454.544 538.188 455.369C536.79 456.176 535.131 456.579 533.212 456.579C531.294 456.579 529.635 456.176 528.236 455.369C526.856 454.544 525.789 453.397 525.036 451.926C524.282 450.456 523.906 448.743 523.906 446.789ZM528.29 446.789C528.29 448.743 528.694 450.277 529.5 451.388C530.325 452.482 531.563 453.029 533.212 453.029C534.826 453.029 536.054 452.482 536.897 451.388C537.74 450.277 538.161 448.743 538.161 446.789C538.161 444.817 537.74 443.292 536.897 442.216C536.072 441.123 534.844 440.576 533.212 440.576C531.563 440.576 530.325 441.123 529.5 442.216C528.694 443.292 528.29 444.817 528.29 446.789Z" fill="black"/>
<path d="M545.852 456.284V437.321H550.048V452.76H558.601V456.284H545.852Z" fill="black"/>
<path d="M558.591 456.284L567.306 437.321H570.775L579.598 456.284H575.348L573.062 451.012L574.702 452.168H563.433L565.1 451.012L562.814 456.284H558.591ZM569.027 441.732L565.557 449.963L564.831 448.941H573.304L572.685 449.963L569.135 441.732H569.027Z" fill="black"/>
<path d="M581.233 456.284V437.321H589.974C592.054 437.321 593.659 437.761 594.789 438.639C595.918 439.518 596.483 440.719 596.483 442.243C596.483 443.373 596.142 444.332 595.461 445.121C594.798 445.91 593.883 446.439 592.718 446.708V446.278C594.08 446.511 595.129 447.031 595.865 447.838C596.618 448.627 596.994 449.658 596.994 450.931C596.994 452.617 596.393 453.935 595.192 454.885C594.009 455.817 592.368 456.284 590.27 456.284H581.233ZM585.24 453.164H589.759C590.799 453.164 591.597 452.966 592.153 452.572C592.709 452.177 592.987 451.55 592.987 450.689C592.987 449.81 592.709 449.183 592.153 448.806C591.597 448.412 590.799 448.214 589.759 448.214H585.24V453.164ZM585.24 445.121H589.221C590.315 445.121 591.122 444.924 591.642 444.53C592.162 444.135 592.422 443.543 592.422 442.754C592.422 441.983 592.162 441.401 591.642 441.006C591.122 440.612 590.315 440.414 589.221 440.414H585.24V445.121Z" fill="black"/>
<path d="M599.961 456.284V437.321H604.157V456.284H599.961Z" fill="black"/>
<path d="M318.633 489.872V470.91H331.813V474.165H322.641V478.603H331.167V481.884H322.641V486.618H331.813V489.872H318.633Z" fill="black"/>
<path d="M334.762 489.872V470.91H338.447L345.036 485.703H344.176L350.765 470.91H354.423V489.872H350.604V476.989H351.68L345.789 489.872H343.369L337.451 476.989H338.581V489.872H334.762Z" fill="black"/>
<path d="M358.349 489.872V470.91H362.034L368.624 485.703H367.763L374.353 470.91H378.011V489.872H374.191V476.989H375.267L369.377 489.872H366.956L361.039 476.989H362.168V489.872H358.349Z" fill="black"/>
<path d="M379.677 489.872L388.392 470.91H391.861L400.683 489.872H396.434L394.147 484.601L395.788 485.757H384.518L386.186 484.601L383.9 489.872H379.677ZM390.113 475.321L386.643 483.552L385.917 482.53H394.39L393.771 483.552L390.221 475.321H390.113Z" fill="black"/>
<path d="M402.318 489.872V470.91H405.438L415.74 484.009H415.014V470.91H418.914V489.872H415.794L405.519 476.774H406.218V489.872H402.318Z" fill="black"/>
<path d="M430.904 490.168C428.124 490.168 426.053 489.478 424.69 488.097C423.328 486.716 422.646 484.663 422.646 481.938V470.91H426.842V481.965C426.842 483.489 427.165 484.645 427.81 485.434C428.474 486.223 429.505 486.618 430.904 486.618C432.266 486.618 433.279 486.223 433.943 485.434C434.624 484.645 434.965 483.489 434.965 481.965V470.91H439.107V481.938C439.107 484.663 438.417 486.716 437.036 488.097C435.673 489.478 433.629 490.168 430.904 490.168Z" fill="black"/>
<path d="M442.821 489.872V470.91H456.001V474.165H446.829V478.603H455.355V481.884H446.829V486.618H456.001V489.872H442.821Z" fill="black"/>
<path d="M458.923 489.872V470.91H463.119V486.349H471.672V489.872H458.923Z" fill="black"/>
<path d="M216.203 306.046C214.166 306.046 212.493 304.378 212.493 302.346C212.493 300.314 214.166 298.646 216.203 298.646C218.241 298.646 219.914 300.314 219.914 302.346C219.914 304.378 218.241 306.046 216.203 306.046ZM216.203 299.435C214.592 299.435 213.253 300.739 213.253 302.376C213.253 304.014 214.561 305.318 216.203 305.318C217.846 305.318 219.153 304.014 219.153 302.376C219.153 300.739 217.815 299.435 216.203 299.435Z" fill="black"/>
<path d="M302.485 297.295C300.447 297.295 298.774 295.627 298.774 293.595C298.774 291.563 300.447 289.896 302.485 289.896C304.522 289.896 306.195 291.563 306.195 293.595C306.164 295.627 304.522 297.295 302.485 297.295ZM302.485 290.654C300.873 290.654 299.535 291.958 299.535 293.595C299.535 295.232 300.842 296.536 302.485 296.536C304.127 296.536 305.435 295.232 305.435 293.595C305.435 291.958 304.096 290.654 302.485 290.654Z" fill="black"/>
<path d="M254.832 239.5C250.118 239.5 246.256 235.649 246.256 230.919C246.256 226.188 250.118 222.367 254.832 222.367C259.576 222.367 263.408 226.218 263.408 230.919C263.438 235.649 259.576 239.5 254.832 239.5ZM254.832 223.398C250.696 223.398 247.29 226.794 247.29 230.919C247.29 235.043 250.666 238.439 254.832 238.439C258.998 238.439 262.374 235.073 262.374 230.919C262.374 226.764 258.998 223.398 254.832 223.398Z" fill="black"/>
<path d="M274.013 275.62H264.282C264.008 275.62 263.765 275.378 263.765 275.105V265.401C263.765 265.128 264.008 264.886 264.282 264.886H274.013C274.287 264.886 274.53 265.128 274.53 265.401V275.105C274.561 275.408 274.317 275.62 274.013 275.62ZM264.829 274.589H273.496V265.947H264.829V274.589V274.589Z" fill="black"/>
<path d="M328.135 248.476H324.303C324.029 248.476 323.786 248.233 323.786 247.96V244.14C323.786 243.867 324.029 243.624 324.303 243.624H328.135C328.409 243.624 328.652 243.867 328.652 244.14V247.96C328.682 248.233 328.439 248.476 328.135 248.476ZM324.851 247.445H327.618V244.685H324.851V247.445Z" fill="black"/>
<path d="M498.808 297.294C496.77 297.294 495.098 295.627 495.098 293.595C495.098 291.563 496.77 289.896 498.808 289.896C500.845 289.896 502.518 291.563 502.518 293.595C502.488 295.657 500.845 297.294 498.808 297.294ZM498.808 290.684C497.196 290.684 495.858 291.988 495.858 293.625C495.858 295.263 497.166 296.567 498.808 296.567C500.45 296.567 501.758 295.263 501.758 293.625C501.758 291.988 500.42 290.684 498.808 290.684Z" fill="black"/>
<path d="M480.766 252.265C478.728 252.265 477.056 250.597 477.056 248.566C477.056 246.534 478.728 244.866 480.766 244.866C482.803 244.866 484.476 246.534 484.476 248.566C484.476 250.628 482.803 252.265 480.766 252.265ZM480.766 245.655C479.154 245.655 477.816 246.959 477.816 248.596C477.816 250.234 479.124 251.537 480.766 251.537C482.408 251.537 483.716 250.234 483.716 248.596C483.716 246.959 482.378 245.655 480.766 245.655Z" fill="black"/>
<path d="M567.459 319.502C562.715 319.502 558.883 315.651 558.883 310.951C558.883 306.22 562.745 302.399 567.459 302.399C572.203 302.399 576.035 306.251 576.035 310.951C576.035 315.681 572.173 319.502 567.459 319.502ZM567.459 303.43C563.292 303.43 559.917 306.796 559.917 310.951C559.917 315.105 563.292 318.471 567.459 318.471C571.625 318.471 575.001 315.105 575.001 310.951C575.001 306.796 571.595 303.43 567.459 303.43Z" fill="black"/>
<path d="M529.109 280.616H519.377C519.104 280.616 518.86 280.374 518.86 280.101V270.397C518.86 270.124 519.104 269.882 519.377 269.882H529.109C529.383 269.882 529.626 270.124 529.626 270.397V280.101C529.626 280.374 529.413 280.616 529.109 280.616ZM519.894 279.555H528.562V270.913H519.894V279.555Z" fill="black"/>
<path d="M563.232 244.719H559.4C559.126 244.719 558.883 244.476 558.883 244.203V240.383C558.883 240.11 559.126 239.867 559.4 239.867H563.232C563.505 239.867 563.749 240.11 563.749 240.383V244.203C563.749 244.476 563.536 244.719 563.232 244.719ZM559.947 243.658H562.715V240.898H559.947V243.658Z" fill="black"/>
<path d="M440.015 324.951H370.495C361.31 324.951 353.799 317.461 353.799 308.303V239.013C353.799 229.855 361.31 222.365 370.495 222.365H439.985C449.169 222.365 456.681 229.855 456.681 239.013V308.303C456.711 317.461 449.199 324.951 440.015 324.951Z" fill="#DBDCE0"/>
<path d="M435.05 319.979H365.56C356.376 319.979 348.864 312.489 348.864 303.331V234.011C348.864 224.853 356.376 217.363 365.56 217.363H435.05C444.234 217.363 451.746 224.853 451.746 234.011V303.301C451.777 312.489 444.265 319.979 435.05 319.979Z" fill="black"/>
<g clip-path="url(#clip0_1159_7947)">
<path d="M387.648 287.544C386.182 286.069 386.182 283.702 387.648 282.227L418.704 250.975C420.169 249.499 422.522 249.499 423.987 250.975C425.453 252.45 425.453 254.817 423.987 256.292L392.932 287.544C391.466 289.02 389.114 289.02 387.648 287.544Z" fill="white"/>
<path d="M392.862 287.51C391.396 288.985 389.044 288.985 387.578 287.51L374.897 274.782C373.431 273.307 373.431 270.94 374.897 269.465C376.363 267.99 378.715 267.99 380.181 269.465L392.862 282.226C394.328 283.667 394.328 286.034 392.862 287.51Z" fill="white"/>
</g>
<rect x="284.391" y="550.223" width="220.218" height="80.6907" rx="16.8106" fill="black"/>
<path d="M362 588.302C362 586.311 362.359 584.59 363.076 583.137C363.811 581.685 364.86 580.564 366.223 579.775C367.586 578.968 369.208 578.565 371.091 578.565C372.956 578.565 374.57 578.968 375.933 579.775C377.295 580.564 378.344 581.685 379.08 583.137C379.833 584.59 380.209 586.302 380.209 588.275C380.209 590.265 379.833 591.995 379.08 593.466C378.344 594.918 377.295 596.048 375.933 596.855C374.57 597.662 372.956 598.065 371.091 598.065C369.208 598.065 367.586 597.662 366.223 596.855C364.878 596.048 363.838 594.918 363.103 593.466C362.368 591.995 362 590.274 362 588.302ZM365.631 588.302C365.631 590.435 366.088 592.103 367.003 593.304C367.917 594.506 369.28 595.106 371.091 595.106C372.848 595.106 374.202 594.506 375.153 593.304C376.103 592.103 376.578 590.435 376.578 588.302C376.578 586.15 376.103 584.482 375.153 583.299C374.22 582.115 372.866 581.523 371.091 581.523C369.28 581.523 367.917 582.115 367.003 583.299C366.088 584.482 365.631 586.15 365.631 588.302Z" fill="white"/>
<path d="M383.52 597.796V578H386.883V589.996H386.936L392.45 584.213H396.512L389.653 591.395L389.68 590.05L396.996 597.796H392.827L386.936 591.717H386.883V597.796H383.52Z" fill="white"/>
<path d="M403.475 598.065C402.291 598.065 401.251 597.787 400.355 597.231C399.458 596.657 398.759 595.842 398.257 594.784C397.755 593.726 397.503 592.462 397.503 590.991C397.503 589.521 397.755 588.266 398.257 587.226C398.759 586.168 399.458 585.361 400.355 584.805C401.251 584.231 402.291 583.944 403.475 583.944C404.622 583.944 405.626 584.231 406.487 584.805C407.366 585.361 407.948 586.114 408.235 587.064H407.939L408.235 584.213H411.463C411.409 584.769 411.355 585.334 411.302 585.908C411.266 586.481 411.248 587.046 411.248 587.602V597.796H407.913L407.886 594.999H408.208C407.922 595.931 407.339 596.675 406.46 597.231C405.581 597.787 404.586 598.065 403.475 598.065ZM404.416 595.483C405.474 595.483 406.326 595.115 406.971 594.38C407.617 593.627 407.939 592.497 407.939 590.991C407.939 589.485 407.617 588.364 406.971 587.629C406.326 586.894 405.474 586.526 404.416 586.526C403.358 586.526 402.506 586.894 401.861 587.629C401.215 588.364 400.892 589.485 400.892 590.991C400.892 592.497 401.206 593.627 401.834 594.38C402.479 595.115 403.34 595.483 404.416 595.483Z" fill="white"/>
<path d="M414.509 603.902L413.729 601.239C414.571 601.06 415.28 600.853 415.853 600.62C416.427 600.387 416.902 600.082 417.279 599.706C417.656 599.329 417.969 598.845 418.22 598.253L418.893 596.666L418.812 597.984L412.895 584.213H416.472L420.722 594.811H419.942L424.218 584.213H427.607L421.421 598.549C421.009 599.518 420.56 600.315 420.076 600.943C419.592 601.589 419.072 602.1 418.516 602.476C417.96 602.871 417.351 603.175 416.687 603.391C416.024 603.606 415.298 603.776 414.509 603.902Z" fill="white"/>
<path d="M335.774 120.2C333.869 120.2 332.087 119.965 330.429 119.494C328.77 119.024 327.358 118.374 326.192 117.544L327.739 113.443C328.501 113.958 329.308 114.395 330.16 114.754C331.011 115.112 331.908 115.393 332.849 115.594C333.791 115.774 334.777 115.863 335.808 115.863C337.422 115.863 338.565 115.617 339.237 115.124C339.932 114.63 340.28 114.003 340.28 113.241C340.28 112.546 340.044 112.019 339.574 111.661C339.125 111.28 338.296 110.955 337.086 110.686L333.118 109.879C330.944 109.43 329.319 108.668 328.243 107.592C327.167 106.517 326.629 105.082 326.629 103.289C326.629 101.765 327.033 100.442 327.84 99.3216C328.647 98.2009 329.779 97.3268 331.236 96.6992C332.715 96.0716 334.441 95.7578 336.413 95.7578C338.094 95.7578 339.663 95.9932 341.12 96.4639C342.577 96.9346 343.776 97.607 344.718 98.4811L343.171 102.314C342.252 101.574 341.221 101.025 340.078 100.666C338.957 100.285 337.702 100.095 336.312 100.095C334.855 100.095 333.735 100.353 332.95 100.868C332.188 101.384 331.807 102.09 331.807 102.986C331.807 103.659 332.042 104.208 332.513 104.634C332.984 105.037 333.813 105.362 335.001 105.609L338.901 106.382C341.12 106.83 342.768 107.581 343.843 108.635C344.919 109.688 345.457 111.089 345.457 112.837C345.457 114.317 345.054 115.605 344.247 116.704C343.462 117.802 342.342 118.665 340.885 119.293C339.45 119.898 337.747 120.2 335.774 120.2Z" fill="black"/>
<path d="M355.181 120.2C353.051 120.2 351.471 119.618 350.44 118.452C349.409 117.264 348.893 115.471 348.893 113.073V102.785H353.97V113.073C353.97 114.149 354.183 114.944 354.609 115.46C355.057 115.975 355.741 116.233 356.66 116.233C357.669 116.233 358.498 115.886 359.148 115.191C359.82 114.474 360.157 113.521 360.157 112.333V102.785H365.233V119.831H360.291V116.569H360.762C360.246 117.712 359.507 118.609 358.543 119.259C357.601 119.887 356.481 120.2 355.181 120.2Z" fill="black"/>
<path d="M377.62 120.2C375.805 120.2 374.213 119.842 372.846 119.124C371.479 118.407 370.425 117.376 369.685 116.031C368.946 114.686 368.576 113.095 368.576 111.257C368.576 109.397 368.946 107.817 369.685 106.517C370.448 105.194 371.501 104.186 372.846 103.491C374.213 102.796 375.805 102.448 377.62 102.448C378.763 102.448 379.873 102.617 380.949 102.953C382.047 103.289 382.943 103.76 383.638 104.365L382.159 107.861C381.599 107.346 380.949 106.965 380.209 106.718C379.492 106.449 378.797 106.315 378.124 106.315C376.757 106.315 375.692 106.741 374.93 107.592C374.168 108.444 373.787 109.677 373.787 111.291C373.787 112.905 374.168 114.137 374.93 114.989C375.692 115.841 376.757 116.267 378.124 116.267C378.774 116.267 379.458 116.143 380.175 115.897C380.915 115.65 381.576 115.28 382.159 114.787L383.638 118.25C382.921 118.856 382.013 119.337 380.915 119.696C379.839 120.032 378.741 120.2 377.62 120.2Z" fill="black"/>
<path d="M394.398 120.2C392.582 120.2 390.991 119.842 389.624 119.124C388.256 118.407 387.203 117.376 386.463 116.031C385.724 114.686 385.354 113.095 385.354 111.257C385.354 109.397 385.724 107.817 386.463 106.517C387.225 105.194 388.279 104.186 389.624 103.491C390.991 102.796 392.582 102.448 394.398 102.448C395.541 102.448 396.65 102.617 397.726 102.953C398.825 103.289 399.721 103.76 400.416 104.365L398.937 107.861C398.376 107.346 397.726 106.965 396.987 106.718C396.269 106.449 395.575 106.315 394.902 106.315C393.535 106.315 392.47 106.741 391.708 107.592C390.946 108.444 390.565 109.677 390.565 111.291C390.565 112.905 390.946 114.137 391.708 114.989C392.47 115.841 393.535 116.267 394.902 116.267C395.552 116.267 396.236 116.143 396.953 115.897C397.693 115.65 398.354 115.28 398.937 114.787L400.416 118.25C399.699 118.856 398.791 119.337 397.693 119.696C396.617 120.032 395.518 120.2 394.398 120.2Z" fill="black"/>
<path d="M411.545 120.2C408.587 120.2 406.278 119.405 404.619 117.813C402.961 116.222 402.131 114.059 402.131 111.324C402.131 109.554 402.479 108.007 403.174 106.685C403.891 105.362 404.877 104.331 406.132 103.592C407.41 102.829 408.9 102.448 410.604 102.448C412.285 102.448 413.686 102.807 414.807 103.524C415.95 104.242 416.801 105.25 417.362 106.55C417.945 107.828 418.236 109.318 418.236 111.022V112.199H406.3V109.677H414.538L413.966 110.148C413.966 108.736 413.675 107.671 413.092 106.954C412.532 106.214 411.713 105.844 410.638 105.844C409.45 105.844 408.531 106.281 407.881 107.155C407.253 108.03 406.939 109.285 406.939 110.921V111.459C406.939 113.118 407.343 114.35 408.15 115.157C408.979 115.964 410.167 116.368 411.713 116.368C412.632 116.368 413.495 116.255 414.302 116.031C415.132 115.785 415.916 115.404 416.656 114.888L418.068 118.25C417.216 118.878 416.23 119.36 415.109 119.696C414.011 120.032 412.823 120.2 411.545 120.2Z" fill="black"/>
<path d="M427.744 120.2C426.22 120.2 424.83 120.032 423.575 119.696C422.32 119.36 421.255 118.889 420.381 118.284L421.692 114.922C422.566 115.46 423.53 115.886 424.584 116.199C425.66 116.513 426.724 116.67 427.778 116.67C428.764 116.67 429.492 116.513 429.963 116.199C430.434 115.886 430.669 115.46 430.669 114.922C430.669 114.474 430.512 114.126 430.198 113.88C429.907 113.633 429.448 113.454 428.82 113.342L425.357 112.703C423.9 112.411 422.791 111.874 422.029 111.089C421.266 110.305 420.885 109.285 420.885 108.03C420.885 106.931 421.177 105.967 421.76 105.138C422.365 104.286 423.228 103.625 424.348 103.154C425.469 102.684 426.78 102.448 428.282 102.448C429.56 102.448 430.77 102.605 431.913 102.919C433.056 103.233 434.031 103.715 434.838 104.365L433.46 107.626C432.765 107.111 431.958 106.696 431.039 106.382C430.142 106.068 429.28 105.911 428.45 105.911C427.374 105.911 426.601 106.091 426.13 106.449C425.66 106.786 425.424 107.223 425.424 107.761C425.424 108.164 425.559 108.5 425.828 108.769C426.119 109.038 426.556 109.24 427.139 109.374L430.636 110.013C432.137 110.282 433.28 110.786 434.065 111.526C434.849 112.266 435.242 113.286 435.242 114.586C435.242 115.774 434.928 116.782 434.3 117.612C433.673 118.441 432.787 119.08 431.644 119.528C430.523 119.976 429.223 120.2 427.744 120.2Z" fill="black"/>
<path d="M444.686 120.2C443.162 120.2 441.772 120.032 440.517 119.696C439.262 119.36 438.197 118.889 437.323 118.284L438.634 114.922C439.508 115.46 440.472 115.886 441.526 116.199C442.602 116.513 443.666 116.67 444.72 116.67C445.706 116.67 446.434 116.513 446.905 116.199C447.376 115.886 447.611 115.46 447.611 114.922C447.611 114.474 447.454 114.126 447.14 113.88C446.849 113.633 446.389 113.454 445.762 113.342L442.299 112.703C440.842 112.411 439.733 111.874 438.97 111.089C438.208 110.305 437.827 109.285 437.827 108.03C437.827 106.931 438.119 105.967 438.701 105.138C439.307 104.286 440.17 103.625 441.29 103.154C442.411 102.684 443.722 102.448 445.224 102.448C446.502 102.448 447.712 102.605 448.855 102.919C449.998 103.233 450.973 103.715 451.78 104.365L450.402 107.626C449.707 107.111 448.9 106.696 447.981 106.382C447.084 106.068 446.221 105.911 445.392 105.911C444.316 105.911 443.543 106.091 443.072 106.449C442.602 106.786 442.366 107.223 442.366 107.761C442.366 108.164 442.501 108.5 442.77 108.769C443.061 109.038 443.498 109.24 444.081 109.374L447.577 110.013C449.079 110.282 450.222 110.786 451.007 111.526C451.791 112.266 452.184 113.286 452.184 114.586C452.184 115.774 451.87 116.782 451.242 117.612C450.615 118.441 449.729 119.08 448.586 119.528C447.465 119.976 446.165 120.2 444.686 120.2Z" fill="black"/>
<path d="M456.08 112.333L454.5 96.1276H460.754L459.14 112.333H456.08ZM454.904 119.831V114.451H460.35V119.831H454.904Z" fill="black"/>
<defs>
<filter id="filter0_d_1159_7947" x="0.736322" y="0.952152" width="837.959" height="818.819" filterUnits="userSpaceOnUse" color-interpolation-filters="sRGB">
<feFlood flood-opacity="0" result="BackgroundImageFix"/>
<feColorMatrix in="SourceAlpha" type="matrix" values="0 0 0 0 0 0 0 0 0 0 0 0 0 0 0 0 0 0 127 0" result="hardAlpha"/>
<feOffset dx="25.2158" dy="50.4317"/>
<feGaussianBlur stdDeviation="33.6211"/>
<feColorMatrix type="matrix" values="0 0 0 0 0.25098 0 0 0 0 0.0980392 0 0 0 0 0.427451 0 0 0 0.07 0"/>
<feBlend mode="normal" in2="BackgroundImageFix" result="effect1_dropShadow_1159_7947"/>
<feBlend mode="normal" in="SourceGraphic" in2="effect1_dropShadow_1159_7947" result="shape"/>
</filter>
<clipPath id="clip0_1159_7947">
<rect width="51.2704" height="38.7654" fill="white" transform="translate(373.809 249.878)"/>
</clipPath>
</defs>
</svg>
